M48
; DRILL file KiCad 10.0.4 date 2026-08-10T15:34:50
; FORMAT={-:-/ absolute / inch / decimal}
; #@! TF.CreationDate,2026-08-10T15:34:50-04:00
; #@! TF.GenerationSoftware,Kicad,Pcbnew,10.0.4
; #@! TF.FileFunction,Plated,1,4,PTH
FMAT,2
INCH
; #@! TA.AperFunction,Plated,PTH,ComponentDrill
T1C0.0079
; #@! TA.AperFunction,Plated,PTH,ViaDrill
T2C0.0118
; #@! TA.AperFunction,Plated,PTH,ComponentDrill
T3C0.0118
; #@! TA.AperFunction,Plated,PTH,ComponentDrill
T4C0.0236
; #@! TA.AperFunction,Plated,PTH,ComponentDrill
T5C0.0295
; #@! TA.AperFunction,Plated,PTH,ComponentDrill
T6C0.0394
%
G90
G05
T1
X2.1061Y-3.3368
X2.1514Y-3.2915
X2.1514Y-3.3368
X2.1514Y-3.3821
X2.1967Y-3.3368
T2
X1.3701Y-3.075
X1.3701Y-3.1404
X1.3701Y-3.2028
X1.3701Y-3.2651
X1.3701Y-3.3275
X1.3701Y-3.3898
X1.3701Y-3.4521
X1.3701Y-3.5144
X1.3701Y-3.5768
X1.4173Y-1.8839
X1.4238Y-3.0074
X1.4238Y-3.075
X1.4252Y-2.0492
X1.4272Y-2.3406
X1.4291Y-2.2067
X1.4429Y-1.9744
X1.4542Y-1.9336
X1.4741Y-2.2275
X1.4803Y-3.5177
X1.4921Y-2.8012
X1.4923Y-3.0074
X1.4923Y-3.0743
X1.5059Y-3.3976
X1.5217Y-1.7815
X1.5256Y-2.0276
X1.5413Y-3.6004
X1.5492Y-1.9429
X1.5531Y-3.126
X1.5591Y-3.2835
X1.5608Y-3.0074
X1.5608Y-3.0743
X1.5669Y-2.311
X1.568Y-2.0699
X1.5709Y-2.4783
X1.5807Y-3.1831
X1.5827Y-2.6949
X1.5925Y-3.5945
X1.5965Y-2.128
X1.5988Y-3.1259
X1.6004Y-2.3346
X1.6043Y-2.2146
X1.6142Y-2.0217
X1.6293Y-3.0074
X1.6293Y-3.0743
X1.6299Y-1.9961
X1.6437Y-1.9508
X1.6555Y-2.248
X1.6758Y-1.998
X1.687Y-3.5354
X1.6978Y-3.0074
X1.6978Y-3.0743
X1.6988Y-3.1614
X1.7008Y-2.5413
X1.7008Y-2.6457
X1.7008Y-2.6811
X1.7124Y-2.1275
X1.7126Y-2.1654
X1.7306Y-2.0234
X1.7343Y-2.2205
X1.7362Y-2.3071
X1.748Y-2.3583
X1.75Y-2.7559
X1.7618Y-2.5
X1.7662Y-3.0743
X1.7677Y-3.1063
X1.77Y-2.1559
X1.7717Y-2.5709
X1.7736Y-1.9841
X1.7913Y-3.126
X1.7933Y-2.6122
X1.7933Y-2.6417
X1.8031Y-2.3484
X1.8091Y-3.5689
X1.811Y-2.2205
X1.815Y-2.2933
X1.8347Y-3.0743
X1.8465Y-2.1535
X1.8681Y-2.5
X1.8799Y-2.0984
X1.8841Y-1.9041
X1.8957Y-2.9823
X1.9032Y-3.0743
X1.9134Y-3.3358
X1.9244Y-3.3632
X1.9252Y-2.6752
X1.9389Y-2.7501
X1.9428Y-2.9732
X1.9436Y-3.0335
X1.9436Y-3.1036
X1.9437Y-3.0027
X1.9469Y-3.2106
X1.9587Y-2.4724
X1.9717Y-3.0743
X1.9744Y-3.1102
X1.9823Y-2.7598
X1.9882Y-2.4744
X1.9902Y-2.2539
X1.9902Y-3.2854
X1.998Y-2.8681
X2.0039Y-2.3976
X2.0098Y-2.0866
X2.0177Y-3.4193
X2.0197Y-2.4744
X2.0228Y-3.5411
X2.0256Y-3.2087
X2.0276Y-3.1339
X2.029Y-3.3431
X2.0394Y-1.8957
X2.0402Y-3.0743
X2.0433Y-2.6732
X2.0433Y-3.0098
X2.0669Y-2.5689
X2.0709Y-2.1634
X2.0855Y-2.8211
X2.0965Y-3.0709
X2.0965Y-3.5591
X2.0974Y-2.7717
X2.0988Y-3.2028
X2.0992Y-2.8472
X2.1102Y-2.4055
X2.1181Y-2.9921
X2.1315Y-2.8456
X2.1319Y-2.9154
X2.1319Y-3.5413
X2.1358Y-3.04
X2.1378Y-2.628
X2.1417Y-2.4272
X2.1421Y-3.1378
X2.1437Y-2.75
X2.1531Y-2.8657
X2.1575Y-1.9843
X2.1673Y-2.185
X2.1772Y-3.5335
X2.1772Y-3.0743
X2.1791Y-2.937
X2.1909Y-2.8185
X2.2114Y-2.7659
X2.2165Y-2.065
X2.2205Y-2.8563
X2.2264Y-3.1575
X2.2283Y-2.5315
X2.2382Y-2.561
X2.2402Y-2.4819
X2.2402Y-2.6063
X2.2402Y-2.9941
X2.2421Y-3.1831
X2.2425Y-3.5043
X2.2441Y-2.6575
X2.2457Y-3.0743
X2.25Y-2.689
X2.25Y-2.8937
X2.2756Y-1.9803
X2.2776Y-2.0413
X2.2815Y-2.3248
X2.2835Y-2.1673
X2.2854Y-3.1339
X2.2913Y-2.1988
X2.2933Y-3.4862
X2.2992Y-2.4173
X2.3141Y-3.0743
X2.3169Y-3.5099
X2.3425Y-2.0827
X2.3425Y-2.4154
X2.3504Y-3.1102
X2.3543Y-3.0315
X2.3563Y-2.126
X2.3563Y-2.1693
X2.3563Y-3.0669
X2.3622Y-2.939
X2.3642Y-1.9626
X2.3681Y-2.3248
X2.3701Y-2.376
X2.4035Y-3.3425
X2.408Y-3.1789
X2.437Y-3.248
X2.437Y-3.4252
X2.439Y-3.3071
X2.4567Y-3.1772
X2.4596Y-2.5561
X2.5217Y-2.5118
X2.5531Y-3.5098
X2.5571Y-3.5453
T3
X1.3612Y-2.9582
T5
X1.5033Y-2.4114
X1.5821Y-2.4114
T6
X1.4925Y-2.5591
X1.5925Y-2.5591
T4
G00X1.7945Y-1.7636
M15
G01X1.7945Y-1.74
M16
G05
G00X1.7945Y-1.938
M15
G01X1.7945Y-1.8947
M16
G05
G00X2.1346Y-1.7636
M15
G01X2.1346Y-1.74
M16
G05
G00X2.1346Y-1.938
M15
G01X2.1346Y-1.8947
M16
G05
M30
