%TF.GenerationSoftware,KiCad,Pcbnew,10.0.4*%
%TF.CreationDate,2026-08-10T15:34:50-04:00*%
%TF.ProjectId,ECG,4543472e-6b69-4636-9164-5f7063625858,rev?*%
%TF.SameCoordinates,Original*%
%TF.FileFunction,Copper,L4,Bot*%
%TF.FilePolarity,Positive*%
%FSLAX46Y46*%
G04 Gerber Fmt 4.6, Leading zero omitted, Abs format (unit mm)*
G04 Created by KiCad (PCBNEW 10.0.4) date 2026-08-10 15:34:50*
%MOMM*%
%LPD*%
G01*
G04 APERTURE LIST*
G04 Aperture macros list*
%AMRoundRect*
0 Rectangle with rounded corners*
0 $1 Rounding radius*
0 $2 $3 $4 $5 $6 $7 $8 $9 X,Y pos of 4 corners*
0 Add a 4 corners polygon primitive as box body*
4,1,4,$2,$3,$4,$5,$6,$7,$8,$9,$2,$3,0*
0 Add four circle primitives for the rounded corners*
1,1,$1+$1,$2,$3*
1,1,$1+$1,$4,$5*
1,1,$1+$1,$6,$7*
1,1,$1+$1,$8,$9*
0 Add four rect primitives between the rounded corners*
20,1,$1+$1,$2,$3,$4,$5,0*
20,1,$1+$1,$4,$5,$6,$7,0*
20,1,$1+$1,$6,$7,$8,$9,0*
20,1,$1+$1,$8,$9,$2,$3,0*%
G04 Aperture macros list end*
%TA.AperFunction,ComponentPad*%
%ADD10R,1.700000X1.700000*%
%TD*%
%TA.AperFunction,ComponentPad*%
%ADD11C,1.700000*%
%TD*%
%TA.AperFunction,ComponentPad*%
%ADD12O,1.000000X2.100000*%
%TD*%
%TA.AperFunction,ComponentPad*%
%ADD13O,1.000000X1.600000*%
%TD*%
%TA.AperFunction,ComponentPad*%
%ADD14R,0.500000X0.900000*%
%TD*%
%TA.AperFunction,ComponentPad*%
%ADD15C,0.500000*%
%TD*%
%TA.AperFunction,ComponentPad*%
%ADD16RoundRect,0.250000X-0.350000X-0.625000X0.350000X-0.625000X0.350000X0.625000X-0.350000X0.625000X0*%
%TD*%
%TA.AperFunction,ComponentPad*%
%ADD17O,1.200000X1.750000*%
%TD*%
%TA.AperFunction,ViaPad*%
%ADD18C,0.600000*%
%TD*%
%TA.AperFunction,ViaPad*%
%ADD19C,0.500000*%
%TD*%
%TA.AperFunction,Conductor*%
%ADD20C,0.200000*%
%TD*%
G04 APERTURE END LIST*
D10*
%TO.P,TH1,1*%
%TO.N,/NTC*%
X37910000Y-65000000D03*
D11*
%TO.P,TH1,2*%
%TO.N,GND*%
X40450000Y-65000000D03*
%TD*%
D12*
%TO.P,J1,SH*%
%TO.N,N/C*%
X54220000Y-48675000D03*
D13*
X54220000Y-44495000D03*
D12*
X45580000Y-48675000D03*
D13*
X45580000Y-44495000D03*
%TD*%
D14*
%TO.P,AE1,2*%
%TO.N,GND*%
X34575000Y-75137500D03*
%TD*%
D15*
%TO.P,U10,33_1,EXP__1_33_1*%
%TO.N,GND*%
X53495000Y-84755000D03*
%TO.P,U10,33_2,EXP__2_33_2*%
X54645000Y-85905000D03*
%TO.P,U10,33_3,EXP__3_33_3*%
X54645000Y-84755000D03*
%TO.P,U10,33_4,EXP__4_33_4*%
X54645000Y-83605000D03*
%TO.P,U10,33_5,EXP__5_33_5*%
X55795000Y-84755000D03*
%TD*%
D16*
%TO.P,J2,1,Pin_1_1*%
%TO.N,GND*%
X38185000Y-61250000D03*
D17*
%TO.P,J2,2,Pin_2_2*%
%TO.N,+BATT*%
X40185000Y-61250000D03*
%TD*%
D18*
%TO.N,+3.3V*%
X57950000Y-59050000D03*
X53310000Y-81350000D03*
X46100000Y-58250000D03*
X44050000Y-56400000D03*
X50350000Y-70100000D03*
X50550000Y-57250000D03*
X40150000Y-80850000D03*
X43957628Y-51394915D03*
X56900000Y-66200000D03*
X56950000Y-80850000D03*
X41000000Y-51350000D03*
X48600000Y-84728674D03*
X45000000Y-65300000D03*
X56900000Y-76050000D03*
X58200000Y-55850000D03*
X46000000Y-56400000D03*
X53800000Y-76000000D03*
X57850000Y-51850000D03*
D19*
%TO.N,GND*%
X39643750Y-76387500D03*
D18*
X60150000Y-59050000D03*
D19*
X39643750Y-78087500D03*
D18*
X37900000Y-71150000D03*
X57150000Y-73500000D03*
D19*
X44862500Y-78087500D03*
D18*
X45050000Y-50395000D03*
D19*
X46602084Y-78087500D03*
D18*
X45950000Y-90650000D03*
X39350000Y-49350000D03*
X48150000Y-75750000D03*
D19*
X55300001Y-78087500D03*
D18*
X42050000Y-57100000D03*
X40610001Y-79398819D03*
D19*
X34800000Y-86100667D03*
D18*
X51450000Y-81500000D03*
X38650000Y-45250000D03*
X56960212Y-89010212D03*
X55050000Y-55500000D03*
D19*
X36164583Y-78103750D03*
D18*
X51900000Y-67900000D03*
D19*
X37904166Y-78087500D03*
X34800000Y-78103750D03*
X37904166Y-76387500D03*
X57039584Y-78087500D03*
X34800000Y-90850000D03*
D18*
X40200000Y-68450000D03*
X57800000Y-50300000D03*
D19*
X51820834Y-78087500D03*
X48341667Y-78087500D03*
X34800000Y-81350667D03*
D18*
X36250000Y-59450000D03*
X50750000Y-72850000D03*
D19*
X43122916Y-78087500D03*
X34800000Y-79767334D03*
X41383333Y-76387500D03*
D18*
X38250000Y-86300000D03*
X51050000Y-53000000D03*
D19*
X41383333Y-78087500D03*
X58779168Y-78087500D03*
D18*
X59500000Y-61350000D03*
X54800000Y-50400000D03*
D19*
X34800000Y-82934000D03*
D18*
X39450000Y-79400000D03*
D19*
X34800000Y-84517334D03*
D18*
X44100000Y-58600000D03*
X42565000Y-50750000D03*
D19*
X34800000Y-89267000D03*
D18*
X49247182Y-69852818D03*
X36936091Y-49113909D03*
D19*
X34800000Y-87684000D03*
D18*
X51250000Y-86850000D03*
D19*
X43122916Y-76387500D03*
X36164583Y-76387500D03*
D18*
X44750000Y-63500000D03*
D19*
X50081250Y-78087500D03*
X53250000Y-78000000D03*
D18*
X60000000Y-74650000D03*
%TO.N,+VSW*%
X36300000Y-56050000D03*
X37442069Y-56577321D03*
X55650000Y-71588909D03*
X36200000Y-52050000D03*
X41400000Y-50700000D03*
X46900000Y-54700000D03*
X52600000Y-54950000D03*
X45800000Y-59650000D03*
X44400000Y-59900000D03*
X44450000Y-70000000D03*
X43495735Y-54039337D03*
%TO.N,/E-*%
X54150000Y-89950000D03*
X58850521Y-89150521D03*
%TO.N,+3.3VA*%
X50550000Y-83450000D03*
X51536091Y-84913909D03*
X51500000Y-79600000D03*
X58050000Y-79600000D03*
X39600000Y-83400000D03*
%TO.N,Net-(C29-Pad1)*%
X61050000Y-84900000D03*
X51379479Y-89943583D03*
%TO.N,Net-(U10-RLDOUT)*%
X59700000Y-79000000D03*
X50150000Y-79000000D03*
X48879962Y-85424465D03*
X49450000Y-81550000D03*
%TO.N,/D2*%
X61900000Y-82500000D03*
X40450000Y-91300000D03*
%TO.N,/IO0*%
X39900000Y-62950000D03*
X43200000Y-64550000D03*
X36000000Y-47850000D03*
X48900000Y-67950000D03*
%TO.N,/AD1*%
X59850000Y-77900000D03*
X61164400Y-80743283D03*
%TO.N,/AD2*%
X59800000Y-77000000D03*
X62400000Y-80700000D03*
%TO.N,Net-(U1-VDD_SPI)*%
X60200000Y-60350000D03*
X54400000Y-61650000D03*
%TO.N,/AD59CS*%
X49370772Y-76269301D03*
X53320036Y-72320036D03*
%TO.N,/CLK*%
X54250001Y-77216656D03*
X54450000Y-69850000D03*
X51900000Y-76450000D03*
X52970488Y-71656470D03*
X49347507Y-75519659D03*
X57000000Y-67500000D03*
%TO.N,/MOSI*%
X54688909Y-72788909D03*
X45500000Y-79400000D03*
%TO.N,/AD59INT*%
X53274350Y-70400000D03*
X56550000Y-80200000D03*
X43150000Y-80300000D03*
X56400000Y-72550000D03*
%TO.N,Net-(U4-AVDD)*%
X42850000Y-89800000D03*
X37600000Y-89350000D03*
%TO.N,/D3*%
X61950000Y-84000000D03*
X39150000Y-91450000D03*
X64950000Y-90050000D03*
%TO.N,/D4*%
X61900000Y-87000000D03*
X53250000Y-90400000D03*
X64850000Y-89150000D03*
%TO.N,/ADSCS*%
X55350000Y-74600000D03*
X54150000Y-74050000D03*
%TO.N,/Reset*%
X58400000Y-61400000D03*
X47449998Y-63500000D03*
X60050000Y-49850000D03*
X59500000Y-52900000D03*
%TO.N,Net-(D3-A)*%
X47750000Y-53300000D03*
X56300000Y-52450000D03*
%TO.N,/E+*%
X58249479Y-88549479D03*
X55300000Y-89750000D03*
%TO.N,Net-(D2-K)*%
X36650000Y-50150000D03*
X41750000Y-49550000D03*
%TO.N,Net-(U1-XTAL_N)*%
X43200000Y-67200000D03*
X45550000Y-66349997D03*
%TO.N,/MISO*%
X54300000Y-66750000D03*
X49367891Y-78832109D03*
X44900000Y-78900000D03*
X49367891Y-77050000D03*
X56168668Y-70253514D03*
X54139183Y-72278708D03*
X54410000Y-79700000D03*
%TO.N,+5V*%
X44958750Y-54758750D03*
X43500000Y-55000000D03*
%TO.N,Net-(U1-SPICS0)*%
X51300000Y-62850000D03*
X56900000Y-63040000D03*
%TO.N,Net-(U1-SPIQ)*%
X56600000Y-64300000D03*
X50500000Y-62850000D03*
%TO.N,Net-(U1-SPIWP)*%
X56850000Y-65050000D03*
X52500000Y-65250000D03*
%TO.N,Net-(U1-SPID)*%
X49751667Y-62800000D03*
X57150000Y-68300000D03*
%TO.N,Net-(U1-SPICLK)*%
X50900000Y-60900000D03*
X62475000Y-64926094D03*
%TO.N,Net-(U1-SPIHD)*%
X64050000Y-63800000D03*
X53600000Y-61100000D03*
%TO.N,/SYSOFF*%
X59850000Y-54000000D03*
X40750000Y-56250000D03*
X40550000Y-54050000D03*
%TO.N,VBUS*%
X51800000Y-48150000D03*
X47856950Y-48364778D03*
%TO.N,/NTC*%
X39826091Y-52576091D03*
X39800000Y-58700000D03*
%TO.N,Net-(U1-XTAL_P)*%
X45550000Y-67100000D03*
X43200000Y-68100000D03*
%TO.N,+BATT*%
X40650000Y-59300000D03*
X59850000Y-55100000D03*
X38750000Y-51500000D03*
X58000000Y-55050000D03*
%TD*%
%TO.N,+3.3V*%
D20*
X50350000Y-70100000D02*
X50272182Y-70100000D01*
X53850000Y-76050000D02*
X53800000Y-76000000D01*
X59300000Y-73650000D02*
X56900000Y-76050000D01*
X44050000Y-56400000D02*
X46000000Y-56400000D01*
X41044915Y-51394915D02*
X43957628Y-51394915D01*
X48600000Y-80850000D02*
X40150000Y-80850000D01*
X48600000Y-80850000D02*
X52810000Y-80850000D01*
X46100000Y-58250000D02*
X48900000Y-58250000D01*
X57850000Y-51850000D02*
X57394915Y-51394915D01*
X57394915Y-51394915D02*
X43957628Y-51394915D01*
X50272182Y-70100000D02*
X45472182Y-65300000D01*
X57950000Y-59050000D02*
X57950000Y-56100000D01*
X57900000Y-66200000D02*
X59300000Y-67600000D01*
X48600000Y-80850000D02*
X48600000Y-84728674D01*
X48900000Y-58250000D02*
X49900000Y-57250000D01*
X45472182Y-65300000D02*
X45000000Y-65300000D01*
X56900000Y-66200000D02*
X57900000Y-66200000D01*
X56900000Y-76050000D02*
X53850000Y-76050000D01*
X57950000Y-56100000D02*
X58200000Y-55850000D01*
X49900000Y-57250000D02*
X50550000Y-57250000D01*
X59300000Y-67600000D02*
X59300000Y-73650000D01*
X56450000Y-81350000D02*
X56950000Y-80850000D01*
X53310000Y-81350000D02*
X56450000Y-81350000D01*
X52810000Y-80850000D02*
X53310000Y-81350000D01*
X41000000Y-51350000D02*
X41044915Y-51394915D01*
%TO.N,GND*%
X58779168Y-75870832D02*
X60000000Y-74650000D01*
X39451181Y-79398819D02*
X39450000Y-79400000D01*
X40610001Y-79398819D02*
X39451181Y-79398819D01*
X58779168Y-78087500D02*
X58779168Y-75870832D01*
%TO.N,+VSW*%
X49588909Y-71050000D02*
X49050000Y-71588909D01*
X55650000Y-71400000D02*
X55300000Y-71050000D01*
X46900000Y-54039337D02*
X51689337Y-54039337D01*
X45800000Y-59650000D02*
X44650000Y-59650000D01*
X36300000Y-56050000D02*
X36300000Y-56177321D01*
X36950000Y-50700000D02*
X36200000Y-51450000D01*
X36700000Y-56577321D02*
X37442069Y-56577321D01*
X55650000Y-71588909D02*
X55650000Y-71400000D01*
X51689337Y-54039337D02*
X52600000Y-54950000D01*
X46038909Y-71588909D02*
X44450000Y-70000000D01*
X44650000Y-59650000D02*
X44400000Y-59900000D01*
X36200000Y-51450000D02*
X36200000Y-52050000D01*
X43495735Y-54039337D02*
X46900000Y-54039337D01*
X46900000Y-54039337D02*
X46900000Y-54700000D01*
X55300000Y-71050000D02*
X49588909Y-71050000D01*
X49050000Y-71588909D02*
X46038909Y-71588909D01*
X36300000Y-56177321D02*
X36700000Y-56577321D01*
X36950000Y-50700000D02*
X41400000Y-50700000D01*
%TO.N,/E-*%
X54150000Y-89950000D02*
X54850000Y-90650000D01*
X58567678Y-89150521D02*
X58850521Y-89150521D01*
X54850000Y-90650000D02*
X57068199Y-90650000D01*
X57068199Y-90650000D02*
X58567678Y-89150521D01*
%TO.N,+3.3VA*%
X39600000Y-83400000D02*
X39600000Y-80600000D01*
X50550000Y-83450000D02*
X50550000Y-83927818D01*
X41450000Y-79950000D02*
X41950000Y-79450000D01*
X40250000Y-79950000D02*
X41450000Y-79950000D01*
X50400000Y-79950000D02*
X51150000Y-79950000D01*
X39600000Y-80600000D02*
X40250000Y-79950000D01*
X51500000Y-79600000D02*
X53532182Y-79600000D01*
X53532182Y-79600000D02*
X53882182Y-79950000D01*
X41950000Y-79450000D02*
X44700000Y-79450000D01*
X44700000Y-79450000D02*
X45200000Y-79950000D01*
X54232182Y-80300000D02*
X54800000Y-80300000D01*
X54800000Y-80300000D02*
X55500000Y-79600000D01*
X45200000Y-79950000D02*
X50400000Y-79950000D01*
X53882182Y-79950000D02*
X54232182Y-80300000D01*
X55500000Y-79600000D02*
X58050000Y-79600000D01*
X51150000Y-79950000D02*
X51500000Y-79600000D01*
X50550000Y-83927818D02*
X51536091Y-84913909D01*
%TO.N,Net-(C29-Pad1)*%
X55450000Y-86550000D02*
X55013469Y-86986531D01*
X54336531Y-86986531D02*
X51379479Y-89943583D01*
X60850000Y-84900000D02*
X60300000Y-85450000D01*
X60300000Y-85450000D02*
X55873062Y-85450000D01*
X55873062Y-85450000D02*
X55450000Y-85873062D01*
X55450000Y-85873062D02*
X55450000Y-86550000D01*
X55013469Y-86986531D02*
X54336531Y-86986531D01*
X61050000Y-84900000D02*
X60850000Y-84900000D01*
%TO.N,Net-(U10-RLDOUT)*%
X49349599Y-84954828D02*
X48879962Y-85424465D01*
X50150000Y-79000000D02*
X50550000Y-78600000D01*
X49450000Y-81550000D02*
X49349599Y-81650401D01*
X49349599Y-81650401D02*
X49349599Y-84954828D01*
X50550000Y-78600000D02*
X59300000Y-78600000D01*
X59300000Y-78600000D02*
X59700000Y-79000000D01*
%TO.N,/D2*%
X50500000Y-82500000D02*
X49750000Y-83250000D01*
X49750000Y-86050000D02*
X44500000Y-91300000D01*
X44500000Y-91300000D02*
X40450000Y-91300000D01*
X49750000Y-83250000D02*
X49750000Y-86050000D01*
X61900000Y-82500000D02*
X50500000Y-82500000D01*
%TO.N,/IO0*%
X36800000Y-62950000D02*
X35650000Y-61800000D01*
X48900000Y-67950000D02*
X45500000Y-64550000D01*
X35650000Y-48200000D02*
X36000000Y-47850000D01*
X39900000Y-62950000D02*
X36800000Y-62950000D01*
X35650000Y-61800000D02*
X35650000Y-48200000D01*
X45500000Y-64550000D02*
X43200000Y-64550000D01*
%TO.N,/AD1*%
X59850000Y-77900000D02*
X61164400Y-79214400D01*
X61164400Y-79214400D02*
X61164400Y-80743283D01*
%TO.N,/AD2*%
X61514400Y-79814400D02*
X61514400Y-78714400D01*
X62400000Y-80700000D02*
X61514400Y-79814400D01*
X61514400Y-78714400D02*
X59800000Y-77000000D01*
%TO.N,Net-(U1-VDD_SPI)*%
X55700000Y-60350000D02*
X60200000Y-60350000D01*
X54400000Y-61650000D02*
X55700000Y-60350000D01*
%TO.N,/AD59CS*%
X49380699Y-76269301D02*
X53320036Y-72329964D01*
X53320036Y-72329964D02*
X53320036Y-72320036D01*
X49370772Y-76269301D02*
X49380699Y-76269301D01*
%TO.N,/CLK*%
X52616656Y-77216656D02*
X51900000Y-76500000D01*
X54596486Y-69703514D02*
X54450000Y-69850000D01*
X54250001Y-77216656D02*
X52616656Y-77216656D01*
X56524304Y-69703514D02*
X54596486Y-69703514D01*
X57000000Y-67500000D02*
X57127818Y-67500000D01*
X57700000Y-68072182D02*
X57700000Y-68527818D01*
X57700000Y-68527818D02*
X56524304Y-69703514D01*
X57127818Y-67500000D02*
X57700000Y-68072182D01*
X52970488Y-71656470D02*
X49347507Y-75279451D01*
X49347507Y-75279451D02*
X49347507Y-75519659D01*
X51900000Y-76500000D02*
X51900000Y-76450000D01*
%TO.N,/MOSI*%
X54411091Y-72788909D02*
X54688909Y-72788909D01*
X45500000Y-79400000D02*
X47800000Y-79400000D01*
X47800000Y-79400000D02*
X54411091Y-72788909D01*
%TO.N,/AD59INT*%
X55250000Y-70400000D02*
X56400000Y-71550000D01*
X43150000Y-80300000D02*
X53737208Y-80300000D01*
X54087207Y-80650000D02*
X55900000Y-80650000D01*
X53737208Y-80300000D02*
X54087207Y-80650000D01*
X56400000Y-71550000D02*
X56400000Y-72550000D01*
X53274350Y-70400000D02*
X55250000Y-70400000D01*
X56100000Y-80650000D02*
X56550000Y-80200000D01*
X55900000Y-80650000D02*
X56100000Y-80650000D01*
%TO.N,Net-(U4-AVDD)*%
X38050000Y-89800000D02*
X37600000Y-89350000D01*
X42850000Y-89800000D02*
X38050000Y-89800000D01*
%TO.N,/D3*%
X52925000Y-86420000D02*
X54095000Y-85250000D01*
X65400000Y-89600000D02*
X65400000Y-84850000D01*
X64550000Y-84000000D02*
X61950000Y-84000000D01*
X54095000Y-85250000D02*
X54095000Y-84597892D01*
X39150000Y-91450000D02*
X39550000Y-91850000D01*
X52925000Y-86425000D02*
X52925000Y-86420000D01*
X39550000Y-91850000D02*
X47500000Y-91850000D01*
X57900000Y-84000000D02*
X61950000Y-84000000D01*
X54492893Y-84200000D02*
X57700000Y-84200000D01*
X54095000Y-84597892D02*
X54492893Y-84200000D01*
X64950000Y-90050000D02*
X65400000Y-89600000D01*
X65400000Y-84850000D02*
X64550000Y-84000000D01*
X47500000Y-91850000D02*
X52925000Y-86425000D01*
X57700000Y-84200000D02*
X57900000Y-84000000D01*
%TO.N,/D4*%
X64850000Y-87300000D02*
X64550000Y-87000000D01*
X54700000Y-88300000D02*
X55900000Y-88300000D01*
X64850000Y-89150000D02*
X64850000Y-87300000D01*
X64550000Y-87000000D02*
X61900000Y-87000000D01*
X57200000Y-87000000D02*
X61900000Y-87000000D01*
X53250000Y-89750000D02*
X54700000Y-88300000D01*
X55900000Y-88300000D02*
X57200000Y-87000000D01*
X53250000Y-90400000D02*
X53250000Y-89750000D01*
%TO.N,/ADSCS*%
X55350000Y-74600000D02*
X54700000Y-74600000D01*
X54700000Y-74600000D02*
X54150000Y-74050000D01*
%TO.N,/Reset*%
X51650000Y-60200000D02*
X53680000Y-62230000D01*
X57155026Y-61400000D02*
X58400000Y-61400000D01*
X47449998Y-61550002D02*
X48800000Y-60200000D01*
X59500000Y-50400000D02*
X59500000Y-52900000D01*
X53680000Y-62230000D02*
X56325026Y-62230000D01*
X48800000Y-60200000D02*
X51650000Y-60200000D01*
X56325026Y-62230000D02*
X57155026Y-61400000D01*
X60050000Y-49850000D02*
X59500000Y-50400000D01*
X47449998Y-63500000D02*
X47449998Y-61550002D01*
%TO.N,Net-(D3-A)*%
X48600000Y-52450000D02*
X56300000Y-52450000D01*
X47750000Y-53300000D02*
X48600000Y-52450000D01*
%TO.N,/E+*%
X55300000Y-89750000D02*
X55450000Y-89900000D01*
X55450000Y-89900000D02*
X57181801Y-89900000D01*
X57181801Y-89900000D02*
X58249479Y-88832322D01*
X58249479Y-88832322D02*
X58249479Y-88549479D01*
%TO.N,Net-(D2-K)*%
X41150000Y-50150000D02*
X41750000Y-49550000D01*
X36650000Y-50150000D02*
X41150000Y-50150000D01*
%TO.N,Net-(U1-XTAL_N)*%
X44050003Y-66349997D02*
X45550000Y-66349997D01*
X43200000Y-67200000D02*
X44050003Y-66349997D01*
%TO.N,/MISO*%
X50500000Y-79550000D02*
X49650000Y-79550000D01*
X49650000Y-79550000D02*
X49367891Y-79267891D01*
X51050000Y-79000000D02*
X50500000Y-79550000D01*
X58400000Y-67450000D02*
X57700000Y-66750000D01*
X56168668Y-70253514D02*
X57196486Y-70253514D01*
X57196486Y-70253514D02*
X58400000Y-69050000D01*
X49367891Y-77050000D02*
X48672060Y-77050000D01*
X54410000Y-79360000D02*
X54050000Y-79000000D01*
X49367891Y-79267891D02*
X49367891Y-78832109D01*
X46982415Y-78739645D02*
X45060355Y-78739645D01*
X48672060Y-77050000D02*
X46982415Y-78739645D01*
X54410000Y-79700000D02*
X54410000Y-79360000D01*
X57700000Y-66750000D02*
X54300000Y-66750000D01*
X58400000Y-69050000D02*
X58400000Y-67450000D01*
X54050000Y-79000000D02*
X51050000Y-79000000D01*
X49367891Y-77050000D02*
X54139183Y-72278708D01*
X45060355Y-78739645D02*
X44900000Y-78900000D01*
%TO.N,+5V*%
X43500000Y-55000000D02*
X44717500Y-55000000D01*
X44717500Y-55000000D02*
X44958750Y-54758750D01*
%TO.N,Net-(U1-SPICS0)*%
X56440000Y-63500000D02*
X56900000Y-63040000D01*
X51950000Y-63500000D02*
X56440000Y-63500000D01*
X51300000Y-62850000D02*
X51950000Y-63500000D01*
%TO.N,Net-(U1-SPIQ)*%
X56600000Y-64300000D02*
X51950000Y-64300000D01*
X51950000Y-64300000D02*
X50500000Y-62850000D01*
%TO.N,Net-(U1-SPIWP)*%
X54450000Y-65250000D02*
X52500000Y-65250000D01*
X56850000Y-65050000D02*
X54650000Y-65050000D01*
X54650000Y-65050000D02*
X54450000Y-65250000D01*
%TO.N,Net-(U1-SPID)*%
X49751667Y-64901667D02*
X49751667Y-62800000D01*
X57150000Y-68300000D02*
X53150000Y-68300000D01*
X53150000Y-68300000D02*
X49751667Y-64901667D01*
%TO.N,Net-(U1-SPICLK)*%
X50900000Y-60900000D02*
X51200000Y-60900000D01*
X56800000Y-62250000D02*
X59798906Y-62250000D01*
X56050000Y-63000000D02*
X56800000Y-62250000D01*
X51200000Y-60900000D02*
X53300000Y-63000000D01*
X59798906Y-62250000D02*
X62475000Y-64926094D01*
X53300000Y-63000000D02*
X56050000Y-63000000D01*
%TO.N,Net-(U1-SPIHD)*%
X64050000Y-60200000D02*
X64050000Y-63800000D01*
X55550000Y-59650000D02*
X63500000Y-59650000D01*
X53600000Y-61100000D02*
X54100000Y-61100000D01*
X54100000Y-61100000D02*
X55550000Y-59650000D01*
X63500000Y-59650000D02*
X64050000Y-60200000D01*
%TO.N,/SYSOFF*%
X55750000Y-54000000D02*
X54325000Y-55425000D01*
X54100000Y-55650000D02*
X40750000Y-55650000D01*
X40750000Y-55650000D02*
X40750000Y-56250000D01*
X59850000Y-54000000D02*
X55750000Y-54000000D01*
X40550000Y-54050000D02*
X40750000Y-54200000D01*
X40750000Y-54200000D02*
X40750000Y-55650000D01*
X54325000Y-55425000D02*
X54100000Y-55650000D01*
%TO.N,VBUS*%
X48071728Y-48150000D02*
X51800000Y-48150000D01*
X47856950Y-48364778D02*
X48071728Y-48150000D01*
%TO.N,/NTC*%
X39826091Y-52576091D02*
X39826091Y-58673909D01*
X39826091Y-58673909D02*
X39800000Y-58700000D01*
%TO.N,Net-(U1-XTAL_P)*%
X43200000Y-68100000D02*
X44200000Y-67100000D01*
X44200000Y-67100000D02*
X45550000Y-67100000D01*
%TO.N,+BATT*%
X42600000Y-57350000D02*
X49305026Y-57350000D01*
X40650000Y-59300000D02*
X42600000Y-57350000D01*
X39579756Y-59300000D02*
X39150000Y-58870244D01*
X50305025Y-56350000D02*
X56700000Y-56350000D01*
X58050000Y-55100000D02*
X58000000Y-55050000D01*
X39150000Y-58870244D02*
X39150000Y-51900000D01*
X40100000Y-59300000D02*
X40650000Y-59300000D01*
X56700000Y-56350000D02*
X58000000Y-55050000D01*
X39150000Y-58870244D02*
X39150000Y-58700000D01*
X49305026Y-57350000D02*
X50305025Y-56350000D01*
X39150000Y-51900000D02*
X38750000Y-51500000D01*
X59850000Y-55100000D02*
X58050000Y-55100000D01*
X40100000Y-59300000D02*
X39579756Y-59300000D01*
%TD*%
%TA.AperFunction,Conductor*%
%TO.N,GND*%
G36*
X57241128Y-56730934D02*
G01*
X57268834Y-56732916D01*
X57274953Y-56737496D01*
X57282454Y-56738952D01*
X57302529Y-56758140D01*
X57324767Y-56774788D01*
X57327437Y-56781948D01*
X57332962Y-56787229D01*
X57339476Y-56814226D01*
X57349184Y-56840252D01*
X57349500Y-56849098D01*
X57349500Y-58470234D01*
X57329815Y-58537273D01*
X57328602Y-58539125D01*
X57240609Y-58670814D01*
X57240602Y-58670827D01*
X57180264Y-58816498D01*
X57180261Y-58816508D01*
X57153769Y-58949692D01*
X57121384Y-59011603D01*
X57060668Y-59046177D01*
X57032152Y-59049500D01*
X55636670Y-59049500D01*
X55636654Y-59049499D01*
X55629058Y-59049499D01*
X55470943Y-59049499D01*
X55394579Y-59069961D01*
X55318214Y-59090423D01*
X55318209Y-59090426D01*
X55181290Y-59169475D01*
X55181282Y-59169481D01*
X54024315Y-60326448D01*
X53962992Y-60359933D01*
X53893300Y-60354949D01*
X53889182Y-60353328D01*
X53833501Y-60330264D01*
X53833489Y-60330261D01*
X53678845Y-60299500D01*
X53678842Y-60299500D01*
X53521158Y-60299500D01*
X53521155Y-60299500D01*
X53366510Y-60330261D01*
X53366498Y-60330264D01*
X53220827Y-60390602D01*
X53220814Y-60390609D01*
X53089711Y-60478210D01*
X53089707Y-60478213D01*
X53021259Y-60546662D01*
X52959936Y-60580147D01*
X52890244Y-60575163D01*
X52845897Y-60546662D01*
X52137590Y-59838355D01*
X52137588Y-59838352D01*
X52018717Y-59719481D01*
X52018716Y-59719480D01*
X51926956Y-59666503D01*
X51926955Y-59666502D01*
X51881783Y-59640422D01*
X51825881Y-59625443D01*
X51729057Y-59599499D01*
X51570943Y-59599499D01*
X51563347Y-59599499D01*
X51563331Y-59599500D01*
X48720943Y-59599500D01*
X48568214Y-59640423D01*
X48523044Y-59666503D01*
X48523043Y-59666503D01*
X48431287Y-59719477D01*
X48431282Y-59719481D01*
X46969479Y-61181284D01*
X46969477Y-61181287D01*
X46935337Y-61240421D01*
X46935336Y-61240423D01*
X46890421Y-61318216D01*
X46890421Y-61318217D01*
X46849497Y-61470945D01*
X46849497Y-61470947D01*
X46849497Y-61639048D01*
X46849498Y-61639061D01*
X46849498Y-62920234D01*
X46829813Y-62987273D01*
X46828600Y-62989125D01*
X46740607Y-63120814D01*
X46740600Y-63120827D01*
X46680262Y-63266498D01*
X46680259Y-63266510D01*
X46649498Y-63421153D01*
X46649498Y-63578846D01*
X46680259Y-63733489D01*
X46680262Y-63733501D01*
X46740600Y-63879172D01*
X46740607Y-63879185D01*
X46828208Y-64010288D01*
X46828211Y-64010292D01*
X46939705Y-64121786D01*
X46939709Y-64121789D01*
X47070812Y-64209390D01*
X47070825Y-64209397D01*
X47140561Y-64238282D01*
X47216501Y-64269737D01*
X47371151Y-64300499D01*
X47371154Y-64300500D01*
X47371156Y-64300500D01*
X47528842Y-64300500D01*
X47528843Y-64300499D01*
X47683495Y-64269737D01*
X47829177Y-64209394D01*
X47960287Y-64121789D01*
X48071787Y-64010289D01*
X48159392Y-63879179D01*
X48219735Y-63733497D01*
X48250498Y-63578842D01*
X48250498Y-63421158D01*
X48250498Y-63421155D01*
X48250497Y-63421153D01*
X48232202Y-63329179D01*
X48219735Y-63266503D01*
X48183567Y-63179185D01*
X48159395Y-63120827D01*
X48159388Y-63120814D01*
X48071396Y-62989125D01*
X48050518Y-62922447D01*
X48050498Y-62920234D01*
X48050498Y-61850099D01*
X48070183Y-61783060D01*
X48086817Y-61762418D01*
X49012416Y-60836819D01*
X49073739Y-60803334D01*
X49100097Y-60800500D01*
X49975500Y-60800500D01*
X50042539Y-60820185D01*
X50088294Y-60872989D01*
X50099500Y-60924500D01*
X50099500Y-60978846D01*
X50130261Y-61133489D01*
X50130264Y-61133501D01*
X50190602Y-61279172D01*
X50190609Y-61279185D01*
X50278210Y-61410288D01*
X50278213Y-61410292D01*
X50389707Y-61521786D01*
X50389711Y-61521789D01*
X50520814Y-61609390D01*
X50520827Y-61609397D01*
X50617646Y-61649500D01*
X50666503Y-61669737D01*
X50806619Y-61697608D01*
X50821153Y-61700499D01*
X50821156Y-61700500D01*
X50821158Y-61700500D01*
X50978843Y-61700500D01*
X50993381Y-61697608D01*
X51057653Y-61684823D01*
X51065558Y-61685530D01*
X51072997Y-61682756D01*
X51099856Y-61688598D01*
X51127242Y-61691049D01*
X51135252Y-61696299D01*
X51141270Y-61697608D01*
X51169524Y-61718759D01*
X51289918Y-61839153D01*
X51323403Y-61900476D01*
X51318419Y-61970168D01*
X51276547Y-62026101D01*
X51226429Y-62048451D01*
X51066508Y-62080261D01*
X51066498Y-62080264D01*
X50947452Y-62129574D01*
X50877982Y-62137043D01*
X50852548Y-62129574D01*
X50733501Y-62080264D01*
X50733489Y-62080261D01*
X50578845Y-62049500D01*
X50578842Y-62049500D01*
X50421158Y-62049500D01*
X50421155Y-62049500D01*
X50266505Y-62080261D01*
X50266493Y-62080265D01*
X50233350Y-62093993D01*
X50163881Y-62101460D01*
X50136839Y-62092056D01*
X50136475Y-62092937D01*
X49985168Y-62030264D01*
X49985156Y-62030261D01*
X49830512Y-61999500D01*
X49830509Y-61999500D01*
X49672825Y-61999500D01*
X49672822Y-61999500D01*
X49518177Y-62030261D01*
X49518165Y-62030264D01*
X49372494Y-62090602D01*
X49372481Y-62090609D01*
X49241378Y-62178210D01*
X49241374Y-62178213D01*
X49129880Y-62289707D01*
X49129877Y-62289711D01*
X49042276Y-62420814D01*
X49042269Y-62420827D01*
X48981931Y-62566498D01*
X48981928Y-62566510D01*
X48951167Y-62721153D01*
X48951167Y-62878846D01*
X48981928Y-63033489D01*
X48981931Y-63033501D01*
X49042269Y-63179172D01*
X49042276Y-63179185D01*
X49130269Y-63310874D01*
X49151147Y-63377551D01*
X49151167Y-63379765D01*
X49151167Y-64814997D01*
X49151166Y-64815015D01*
X49151166Y-64980721D01*
X49151165Y-64980721D01*
X49151166Y-64980724D01*
X49192090Y-65133452D01*
X49192091Y-65133454D01*
X49192090Y-65133454D01*
X49201933Y-65150501D01*
X49201934Y-65150502D01*
X49271144Y-65270379D01*
X49271148Y-65270384D01*
X49390016Y-65389252D01*
X49390021Y-65389256D01*
X52781284Y-68780520D01*
X52781286Y-68780521D01*
X52781290Y-68780524D01*
X52918209Y-68859573D01*
X52918216Y-68859577D01*
X53070943Y-68900501D01*
X53070945Y-68900501D01*
X53236654Y-68900501D01*
X53236670Y-68900500D01*
X54027098Y-68900500D01*
X54094137Y-68920185D01*
X54139892Y-68972989D01*
X54149836Y-69042147D01*
X54120811Y-69105703D01*
X54074549Y-69139062D01*
X54070821Y-69140605D01*
X54070814Y-69140609D01*
X53939711Y-69228210D01*
X53939707Y-69228213D01*
X53828213Y-69339707D01*
X53828210Y-69339711D01*
X53740609Y-69470814D01*
X53740604Y-69470824D01*
X53697600Y-69574645D01*
X53653759Y-69629048D01*
X53587464Y-69651113D01*
X53535586Y-69641753D01*
X53507847Y-69630263D01*
X53507839Y-69630261D01*
X53353195Y-69599500D01*
X53353192Y-69599500D01*
X53195508Y-69599500D01*
X53195505Y-69599500D01*
X53040860Y-69630261D01*
X53040848Y-69630264D01*
X52895177Y-69690602D01*
X52895164Y-69690609D01*
X52764061Y-69778210D01*
X52764057Y-69778213D01*
X52652563Y-69889707D01*
X52652560Y-69889711D01*
X52564959Y-70020814D01*
X52564952Y-70020827D01*
X52504614Y-70166498D01*
X52504611Y-70166510D01*
X52473850Y-70321153D01*
X52473850Y-70325500D01*
X52454165Y-70392539D01*
X52401361Y-70438294D01*
X52349850Y-70449500D01*
X51247757Y-70449500D01*
X51180718Y-70429815D01*
X51134963Y-70377011D01*
X51125019Y-70307853D01*
X51126140Y-70301308D01*
X51150500Y-70178844D01*
X51150500Y-70021155D01*
X51150499Y-70021153D01*
X51136597Y-69951264D01*
X51119737Y-69866503D01*
X51119735Y-69866498D01*
X51059397Y-69720827D01*
X51059390Y-69720814D01*
X50971789Y-69589711D01*
X50971786Y-69589707D01*
X50860292Y-69478213D01*
X50860288Y-69478210D01*
X50729185Y-69390609D01*
X50729172Y-69390602D01*
X50583501Y-69330264D01*
X50583489Y-69330261D01*
X50428845Y-69299500D01*
X50428842Y-69299500D01*
X50372279Y-69299500D01*
X50305240Y-69279815D01*
X50284598Y-69263181D01*
X49577692Y-68556275D01*
X49544207Y-68494952D01*
X49549191Y-68425260D01*
X49562267Y-68399708D01*
X49609394Y-68329179D01*
X49669737Y-68183497D01*
X49700500Y-68028842D01*
X49700500Y-67871158D01*
X49700500Y-67871155D01*
X49700499Y-67871153D01*
X49670788Y-67721789D01*
X49669737Y-67716503D01*
X49664282Y-67703334D01*
X49609397Y-67570827D01*
X49609390Y-67570814D01*
X49521789Y-67439711D01*
X49521786Y-67439707D01*
X49410292Y-67328213D01*
X49410288Y-67328210D01*
X49279185Y-67240609D01*
X49279172Y-67240602D01*
X49133501Y-67180264D01*
X49133491Y-67180261D01*
X48978149Y-67149361D01*
X48916238Y-67116976D01*
X48914660Y-67115425D01*
X45987590Y-64188355D01*
X45987588Y-64188352D01*
X45868717Y-64069481D01*
X45868716Y-64069480D01*
X45781904Y-64019360D01*
X45781904Y-64019359D01*
X45781900Y-64019358D01*
X45731785Y-63990423D01*
X45579057Y-63949499D01*
X45420943Y-63949499D01*
X45413347Y-63949499D01*
X45413331Y-63949500D01*
X43779766Y-63949500D01*
X43712727Y-63929815D01*
X43710875Y-63928602D01*
X43579185Y-63840609D01*
X43579172Y-63840602D01*
X43433501Y-63780264D01*
X43433489Y-63780261D01*
X43278845Y-63749500D01*
X43278842Y-63749500D01*
X43121158Y-63749500D01*
X43121155Y-63749500D01*
X42966510Y-63780261D01*
X42966498Y-63780264D01*
X42820827Y-63840602D01*
X42820814Y-63840609D01*
X42689711Y-63928210D01*
X42689707Y-63928213D01*
X42578213Y-64039707D01*
X42578210Y-64039711D01*
X42490609Y-64170814D01*
X42490602Y-64170827D01*
X42430264Y-64316498D01*
X42430261Y-64316510D01*
X42399500Y-64471153D01*
X42399500Y-64628846D01*
X42430261Y-64783489D01*
X42430264Y-64783501D01*
X42490602Y-64929172D01*
X42490609Y-64929185D01*
X42578210Y-65060288D01*
X42578213Y-65060292D01*
X42689707Y-65171786D01*
X42689711Y-65171789D01*
X42820814Y-65259390D01*
X42820827Y-65259397D01*
X42957795Y-65316130D01*
X42966503Y-65319737D01*
X43121153Y-65350499D01*
X43121156Y-65350500D01*
X43121158Y-65350500D01*
X43278844Y-65350500D01*
X43278845Y-65350499D01*
X43433497Y-65319737D01*
X43579179Y-65259394D01*
X43633663Y-65222989D01*
X43710875Y-65171398D01*
X43777553Y-65150520D01*
X43779766Y-65150500D01*
X44075500Y-65150500D01*
X44142539Y-65170185D01*
X44188294Y-65222989D01*
X44199500Y-65274500D01*
X44199500Y-65378846D01*
X44230261Y-65533489D01*
X44230263Y-65533496D01*
X44248715Y-65578045D01*
X44256183Y-65647514D01*
X44224907Y-65709993D01*
X44164817Y-65745645D01*
X44134153Y-65749496D01*
X44129061Y-65749496D01*
X43970946Y-65749496D01*
X43925338Y-65761717D01*
X43818217Y-65790420D01*
X43818212Y-65790423D01*
X43681293Y-65869472D01*
X43681285Y-65869478D01*
X43185339Y-66365425D01*
X43124016Y-66398910D01*
X43121850Y-66399361D01*
X42966508Y-66430261D01*
X42966498Y-66430264D01*
X42820827Y-66490602D01*
X42820814Y-66490609D01*
X42689711Y-66578210D01*
X42689707Y-66578213D01*
X42578213Y-66689707D01*
X42578210Y-66689711D01*
X42490609Y-66820814D01*
X42490602Y-66820827D01*
X42430264Y-66966498D01*
X42430261Y-66966510D01*
X42399500Y-67121153D01*
X42399500Y-67278846D01*
X42430261Y-67433489D01*
X42430264Y-67433501D01*
X42490604Y-67579177D01*
X42490605Y-67579179D01*
X42491899Y-67581115D01*
X42492264Y-67582282D01*
X42493476Y-67584549D01*
X42493045Y-67584778D01*
X42512773Y-67647794D01*
X42494285Y-67715173D01*
X42491899Y-67718885D01*
X42490605Y-67720820D01*
X42490604Y-67720822D01*
X42430264Y-67866498D01*
X42430261Y-67866510D01*
X42399500Y-68021153D01*
X42399500Y-68178846D01*
X42430261Y-68333489D01*
X42430264Y-68333501D01*
X42490602Y-68479172D01*
X42490609Y-68479185D01*
X42578210Y-68610288D01*
X42578213Y-68610292D01*
X42689707Y-68721786D01*
X42689711Y-68721789D01*
X42820814Y-68809390D01*
X42820827Y-68809397D01*
X42941972Y-68859576D01*
X42966503Y-68869737D01*
X43121153Y-68900499D01*
X43121156Y-68900500D01*
X43121158Y-68900500D01*
X43278844Y-68900500D01*
X43278845Y-68900499D01*
X43433497Y-68869737D01*
X43579179Y-68809394D01*
X43710289Y-68721789D01*
X43821789Y-68610289D01*
X43909394Y-68479179D01*
X43969737Y-68333497D01*
X43989113Y-68236085D01*
X44000638Y-68178150D01*
X44033023Y-68116239D01*
X44034514Y-68114720D01*
X44412417Y-67736819D01*
X44473740Y-67703334D01*
X44500098Y-67700500D01*
X44970234Y-67700500D01*
X45037273Y-67720185D01*
X45039125Y-67721398D01*
X45170814Y-67809390D01*
X45170827Y-67809397D01*
X45308683Y-67866498D01*
X45316503Y-67869737D01*
X45471153Y-67900499D01*
X45471156Y-67900500D01*
X45471158Y-67900500D01*
X45628844Y-67900500D01*
X45628845Y-67900499D01*
X45783497Y-67869737D01*
X45929179Y-67809394D01*
X46060289Y-67721789D01*
X46171789Y-67610289D01*
X46259394Y-67479179D01*
X46319737Y-67333497D01*
X46330342Y-67280183D01*
X46362726Y-67218272D01*
X46423442Y-67183698D01*
X46493211Y-67187437D01*
X46539640Y-67216693D01*
X49534748Y-70211801D01*
X49543810Y-70228397D01*
X49556943Y-70242008D01*
X49567349Y-70271505D01*
X49568233Y-70273124D01*
X49568685Y-70275292D01*
X49575949Y-70311812D01*
X49569720Y-70381403D01*
X49526857Y-70436580D01*
X49486424Y-70455777D01*
X49468928Y-70460464D01*
X49468928Y-70460465D01*
X49431660Y-70470451D01*
X49357123Y-70490423D01*
X49357118Y-70490426D01*
X49220199Y-70569475D01*
X49220191Y-70569481D01*
X49108389Y-70681284D01*
X49108387Y-70681286D01*
X48955100Y-70834574D01*
X48837584Y-70952090D01*
X48776261Y-70985575D01*
X48749903Y-70988409D01*
X46339007Y-70988409D01*
X46271968Y-70968724D01*
X46251326Y-70952090D01*
X45284573Y-69985337D01*
X45251088Y-69924014D01*
X45250637Y-69921847D01*
X45250499Y-69921153D01*
X45219737Y-69766503D01*
X45200812Y-69720814D01*
X45159397Y-69620827D01*
X45159390Y-69620814D01*
X45071789Y-69489711D01*
X45071786Y-69489707D01*
X44960292Y-69378213D01*
X44960288Y-69378210D01*
X44829185Y-69290609D01*
X44829172Y-69290602D01*
X44683501Y-69230264D01*
X44683489Y-69230261D01*
X44528845Y-69199500D01*
X44528842Y-69199500D01*
X44371158Y-69199500D01*
X44371155Y-69199500D01*
X44216510Y-69230261D01*
X44216498Y-69230264D01*
X44070827Y-69290602D01*
X44070814Y-69290609D01*
X43939711Y-69378210D01*
X43939707Y-69378213D01*
X43828213Y-69489707D01*
X43828210Y-69489711D01*
X43740609Y-69620814D01*
X43740602Y-69620827D01*
X43680264Y-69766498D01*
X43680261Y-69766510D01*
X43649500Y-69921153D01*
X43649500Y-70078846D01*
X43680261Y-70233489D01*
X43680264Y-70233501D01*
X43740602Y-70379172D01*
X43740609Y-70379185D01*
X43828210Y-70510288D01*
X43828213Y-70510292D01*
X43939707Y-70621786D01*
X43939711Y-70621789D01*
X44070814Y-70709390D01*
X44070827Y-70709397D01*
X44214038Y-70768716D01*
X44216503Y-70769737D01*
X44281147Y-70782595D01*
X44371849Y-70800638D01*
X44433760Y-70833023D01*
X44435337Y-70834572D01*
X45670193Y-72069429D01*
X45670195Y-72069430D01*
X45670199Y-72069433D01*
X45807118Y-72148482D01*
X45807121Y-72148484D01*
X45807125Y-72148486D01*
X45959852Y-72189410D01*
X45959854Y-72189410D01*
X46125563Y-72189410D01*
X46125579Y-72189409D01*
X48963331Y-72189409D01*
X48963347Y-72189410D01*
X48970943Y-72189410D01*
X49129054Y-72189410D01*
X49129057Y-72189410D01*
X49281785Y-72148486D01*
X49349177Y-72109577D01*
X49418716Y-72069429D01*
X49530520Y-71957625D01*
X49530520Y-71957623D01*
X49540721Y-71947423D01*
X49540724Y-71947418D01*
X49801326Y-71686816D01*
X49862648Y-71653334D01*
X49889006Y-71650500D01*
X51827861Y-71650500D01*
X51894900Y-71670185D01*
X51940655Y-71722989D01*
X51950599Y-71792147D01*
X51921574Y-71855703D01*
X51915542Y-71862181D01*
X48978794Y-74798927D01*
X48978775Y-74798947D01*
X48974319Y-74803401D01*
X48955549Y-74818801D01*
X48837220Y-74897867D01*
X48837214Y-74897872D01*
X48725720Y-75009366D01*
X48725717Y-75009370D01*
X48638116Y-75140473D01*
X48638109Y-75140486D01*
X48577771Y-75286157D01*
X48577768Y-75286169D01*
X48547007Y-75440812D01*
X48547007Y-75598505D01*
X48577768Y-75753148D01*
X48577771Y-75753160D01*
X48628284Y-75875111D01*
X48635753Y-75944581D01*
X48628285Y-75970013D01*
X48601035Y-76035803D01*
X48601032Y-76035812D01*
X48570272Y-76190454D01*
X48570272Y-76354235D01*
X48569114Y-76354235D01*
X48557247Y-76416782D01*
X48509178Y-76467488D01*
X48496372Y-76473970D01*
X48487885Y-76477665D01*
X48440275Y-76490423D01*
X48390155Y-76519360D01*
X48384090Y-76522861D01*
X48384089Y-76522862D01*
X48303345Y-76569479D01*
X48303342Y-76569481D01*
X48191538Y-76681286D01*
X46769999Y-78102826D01*
X46708676Y-78136311D01*
X46682318Y-78139145D01*
X45179605Y-78139145D01*
X45139580Y-78131184D01*
X45139324Y-78132031D01*
X45133500Y-78130264D01*
X45133497Y-78130263D01*
X45133492Y-78130262D01*
X45133489Y-78130261D01*
X44978845Y-78099500D01*
X44978842Y-78099500D01*
X44821158Y-78099500D01*
X44821155Y-78099500D01*
X44666510Y-78130261D01*
X44666498Y-78130264D01*
X44520827Y-78190602D01*
X44520814Y-78190609D01*
X44389711Y-78278210D01*
X44389707Y-78278213D01*
X44278213Y-78389707D01*
X44278210Y-78389711D01*
X44190609Y-78520814D01*
X44190602Y-78520827D01*
X44130264Y-78666498D01*
X44130261Y-78666508D01*
X44113715Y-78749692D01*
X44081330Y-78811603D01*
X44020614Y-78846177D01*
X43992098Y-78849500D01*
X42036670Y-78849500D01*
X42036654Y-78849499D01*
X42029058Y-78849499D01*
X41870943Y-78849499D01*
X41794579Y-78869961D01*
X41718214Y-78890423D01*
X41718209Y-78890426D01*
X41581290Y-78969475D01*
X41581282Y-78969481D01*
X41237584Y-79313181D01*
X41176261Y-79346666D01*
X41149903Y-79349500D01*
X40336669Y-79349500D01*
X40336653Y-79349499D01*
X40329057Y-79349499D01*
X40170943Y-79349499D01*
X40063587Y-79378265D01*
X40018210Y-79390424D01*
X40018209Y-79390425D01*
X39976221Y-79414668D01*
X39976219Y-79414669D01*
X39881290Y-79469475D01*
X39881282Y-79469481D01*
X39119481Y-80231282D01*
X39119479Y-80231285D01*
X39074385Y-80309392D01*
X39074384Y-80309393D01*
X39040423Y-80368214D01*
X39040423Y-80368215D01*
X38999499Y-80520943D01*
X38999499Y-80520945D01*
X38999499Y-80689046D01*
X38999500Y-80689059D01*
X38999500Y-82820234D01*
X38979815Y-82887273D01*
X38978602Y-82889125D01*
X38890609Y-83020814D01*
X38890602Y-83020827D01*
X38830264Y-83166498D01*
X38830261Y-83166510D01*
X38799500Y-83321153D01*
X38799500Y-83478846D01*
X38830261Y-83633489D01*
X38830264Y-83633501D01*
X38890602Y-83779172D01*
X38890609Y-83779185D01*
X38978210Y-83910288D01*
X38978213Y-83910292D01*
X39089707Y-84021786D01*
X39089711Y-84021789D01*
X39220814Y-84109390D01*
X39220827Y-84109397D01*
X39366498Y-84169735D01*
X39366503Y-84169737D01*
X39504045Y-84197096D01*
X39521153Y-84200499D01*
X39521156Y-84200500D01*
X39521158Y-84200500D01*
X39678844Y-84200500D01*
X39678845Y-84200499D01*
X39833497Y-84169737D01*
X39969486Y-84113409D01*
X39979172Y-84109397D01*
X39979172Y-84109396D01*
X39979179Y-84109394D01*
X40110289Y-84021789D01*
X40221789Y-83910289D01*
X40309394Y-83779179D01*
X40369737Y-83633497D01*
X40400500Y-83478842D01*
X40400500Y-83321158D01*
X40400500Y-83321155D01*
X40400499Y-83321153D01*
X40388405Y-83260355D01*
X40369737Y-83166503D01*
X40350552Y-83120185D01*
X40309397Y-83020827D01*
X40309390Y-83020814D01*
X40221398Y-82889125D01*
X40200520Y-82822447D01*
X40200500Y-82820234D01*
X40200500Y-81757901D01*
X40220185Y-81690862D01*
X40272989Y-81645107D01*
X40300301Y-81636285D01*
X40383497Y-81619737D01*
X40529179Y-81559394D01*
X40529185Y-81559390D01*
X40660875Y-81471398D01*
X40727553Y-81450520D01*
X40729766Y-81450500D01*
X47875500Y-81450500D01*
X47942539Y-81470185D01*
X47988294Y-81522989D01*
X47999500Y-81574500D01*
X47999500Y-84148908D01*
X47979815Y-84215947D01*
X47978602Y-84217799D01*
X47890609Y-84349488D01*
X47890602Y-84349501D01*
X47830264Y-84495172D01*
X47830261Y-84495184D01*
X47799500Y-84649827D01*
X47799500Y-84807520D01*
X47830261Y-84962163D01*
X47830264Y-84962175D01*
X47890602Y-85107846D01*
X47890609Y-85107859D01*
X47978209Y-85238961D01*
X47978210Y-85238962D01*
X47978211Y-85238963D01*
X48043144Y-85303896D01*
X48076628Y-85365217D01*
X48079462Y-85391576D01*
X48079462Y-85503311D01*
X48110223Y-85657954D01*
X48110226Y-85657966D01*
X48170564Y-85803637D01*
X48170571Y-85803650D01*
X48258172Y-85934753D01*
X48258175Y-85934757D01*
X48369669Y-86046251D01*
X48369673Y-86046254D01*
X48500776Y-86133855D01*
X48500780Y-86133857D01*
X48500783Y-86133859D01*
X48552862Y-86155430D01*
X48607265Y-86199269D01*
X48629331Y-86265563D01*
X48612053Y-86333262D01*
X48593091Y-86357672D01*
X44287584Y-90663181D01*
X44226261Y-90696666D01*
X44199903Y-90699500D01*
X43353439Y-90699500D01*
X43286400Y-90679815D01*
X43240645Y-90627011D01*
X43230701Y-90557853D01*
X43259726Y-90494297D01*
X43284548Y-90472398D01*
X43330583Y-90441638D01*
X43360289Y-90421789D01*
X43471789Y-90310289D01*
X43559394Y-90179179D01*
X43560264Y-90177080D01*
X43600259Y-90080521D01*
X43619737Y-90033497D01*
X43650500Y-89878842D01*
X43650500Y-89721158D01*
X43650500Y-89721155D01*
X43650499Y-89721153D01*
X43643773Y-89687340D01*
X43619737Y-89566503D01*
X43564120Y-89432230D01*
X43559397Y-89420827D01*
X43559390Y-89420814D01*
X43471789Y-89289711D01*
X43471786Y-89289707D01*
X43360292Y-89178213D01*
X43360288Y-89178210D01*
X43229185Y-89090609D01*
X43229172Y-89090602D01*
X43083501Y-89030264D01*
X43083489Y-89030261D01*
X42928845Y-88999500D01*
X42928842Y-88999500D01*
X42771158Y-88999500D01*
X42771155Y-88999500D01*
X42616510Y-89030261D01*
X42616498Y-89030264D01*
X42470827Y-89090602D01*
X42470814Y-89090609D01*
X42339125Y-89178602D01*
X42272447Y-89199480D01*
X42270234Y-89199500D01*
X38486878Y-89199500D01*
X38419839Y-89179815D01*
X38374084Y-89127011D01*
X38372215Y-89122069D01*
X38372068Y-89122131D01*
X38367795Y-89111816D01*
X38346937Y-89061458D01*
X38309397Y-88970827D01*
X38309390Y-88970814D01*
X38221789Y-88839711D01*
X38221786Y-88839707D01*
X38110292Y-88728213D01*
X38110288Y-88728210D01*
X37979185Y-88640609D01*
X37979172Y-88640602D01*
X37833501Y-88580264D01*
X37833489Y-88580261D01*
X37678845Y-88549500D01*
X37678842Y-88549500D01*
X37521158Y-88549500D01*
X37521155Y-88549500D01*
X37366510Y-88580261D01*
X37366498Y-88580264D01*
X37220827Y-88640602D01*
X37220814Y-88640609D01*
X37089711Y-88728210D01*
X37089707Y-88728213D01*
X36978213Y-88839707D01*
X36978210Y-88839711D01*
X36890609Y-88970814D01*
X36890602Y-88970827D01*
X36830264Y-89116498D01*
X36830261Y-89116510D01*
X36799500Y-89271153D01*
X36799500Y-89428846D01*
X36830261Y-89583489D01*
X36830264Y-89583501D01*
X36890602Y-89729172D01*
X36890609Y-89729185D01*
X36978210Y-89860288D01*
X36978213Y-89860292D01*
X37089707Y-89971786D01*
X37089711Y-89971789D01*
X37220814Y-90059390D01*
X37220827Y-90059397D01*
X37271826Y-90080521D01*
X37366503Y-90119737D01*
X37479435Y-90142200D01*
X37521846Y-90150637D01*
X37534865Y-90156788D01*
X37546032Y-90158080D01*
X37565794Y-90171400D01*
X37576239Y-90176335D01*
X37580997Y-90180233D01*
X37681284Y-90280520D01*
X37747442Y-90318716D01*
X37818215Y-90359577D01*
X37970943Y-90400500D01*
X39946561Y-90400500D01*
X40013600Y-90420185D01*
X40059355Y-90472989D01*
X40069299Y-90542147D01*
X40040274Y-90605703D01*
X40015452Y-90627602D01*
X39939711Y-90678210D01*
X39939707Y-90678213D01*
X39828217Y-90789704D01*
X39828211Y-90789711D01*
X39827476Y-90790811D01*
X39826943Y-90791255D01*
X39824353Y-90794413D01*
X39823753Y-90793920D01*
X39773856Y-90835607D01*
X39704530Y-90844304D01*
X39655493Y-90825006D01*
X39529185Y-90740609D01*
X39529172Y-90740602D01*
X39383501Y-90680264D01*
X39383489Y-90680261D01*
X39228845Y-90649500D01*
X39228842Y-90649500D01*
X39071158Y-90649500D01*
X39071155Y-90649500D01*
X38916510Y-90680261D01*
X38916498Y-90680264D01*
X38770827Y-90740602D01*
X38770814Y-90740609D01*
X38639711Y-90828210D01*
X38639707Y-90828213D01*
X38528213Y-90939707D01*
X38528210Y-90939711D01*
X38440609Y-91070814D01*
X38440602Y-91070827D01*
X38380264Y-91216498D01*
X38380261Y-91216510D01*
X38349500Y-91371153D01*
X38349500Y-91528846D01*
X38380261Y-91683489D01*
X38380264Y-91683501D01*
X38425640Y-91793048D01*
X38433109Y-91862517D01*
X38401834Y-91924996D01*
X38341745Y-91960648D01*
X38311079Y-91964500D01*
X30006960Y-91964500D01*
X29993077Y-91963720D01*
X29902734Y-91953541D01*
X29875662Y-91947362D01*
X29796464Y-91919649D01*
X29771447Y-91907602D01*
X29700395Y-91862957D01*
X29678686Y-91845644D01*
X29619355Y-91786313D01*
X29602042Y-91764604D01*
X29557395Y-91693549D01*
X29545351Y-91668539D01*
X29517636Y-91589333D01*
X29511458Y-91562268D01*
X29501280Y-91471922D01*
X29500500Y-91458040D01*
X29500500Y-89511500D01*
X29520185Y-89444461D01*
X29572989Y-89398706D01*
X29624500Y-89387500D01*
X34325000Y-89387500D01*
X34325000Y-74581881D01*
X34344685Y-74514842D01*
X34397489Y-74469087D01*
X34414069Y-74462903D01*
X34415165Y-74462580D01*
X34425710Y-74459485D01*
X34425721Y-74459480D01*
X34620938Y-74370328D01*
X34620942Y-74370325D01*
X34620950Y-74370322D01*
X34801513Y-74254281D01*
X34963724Y-74113724D01*
X35104281Y-73951513D01*
X35220322Y-73770950D01*
X35220325Y-73770942D01*
X35220328Y-73770938D01*
X35279010Y-73642441D01*
X35309485Y-73575710D01*
X35310887Y-73570938D01*
X35369953Y-73369771D01*
X35369954Y-73369769D01*
X35400500Y-73157318D01*
X35400500Y-73050000D01*
X35400500Y-72984108D01*
X35400500Y-62699097D01*
X35420185Y-62632058D01*
X35472989Y-62586303D01*
X35542147Y-62576359D01*
X35605703Y-62605384D01*
X35612178Y-62611413D01*
X36431284Y-63430520D01*
X36431286Y-63430521D01*
X36431290Y-63430524D01*
X36568209Y-63509573D01*
X36568216Y-63509577D01*
X36698778Y-63544561D01*
X36758437Y-63580927D01*
X36788966Y-63643774D01*
X36780671Y-63713149D01*
X36740995Y-63763602D01*
X36702452Y-63792455D01*
X36616206Y-63907664D01*
X36616202Y-63907671D01*
X36565908Y-64042517D01*
X36559501Y-64102116D01*
X36559501Y-64102123D01*
X36559500Y-64102135D01*
X36559500Y-65897870D01*
X36559501Y-65897876D01*
X36565908Y-65957483D01*
X36616202Y-66092328D01*
X36616206Y-66092335D01*
X36702452Y-66207544D01*
X36702455Y-66207547D01*
X36817664Y-66293793D01*
X36817671Y-66293797D01*
X36952517Y-66344091D01*
X36952516Y-66344091D01*
X36959444Y-66344835D01*
X37012127Y-66350500D01*
X38807872Y-66350499D01*
X38867483Y-66344091D01*
X39002331Y-66293796D01*
X39117546Y-66207546D01*
X39203796Y-66092331D01*
X39254091Y-65957483D01*
X39260500Y-65897873D01*
X39260499Y-65873979D01*
X39263330Y-65860963D01*
X39273940Y-65841525D01*
X39280179Y-65820275D01*
X39296803Y-65799643D01*
X39296808Y-65799636D01*
X39296811Y-65799634D01*
X39296818Y-65799626D01*
X39967037Y-65129408D01*
X39984075Y-65192993D01*
X40049901Y-65307007D01*
X40142993Y-65400099D01*
X40257007Y-65465925D01*
X40320590Y-65482962D01*
X39688282Y-66115269D01*
X39688282Y-66115270D01*
X39742449Y-66154624D01*
X39931782Y-66251095D01*
X40133870Y-66316757D01*
X40343754Y-66350000D01*
X40556246Y-66350000D01*
X40766127Y-66316757D01*
X40766130Y-66316757D01*
X40968217Y-66251095D01*
X41157554Y-66154622D01*
X41211716Y-66115270D01*
X41211717Y-66115270D01*
X40579408Y-65482962D01*
X40642993Y-65465925D01*
X40757007Y-65400099D01*
X40850099Y-65307007D01*
X40915925Y-65192993D01*
X40932962Y-65129409D01*
X41565270Y-65761717D01*
X41565270Y-65761716D01*
X41604622Y-65707554D01*
X41701095Y-65518217D01*
X41766757Y-65316130D01*
X41766757Y-65316127D01*
X41800000Y-65106246D01*
X41800000Y-64893753D01*
X41766757Y-64683872D01*
X41766757Y-64683869D01*
X41701095Y-64481782D01*
X41604624Y-64292449D01*
X41565270Y-64238282D01*
X41565269Y-64238282D01*
X40932962Y-64870590D01*
X40915925Y-64807007D01*
X40850099Y-64692993D01*
X40757007Y-64599901D01*
X40642993Y-64534075D01*
X40579409Y-64517037D01*
X41211716Y-63884728D01*
X41157550Y-63845375D01*
X40968217Y-63748904D01*
X40766129Y-63683242D01*
X40601712Y-63657201D01*
X40538577Y-63627272D01*
X40501646Y-63567960D01*
X40502644Y-63498098D01*
X40519779Y-63466272D01*
X40518405Y-63465354D01*
X40609390Y-63329185D01*
X40609390Y-63329184D01*
X40609394Y-63329179D01*
X40669737Y-63183497D01*
X40700500Y-63028842D01*
X40700500Y-62871158D01*
X40700500Y-62871155D01*
X40700499Y-62871153D01*
X40686597Y-62801265D01*
X40669737Y-62716503D01*
X40644044Y-62654473D01*
X40636575Y-62585004D01*
X40667851Y-62522525D01*
X40702306Y-62496538D01*
X40761788Y-62466232D01*
X40901928Y-62364414D01*
X41024414Y-62241928D01*
X41126232Y-62101788D01*
X41204873Y-61947445D01*
X41258402Y-61782701D01*
X41285500Y-61611611D01*
X41285500Y-60888389D01*
X41258402Y-60717299D01*
X41204873Y-60552555D01*
X41126232Y-60398212D01*
X41024414Y-60258072D01*
X40981191Y-60214849D01*
X40947706Y-60153526D01*
X40952690Y-60083834D01*
X40994562Y-60027901D01*
X41021418Y-60012608D01*
X41029179Y-60009394D01*
X41160289Y-59921789D01*
X41271789Y-59810289D01*
X41359394Y-59679179D01*
X41419737Y-59533497D01*
X41450500Y-59378842D01*
X41450638Y-59378150D01*
X41483023Y-59316239D01*
X41484518Y-59314716D01*
X42812416Y-57986819D01*
X42873739Y-57953334D01*
X42900097Y-57950500D01*
X45192297Y-57950500D01*
X45259336Y-57970185D01*
X45305091Y-58022989D01*
X45315035Y-58092147D01*
X45313914Y-58098691D01*
X45299500Y-58171153D01*
X45299500Y-58328846D01*
X45330261Y-58483489D01*
X45330264Y-58483501D01*
X45390602Y-58629172D01*
X45390609Y-58629185D01*
X45476192Y-58757268D01*
X45497070Y-58823946D01*
X45478586Y-58891326D01*
X45440661Y-58930131D01*
X45431084Y-58936354D01*
X45420821Y-58940606D01*
X45289711Y-59028211D01*
X45289647Y-59028274D01*
X45287805Y-59029472D01*
X45255054Y-59039270D01*
X45222447Y-59049480D01*
X45220879Y-59049494D01*
X45220867Y-59049498D01*
X45220854Y-59049494D01*
X45220234Y-59049500D01*
X44570940Y-59049500D01*
X44530019Y-59060464D01*
X44530019Y-59060465D01*
X44418216Y-59090423D01*
X44418214Y-59090424D01*
X44410366Y-59092527D01*
X44410180Y-59091834D01*
X44371637Y-59099500D01*
X44321155Y-59099500D01*
X44166510Y-59130261D01*
X44166498Y-59130264D01*
X44020827Y-59190602D01*
X44020814Y-59190609D01*
X43889711Y-59278210D01*
X43889707Y-59278213D01*
X43778213Y-59389707D01*
X43778210Y-59389711D01*
X43690609Y-59520814D01*
X43690602Y-59520827D01*
X43630264Y-59666498D01*
X43630261Y-59666510D01*
X43599500Y-59821153D01*
X43599500Y-59978846D01*
X43630261Y-60133489D01*
X43630264Y-60133501D01*
X43690602Y-60279172D01*
X43690609Y-60279185D01*
X43778210Y-60410288D01*
X43778213Y-60410292D01*
X43889707Y-60521786D01*
X43889711Y-60521789D01*
X44020814Y-60609390D01*
X44020827Y-60609397D01*
X44102487Y-60643221D01*
X44166503Y-60669737D01*
X44321153Y-60700499D01*
X44321156Y-60700500D01*
X44321158Y-60700500D01*
X44478844Y-60700500D01*
X44478845Y-60700499D01*
X44633497Y-60669737D01*
X44779179Y-60609394D01*
X44910289Y-60521789D01*
X45021789Y-60410289D01*
X45091734Y-60305608D01*
X45097825Y-60300518D01*
X45101123Y-60293297D01*
X45124250Y-60278433D01*
X45145346Y-60260804D01*
X45154720Y-60258852D01*
X45159901Y-60255523D01*
X45194836Y-60250500D01*
X45220234Y-60250500D01*
X45287273Y-60270185D01*
X45289125Y-60271398D01*
X45420814Y-60359390D01*
X45420827Y-60359397D01*
X45548828Y-60412416D01*
X45566503Y-60419737D01*
X45712285Y-60448735D01*
X45721153Y-60450499D01*
X45721156Y-60450500D01*
X45721158Y-60450500D01*
X45878844Y-60450500D01*
X45878845Y-60450499D01*
X46033497Y-60419737D01*
X46179179Y-60359394D01*
X46310289Y-60271789D01*
X46421789Y-60160289D01*
X46509394Y-60029179D01*
X46569737Y-59883497D01*
X46600500Y-59728842D01*
X46600500Y-59571158D01*
X46600500Y-59571155D01*
X46600499Y-59571153D01*
X46569737Y-59416503D01*
X46563275Y-59400903D01*
X46509397Y-59270827D01*
X46509390Y-59270814D01*
X46423807Y-59142731D01*
X46402929Y-59076054D01*
X46421413Y-59008674D01*
X46459339Y-58969868D01*
X46468911Y-58963646D01*
X46479179Y-58959394D01*
X46610289Y-58871789D01*
X46610350Y-58871727D01*
X46612196Y-58870528D01*
X46644924Y-58860736D01*
X46677553Y-58850520D01*
X46679121Y-58850505D01*
X46679134Y-58850502D01*
X46679146Y-58850505D01*
X46679766Y-58850500D01*
X48813331Y-58850500D01*
X48813347Y-58850501D01*
X48820943Y-58850501D01*
X48979054Y-58850501D01*
X48979057Y-58850501D01*
X49131785Y-58809577D01*
X49185019Y-58778842D01*
X49268716Y-58730520D01*
X49380520Y-58618716D01*
X49380520Y-58618714D01*
X49390724Y-58608511D01*
X49390727Y-58608506D01*
X50020436Y-57978797D01*
X50081758Y-57945314D01*
X50151450Y-57950298D01*
X50166563Y-57957119D01*
X50170817Y-57959392D01*
X50170819Y-57959393D01*
X50170821Y-57959394D01*
X50316503Y-58019737D01*
X50471153Y-58050499D01*
X50471156Y-58050500D01*
X50471158Y-58050500D01*
X50628844Y-58050500D01*
X50628845Y-58050499D01*
X50783497Y-58019737D01*
X50929179Y-57959394D01*
X51060289Y-57871789D01*
X51171789Y-57760289D01*
X51259394Y-57629179D01*
X51319737Y-57483497D01*
X51350500Y-57328842D01*
X51350500Y-57171158D01*
X51350500Y-57171155D01*
X51350499Y-57171153D01*
X51336086Y-57098691D01*
X51342313Y-57029100D01*
X51385176Y-56973922D01*
X51451066Y-56950678D01*
X51457703Y-56950500D01*
X56613331Y-56950500D01*
X56613347Y-56950501D01*
X56620943Y-56950501D01*
X56779054Y-56950501D01*
X56779057Y-56950501D01*
X56931785Y-56909577D01*
X56998912Y-56870821D01*
X57068716Y-56830520D01*
X57143098Y-56756137D01*
X57148967Y-56751534D01*
X57174768Y-56741241D01*
X57199142Y-56727932D01*
X57206763Y-56728477D01*
X57213863Y-56725645D01*
X57241128Y-56730934D01*
G37*
%TD.AperFunction*%
%TA.AperFunction,Conductor*%
G36*
X63266942Y-60270185D02*
G01*
X63287584Y-60286819D01*
X63413181Y-60412416D01*
X63446666Y-60473739D01*
X63449500Y-60500097D01*
X63449500Y-63220234D01*
X63429815Y-63287273D01*
X63428602Y-63289125D01*
X63340609Y-63420814D01*
X63340602Y-63420827D01*
X63280264Y-63566498D01*
X63280261Y-63566510D01*
X63249500Y-63721153D01*
X63249500Y-63878846D01*
X63280261Y-64033489D01*
X63280264Y-64033501D01*
X63340602Y-64179172D01*
X63340609Y-64179185D01*
X63428210Y-64310288D01*
X63428213Y-64310292D01*
X63539707Y-64421786D01*
X63539711Y-64421789D01*
X63670814Y-64509390D01*
X63670827Y-64509397D01*
X63816498Y-64569735D01*
X63816503Y-64569737D01*
X63968147Y-64599901D01*
X63971153Y-64600499D01*
X63971156Y-64600500D01*
X63971158Y-64600500D01*
X64128844Y-64600500D01*
X64251308Y-64576140D01*
X64320900Y-64582367D01*
X64376077Y-64625230D01*
X64399322Y-64691120D01*
X64399500Y-64697757D01*
X64399500Y-72984108D01*
X64399500Y-73050000D01*
X64399500Y-73157318D01*
X64401049Y-73168088D01*
X64430045Y-73369767D01*
X64430046Y-73369771D01*
X64490511Y-73575701D01*
X64490516Y-73575713D01*
X64579671Y-73770938D01*
X64579680Y-73770954D01*
X64695718Y-73951512D01*
X64836275Y-74113724D01*
X64998487Y-74254281D01*
X65179045Y-74370319D01*
X65179061Y-74370328D01*
X65344865Y-74446047D01*
X65374290Y-74459485D01*
X65374292Y-74459485D01*
X65374298Y-74459488D01*
X65548373Y-74510599D01*
X65580231Y-74519954D01*
X65792682Y-74550500D01*
X65834108Y-74550500D01*
X69734108Y-74550500D01*
X69793040Y-74550500D01*
X69806922Y-74551280D01*
X69823878Y-74553190D01*
X69897268Y-74561458D01*
X69924333Y-74567636D01*
X70003539Y-74595351D01*
X70028549Y-74607395D01*
X70099606Y-74652043D01*
X70121313Y-74669355D01*
X70180644Y-74728686D01*
X70197957Y-74750395D01*
X70242602Y-74821447D01*
X70254649Y-74846464D01*
X70282362Y-74925662D01*
X70288541Y-74952734D01*
X70298720Y-75043076D01*
X70299500Y-75056959D01*
X70299500Y-91458040D01*
X70298720Y-91471923D01*
X70288541Y-91562265D01*
X70282362Y-91589337D01*
X70254649Y-91668535D01*
X70242602Y-91693552D01*
X70197957Y-91764604D01*
X70180644Y-91786313D01*
X70121313Y-91845644D01*
X70099604Y-91862957D01*
X70028552Y-91907602D01*
X70003535Y-91919649D01*
X69924337Y-91947362D01*
X69897265Y-91953541D01*
X69806923Y-91963720D01*
X69793040Y-91964500D01*
X48534097Y-91964500D01*
X48467058Y-91944815D01*
X48421303Y-91892011D01*
X48411359Y-91822853D01*
X48440384Y-91759297D01*
X48446416Y-91752819D01*
X50367298Y-89831937D01*
X50428621Y-89798452D01*
X50498313Y-89803436D01*
X50554246Y-89845308D01*
X50578663Y-89910772D01*
X50578979Y-89919618D01*
X50578979Y-90022429D01*
X50609740Y-90177072D01*
X50609743Y-90177084D01*
X50670081Y-90322755D01*
X50670088Y-90322768D01*
X50757689Y-90453871D01*
X50757692Y-90453875D01*
X50869186Y-90565369D01*
X50869190Y-90565372D01*
X51000293Y-90652973D01*
X51000306Y-90652980D01*
X51099754Y-90694172D01*
X51145982Y-90713320D01*
X51283137Y-90740602D01*
X51300632Y-90744082D01*
X51300635Y-90744083D01*
X51300637Y-90744083D01*
X51458323Y-90744083D01*
X51458324Y-90744082D01*
X51612976Y-90713320D01*
X51734023Y-90663181D01*
X51758651Y-90652980D01*
X51758651Y-90652979D01*
X51758658Y-90652977D01*
X51889768Y-90565372D01*
X52001268Y-90453872D01*
X52088873Y-90322762D01*
X52089540Y-90321153D01*
X52148344Y-90179185D01*
X52149216Y-90177080D01*
X52177778Y-90033489D01*
X52180117Y-90021733D01*
X52212502Y-89959822D01*
X52214000Y-89958295D01*
X52433945Y-89738351D01*
X52495267Y-89704867D01*
X52564959Y-89709851D01*
X52620892Y-89751723D01*
X52645309Y-89817187D01*
X52630457Y-89885460D01*
X52624727Y-89894924D01*
X52540609Y-90020814D01*
X52540602Y-90020827D01*
X52480264Y-90166498D01*
X52480261Y-90166510D01*
X52449500Y-90321153D01*
X52449500Y-90478846D01*
X52480261Y-90633489D01*
X52480264Y-90633501D01*
X52540602Y-90779172D01*
X52540609Y-90779185D01*
X52628210Y-90910288D01*
X52628213Y-90910292D01*
X52739707Y-91021786D01*
X52739711Y-91021789D01*
X52870814Y-91109390D01*
X52870827Y-91109397D01*
X53016498Y-91169735D01*
X53016503Y-91169737D01*
X53171153Y-91200499D01*
X53171156Y-91200500D01*
X53171158Y-91200500D01*
X53328844Y-91200500D01*
X53328845Y-91200499D01*
X53483497Y-91169737D01*
X53629179Y-91109394D01*
X53760289Y-91021789D01*
X53871789Y-90910289D01*
X53943390Y-90803129D01*
X53958762Y-90790282D01*
X53970491Y-90774043D01*
X53985019Y-90768338D01*
X53997000Y-90758326D01*
X54016880Y-90755829D01*
X54035527Y-90748508D01*
X54063203Y-90750011D01*
X54066325Y-90749619D01*
X54070735Y-90750415D01*
X54071158Y-90750500D01*
X54071160Y-90750500D01*
X54071936Y-90750655D01*
X54133824Y-90783084D01*
X54135339Y-90784574D01*
X54365139Y-91014374D01*
X54365149Y-91014385D01*
X54369479Y-91018715D01*
X54369480Y-91018716D01*
X54481284Y-91130520D01*
X54481286Y-91130521D01*
X54481290Y-91130524D01*
X54602492Y-91200499D01*
X54618216Y-91209577D01*
X54716571Y-91235931D01*
X54770942Y-91250500D01*
X54770943Y-91250500D01*
X56981530Y-91250500D01*
X56981546Y-91250501D01*
X56989142Y-91250501D01*
X57147253Y-91250501D01*
X57147256Y-91250501D01*
X57299984Y-91209577D01*
X57350103Y-91180639D01*
X57436915Y-91130520D01*
X57548719Y-91018716D01*
X57548719Y-91018714D01*
X57558927Y-91008507D01*
X57558928Y-91008504D01*
X58595308Y-89972125D01*
X58656629Y-89938642D01*
X58707179Y-89938191D01*
X58771677Y-89951021D01*
X58771679Y-89951021D01*
X58929365Y-89951021D01*
X58929366Y-89951020D01*
X59084018Y-89920258D01*
X59228797Y-89860289D01*
X59229693Y-89859918D01*
X59229693Y-89859917D01*
X59229700Y-89859915D01*
X59360810Y-89772310D01*
X59472310Y-89660810D01*
X59559915Y-89529700D01*
X59620258Y-89384018D01*
X59651021Y-89229363D01*
X59651021Y-89071679D01*
X59651021Y-89071676D01*
X59651020Y-89071674D01*
X59637690Y-89004662D01*
X59620258Y-88917024D01*
X59596463Y-88859577D01*
X59559918Y-88771348D01*
X59559911Y-88771335D01*
X59472310Y-88640232D01*
X59472307Y-88640228D01*
X59360813Y-88528734D01*
X59360809Y-88528731D01*
X59229706Y-88441130D01*
X59229693Y-88441123D01*
X59085649Y-88381459D01*
X59031245Y-88337618D01*
X59018540Y-88314350D01*
X58958876Y-88170306D01*
X58958869Y-88170293D01*
X58871268Y-88039190D01*
X58871265Y-88039186D01*
X58759771Y-87927692D01*
X58759767Y-87927689D01*
X58628664Y-87840088D01*
X58628657Y-87840084D01*
X58626188Y-87839062D01*
X58625093Y-87838180D01*
X58623288Y-87837215D01*
X58623471Y-87836872D01*
X58571784Y-87795221D01*
X58549718Y-87728928D01*
X58566996Y-87661228D01*
X58618133Y-87613617D01*
X58673639Y-87600500D01*
X61320234Y-87600500D01*
X61387273Y-87620185D01*
X61389125Y-87621398D01*
X61520814Y-87709390D01*
X61520827Y-87709397D01*
X61595732Y-87740423D01*
X61666503Y-87769737D01*
X61794619Y-87795221D01*
X61821153Y-87800499D01*
X61821156Y-87800500D01*
X61821158Y-87800500D01*
X61978844Y-87800500D01*
X61978845Y-87800499D01*
X62133497Y-87769737D01*
X62279179Y-87709394D01*
X62279185Y-87709390D01*
X62410875Y-87621398D01*
X62477553Y-87600520D01*
X62479766Y-87600500D01*
X64125500Y-87600500D01*
X64192539Y-87620185D01*
X64238294Y-87672989D01*
X64249500Y-87724500D01*
X64249500Y-88570234D01*
X64229815Y-88637273D01*
X64228602Y-88639125D01*
X64140609Y-88770814D01*
X64140602Y-88770827D01*
X64080264Y-88916498D01*
X64080261Y-88916510D01*
X64049500Y-89071153D01*
X64049500Y-89228846D01*
X64080261Y-89383489D01*
X64080264Y-89383501D01*
X64140602Y-89529172D01*
X64140612Y-89529190D01*
X64201732Y-89620663D01*
X64222610Y-89687340D01*
X64213191Y-89737004D01*
X64185676Y-89803436D01*
X64180262Y-89816506D01*
X64180260Y-89816511D01*
X64149500Y-89971153D01*
X64149500Y-90128846D01*
X64180261Y-90283489D01*
X64180264Y-90283501D01*
X64240602Y-90429172D01*
X64240609Y-90429185D01*
X64328210Y-90560288D01*
X64328213Y-90560292D01*
X64439707Y-90671786D01*
X64439711Y-90671789D01*
X64570814Y-90759390D01*
X64570827Y-90759397D01*
X64716498Y-90819735D01*
X64716503Y-90819737D01*
X64840009Y-90844304D01*
X64871153Y-90850499D01*
X64871156Y-90850500D01*
X64871158Y-90850500D01*
X65028844Y-90850500D01*
X65028845Y-90850499D01*
X65183497Y-90819737D01*
X65329179Y-90759394D01*
X65460289Y-90671789D01*
X65571789Y-90560289D01*
X65659394Y-90429179D01*
X65719737Y-90283497D01*
X65750500Y-90128842D01*
X65750500Y-90128840D01*
X65750637Y-90128152D01*
X65783021Y-90066241D01*
X65784462Y-90064773D01*
X65880520Y-89968716D01*
X65908497Y-89920258D01*
X65936969Y-89870944D01*
X65936970Y-89870942D01*
X65959574Y-89831790D01*
X65959573Y-89831790D01*
X65959577Y-89831785D01*
X66000500Y-89679057D01*
X66000500Y-89520943D01*
X66000500Y-84939060D01*
X66000501Y-84939047D01*
X66000501Y-84770944D01*
X66000177Y-84769735D01*
X65959577Y-84618216D01*
X65949349Y-84600500D01*
X65880524Y-84481290D01*
X65880518Y-84481282D01*
X65037590Y-83638355D01*
X65037588Y-83638352D01*
X64918717Y-83519481D01*
X64918716Y-83519480D01*
X64831904Y-83469360D01*
X64831904Y-83469359D01*
X64831900Y-83469358D01*
X64781785Y-83440423D01*
X64629057Y-83399499D01*
X64470943Y-83399499D01*
X64463347Y-83399499D01*
X64463331Y-83399500D01*
X62529766Y-83399500D01*
X62511622Y-83394172D01*
X62492713Y-83393835D01*
X62464495Y-83380334D01*
X62462727Y-83379815D01*
X62460875Y-83378602D01*
X62397711Y-83336397D01*
X62352906Y-83282785D01*
X62344199Y-83213460D01*
X62374354Y-83150432D01*
X62397712Y-83130192D01*
X62410289Y-83121789D01*
X62521789Y-83010289D01*
X62609394Y-82879179D01*
X62669737Y-82733497D01*
X62700500Y-82578842D01*
X62700500Y-82421158D01*
X62700500Y-82421155D01*
X62700499Y-82421153D01*
X62669738Y-82266510D01*
X62669737Y-82266503D01*
X62642467Y-82200666D01*
X62609397Y-82120827D01*
X62609390Y-82120814D01*
X62521789Y-81989711D01*
X62521786Y-81989707D01*
X62410292Y-81878213D01*
X62410288Y-81878210D01*
X62279185Y-81790609D01*
X62279172Y-81790602D01*
X62133501Y-81730264D01*
X62133489Y-81730261D01*
X61978845Y-81699500D01*
X61978842Y-81699500D01*
X61821158Y-81699500D01*
X61821155Y-81699500D01*
X61666510Y-81730261D01*
X61666498Y-81730264D01*
X61520827Y-81790602D01*
X61520814Y-81790609D01*
X61389125Y-81878602D01*
X61322447Y-81899480D01*
X61320234Y-81899500D01*
X57049097Y-81899500D01*
X57027858Y-81893263D01*
X57005781Y-81891688D01*
X56994989Y-81883612D01*
X56982058Y-81879815D01*
X56967565Y-81863090D01*
X56949841Y-81849826D01*
X56945127Y-81837195D01*
X56936303Y-81827011D01*
X56933153Y-81805105D01*
X56925414Y-81784365D01*
X56928277Y-81771193D01*
X56926359Y-81757853D01*
X56935554Y-81737717D01*
X56940256Y-81716090D01*
X56953536Y-81698343D01*
X56955384Y-81694297D01*
X56961388Y-81687846D01*
X56964650Y-81684584D01*
X57025964Y-81651093D01*
X57028150Y-81650638D01*
X57100315Y-81636283D01*
X57183497Y-81619737D01*
X57329179Y-81559394D01*
X57460289Y-81471789D01*
X57571789Y-81360289D01*
X57659394Y-81229179D01*
X57719737Y-81083497D01*
X57750500Y-80928842D01*
X57750500Y-80771158D01*
X57750500Y-80771155D01*
X57750499Y-80771153D01*
X57732180Y-80679057D01*
X57719737Y-80616503D01*
X57719735Y-80616498D01*
X57688435Y-80540931D01*
X57680966Y-80471461D01*
X57712242Y-80408982D01*
X57772331Y-80373331D01*
X57827186Y-80371862D01*
X57884353Y-80383233D01*
X57971155Y-80400500D01*
X57971158Y-80400500D01*
X58128844Y-80400500D01*
X58128845Y-80400499D01*
X58283497Y-80369737D01*
X58401592Y-80320821D01*
X58429172Y-80309397D01*
X58429172Y-80309396D01*
X58429179Y-80309394D01*
X58560289Y-80221789D01*
X58671789Y-80110289D01*
X58759394Y-79979179D01*
X58819737Y-79833497D01*
X58850500Y-79678842D01*
X58850500Y-79578269D01*
X58870185Y-79511230D01*
X58922989Y-79465475D01*
X58992147Y-79455531D01*
X59055703Y-79484556D01*
X59074292Y-79505626D01*
X59074347Y-79505581D01*
X59075609Y-79507119D01*
X59077603Y-79509379D01*
X59078212Y-79510291D01*
X59189707Y-79621786D01*
X59189711Y-79621789D01*
X59320814Y-79709390D01*
X59320827Y-79709397D01*
X59466498Y-79769735D01*
X59466503Y-79769737D01*
X59621153Y-79800499D01*
X59621156Y-79800500D01*
X59621158Y-79800500D01*
X59778844Y-79800500D01*
X59778845Y-79800499D01*
X59933497Y-79769737D01*
X60079179Y-79709394D01*
X60210289Y-79621789D01*
X60321789Y-79510289D01*
X60336797Y-79487828D01*
X60390408Y-79443022D01*
X60459733Y-79434313D01*
X60522761Y-79464467D01*
X60559481Y-79523909D01*
X60563900Y-79556717D01*
X60563900Y-80163517D01*
X60544215Y-80230556D01*
X60543002Y-80232408D01*
X60455009Y-80364097D01*
X60455002Y-80364110D01*
X60394664Y-80509781D01*
X60394661Y-80509793D01*
X60363900Y-80664436D01*
X60363900Y-80822129D01*
X60394661Y-80976772D01*
X60394664Y-80976784D01*
X60455002Y-81122455D01*
X60455009Y-81122468D01*
X60542610Y-81253571D01*
X60542613Y-81253575D01*
X60654107Y-81365069D01*
X60654111Y-81365072D01*
X60785214Y-81452673D01*
X60785227Y-81452680D01*
X60917482Y-81507461D01*
X60930903Y-81513020D01*
X61085553Y-81543782D01*
X61085556Y-81543783D01*
X61085558Y-81543783D01*
X61243244Y-81543783D01*
X61243245Y-81543782D01*
X61397897Y-81513020D01*
X61521781Y-81461706D01*
X61543572Y-81452680D01*
X61543572Y-81452679D01*
X61543579Y-81452677D01*
X61674689Y-81365072D01*
X61716159Y-81323602D01*
X61777482Y-81290116D01*
X61847173Y-81295100D01*
X61884202Y-81318897D01*
X61885001Y-81317924D01*
X61889711Y-81321789D01*
X62020814Y-81409390D01*
X62020827Y-81409397D01*
X62166498Y-81469735D01*
X62166503Y-81469737D01*
X62321153Y-81500499D01*
X62321156Y-81500500D01*
X62321158Y-81500500D01*
X62478844Y-81500500D01*
X62478845Y-81500499D01*
X62633497Y-81469737D01*
X62779179Y-81409394D01*
X62910289Y-81321789D01*
X63021789Y-81210289D01*
X63109394Y-81079179D01*
X63169737Y-80933497D01*
X63200500Y-80778842D01*
X63200500Y-80621158D01*
X63200500Y-80621155D01*
X63200499Y-80621153D01*
X63178348Y-80509793D01*
X63169737Y-80466503D01*
X63142398Y-80400500D01*
X63109397Y-80320827D01*
X63109390Y-80320814D01*
X63021789Y-80189711D01*
X63021786Y-80189707D01*
X62910292Y-80078213D01*
X62910288Y-80078210D01*
X62779185Y-79990609D01*
X62779172Y-79990602D01*
X62633501Y-79930264D01*
X62633491Y-79930261D01*
X62478151Y-79899362D01*
X62416241Y-79866977D01*
X62414662Y-79865426D01*
X62151219Y-79601983D01*
X62117734Y-79540660D01*
X62114900Y-79514302D01*
X62114900Y-78803460D01*
X62114901Y-78803447D01*
X62114901Y-78635344D01*
X62114901Y-78635343D01*
X62073977Y-78482616D01*
X62020339Y-78389711D01*
X61994924Y-78345690D01*
X61994918Y-78345682D01*
X60634573Y-76985337D01*
X60601088Y-76924014D01*
X60600637Y-76921847D01*
X60600499Y-76921153D01*
X60569737Y-76766503D01*
X60541902Y-76699303D01*
X60509397Y-76620827D01*
X60509390Y-76620814D01*
X60421789Y-76489711D01*
X60421786Y-76489707D01*
X60310292Y-76378213D01*
X60310288Y-76378210D01*
X60179185Y-76290609D01*
X60179172Y-76290602D01*
X60033501Y-76230264D01*
X60033489Y-76230261D01*
X59878845Y-76199500D01*
X59878842Y-76199500D01*
X59721158Y-76199500D01*
X59721155Y-76199500D01*
X59566510Y-76230261D01*
X59566498Y-76230264D01*
X59420827Y-76290602D01*
X59420814Y-76290609D01*
X59289711Y-76378210D01*
X59289707Y-76378213D01*
X59178213Y-76489707D01*
X59178210Y-76489711D01*
X59090609Y-76620814D01*
X59090602Y-76620827D01*
X59030264Y-76766498D01*
X59030261Y-76766510D01*
X58999500Y-76921153D01*
X58999500Y-77078846D01*
X59030261Y-77233489D01*
X59030264Y-77233501D01*
X59090602Y-77379172D01*
X59090609Y-77379185D01*
X59120866Y-77424467D01*
X59141744Y-77491144D01*
X59132326Y-77540810D01*
X59080263Y-77666503D01*
X59080262Y-77666506D01*
X59080262Y-77666507D01*
X59080261Y-77666510D01*
X59049500Y-77821153D01*
X59049500Y-77875500D01*
X59029815Y-77942539D01*
X58977011Y-77988294D01*
X58925500Y-77999500D01*
X54898598Y-77999500D01*
X54831559Y-77979815D01*
X54785804Y-77927011D01*
X54775860Y-77857853D01*
X54804885Y-77794297D01*
X54810917Y-77787819D01*
X54871787Y-77726948D01*
X54871790Y-77726945D01*
X54959395Y-77595835D01*
X55019738Y-77450153D01*
X55050501Y-77295498D01*
X55050501Y-77137814D01*
X55050501Y-77137811D01*
X55050500Y-77137809D01*
X55019739Y-76983166D01*
X55019738Y-76983159D01*
X54994057Y-76921158D01*
X54959397Y-76837481D01*
X54956975Y-76832949D01*
X54942736Y-76764545D01*
X54967739Y-76699303D01*
X55024046Y-76657934D01*
X55066336Y-76650500D01*
X56320234Y-76650500D01*
X56387273Y-76670185D01*
X56389125Y-76671398D01*
X56520814Y-76759390D01*
X56520827Y-76759397D01*
X56666498Y-76819735D01*
X56666503Y-76819737D01*
X56755708Y-76837481D01*
X56821153Y-76850499D01*
X56821156Y-76850500D01*
X56821158Y-76850500D01*
X56978844Y-76850500D01*
X56978845Y-76850499D01*
X57133497Y-76819737D01*
X57279179Y-76759394D01*
X57410289Y-76671789D01*
X57521789Y-76560289D01*
X57609394Y-76429179D01*
X57669737Y-76283497D01*
X57700500Y-76128842D01*
X57700638Y-76128150D01*
X57733023Y-76066239D01*
X57734517Y-76064717D01*
X59780520Y-74018716D01*
X59859577Y-73881784D01*
X59900501Y-73729057D01*
X59900501Y-73570942D01*
X59900501Y-73563347D01*
X59900500Y-73563329D01*
X59900500Y-67689059D01*
X59900501Y-67689046D01*
X59900501Y-67520945D01*
X59900501Y-67520943D01*
X59859577Y-67368215D01*
X59819904Y-67299500D01*
X59780520Y-67231284D01*
X59668716Y-67119480D01*
X59664385Y-67115149D01*
X59664374Y-67115139D01*
X58387590Y-65838355D01*
X58387588Y-65838352D01*
X58268717Y-65719481D01*
X58268709Y-65719475D01*
X58173781Y-65664669D01*
X58173779Y-65664668D01*
X58131790Y-65640425D01*
X58131789Y-65640424D01*
X58113379Y-65635491D01*
X57979057Y-65599499D01*
X57820943Y-65599499D01*
X57813347Y-65599499D01*
X57813331Y-65599500D01*
X57674424Y-65599500D01*
X57607385Y-65579815D01*
X57561630Y-65527011D01*
X57551686Y-65457853D01*
X57559863Y-65428048D01*
X57600955Y-65328842D01*
X57619737Y-65283497D01*
X57650500Y-65128842D01*
X57650500Y-64971158D01*
X57650500Y-64971155D01*
X57650499Y-64971153D01*
X57635103Y-64893753D01*
X57619737Y-64816503D01*
X57606062Y-64783489D01*
X57559397Y-64670827D01*
X57559390Y-64670814D01*
X57471789Y-64539711D01*
X57471786Y-64539707D01*
X57432505Y-64500427D01*
X57399019Y-64439104D01*
X57398569Y-64388549D01*
X57400500Y-64378842D01*
X57400500Y-64221158D01*
X57400500Y-64221155D01*
X57400499Y-64221153D01*
X57392569Y-64181286D01*
X57369737Y-64066503D01*
X57359801Y-64042516D01*
X57309397Y-63920827D01*
X57309395Y-63920823D01*
X57309394Y-63920821D01*
X57309390Y-63920815D01*
X57289770Y-63891451D01*
X57268892Y-63824774D01*
X57287376Y-63757394D01*
X57323982Y-63719458D01*
X57378182Y-63683242D01*
X57410289Y-63661789D01*
X57521789Y-63550289D01*
X57609394Y-63419179D01*
X57669737Y-63273497D01*
X57700500Y-63118842D01*
X57700500Y-62974500D01*
X57720185Y-62907461D01*
X57772989Y-62861706D01*
X57824500Y-62850500D01*
X59498809Y-62850500D01*
X59565848Y-62870185D01*
X59586490Y-62886819D01*
X61640425Y-64940754D01*
X61673910Y-65002077D01*
X61674361Y-65004243D01*
X61705261Y-65159585D01*
X61705264Y-65159595D01*
X61765602Y-65305266D01*
X61765609Y-65305279D01*
X61853210Y-65436382D01*
X61853213Y-65436386D01*
X61964707Y-65547880D01*
X61964711Y-65547883D01*
X62095814Y-65635484D01*
X62095827Y-65635491D01*
X62201301Y-65679179D01*
X62241503Y-65695831D01*
X62360369Y-65719475D01*
X62396153Y-65726593D01*
X62396156Y-65726594D01*
X62396158Y-65726594D01*
X62553844Y-65726594D01*
X62553845Y-65726593D01*
X62708497Y-65695831D01*
X62842260Y-65640425D01*
X62854172Y-65635491D01*
X62854172Y-65635490D01*
X62854179Y-65635488D01*
X62985289Y-65547883D01*
X63096789Y-65436383D01*
X63184394Y-65305273D01*
X63197141Y-65274500D01*
X63219235Y-65221158D01*
X63244737Y-65159591D01*
X63275500Y-65004936D01*
X63275500Y-64847252D01*
X63275500Y-64847249D01*
X63275499Y-64847247D01*
X63245763Y-64697757D01*
X63244737Y-64692597D01*
X63216833Y-64625230D01*
X63184397Y-64546921D01*
X63184390Y-64546908D01*
X63096789Y-64415805D01*
X63096786Y-64415801D01*
X62985292Y-64304307D01*
X62985288Y-64304304D01*
X62854185Y-64216703D01*
X62854172Y-64216696D01*
X62708501Y-64156358D01*
X62708491Y-64156355D01*
X62553149Y-64125455D01*
X62491238Y-64093070D01*
X62489660Y-64091519D01*
X60286496Y-61888355D01*
X60286494Y-61888352D01*
X60167623Y-61769481D01*
X60167622Y-61769480D01*
X60080810Y-61719360D01*
X60080810Y-61719359D01*
X60080806Y-61719358D01*
X60030691Y-61690423D01*
X59877963Y-61649499D01*
X59719849Y-61649499D01*
X59712253Y-61649499D01*
X59712237Y-61649500D01*
X59317649Y-61649500D01*
X59250610Y-61629815D01*
X59204855Y-61577011D01*
X59194911Y-61507853D01*
X59196031Y-61501310D01*
X59200500Y-61478841D01*
X59200500Y-61321155D01*
X59200499Y-61321153D01*
X59186346Y-61250000D01*
X59169737Y-61166503D01*
X59165264Y-61155703D01*
X59151284Y-61121952D01*
X59143815Y-61052483D01*
X59175091Y-60990004D01*
X59235180Y-60954352D01*
X59265845Y-60950500D01*
X59620234Y-60950500D01*
X59687273Y-60970185D01*
X59689125Y-60971398D01*
X59820814Y-61059390D01*
X59820827Y-61059397D01*
X59899894Y-61092147D01*
X59966503Y-61119737D01*
X60121153Y-61150499D01*
X60121156Y-61150500D01*
X60121158Y-61150500D01*
X60278844Y-61150500D01*
X60278845Y-61150499D01*
X60433497Y-61119737D01*
X60579179Y-61059394D01*
X60710289Y-60971789D01*
X60821789Y-60860289D01*
X60909394Y-60729179D01*
X60969737Y-60583497D01*
X61000500Y-60428842D01*
X61000500Y-60374500D01*
X61020185Y-60307461D01*
X61072989Y-60261706D01*
X61124500Y-60250500D01*
X63199903Y-60250500D01*
X63266942Y-60270185D01*
G37*
%TD.AperFunction*%
%TA.AperFunction,Conductor*%
G36*
X53923637Y-83120185D02*
G01*
X53969392Y-83172989D01*
X53979336Y-83242147D01*
X53971159Y-83271953D01*
X53923822Y-83386232D01*
X53923820Y-83386240D01*
X53895000Y-83531126D01*
X53895000Y-83678873D01*
X53923821Y-83823764D01*
X53924607Y-83826356D01*
X53924619Y-83827779D01*
X53925010Y-83829742D01*
X53924637Y-83829816D01*
X53924731Y-83840370D01*
X53929629Y-83853501D01*
X53925035Y-83874614D01*
X53925228Y-83896223D01*
X53917457Y-83909453D01*
X53914777Y-83921774D01*
X53893626Y-83950028D01*
X53840028Y-84003626D01*
X53778705Y-84037111D01*
X53719794Y-84034745D01*
X53719742Y-84035010D01*
X53718060Y-84034675D01*
X53716356Y-84034607D01*
X53713764Y-84033821D01*
X53568872Y-84005000D01*
X53421128Y-84005000D01*
X53276240Y-84033820D01*
X53276228Y-84033823D01*
X53170974Y-84077420D01*
X53170974Y-84077421D01*
X53468789Y-84375235D01*
X53502274Y-84436558D01*
X53504969Y-84468781D01*
X53504337Y-84482120D01*
X53494500Y-84518834D01*
X53494499Y-84655000D01*
X53475109Y-84655000D01*
X53438355Y-84670224D01*
X53410224Y-84698355D01*
X53395000Y-84735109D01*
X53395000Y-84774891D01*
X53410224Y-84811645D01*
X53438355Y-84839776D01*
X53475109Y-84855000D01*
X53494500Y-84855000D01*
X53494500Y-84949902D01*
X53474815Y-85016941D01*
X53458181Y-85037583D01*
X53019484Y-85476280D01*
X52556286Y-85939478D01*
X52556284Y-85939480D01*
X52497330Y-85998434D01*
X52444479Y-86051285D01*
X52439536Y-86057727D01*
X52439261Y-86057516D01*
X52426108Y-86074654D01*
X47287584Y-91213181D01*
X47226261Y-91246666D01*
X47199903Y-91249500D01*
X45699097Y-91249500D01*
X45632058Y-91229815D01*
X45586303Y-91177011D01*
X45576359Y-91107853D01*
X45605384Y-91044297D01*
X45611416Y-91037819D01*
X46729617Y-89919618D01*
X50108506Y-86540727D01*
X50108511Y-86540724D01*
X50118714Y-86530520D01*
X50118716Y-86530520D01*
X50230520Y-86418716D01*
X50304483Y-86290608D01*
X50304484Y-86290607D01*
X50306550Y-86287027D01*
X50309577Y-86281785D01*
X50350500Y-86129058D01*
X50350500Y-85970943D01*
X50350500Y-84876915D01*
X50356738Y-84855669D01*
X50358318Y-84833581D01*
X50366390Y-84822797D01*
X50370185Y-84809876D01*
X50386918Y-84795376D01*
X50400190Y-84777648D01*
X50412810Y-84772940D01*
X50422989Y-84764121D01*
X50444906Y-84760969D01*
X50465654Y-84753231D01*
X50478814Y-84756093D01*
X50492147Y-84754177D01*
X50512290Y-84763376D01*
X50533927Y-84768083D01*
X50551652Y-84781351D01*
X50555703Y-84783202D01*
X50562181Y-84789234D01*
X50701516Y-84928569D01*
X50735001Y-84989892D01*
X50735452Y-84992058D01*
X50766352Y-85147400D01*
X50766355Y-85147410D01*
X50826693Y-85293081D01*
X50826700Y-85293094D01*
X50914301Y-85424197D01*
X50914303Y-85424200D01*
X51025798Y-85535695D01*
X51025802Y-85535698D01*
X51156905Y-85623299D01*
X51156918Y-85623306D01*
X51302589Y-85683644D01*
X51302594Y-85683646D01*
X51394192Y-85701866D01*
X51457244Y-85714408D01*
X51457247Y-85714409D01*
X51457249Y-85714409D01*
X51614935Y-85714409D01*
X51614936Y-85714408D01*
X51769588Y-85683646D01*
X51915270Y-85623303D01*
X52046380Y-85535698D01*
X52100814Y-85481264D01*
X52157879Y-85424200D01*
X52157880Y-85424198D01*
X52245485Y-85293088D01*
X52305828Y-85147406D01*
X52336591Y-84992751D01*
X52336591Y-84835067D01*
X52336591Y-84835064D01*
X52336590Y-84835062D01*
X52309572Y-84699230D01*
X52305970Y-84681126D01*
X52745000Y-84681126D01*
X52745000Y-84828873D01*
X52773820Y-84973759D01*
X52773822Y-84973767D01*
X52817421Y-85079024D01*
X53141446Y-84755000D01*
X53141446Y-84754999D01*
X52817421Y-84430974D01*
X52817420Y-84430974D01*
X52773823Y-84536228D01*
X52773820Y-84536240D01*
X52745000Y-84681126D01*
X52305970Y-84681126D01*
X52305829Y-84680416D01*
X52305826Y-84680407D01*
X52245488Y-84534736D01*
X52245481Y-84534723D01*
X52157880Y-84403620D01*
X52157877Y-84403616D01*
X52046383Y-84292122D01*
X52046379Y-84292119D01*
X51915276Y-84204518D01*
X51915263Y-84204511D01*
X51769592Y-84144173D01*
X51769582Y-84144170D01*
X51614240Y-84113270D01*
X51552329Y-84080885D01*
X51550751Y-84079334D01*
X51330048Y-83858631D01*
X51296563Y-83797308D01*
X51301547Y-83727616D01*
X51303168Y-83723497D01*
X51304832Y-83719480D01*
X51319737Y-83683497D01*
X51350500Y-83528842D01*
X51350500Y-83371158D01*
X51350500Y-83371155D01*
X51326140Y-83248692D01*
X51332367Y-83179100D01*
X51375230Y-83123923D01*
X51441120Y-83100678D01*
X51447757Y-83100500D01*
X53856598Y-83100500D01*
X53923637Y-83120185D01*
G37*
%TD.AperFunction*%
%TA.AperFunction,Conductor*%
G36*
X57892358Y-87620185D02*
G01*
X57938113Y-87672989D01*
X57948057Y-87742147D01*
X57919032Y-87805703D01*
X57875575Y-87837038D01*
X57875670Y-87837215D01*
X57874361Y-87837914D01*
X57872770Y-87839062D01*
X57870300Y-87840084D01*
X57870293Y-87840088D01*
X57739190Y-87927689D01*
X57739186Y-87927692D01*
X57627692Y-88039186D01*
X57627689Y-88039190D01*
X57540088Y-88170293D01*
X57540081Y-88170306D01*
X57479743Y-88315977D01*
X57479740Y-88315989D01*
X57448979Y-88470632D01*
X57448979Y-88628325D01*
X57461808Y-88692820D01*
X57455581Y-88762412D01*
X57427872Y-88804692D01*
X56969385Y-89263181D01*
X56908062Y-89296666D01*
X56881704Y-89299500D01*
X56028018Y-89299500D01*
X55960979Y-89279815D01*
X55939973Y-89262815D01*
X55931554Y-89254326D01*
X55921789Y-89239711D01*
X55810289Y-89128211D01*
X55799013Y-89120676D01*
X55790226Y-89111816D01*
X55779303Y-89091614D01*
X55764573Y-89073987D01*
X55762999Y-89061458D01*
X55756996Y-89050354D01*
X55758729Y-89027453D01*
X55755868Y-89004662D01*
X55761317Y-88993271D01*
X55762271Y-88980684D01*
X55776110Y-88962355D01*
X55786025Y-88941635D01*
X55796765Y-88935000D01*
X55804374Y-88924925D01*
X55825929Y-88916987D01*
X55845470Y-88904918D01*
X55866335Y-88902108D01*
X55869940Y-88900781D01*
X55872301Y-88901304D01*
X55878271Y-88900501D01*
X55979054Y-88900501D01*
X55979057Y-88900501D01*
X56131785Y-88859577D01*
X56181904Y-88830639D01*
X56268716Y-88780520D01*
X56380520Y-88668716D01*
X56380520Y-88668714D01*
X56390728Y-88658507D01*
X56390729Y-88658504D01*
X57412417Y-87636819D01*
X57473740Y-87603334D01*
X57500098Y-87600500D01*
X57825319Y-87600500D01*
X57892358Y-87620185D01*
G37*
%TD.AperFunction*%
%TA.AperFunction,Conductor*%
G36*
X54817694Y-85481264D02*
G01*
X54873628Y-85523135D01*
X54898045Y-85588599D01*
X54890858Y-85632979D01*
X54892527Y-85633427D01*
X54890424Y-85641275D01*
X54890423Y-85641277D01*
X54849499Y-85794005D01*
X54849499Y-85794007D01*
X54849499Y-85810137D01*
X54844476Y-85827243D01*
X54844476Y-85845072D01*
X54834836Y-85860071D01*
X54829814Y-85877176D01*
X54816342Y-85888849D01*
X54806702Y-85903850D01*
X54790482Y-85911257D01*
X54777010Y-85922931D01*
X54759364Y-85925468D01*
X54743146Y-85932875D01*
X54741774Y-85932677D01*
X54745000Y-85924891D01*
X54745000Y-85885109D01*
X54729776Y-85848355D01*
X54701645Y-85820224D01*
X54664891Y-85805000D01*
X54625109Y-85805000D01*
X54588355Y-85820224D01*
X54560224Y-85848355D01*
X54545000Y-85885109D01*
X54545000Y-85924891D01*
X54560224Y-85961645D01*
X54574289Y-85975710D01*
X54555904Y-85994096D01*
X54547958Y-85998434D01*
X54542533Y-86005682D01*
X54517773Y-86014916D01*
X54494581Y-86027581D01*
X54485551Y-86026935D01*
X54477069Y-86030099D01*
X54451248Y-86024482D01*
X54424889Y-86022597D01*
X54415835Y-86016778D01*
X54408796Y-86015247D01*
X54380542Y-85994096D01*
X54378021Y-85991575D01*
X54344536Y-85930252D01*
X54349520Y-85860560D01*
X54378018Y-85816215D01*
X54453509Y-85740724D01*
X54453514Y-85740721D01*
X54463714Y-85730520D01*
X54463716Y-85730520D01*
X54575520Y-85618716D01*
X54578563Y-85613446D01*
X54593550Y-85599155D01*
X54604747Y-85581733D01*
X54618326Y-85575531D01*
X54629130Y-85565230D01*
X54631882Y-85564562D01*
X54686679Y-85509765D01*
X54748002Y-85476280D01*
X54817694Y-85481264D01*
G37*
%TD.AperFunction*%
%TA.AperFunction,Conductor*%
G36*
X55059731Y-84820185D02*
G01*
X55080373Y-84836819D01*
X55229137Y-84985583D01*
X55265057Y-84996131D01*
X55310812Y-85048935D01*
X55320756Y-85118093D01*
X55291731Y-85181649D01*
X55285699Y-85188127D01*
X55078127Y-85395699D01*
X55016804Y-85429184D01*
X54947112Y-85424200D01*
X54891179Y-85382328D01*
X54874763Y-85338317D01*
X54731819Y-85195373D01*
X54717115Y-85168445D01*
X54700523Y-85142627D01*
X54699631Y-85136426D01*
X54698334Y-85134050D01*
X54695500Y-85107692D01*
X54695500Y-84924500D01*
X54715185Y-84857461D01*
X54767989Y-84811706D01*
X54819500Y-84800500D01*
X54992692Y-84800500D01*
X55059731Y-84820185D01*
G37*
%TD.AperFunction*%
%TA.AperFunction,Conductor*%
G36*
X52433651Y-81456844D02*
G01*
X52456108Y-81458593D01*
X52466532Y-81466499D01*
X52479083Y-81470185D01*
X52493829Y-81487203D01*
X52511777Y-81500816D01*
X52521847Y-81519537D01*
X52524838Y-81522989D01*
X52526541Y-81528265D01*
X52528496Y-81531898D01*
X52531790Y-81540903D01*
X52540263Y-81583497D01*
X52600606Y-81729179D01*
X52600741Y-81729382D01*
X52602028Y-81732898D01*
X52604138Y-81765264D01*
X52607606Y-81797517D01*
X52606398Y-81799929D01*
X52606574Y-81802620D01*
X52590852Y-81830986D01*
X52576331Y-81859996D01*
X52574011Y-81861372D01*
X52572704Y-81863731D01*
X52544130Y-81879100D01*
X52516241Y-81895648D01*
X52513547Y-81895551D01*
X52511171Y-81896830D01*
X52485576Y-81899500D01*
X50420938Y-81899500D01*
X50376646Y-81911368D01*
X50306796Y-81909704D01*
X50248934Y-81870541D01*
X50221432Y-81806311D01*
X50222937Y-81767405D01*
X50246074Y-81651093D01*
X50250500Y-81628844D01*
X50250500Y-81574500D01*
X50270185Y-81507461D01*
X50322989Y-81461706D01*
X50374500Y-81450500D01*
X52412044Y-81450500D01*
X52433651Y-81456844D01*
G37*
%TD.AperFunction*%
%TA.AperFunction,Conductor*%
G36*
X51227172Y-76924576D02*
G01*
X51272749Y-76957135D01*
X51273903Y-76955982D01*
X51389707Y-77071786D01*
X51389711Y-77071789D01*
X51520814Y-77159390D01*
X51520827Y-77159397D01*
X51588961Y-77187618D01*
X51666503Y-77219737D01*
X51759434Y-77238222D01*
X51821341Y-77270605D01*
X51822921Y-77272157D01*
X52247940Y-77697176D01*
X52247941Y-77697177D01*
X52247943Y-77697178D01*
X52370807Y-77768113D01*
X52419022Y-77818679D01*
X52432246Y-77887286D01*
X52406278Y-77952151D01*
X52349364Y-77992680D01*
X52308807Y-77999500D01*
X50470940Y-77999500D01*
X50430018Y-78010464D01*
X50430019Y-78010465D01*
X50342565Y-78033898D01*
X50272715Y-78032235D01*
X50214853Y-77993072D01*
X50187349Y-77928844D01*
X50198936Y-77859942D01*
X50222787Y-77826446D01*
X51096159Y-76953075D01*
X51157480Y-76919592D01*
X51227172Y-76924576D01*
G37*
%TD.AperFunction*%
%TA.AperFunction,Conductor*%
G36*
X58618834Y-69782914D02*
G01*
X58674767Y-69824786D01*
X58699184Y-69890250D01*
X58699500Y-69899096D01*
X58699500Y-73349902D01*
X58679815Y-73416941D01*
X58663181Y-73437583D01*
X56885339Y-75215425D01*
X56824016Y-75248910D01*
X56821850Y-75249361D01*
X56666508Y-75280261D01*
X56666498Y-75280264D01*
X56520827Y-75340602D01*
X56520814Y-75340609D01*
X56389125Y-75428602D01*
X56322447Y-75449480D01*
X56320234Y-75449500D01*
X55928269Y-75449500D01*
X55861230Y-75429815D01*
X55815475Y-75377011D01*
X55805531Y-75307853D01*
X55834556Y-75244297D01*
X55855626Y-75225707D01*
X55855581Y-75225653D01*
X55857119Y-75224390D01*
X55859379Y-75222397D01*
X55859391Y-75222389D01*
X55860289Y-75221789D01*
X55971789Y-75110289D01*
X56059394Y-74979179D01*
X56119737Y-74833497D01*
X56150500Y-74678842D01*
X56150500Y-74521158D01*
X56150500Y-74521155D01*
X56150499Y-74521153D01*
X56119737Y-74366503D01*
X56104224Y-74329050D01*
X56059397Y-74220827D01*
X56059390Y-74220814D01*
X55971789Y-74089711D01*
X55971786Y-74089707D01*
X55860292Y-73978213D01*
X55860288Y-73978210D01*
X55729185Y-73890609D01*
X55729172Y-73890602D01*
X55583501Y-73830264D01*
X55583489Y-73830261D01*
X55428845Y-73799500D01*
X55428842Y-73799500D01*
X55271158Y-73799500D01*
X55271155Y-73799500D01*
X55116510Y-73830261D01*
X55116503Y-73830263D01*
X55067976Y-73850363D01*
X55058976Y-73851330D01*
X55051190Y-73855950D01*
X55024777Y-73855006D01*
X54998507Y-73857830D01*
X54990412Y-73853778D01*
X54981365Y-73853455D01*
X54959659Y-73838384D01*
X54936028Y-73826555D01*
X54929889Y-73817714D01*
X54923973Y-73813606D01*
X54905967Y-73783261D01*
X54876412Y-73711908D01*
X54868945Y-73642441D01*
X54900221Y-73579962D01*
X54943517Y-73549901D01*
X55068088Y-73498303D01*
X55199198Y-73410698D01*
X55310698Y-73299198D01*
X55398303Y-73168088D01*
X55402765Y-73157317D01*
X55458644Y-73022410D01*
X55458646Y-73022406D01*
X55467745Y-72976658D01*
X55500129Y-72914751D01*
X55560844Y-72880176D01*
X55630613Y-72883915D01*
X55687286Y-72924780D01*
X55692464Y-72931961D01*
X55778210Y-73060288D01*
X55778213Y-73060292D01*
X55889707Y-73171786D01*
X55889711Y-73171789D01*
X56020814Y-73259390D01*
X56020827Y-73259397D01*
X56116917Y-73299198D01*
X56166503Y-73319737D01*
X56318152Y-73349902D01*
X56321153Y-73350499D01*
X56321156Y-73350500D01*
X56321158Y-73350500D01*
X56478844Y-73350500D01*
X56478845Y-73350499D01*
X56633497Y-73319737D01*
X56779179Y-73259394D01*
X56910289Y-73171789D01*
X57021789Y-73060289D01*
X57109394Y-72929179D01*
X57169737Y-72783497D01*
X57200500Y-72628842D01*
X57200500Y-72471158D01*
X57200500Y-72471155D01*
X57200499Y-72471153D01*
X57178120Y-72358646D01*
X57169737Y-72316503D01*
X57117094Y-72189410D01*
X57109397Y-72170827D01*
X57109390Y-72170814D01*
X57021398Y-72039125D01*
X57000520Y-71972447D01*
X57000500Y-71970234D01*
X57000500Y-71639060D01*
X57000501Y-71639047D01*
X57000501Y-71470944D01*
X56959576Y-71318214D01*
X56959573Y-71318209D01*
X56880524Y-71181290D01*
X56880518Y-71181282D01*
X56764931Y-71065695D01*
X56731446Y-71004372D01*
X56736430Y-70934680D01*
X56778302Y-70878747D01*
X56843766Y-70854330D01*
X56852612Y-70854014D01*
X57109817Y-70854014D01*
X57109833Y-70854015D01*
X57117429Y-70854015D01*
X57275540Y-70854015D01*
X57275543Y-70854015D01*
X57428271Y-70813091D01*
X57505130Y-70768716D01*
X57565202Y-70734034D01*
X57677006Y-70622230D01*
X57677006Y-70622228D01*
X57687210Y-70612025D01*
X57687213Y-70612020D01*
X58487820Y-69811414D01*
X58549142Y-69777930D01*
X58618834Y-69782914D01*
G37*
%TD.AperFunction*%
%TA.AperFunction,Conductor*%
G36*
X39387273Y-63570185D02*
G01*
X39389125Y-63571398D01*
X39520814Y-63659390D01*
X39520827Y-63659397D01*
X39620441Y-63700658D01*
X39674845Y-63744499D01*
X39696910Y-63810793D01*
X39692588Y-63827724D01*
X39692768Y-63827739D01*
X39688282Y-63884728D01*
X40320591Y-64517037D01*
X40257007Y-64534075D01*
X40142993Y-64599901D01*
X40049901Y-64692993D01*
X39984075Y-64807007D01*
X39967037Y-64870591D01*
X39296818Y-64200372D01*
X39263333Y-64139049D01*
X39260499Y-64112691D01*
X39260499Y-64102129D01*
X39260498Y-64102123D01*
X39260497Y-64102116D01*
X39254091Y-64042517D01*
X39253044Y-64039711D01*
X39203797Y-63907671D01*
X39203793Y-63907664D01*
X39117547Y-63792455D01*
X39105885Y-63783725D01*
X39092581Y-63773765D01*
X39074189Y-63749195D01*
X39054100Y-63726011D01*
X39053449Y-63721489D01*
X39050712Y-63717832D01*
X39048523Y-63687225D01*
X39044156Y-63656853D01*
X39046053Y-63652697D01*
X39045728Y-63648140D01*
X39060433Y-63621210D01*
X39073181Y-63593297D01*
X39077025Y-63590826D01*
X39079214Y-63586818D01*
X39106142Y-63572114D01*
X39131959Y-63555523D01*
X39138160Y-63554631D01*
X39140538Y-63553333D01*
X39166894Y-63550500D01*
X39320234Y-63550500D01*
X39387273Y-63570185D01*
G37*
%TD.AperFunction*%
%TA.AperFunction,Conductor*%
G36*
X37892539Y-51320185D02*
G01*
X37938294Y-51372989D01*
X37949500Y-51424500D01*
X37949500Y-51578846D01*
X37980261Y-51733489D01*
X37980264Y-51733501D01*
X38040602Y-51879172D01*
X38040609Y-51879185D01*
X38128210Y-52010288D01*
X38128213Y-52010292D01*
X38239707Y-52121786D01*
X38239711Y-52121789D01*
X38370814Y-52209390D01*
X38370827Y-52209397D01*
X38472952Y-52251698D01*
X38527356Y-52295538D01*
X38549421Y-52361833D01*
X38549500Y-52366259D01*
X38549500Y-58783574D01*
X38549499Y-58783592D01*
X38549499Y-58949298D01*
X38549498Y-58949298D01*
X38549499Y-58949301D01*
X38590423Y-59102029D01*
X38590424Y-59102031D01*
X38590423Y-59102031D01*
X38597721Y-59114670D01*
X38597722Y-59114671D01*
X38669477Y-59238956D01*
X38669479Y-59238959D01*
X38669480Y-59238960D01*
X38781284Y-59350764D01*
X38781285Y-59350765D01*
X39211040Y-59780520D01*
X39211042Y-59780521D01*
X39211046Y-59780524D01*
X39298970Y-59831286D01*
X39347972Y-59859577D01*
X39462140Y-59890168D01*
X39469384Y-59894584D01*
X39477817Y-59895515D01*
X39498765Y-59912493D01*
X39521797Y-59926532D01*
X39525505Y-59934165D01*
X39532097Y-59939508D01*
X39540541Y-59965120D01*
X39552326Y-59989379D01*
X39551318Y-59997804D01*
X39553976Y-60005864D01*
X39547232Y-60031979D01*
X39544031Y-60058755D01*
X39538173Y-60067060D01*
X39536507Y-60073515D01*
X39523863Y-60087351D01*
X39514284Y-60100934D01*
X39508879Y-60105937D01*
X39468072Y-60135586D01*
X39358478Y-60245179D01*
X39356726Y-60246802D01*
X39327493Y-60261331D01*
X39298843Y-60276976D01*
X39296375Y-60276799D01*
X39294159Y-60277901D01*
X39261719Y-60274321D01*
X39229151Y-60271992D01*
X39227168Y-60270508D01*
X39224711Y-60270237D01*
X39199355Y-60249686D01*
X39173218Y-60230120D01*
X39170762Y-60226512D01*
X39170431Y-60226244D01*
X39170291Y-60225820D01*
X39166946Y-60220906D01*
X39127317Y-60156656D01*
X39003345Y-60032684D01*
X38854124Y-59940643D01*
X38854119Y-59940641D01*
X38687697Y-59885494D01*
X38687690Y-59885493D01*
X38584986Y-59875000D01*
X38435000Y-59875000D01*
X38435000Y-60969670D01*
X38415255Y-60949925D01*
X38329745Y-60900556D01*
X38234370Y-60875000D01*
X38135630Y-60875000D01*
X38040255Y-60900556D01*
X37954745Y-60949925D01*
X37935000Y-60969670D01*
X37935000Y-59875000D01*
X37785027Y-59875000D01*
X37785012Y-59875001D01*
X37682302Y-59885494D01*
X37515880Y-59940641D01*
X37515875Y-59940643D01*
X37366654Y-60032684D01*
X37242684Y-60156654D01*
X37150643Y-60305875D01*
X37150641Y-60305880D01*
X37095494Y-60472302D01*
X37095493Y-60472309D01*
X37085000Y-60575013D01*
X37085000Y-61000000D01*
X37904670Y-61000000D01*
X37884925Y-61019745D01*
X37835556Y-61105255D01*
X37810000Y-61200630D01*
X37810000Y-61299370D01*
X37835556Y-61394745D01*
X37884925Y-61480255D01*
X37904670Y-61500000D01*
X37085001Y-61500000D01*
X37085001Y-61924986D01*
X37095494Y-62027698D01*
X37113577Y-62082270D01*
X37115978Y-62152098D01*
X37080246Y-62212140D01*
X37017726Y-62243332D01*
X36948266Y-62235771D01*
X36908190Y-62208954D01*
X36286819Y-61587583D01*
X36253334Y-61526260D01*
X36250500Y-61499902D01*
X36250500Y-57225974D01*
X36270185Y-57158935D01*
X36322989Y-57113180D01*
X36392147Y-57103236D01*
X36415437Y-57108926D01*
X36426419Y-57112767D01*
X36468216Y-57136898D01*
X36580019Y-57166855D01*
X36620942Y-57177821D01*
X36620943Y-57177821D01*
X36862303Y-57177821D01*
X36929342Y-57197506D01*
X36931194Y-57198719D01*
X37062883Y-57286711D01*
X37062896Y-57286718D01*
X37164594Y-57328842D01*
X37208572Y-57347058D01*
X37363222Y-57377820D01*
X37363225Y-57377821D01*
X37363227Y-57377821D01*
X37520913Y-57377821D01*
X37520914Y-57377820D01*
X37675566Y-57347058D01*
X37821248Y-57286715D01*
X37952358Y-57199110D01*
X38063858Y-57087610D01*
X38151463Y-56956500D01*
X38211806Y-56810818D01*
X38242569Y-56656163D01*
X38242569Y-56498479D01*
X38242569Y-56498476D01*
X38242568Y-56498474D01*
X38234060Y-56455703D01*
X38211806Y-56343824D01*
X38174527Y-56253823D01*
X38151466Y-56198148D01*
X38151459Y-56198135D01*
X38063858Y-56067032D01*
X38063855Y-56067028D01*
X37952361Y-55955534D01*
X37952357Y-55955531D01*
X37821254Y-55867930D01*
X37821241Y-55867923D01*
X37675570Y-55807585D01*
X37675558Y-55807582D01*
X37520914Y-55776821D01*
X37520911Y-55776821D01*
X37363227Y-55776821D01*
X37363224Y-55776821D01*
X37208580Y-55807581D01*
X37208575Y-55807583D01*
X37208573Y-55807583D01*
X37208572Y-55807584D01*
X37201471Y-55810525D01*
X37132004Y-55817991D01*
X37069525Y-55786714D01*
X37039463Y-55743414D01*
X37009397Y-55670827D01*
X37009390Y-55670814D01*
X36921789Y-55539711D01*
X36921786Y-55539707D01*
X36810292Y-55428213D01*
X36810288Y-55428210D01*
X36679185Y-55340609D01*
X36679172Y-55340602D01*
X36533501Y-55280264D01*
X36533489Y-55280261D01*
X36378845Y-55249500D01*
X36378842Y-55249500D01*
X36374500Y-55249500D01*
X36307461Y-55229815D01*
X36261706Y-55177011D01*
X36250500Y-55125500D01*
X36250500Y-52957901D01*
X36270185Y-52890862D01*
X36322989Y-52845107D01*
X36350301Y-52836285D01*
X36433497Y-52819737D01*
X36579179Y-52759394D01*
X36710289Y-52671789D01*
X36821789Y-52560289D01*
X36909394Y-52429179D01*
X36969737Y-52283497D01*
X37000500Y-52128842D01*
X37000500Y-51971158D01*
X37000500Y-51971155D01*
X37000499Y-51971153D01*
X36997147Y-51954302D01*
X36969737Y-51816503D01*
X36950955Y-51771158D01*
X36917382Y-51690105D01*
X36909913Y-51620636D01*
X36941188Y-51558157D01*
X36944262Y-51554972D01*
X37047971Y-51451264D01*
X37162416Y-51336819D01*
X37223739Y-51303334D01*
X37250097Y-51300500D01*
X37825500Y-51300500D01*
X37892539Y-51320185D01*
G37*
%TD.AperFunction*%
%TA.AperFunction,Conductor*%
G36*
X44742628Y-43420185D02*
G01*
X44788383Y-43472989D01*
X44798327Y-43542147D01*
X44778691Y-43593391D01*
X44693371Y-43721079D01*
X44693364Y-43721092D01*
X44617950Y-43903160D01*
X44617947Y-43903170D01*
X44579500Y-44096456D01*
X44579500Y-44096459D01*
X44579500Y-44893541D01*
X44579500Y-44893543D01*
X44579499Y-44893543D01*
X44617947Y-45086829D01*
X44617950Y-45086839D01*
X44693364Y-45268907D01*
X44693371Y-45268920D01*
X44802860Y-45432781D01*
X44802863Y-45432785D01*
X44942214Y-45572136D01*
X44942218Y-45572139D01*
X45106079Y-45681628D01*
X45106092Y-45681635D01*
X45288160Y-45757049D01*
X45288165Y-45757051D01*
X45288169Y-45757051D01*
X45288170Y-45757052D01*
X45481456Y-45795500D01*
X45481459Y-45795500D01*
X45678543Y-45795500D01*
X45808582Y-45769632D01*
X45871835Y-45757051D01*
X46053914Y-45681632D01*
X46217782Y-45572139D01*
X46357139Y-45432782D01*
X46466632Y-45268914D01*
X46542051Y-45086835D01*
X46580500Y-44893541D01*
X46580500Y-44096459D01*
X46580500Y-44096456D01*
X46542052Y-43903170D01*
X46542051Y-43903169D01*
X46542051Y-43903165D01*
X46540740Y-43900000D01*
X46466635Y-43721092D01*
X46466628Y-43721079D01*
X46381309Y-43593391D01*
X46360431Y-43526714D01*
X46378915Y-43459333D01*
X46430894Y-43412643D01*
X46484411Y-43400500D01*
X53315589Y-43400500D01*
X53382628Y-43420185D01*
X53428383Y-43472989D01*
X53438327Y-43542147D01*
X53418691Y-43593391D01*
X53333371Y-43721079D01*
X53333364Y-43721092D01*
X53257950Y-43903160D01*
X53257947Y-43903170D01*
X53219500Y-44096456D01*
X53219500Y-44096459D01*
X53219500Y-44893541D01*
X53219500Y-44893543D01*
X53219499Y-44893543D01*
X53257947Y-45086829D01*
X53257950Y-45086839D01*
X53333364Y-45268907D01*
X53333371Y-45268920D01*
X53442860Y-45432781D01*
X53442863Y-45432785D01*
X53582214Y-45572136D01*
X53582218Y-45572139D01*
X53746079Y-45681628D01*
X53746092Y-45681635D01*
X53928160Y-45757049D01*
X53928165Y-45757051D01*
X53928169Y-45757051D01*
X53928170Y-45757052D01*
X54121456Y-45795500D01*
X54121459Y-45795500D01*
X54318543Y-45795500D01*
X54448582Y-45769632D01*
X54511835Y-45757051D01*
X54693914Y-45681632D01*
X54857782Y-45572139D01*
X54997139Y-45432782D01*
X55106632Y-45268914D01*
X55182051Y-45086835D01*
X55220500Y-44893541D01*
X55220500Y-44096459D01*
X55220500Y-44096456D01*
X55182052Y-43903170D01*
X55182051Y-43903169D01*
X55182051Y-43903165D01*
X55180740Y-43900000D01*
X55106635Y-43721092D01*
X55106628Y-43721079D01*
X55021309Y-43593391D01*
X55000431Y-43526714D01*
X55018915Y-43459333D01*
X55070894Y-43412643D01*
X55124411Y-43400500D01*
X63834108Y-43400500D01*
X63893040Y-43400500D01*
X63906922Y-43401280D01*
X63923878Y-43403190D01*
X63997268Y-43411458D01*
X64024333Y-43417636D01*
X64103539Y-43445351D01*
X64128549Y-43457395D01*
X64199606Y-43502043D01*
X64221313Y-43519355D01*
X64280644Y-43578686D01*
X64297957Y-43600395D01*
X64342602Y-43671447D01*
X64354649Y-43696464D01*
X64382362Y-43775662D01*
X64388541Y-43802734D01*
X64398720Y-43893076D01*
X64399500Y-43906959D01*
X64399500Y-59400903D01*
X64379815Y-59467942D01*
X64327011Y-59513697D01*
X64257853Y-59523641D01*
X64194297Y-59494616D01*
X64187819Y-59488584D01*
X63987590Y-59288355D01*
X63987588Y-59288352D01*
X63868717Y-59169481D01*
X63868709Y-59169475D01*
X63773781Y-59114669D01*
X63773779Y-59114668D01*
X63731790Y-59090425D01*
X63731789Y-59090424D01*
X63719263Y-59087067D01*
X63579057Y-59049499D01*
X63420943Y-59049499D01*
X63413347Y-59049499D01*
X63413331Y-59049500D01*
X58867848Y-59049500D01*
X58800809Y-59029815D01*
X58755054Y-58977011D01*
X58746231Y-58949692D01*
X58719738Y-58816508D01*
X58719737Y-58816507D01*
X58719737Y-58816503D01*
X58706105Y-58783592D01*
X58659397Y-58670827D01*
X58659390Y-58670814D01*
X58571398Y-58539125D01*
X58550520Y-58472447D01*
X58550500Y-58470234D01*
X58550500Y-56644836D01*
X58570185Y-56577797D01*
X58605609Y-56541734D01*
X58710289Y-56471789D01*
X58821786Y-56360292D01*
X58821789Y-56360289D01*
X58849381Y-56318995D01*
X62449499Y-56318995D01*
X62476418Y-56454322D01*
X62476421Y-56454332D01*
X62529221Y-56581804D01*
X62529228Y-56581817D01*
X62605885Y-56696541D01*
X62605888Y-56696545D01*
X62703454Y-56794111D01*
X62703458Y-56794114D01*
X62818182Y-56870771D01*
X62818195Y-56870778D01*
X62945667Y-56923578D01*
X62945672Y-56923580D01*
X62945676Y-56923580D01*
X62945677Y-56923581D01*
X63081004Y-56950500D01*
X63081007Y-56950500D01*
X63218995Y-56950500D01*
X63310041Y-56932389D01*
X63354328Y-56923580D01*
X63452924Y-56882740D01*
X63481804Y-56870778D01*
X63481804Y-56870777D01*
X63481811Y-56870775D01*
X63596542Y-56794114D01*
X63694114Y-56696542D01*
X63770775Y-56581811D01*
X63823580Y-56454328D01*
X63844271Y-56350308D01*
X63850500Y-56318995D01*
X63850500Y-56181004D01*
X63823581Y-56045677D01*
X63823580Y-56045676D01*
X63823580Y-56045672D01*
X63786243Y-55955531D01*
X63770778Y-55918195D01*
X63770771Y-55918182D01*
X63694114Y-55803458D01*
X63694111Y-55803454D01*
X63596545Y-55705888D01*
X63596541Y-55705885D01*
X63481817Y-55629228D01*
X63481804Y-55629221D01*
X63354332Y-55576421D01*
X63354322Y-55576418D01*
X63218995Y-55549500D01*
X63218993Y-55549500D01*
X63081007Y-55549500D01*
X63081005Y-55549500D01*
X62945677Y-55576418D01*
X62945667Y-55576421D01*
X62818195Y-55629221D01*
X62818182Y-55629228D01*
X62703458Y-55705885D01*
X62703454Y-55705888D01*
X62605888Y-55803454D01*
X62605885Y-55803458D01*
X62529228Y-55918182D01*
X62529221Y-55918195D01*
X62476421Y-56045667D01*
X62476418Y-56045677D01*
X62449500Y-56181004D01*
X62449500Y-56181007D01*
X62449500Y-56318993D01*
X62449500Y-56318995D01*
X62449499Y-56318995D01*
X58849381Y-56318995D01*
X58909394Y-56229179D01*
X58969737Y-56083497D01*
X59000500Y-55928842D01*
X59000500Y-55824500D01*
X59003050Y-55815814D01*
X59001762Y-55806853D01*
X59012740Y-55782812D01*
X59020185Y-55757461D01*
X59027025Y-55751533D01*
X59030787Y-55743297D01*
X59053021Y-55729007D01*
X59072989Y-55711706D01*
X59083503Y-55709418D01*
X59089565Y-55705523D01*
X59124500Y-55700500D01*
X59270234Y-55700500D01*
X59337273Y-55720185D01*
X59339125Y-55721398D01*
X59470814Y-55809390D01*
X59470827Y-55809397D01*
X59612133Y-55867927D01*
X59616503Y-55869737D01*
X59771153Y-55900499D01*
X59771156Y-55900500D01*
X59771158Y-55900500D01*
X59928844Y-55900500D01*
X59928845Y-55900499D01*
X60083497Y-55869737D01*
X60229179Y-55809394D01*
X60360289Y-55721789D01*
X60471789Y-55610289D01*
X60559394Y-55479179D01*
X60619737Y-55333497D01*
X60650500Y-55178842D01*
X60650500Y-55021158D01*
X60650500Y-55021155D01*
X60650499Y-55021153D01*
X60644205Y-54989510D01*
X60619737Y-54866503D01*
X60599029Y-54816508D01*
X60559397Y-54720827D01*
X60559393Y-54720820D01*
X60556513Y-54716510D01*
X60491284Y-54618888D01*
X60470408Y-54552214D01*
X60488892Y-54484834D01*
X60491257Y-54481152D01*
X60559394Y-54379179D01*
X60619737Y-54233497D01*
X60650500Y-54078842D01*
X60650500Y-53921158D01*
X60650500Y-53921155D01*
X60650499Y-53921153D01*
X60629684Y-53816510D01*
X60619737Y-53766503D01*
X60590760Y-53696545D01*
X60559397Y-53620827D01*
X60559390Y-53620814D01*
X60471789Y-53489711D01*
X60471786Y-53489707D01*
X60360292Y-53378213D01*
X60360284Y-53378207D01*
X60294589Y-53334311D01*
X60281788Y-53318995D01*
X62449499Y-53318995D01*
X62476418Y-53454322D01*
X62476421Y-53454332D01*
X62529221Y-53581804D01*
X62529228Y-53581817D01*
X62605885Y-53696541D01*
X62605888Y-53696545D01*
X62703454Y-53794111D01*
X62703458Y-53794114D01*
X62818182Y-53870771D01*
X62818195Y-53870778D01*
X62939825Y-53921158D01*
X62945672Y-53923580D01*
X62945676Y-53923580D01*
X62945677Y-53923581D01*
X63081004Y-53950500D01*
X63081007Y-53950500D01*
X63218995Y-53950500D01*
X63310041Y-53932389D01*
X63354328Y-53923580D01*
X63481811Y-53870775D01*
X63596542Y-53794114D01*
X63694114Y-53696542D01*
X63770775Y-53581811D01*
X63823580Y-53454328D01*
X63838722Y-53378207D01*
X63850500Y-53318995D01*
X63850500Y-53181004D01*
X63823581Y-53045677D01*
X63823580Y-53045676D01*
X63823580Y-53045672D01*
X63795899Y-52978844D01*
X63770778Y-52918195D01*
X63770771Y-52918182D01*
X63694114Y-52803458D01*
X63694111Y-52803454D01*
X63596545Y-52705888D01*
X63596541Y-52705885D01*
X63481817Y-52629228D01*
X63481804Y-52629221D01*
X63354332Y-52576421D01*
X63354322Y-52576418D01*
X63218995Y-52549500D01*
X63218993Y-52549500D01*
X63081007Y-52549500D01*
X63081005Y-52549500D01*
X62945677Y-52576418D01*
X62945667Y-52576421D01*
X62818195Y-52629221D01*
X62818182Y-52629228D01*
X62703458Y-52705885D01*
X62703454Y-52705888D01*
X62605888Y-52803454D01*
X62605885Y-52803458D01*
X62529228Y-52918182D01*
X62529221Y-52918195D01*
X62476421Y-53045667D01*
X62476418Y-53045677D01*
X62449500Y-53181004D01*
X62449500Y-53181007D01*
X62449500Y-53318993D01*
X62449500Y-53318995D01*
X62449499Y-53318995D01*
X60281788Y-53318995D01*
X60274259Y-53309986D01*
X60252633Y-53286789D01*
X60252013Y-53283367D01*
X60249783Y-53280699D01*
X60245831Y-53249233D01*
X60240181Y-53218038D01*
X60241341Y-53213485D01*
X60241076Y-53211374D01*
X60248884Y-53183840D01*
X60269737Y-53133497D01*
X60300500Y-52978842D01*
X60300500Y-52821158D01*
X60300500Y-52821155D01*
X60300499Y-52821153D01*
X60277571Y-52705886D01*
X60269737Y-52666503D01*
X60264946Y-52654937D01*
X60209397Y-52520827D01*
X60209390Y-52520814D01*
X60121398Y-52389125D01*
X60100520Y-52322447D01*
X60100500Y-52320234D01*
X60100500Y-50757901D01*
X60120185Y-50690862D01*
X60172989Y-50645107D01*
X60200301Y-50636285D01*
X60283497Y-50619737D01*
X60429179Y-50559394D01*
X60560289Y-50471789D01*
X60671789Y-50360289D01*
X60759394Y-50229179D01*
X60819737Y-50083497D01*
X60850500Y-49928842D01*
X60850500Y-49771158D01*
X60850500Y-49771155D01*
X60850499Y-49771153D01*
X60836131Y-49698920D01*
X60819737Y-49616503D01*
X60791984Y-49549500D01*
X60759397Y-49470827D01*
X60759390Y-49470814D01*
X60671789Y-49339711D01*
X60671786Y-49339707D01*
X60560292Y-49228213D01*
X60560288Y-49228210D01*
X60429185Y-49140609D01*
X60429172Y-49140602D01*
X60283501Y-49080264D01*
X60283489Y-49080261D01*
X60128845Y-49049500D01*
X60128842Y-49049500D01*
X59971158Y-49049500D01*
X59971155Y-49049500D01*
X59816510Y-49080261D01*
X59816498Y-49080264D01*
X59670827Y-49140602D01*
X59670814Y-49140609D01*
X59539711Y-49228210D01*
X59539707Y-49228213D01*
X59428213Y-49339707D01*
X59428210Y-49339711D01*
X59340609Y-49470814D01*
X59340602Y-49470827D01*
X59280264Y-49616498D01*
X59280261Y-49616508D01*
X59249362Y-49771848D01*
X59240597Y-49788603D01*
X59236578Y-49807082D01*
X59217832Y-49832123D01*
X59216977Y-49833759D01*
X59215427Y-49835337D01*
X59187983Y-49862781D01*
X59131286Y-49919478D01*
X59131285Y-49919478D01*
X59131284Y-49919479D01*
X59019481Y-50031282D01*
X59019480Y-50031284D01*
X58973092Y-50111632D01*
X58969361Y-50118094D01*
X58969359Y-50118096D01*
X58940425Y-50168209D01*
X58940424Y-50168210D01*
X58925073Y-50225500D01*
X58899499Y-50320943D01*
X58899499Y-50320945D01*
X58899499Y-50489046D01*
X58899500Y-50489059D01*
X58899500Y-52320234D01*
X58879815Y-52387273D01*
X58878602Y-52389125D01*
X58790609Y-52520814D01*
X58790602Y-52520827D01*
X58730264Y-52666498D01*
X58730261Y-52666510D01*
X58699500Y-52821153D01*
X58699500Y-52978846D01*
X58730261Y-53133489D01*
X58730263Y-53133497D01*
X58769057Y-53227155D01*
X58769427Y-53228047D01*
X58776896Y-53297517D01*
X58745621Y-53359996D01*
X58685532Y-53395648D01*
X58654866Y-53399500D01*
X56722902Y-53399500D01*
X56655863Y-53379815D01*
X56610108Y-53327011D01*
X56600164Y-53257853D01*
X56629189Y-53194297D01*
X56675451Y-53160938D01*
X56679179Y-53159394D01*
X56810289Y-53071789D01*
X56921789Y-52960289D01*
X57009394Y-52829179D01*
X57012719Y-52821153D01*
X57060463Y-52705886D01*
X57069737Y-52683497D01*
X57100500Y-52528842D01*
X57100500Y-52528835D01*
X57101097Y-52522782D01*
X57103130Y-52522982D01*
X57120185Y-52464902D01*
X57172989Y-52419147D01*
X57242147Y-52409203D01*
X57305703Y-52438228D01*
X57312181Y-52444260D01*
X57339707Y-52471786D01*
X57339711Y-52471789D01*
X57470814Y-52559390D01*
X57470827Y-52559397D01*
X57546181Y-52590609D01*
X57616503Y-52619737D01*
X57771153Y-52650499D01*
X57771156Y-52650500D01*
X57771158Y-52650500D01*
X57928844Y-52650500D01*
X57928845Y-52650499D01*
X58083497Y-52619737D01*
X58229179Y-52559394D01*
X58360289Y-52471789D01*
X58471789Y-52360289D01*
X58559394Y-52229179D01*
X58619737Y-52083497D01*
X58650500Y-51928842D01*
X58650500Y-51771158D01*
X58650500Y-51771155D01*
X58650499Y-51771153D01*
X58647466Y-51755906D01*
X58619737Y-51616503D01*
X58604139Y-51578846D01*
X58559397Y-51470827D01*
X58559390Y-51470814D01*
X58471789Y-51339711D01*
X58471786Y-51339707D01*
X58360292Y-51228213D01*
X58360288Y-51228210D01*
X58229185Y-51140609D01*
X58229172Y-51140602D01*
X58083501Y-51080264D01*
X58083491Y-51080261D01*
X57928151Y-51049362D01*
X57866241Y-51016977D01*
X57864662Y-51015426D01*
X57763632Y-50914396D01*
X57763627Y-50914392D01*
X57651229Y-50849500D01*
X57626700Y-50835338D01*
X57473972Y-50794414D01*
X57315858Y-50794414D01*
X57308262Y-50794414D01*
X57308246Y-50794415D01*
X44537394Y-50794415D01*
X44470355Y-50774730D01*
X44468503Y-50773517D01*
X44336813Y-50685524D01*
X44336800Y-50685517D01*
X44191129Y-50625179D01*
X44191117Y-50625176D01*
X44036473Y-50594415D01*
X44036470Y-50594415D01*
X43878786Y-50594415D01*
X43878783Y-50594415D01*
X43724138Y-50625176D01*
X43724126Y-50625179D01*
X43578455Y-50685517D01*
X43578442Y-50685524D01*
X43446753Y-50773517D01*
X43380075Y-50794395D01*
X43377862Y-50794415D01*
X42324500Y-50794415D01*
X42257461Y-50774730D01*
X42211706Y-50721926D01*
X42200500Y-50670415D01*
X42200500Y-50621155D01*
X42200499Y-50621153D01*
X42188213Y-50559390D01*
X42169737Y-50466503D01*
X42132696Y-50377079D01*
X42125228Y-50307613D01*
X42156503Y-50245134D01*
X42178362Y-50226530D01*
X42260289Y-50171789D01*
X42371789Y-50060289D01*
X42459394Y-49929179D01*
X42519737Y-49783497D01*
X42550500Y-49628842D01*
X42550500Y-49471158D01*
X42550500Y-49471155D01*
X42550499Y-49471153D01*
X42527176Y-49353902D01*
X42521137Y-49323543D01*
X44579499Y-49323543D01*
X44617947Y-49516829D01*
X44617950Y-49516839D01*
X44693364Y-49698907D01*
X44693371Y-49698920D01*
X44802860Y-49862781D01*
X44802863Y-49862785D01*
X44942214Y-50002136D01*
X44942218Y-50002139D01*
X45106079Y-50111628D01*
X45106092Y-50111635D01*
X45251314Y-50171787D01*
X45288165Y-50187051D01*
X45288169Y-50187051D01*
X45288170Y-50187052D01*
X45481456Y-50225500D01*
X45481459Y-50225500D01*
X45678543Y-50225500D01*
X45808582Y-50199632D01*
X45871835Y-50187051D01*
X46012655Y-50128721D01*
X46053907Y-50111635D01*
X46053907Y-50111634D01*
X46053914Y-50111632D01*
X46217782Y-50002139D01*
X46357139Y-49862782D01*
X46466632Y-49698914D01*
X46542051Y-49516835D01*
X46555407Y-49449692D01*
X46580500Y-49323543D01*
X46580500Y-48776333D01*
X46600185Y-48709294D01*
X46652989Y-48663539D01*
X46722147Y-48653595D01*
X46766501Y-48668947D01*
X46787859Y-48681278D01*
X46787860Y-48681278D01*
X46787865Y-48681281D01*
X46934234Y-48720500D01*
X46934236Y-48720500D01*
X47065603Y-48720500D01*
X47132642Y-48740185D01*
X47168705Y-48775609D01*
X47235160Y-48875066D01*
X47235163Y-48875070D01*
X47346657Y-48986564D01*
X47346661Y-48986567D01*
X47477764Y-49074168D01*
X47477777Y-49074175D01*
X47623448Y-49134513D01*
X47623453Y-49134515D01*
X47778103Y-49165277D01*
X47778106Y-49165278D01*
X47778108Y-49165278D01*
X47935794Y-49165278D01*
X47935795Y-49165277D01*
X48090447Y-49134515D01*
X48203116Y-49087845D01*
X48236122Y-49074175D01*
X48236122Y-49074174D01*
X48236129Y-49074172D01*
X48367239Y-48986567D01*
X48478739Y-48875067D01*
X48525149Y-48805608D01*
X48578760Y-48760804D01*
X48628251Y-48750500D01*
X51220234Y-48750500D01*
X51287273Y-48770185D01*
X51289125Y-48771398D01*
X51420814Y-48859390D01*
X51420827Y-48859397D01*
X51566498Y-48919735D01*
X51566503Y-48919737D01*
X51721153Y-48950499D01*
X51721156Y-48950500D01*
X51721158Y-48950500D01*
X51878844Y-48950500D01*
X51878845Y-48950499D01*
X52033497Y-48919737D01*
X52179179Y-48859394D01*
X52310289Y-48771789D01*
X52394668Y-48687409D01*
X52455989Y-48653925D01*
X52525680Y-48658909D01*
X52544348Y-48667704D01*
X52567861Y-48681279D01*
X52567862Y-48681279D01*
X52567865Y-48681281D01*
X52714234Y-48720500D01*
X52714236Y-48720500D01*
X52865764Y-48720500D01*
X52865766Y-48720500D01*
X53012135Y-48681281D01*
X53022451Y-48675325D01*
X53033499Y-48668947D01*
X53101398Y-48652473D01*
X53167426Y-48675325D01*
X53210617Y-48730245D01*
X53219500Y-48776333D01*
X53219500Y-49323541D01*
X53219500Y-49323543D01*
X53219499Y-49323543D01*
X53257947Y-49516829D01*
X53257950Y-49516839D01*
X53333364Y-49698907D01*
X53333371Y-49698920D01*
X53442860Y-49862781D01*
X53442863Y-49862785D01*
X53582214Y-50002136D01*
X53582218Y-50002139D01*
X53746079Y-50111628D01*
X53746092Y-50111635D01*
X53891314Y-50171787D01*
X53928165Y-50187051D01*
X53928169Y-50187051D01*
X53928170Y-50187052D01*
X54121456Y-50225500D01*
X54121459Y-50225500D01*
X54318543Y-50225500D01*
X54448582Y-50199632D01*
X54511835Y-50187051D01*
X54652655Y-50128721D01*
X54693907Y-50111635D01*
X54693907Y-50111634D01*
X54693914Y-50111632D01*
X54857782Y-50002139D01*
X54997139Y-49862782D01*
X55106632Y-49698914D01*
X55182051Y-49516835D01*
X55195407Y-49449692D01*
X55220500Y-49323543D01*
X55220500Y-48026456D01*
X55182052Y-47833170D01*
X55182051Y-47833169D01*
X55182051Y-47833165D01*
X55132928Y-47714570D01*
X55106635Y-47651092D01*
X55106628Y-47651079D01*
X54997139Y-47487218D01*
X54997136Y-47487214D01*
X54857785Y-47347863D01*
X54857781Y-47347860D01*
X54693920Y-47238371D01*
X54693907Y-47238364D01*
X54511839Y-47162950D01*
X54511829Y-47162947D01*
X54318543Y-47124500D01*
X54318541Y-47124500D01*
X54121459Y-47124500D01*
X54121457Y-47124500D01*
X53928170Y-47162947D01*
X53928160Y-47162950D01*
X53746092Y-47238364D01*
X53746079Y-47238371D01*
X53582218Y-47347860D01*
X53582214Y-47347863D01*
X53442863Y-47487214D01*
X53442860Y-47487218D01*
X53329983Y-47656151D01*
X53328534Y-47655182D01*
X53285356Y-47699122D01*
X53217215Y-47714570D01*
X53151540Y-47690725D01*
X53149493Y-47689188D01*
X53143368Y-47684488D01*
X53143365Y-47684485D01*
X53070519Y-47642427D01*
X53012136Y-47608719D01*
X52938950Y-47589109D01*
X52865766Y-47569500D01*
X52714234Y-47569500D01*
X52567865Y-47608719D01*
X52567862Y-47608720D01*
X52538006Y-47625957D01*
X52470105Y-47642427D01*
X52404079Y-47619573D01*
X52388328Y-47606249D01*
X52310292Y-47528213D01*
X52310288Y-47528210D01*
X52179185Y-47440609D01*
X52179172Y-47440602D01*
X52033501Y-47380264D01*
X52033489Y-47380261D01*
X51878845Y-47349500D01*
X51878842Y-47349500D01*
X51721158Y-47349500D01*
X51721155Y-47349500D01*
X51566510Y-47380261D01*
X51566498Y-47380264D01*
X51420827Y-47440602D01*
X51420814Y-47440609D01*
X51289125Y-47528602D01*
X51222447Y-47549480D01*
X51220234Y-47549500D01*
X48150789Y-47549500D01*
X48150785Y-47549499D01*
X47992671Y-47549499D01*
X47941289Y-47563266D01*
X47928898Y-47564038D01*
X47926738Y-47563547D01*
X47921188Y-47564278D01*
X47778105Y-47564278D01*
X47623460Y-47595039D01*
X47623448Y-47595042D01*
X47477778Y-47655380D01*
X47477767Y-47655386D01*
X47465483Y-47663594D01*
X47398804Y-47684468D01*
X47334597Y-47667875D01*
X47232138Y-47608720D01*
X47232135Y-47608719D01*
X47085766Y-47569500D01*
X46934234Y-47569500D01*
X46787863Y-47608719D01*
X46656627Y-47684489D01*
X46650502Y-47689190D01*
X46585333Y-47714383D01*
X46516888Y-47700343D01*
X46470976Y-47655509D01*
X46470017Y-47656151D01*
X46466982Y-47651609D01*
X46466899Y-47651528D01*
X46466766Y-47651286D01*
X46357139Y-47487218D01*
X46357136Y-47487214D01*
X46217785Y-47347863D01*
X46217781Y-47347860D01*
X46053920Y-47238371D01*
X46053907Y-47238364D01*
X45871839Y-47162950D01*
X45871829Y-47162947D01*
X45678543Y-47124500D01*
X45678541Y-47124500D01*
X45481459Y-47124500D01*
X45481457Y-47124500D01*
X45288170Y-47162947D01*
X45288160Y-47162950D01*
X45106092Y-47238364D01*
X45106079Y-47238371D01*
X44942218Y-47347860D01*
X44942214Y-47347863D01*
X44802863Y-47487214D01*
X44802860Y-47487218D01*
X44693371Y-47651079D01*
X44693364Y-47651092D01*
X44617950Y-47833160D01*
X44617947Y-47833170D01*
X44579500Y-48026456D01*
X44579500Y-48026459D01*
X44579500Y-49323541D01*
X44579500Y-49323543D01*
X44579499Y-49323543D01*
X42521137Y-49323543D01*
X42519737Y-49316503D01*
X42510287Y-49293689D01*
X42459397Y-49170827D01*
X42459390Y-49170814D01*
X42371789Y-49039711D01*
X42371786Y-49039707D01*
X42260292Y-48928213D01*
X42260288Y-48928210D01*
X42129185Y-48840609D01*
X42129172Y-48840602D01*
X41983501Y-48780264D01*
X41983489Y-48780261D01*
X41828845Y-48749500D01*
X41828842Y-48749500D01*
X41671158Y-48749500D01*
X41671155Y-48749500D01*
X41516510Y-48780261D01*
X41516498Y-48780264D01*
X41370827Y-48840602D01*
X41370814Y-48840609D01*
X41239711Y-48928210D01*
X41239707Y-48928213D01*
X41128213Y-49039707D01*
X41128210Y-49039711D01*
X41040609Y-49170814D01*
X41040602Y-49170827D01*
X40980264Y-49316498D01*
X40980261Y-49316508D01*
X40953769Y-49449692D01*
X40921384Y-49511603D01*
X40860668Y-49546177D01*
X40832152Y-49549500D01*
X37229766Y-49549500D01*
X37162727Y-49529815D01*
X37160875Y-49528602D01*
X37029185Y-49440609D01*
X37029172Y-49440602D01*
X36883501Y-49380264D01*
X36883489Y-49380261D01*
X36728845Y-49349500D01*
X36728842Y-49349500D01*
X36571158Y-49349500D01*
X36571155Y-49349500D01*
X36416510Y-49380261D01*
X36410676Y-49382031D01*
X36409873Y-49379385D01*
X36352056Y-49385396D01*
X36289687Y-49353902D01*
X36254245Y-49293689D01*
X36250500Y-49263444D01*
X36250500Y-48695548D01*
X36270185Y-48628509D01*
X36322989Y-48582754D01*
X36327048Y-48580987D01*
X36379179Y-48559394D01*
X36510289Y-48471789D01*
X36621789Y-48360289D01*
X36709394Y-48229179D01*
X36769737Y-48083497D01*
X36800500Y-47928842D01*
X36800500Y-47771158D01*
X36800500Y-47771155D01*
X36800499Y-47771153D01*
X36789207Y-47714383D01*
X36769737Y-47616503D01*
X36760847Y-47595041D01*
X36709397Y-47470827D01*
X36709390Y-47470814D01*
X36621789Y-47339711D01*
X36621786Y-47339707D01*
X36510292Y-47228213D01*
X36510288Y-47228210D01*
X36379185Y-47140609D01*
X36379172Y-47140602D01*
X36233501Y-47080264D01*
X36233489Y-47080261D01*
X36078845Y-47049500D01*
X36078842Y-47049500D01*
X35921158Y-47049500D01*
X35921155Y-47049500D01*
X35766510Y-47080261D01*
X35766498Y-47080264D01*
X35620827Y-47140602D01*
X35620816Y-47140608D01*
X35593390Y-47158934D01*
X35526712Y-47179811D01*
X35459332Y-47161326D01*
X35412643Y-47109346D01*
X35400500Y-47055831D01*
X35400500Y-43906959D01*
X35401280Y-43893077D01*
X35401320Y-43892717D01*
X35411459Y-43802727D01*
X35417635Y-43775668D01*
X35445353Y-43696457D01*
X35457393Y-43671453D01*
X35502046Y-43600389D01*
X35519351Y-43578690D01*
X35578690Y-43519351D01*
X35600389Y-43502046D01*
X35671453Y-43457393D01*
X35696457Y-43445353D01*
X35775668Y-43417635D01*
X35802729Y-43411459D01*
X35878753Y-43402893D01*
X35893078Y-43401280D01*
X35906960Y-43400500D01*
X35965892Y-43400500D01*
X44675589Y-43400500D01*
X44742628Y-43420185D01*
G37*
%TD.AperFunction*%
%TA.AperFunction,Conductor*%
G36*
X43192539Y-56270185D02*
G01*
X43238294Y-56322989D01*
X43249500Y-56374500D01*
X43249500Y-56478842D01*
X43249500Y-56478844D01*
X43249499Y-56478844D01*
X43273860Y-56601308D01*
X43267633Y-56670900D01*
X43224770Y-56726077D01*
X43158880Y-56749322D01*
X43152243Y-56749500D01*
X42520941Y-56749500D01*
X42484017Y-56759393D01*
X42484018Y-56759394D01*
X42368214Y-56790423D01*
X42368209Y-56790426D01*
X42231290Y-56869475D01*
X42231282Y-56869481D01*
X40719860Y-58380904D01*
X40658537Y-58414389D01*
X40588845Y-58409405D01*
X40532912Y-58367533D01*
X40526279Y-58357730D01*
X40521288Y-58349537D01*
X40509394Y-58320821D01*
X40446046Y-58226014D01*
X40444691Y-58223789D01*
X40436302Y-58192445D01*
X40426611Y-58161495D01*
X40426591Y-58159282D01*
X40426591Y-57152947D01*
X40446276Y-57085908D01*
X40499080Y-57040153D01*
X40568238Y-57030209D01*
X40574783Y-57031330D01*
X40671155Y-57050500D01*
X40671158Y-57050500D01*
X40828844Y-57050500D01*
X40828845Y-57050499D01*
X40983497Y-57019737D01*
X41129179Y-56959394D01*
X41260289Y-56871789D01*
X41371789Y-56760289D01*
X41459394Y-56629179D01*
X41519737Y-56483497D01*
X41537908Y-56392147D01*
X41546231Y-56350308D01*
X41578616Y-56288397D01*
X41639332Y-56253823D01*
X41667848Y-56250500D01*
X43125500Y-56250500D01*
X43192539Y-56270185D01*
G37*
%TD.AperFunction*%
%TA.AperFunction,Conductor*%
G36*
X57165631Y-54609742D02*
G01*
X57197428Y-54617858D01*
X57198992Y-54619538D01*
X57201194Y-54620185D01*
X57222667Y-54644966D01*
X57245039Y-54668995D01*
X57245446Y-54671255D01*
X57246949Y-54672989D01*
X57251616Y-54705449D01*
X57257445Y-54737754D01*
X57256687Y-54740720D01*
X57256893Y-54742147D01*
X57248716Y-54771952D01*
X57230264Y-54816498D01*
X57230261Y-54816508D01*
X57199362Y-54971848D01*
X57166977Y-55033759D01*
X57165426Y-55035337D01*
X56487584Y-55713181D01*
X56426261Y-55746666D01*
X56399903Y-55749500D01*
X55149097Y-55749500D01*
X55082058Y-55729815D01*
X55036303Y-55677011D01*
X55026359Y-55607853D01*
X55055384Y-55544297D01*
X55061416Y-55537819D01*
X55962416Y-54636819D01*
X56023739Y-54603334D01*
X56050097Y-54600500D01*
X57134155Y-54600500D01*
X57165631Y-54609742D01*
G37*
%TD.AperFunction*%
%TA.AperFunction,Conductor*%
G36*
X55737390Y-53055537D02*
G01*
X55755271Y-53055553D01*
X55787176Y-53070156D01*
X55787273Y-53070185D01*
X55787353Y-53070237D01*
X55787363Y-53070242D01*
X55789612Y-53071690D01*
X55789711Y-53071789D01*
X55920821Y-53159394D01*
X55934852Y-53165205D01*
X55944227Y-53171242D01*
X55989936Y-53224085D01*
X55999821Y-53293252D01*
X55970741Y-53356783D01*
X55911931Y-53394507D01*
X55877098Y-53399500D01*
X55670941Y-53399500D01*
X55630677Y-53410288D01*
X55630678Y-53410289D01*
X55518214Y-53440423D01*
X55518209Y-53440426D01*
X55381290Y-53519475D01*
X55381282Y-53519481D01*
X55269478Y-53631286D01*
X53956284Y-54944481D01*
X53887584Y-55013181D01*
X53826261Y-55046666D01*
X53799903Y-55049500D01*
X53524500Y-55049500D01*
X53457461Y-55029815D01*
X53411706Y-54977011D01*
X53400500Y-54925500D01*
X53400500Y-54871155D01*
X53400499Y-54871153D01*
X53382137Y-54778842D01*
X53369737Y-54716503D01*
X53336731Y-54636819D01*
X53309397Y-54570827D01*
X53309390Y-54570814D01*
X53221789Y-54439711D01*
X53221786Y-54439707D01*
X53110292Y-54328213D01*
X53110288Y-54328210D01*
X52979185Y-54240609D01*
X52979172Y-54240602D01*
X52833501Y-54180264D01*
X52833491Y-54180261D01*
X52678149Y-54149361D01*
X52616238Y-54116976D01*
X52614660Y-54115425D01*
X52176927Y-53677692D01*
X52176925Y-53677689D01*
X52058054Y-53558818D01*
X52058046Y-53558812D01*
X51947041Y-53494724D01*
X51947040Y-53494723D01*
X51947040Y-53494724D01*
X51921122Y-53479760D01*
X51768394Y-53438836D01*
X51610280Y-53438836D01*
X51602684Y-53438836D01*
X51602668Y-53438837D01*
X48759760Y-53438837D01*
X48692721Y-53419152D01*
X48646966Y-53366348D01*
X48637022Y-53297190D01*
X48666047Y-53233634D01*
X48672060Y-53227175D01*
X48812418Y-53086816D01*
X48873740Y-53053334D01*
X48900098Y-53050500D01*
X55720234Y-53050500D01*
X55737390Y-53055537D01*
G37*
%TD.AperFunction*%
%TD*%
M02*
