%TF.GenerationSoftware,KiCad,Pcbnew,10.0.4*%
%TF.CreationDate,2026-08-10T15:34:50-04:00*%
%TF.ProjectId,ECG,4543472e-6b69-4636-9164-5f7063625858,rev?*%
%TF.SameCoordinates,Original*%
%TF.FileFunction,Copper,L3,Inr*%
%TF.FilePolarity,Positive*%
%FSLAX46Y46*%
G04 Gerber Fmt 4.6, Leading zero omitted, Abs format (unit mm)*
G04 Created by KiCad (PCBNEW 10.0.4) date 2026-08-10 15:34:50*
%MOMM*%
%LPD*%
G01*
G04 APERTURE LIST*
G04 Aperture macros list*
%AMRoundRect*
0 Rectangle with rounded corners*
0 $1 Rounding radius*
0 $2 $3 $4 $5 $6 $7 $8 $9 X,Y pos of 4 corners*
0 Add a 4 corners polygon primitive as box body*
4,1,4,$2,$3,$4,$5,$6,$7,$8,$9,$2,$3,0*
0 Add four circle primitives for the rounded corners*
1,1,$1+$1,$2,$3*
1,1,$1+$1,$4,$5*
1,1,$1+$1,$6,$7*
1,1,$1+$1,$8,$9*
0 Add four rect primitives between the rounded corners*
20,1,$1+$1,$2,$3,$4,$5,0*
20,1,$1+$1,$4,$5,$6,$7,0*
20,1,$1+$1,$6,$7,$8,$9,0*
20,1,$1+$1,$8,$9,$2,$3,0*%
G04 Aperture macros list end*
%TA.AperFunction,ComponentPad*%
%ADD10R,1.700000X1.700000*%
%TD*%
%TA.AperFunction,ComponentPad*%
%ADD11C,1.700000*%
%TD*%
%TA.AperFunction,ComponentPad*%
%ADD12O,1.000000X2.100000*%
%TD*%
%TA.AperFunction,ComponentPad*%
%ADD13O,1.000000X1.600000*%
%TD*%
%TA.AperFunction,ComponentPad*%
%ADD14R,0.500000X0.900000*%
%TD*%
%TA.AperFunction,ComponentPad*%
%ADD15C,0.500000*%
%TD*%
%TA.AperFunction,ComponentPad*%
%ADD16RoundRect,0.250000X-0.350000X-0.625000X0.350000X-0.625000X0.350000X0.625000X-0.350000X0.625000X0*%
%TD*%
%TA.AperFunction,ComponentPad*%
%ADD17O,1.200000X1.750000*%
%TD*%
%TA.AperFunction,ViaPad*%
%ADD18C,0.600000*%
%TD*%
%TA.AperFunction,ViaPad*%
%ADD19C,0.500000*%
%TD*%
G04 APERTURE END LIST*
D10*
%TO.N,/NTC*%
%TO.C,TH1*%
X37910000Y-65000000D03*
D11*
%TO.N,GND*%
X40450000Y-65000000D03*
%TD*%
D12*
%TO.N,N/C*%
%TO.C,J1*%
X54220000Y-48675000D03*
D13*
X54220000Y-44495000D03*
D12*
X45580000Y-48675000D03*
D13*
X45580000Y-44495000D03*
%TD*%
D14*
%TO.N,GND*%
%TO.C,AE1*%
X34575000Y-75137500D03*
%TD*%
D15*
%TO.N,GND*%
%TO.C,U10*%
X53495000Y-84755000D03*
X54645000Y-85905000D03*
X54645000Y-84755000D03*
X54645000Y-83605000D03*
X55795000Y-84755000D03*
%TD*%
D16*
%TO.N,GND*%
%TO.C,J2*%
X38185000Y-61250000D03*
D17*
%TO.N,+BATT*%
X40185000Y-61250000D03*
%TD*%
D18*
%TO.N,+3.3V*%
X57950000Y-59050000D03*
X53310000Y-81350000D03*
X46100000Y-58250000D03*
X44050000Y-56400000D03*
X50350000Y-70100000D03*
X50550000Y-57250000D03*
X40150000Y-80850000D03*
X43957628Y-51394915D03*
X56900000Y-66200000D03*
X56950000Y-80850000D03*
X41000000Y-51350000D03*
X48600000Y-84728674D03*
X45000000Y-65300000D03*
X56900000Y-76050000D03*
X58200000Y-55850000D03*
X46000000Y-56400000D03*
X53800000Y-76000000D03*
X57850000Y-51850000D03*
D19*
%TO.N,GND*%
X39643750Y-76387500D03*
D18*
X60150000Y-59050000D03*
D19*
X39643750Y-78087500D03*
D18*
X37900000Y-71150000D03*
X57150000Y-73500000D03*
D19*
X44862500Y-78087500D03*
D18*
X45050000Y-50395000D03*
D19*
X46602084Y-78087500D03*
D18*
X45950000Y-90650000D03*
X39350000Y-49350000D03*
X48150000Y-75750000D03*
D19*
X55300001Y-78087500D03*
D18*
X42050000Y-57100000D03*
X40610001Y-79398819D03*
D19*
X34800000Y-86100667D03*
D18*
X51450000Y-81500000D03*
X38650000Y-45250000D03*
X56960212Y-89010212D03*
X55050000Y-55500000D03*
D19*
X36164583Y-78103750D03*
D18*
X51900000Y-67900000D03*
D19*
X37904166Y-78087500D03*
X34800000Y-78103750D03*
X37904166Y-76387500D03*
X57039584Y-78087500D03*
X34800000Y-90850000D03*
D18*
X40200000Y-68450000D03*
X57800000Y-50300000D03*
D19*
X51820834Y-78087500D03*
X48341667Y-78087500D03*
X34800000Y-81350667D03*
D18*
X36250000Y-59450000D03*
X50750000Y-72850000D03*
D19*
X43122916Y-78087500D03*
X34800000Y-79767334D03*
X41383333Y-76387500D03*
D18*
X38250000Y-86300000D03*
X51050000Y-53000000D03*
D19*
X41383333Y-78087500D03*
X58779168Y-78087500D03*
D18*
X59500000Y-61350000D03*
X54800000Y-50400000D03*
D19*
X34800000Y-82934000D03*
D18*
X39450000Y-79400000D03*
D19*
X34800000Y-84517334D03*
D18*
X44100000Y-58600000D03*
X42565000Y-50750000D03*
D19*
X34800000Y-89267000D03*
D18*
X49247182Y-69852818D03*
X36936091Y-49113909D03*
D19*
X34800000Y-87684000D03*
D18*
X51250000Y-86850000D03*
D19*
X43122916Y-76387500D03*
X36164583Y-76387500D03*
D18*
X44750000Y-63500000D03*
D19*
X50081250Y-78087500D03*
X53250000Y-78000000D03*
D18*
X60000000Y-74650000D03*
%TO.N,+VSW*%
X36300000Y-56050000D03*
X37442069Y-56577321D03*
X55650000Y-71588909D03*
X36200000Y-52050000D03*
X41400000Y-50700000D03*
X46900000Y-54700000D03*
X52600000Y-54950000D03*
X45800000Y-59650000D03*
X44400000Y-59900000D03*
X44450000Y-70000000D03*
X43495735Y-54039337D03*
%TO.N,/E-*%
X54150000Y-89950000D03*
X58850521Y-89150521D03*
%TO.N,+3.3VA*%
X50550000Y-83450000D03*
X51536091Y-84913909D03*
X51500000Y-79600000D03*
X58050000Y-79600000D03*
X39600000Y-83400000D03*
%TO.N,Net-(C29-Pad1)*%
X61050000Y-84900000D03*
X51379479Y-89943583D03*
%TO.N,Net-(U10-RLDOUT)*%
X59700000Y-79000000D03*
X50150000Y-79000000D03*
X48879962Y-85424465D03*
X49450000Y-81550000D03*
%TO.N,/D2*%
X61900000Y-82500000D03*
X40450000Y-91300000D03*
%TO.N,/IO0*%
X39900000Y-62950000D03*
X43200000Y-64550000D03*
X36000000Y-47850000D03*
X48900000Y-67950000D03*
%TO.N,/AD1*%
X59850000Y-77900000D03*
X61164400Y-80743283D03*
%TO.N,/AD2*%
X59800000Y-77000000D03*
X62400000Y-80700000D03*
%TO.N,Net-(U1-VDD_SPI)*%
X60200000Y-60350000D03*
X54400000Y-61650000D03*
%TO.N,/AD59CS*%
X49370772Y-76269301D03*
X53320036Y-72320036D03*
%TO.N,/CLK*%
X54250001Y-77216656D03*
X54450000Y-69850000D03*
X51900000Y-76450000D03*
X52970488Y-71656470D03*
X49347507Y-75519659D03*
X57000000Y-67500000D03*
%TO.N,/MOSI*%
X54688909Y-72788909D03*
X45500000Y-79400000D03*
%TO.N,/AD59INT*%
X53274350Y-70400000D03*
X56550000Y-80200000D03*
X43150000Y-80300000D03*
X56400000Y-72550000D03*
%TO.N,Net-(U4-AVDD)*%
X42850000Y-89800000D03*
X37600000Y-89350000D03*
%TO.N,/D3*%
X61950000Y-84000000D03*
X39150000Y-91450000D03*
X64950000Y-90050000D03*
%TO.N,/D4*%
X61900000Y-87000000D03*
X53250000Y-90400000D03*
X64850000Y-89150000D03*
%TO.N,/ADSCS*%
X55350000Y-74600000D03*
X54150000Y-74050000D03*
%TO.N,/Reset*%
X58400000Y-61400000D03*
X47449998Y-63500000D03*
X60050000Y-49850000D03*
X59500000Y-52900000D03*
%TO.N,Net-(D3-A)*%
X47750000Y-53300000D03*
X56300000Y-52450000D03*
%TO.N,/E+*%
X58249479Y-88549479D03*
X55300000Y-89750000D03*
%TO.N,Net-(D2-K)*%
X36650000Y-50150000D03*
X41750000Y-49550000D03*
%TO.N,Net-(U1-XTAL_N)*%
X43200000Y-67200000D03*
X45550000Y-66349997D03*
%TO.N,/MISO*%
X54300000Y-66750000D03*
X49367891Y-78832109D03*
X44900000Y-78900000D03*
X49367891Y-77050000D03*
X56168668Y-70253514D03*
X54139183Y-72278708D03*
X54410000Y-79700000D03*
%TO.N,+5V*%
X44958750Y-54758750D03*
X43500000Y-55000000D03*
%TO.N,Net-(U1-SPICS0)*%
X51300000Y-62850000D03*
X56900000Y-63040000D03*
%TO.N,Net-(U1-SPIQ)*%
X56600000Y-64300000D03*
X50500000Y-62850000D03*
%TO.N,Net-(U1-SPIWP)*%
X56850000Y-65050000D03*
X52500000Y-65250000D03*
%TO.N,Net-(U1-SPID)*%
X49751667Y-62800000D03*
X57150000Y-68300000D03*
%TO.N,Net-(U1-SPICLK)*%
X50900000Y-60900000D03*
X62475000Y-64926094D03*
%TO.N,Net-(U1-SPIHD)*%
X64050000Y-63800000D03*
X53600000Y-61100000D03*
%TO.N,/SYSOFF*%
X59850000Y-54000000D03*
X40750000Y-56250000D03*
X40550000Y-54050000D03*
%TO.N,VBUS*%
X51800000Y-48150000D03*
X47856950Y-48364778D03*
%TO.N,/NTC*%
X39826091Y-52576091D03*
X39800000Y-58700000D03*
%TO.N,Net-(U1-XTAL_P)*%
X45550000Y-67100000D03*
X43200000Y-68100000D03*
%TO.N,+BATT*%
X40650000Y-59300000D03*
X59850000Y-55100000D03*
X38750000Y-51500000D03*
X58000000Y-55050000D03*
%TD*%
%TA.AperFunction,Conductor*%
%TO.N,GND*%
G36*
X44742628Y-43420185D02*
G01*
X44788383Y-43472989D01*
X44798327Y-43542147D01*
X44778691Y-43593391D01*
X44693371Y-43721079D01*
X44693364Y-43721092D01*
X44617950Y-43903160D01*
X44617947Y-43903170D01*
X44579500Y-44096456D01*
X44579500Y-44096459D01*
X44579500Y-44893541D01*
X44579500Y-44893543D01*
X44579499Y-44893543D01*
X44617947Y-45086829D01*
X44617950Y-45086839D01*
X44693364Y-45268907D01*
X44693371Y-45268920D01*
X44802860Y-45432781D01*
X44802863Y-45432785D01*
X44942214Y-45572136D01*
X44942218Y-45572139D01*
X45106079Y-45681628D01*
X45106092Y-45681635D01*
X45288160Y-45757049D01*
X45288165Y-45757051D01*
X45288169Y-45757051D01*
X45288170Y-45757052D01*
X45481456Y-45795500D01*
X45481459Y-45795500D01*
X45678543Y-45795500D01*
X45808582Y-45769632D01*
X45871835Y-45757051D01*
X46053914Y-45681632D01*
X46217782Y-45572139D01*
X46357139Y-45432782D01*
X46466632Y-45268914D01*
X46542051Y-45086835D01*
X46580500Y-44893541D01*
X46580500Y-44096459D01*
X46580500Y-44096456D01*
X46542052Y-43903170D01*
X46542051Y-43903169D01*
X46542051Y-43903165D01*
X46540740Y-43900000D01*
X46466635Y-43721092D01*
X46466628Y-43721079D01*
X46381309Y-43593391D01*
X46360431Y-43526714D01*
X46378915Y-43459333D01*
X46430894Y-43412643D01*
X46484411Y-43400500D01*
X53315589Y-43400500D01*
X53382628Y-43420185D01*
X53428383Y-43472989D01*
X53438327Y-43542147D01*
X53418691Y-43593391D01*
X53333371Y-43721079D01*
X53333364Y-43721092D01*
X53257950Y-43903160D01*
X53257947Y-43903170D01*
X53219500Y-44096456D01*
X53219500Y-44096459D01*
X53219500Y-44893541D01*
X53219500Y-44893543D01*
X53219499Y-44893543D01*
X53257947Y-45086829D01*
X53257950Y-45086839D01*
X53333364Y-45268907D01*
X53333371Y-45268920D01*
X53442860Y-45432781D01*
X53442863Y-45432785D01*
X53582214Y-45572136D01*
X53582218Y-45572139D01*
X53746079Y-45681628D01*
X53746092Y-45681635D01*
X53928160Y-45757049D01*
X53928165Y-45757051D01*
X53928169Y-45757051D01*
X53928170Y-45757052D01*
X54121456Y-45795500D01*
X54121459Y-45795500D01*
X54318543Y-45795500D01*
X54448582Y-45769632D01*
X54511835Y-45757051D01*
X54693914Y-45681632D01*
X54857782Y-45572139D01*
X54997139Y-45432782D01*
X55106632Y-45268914D01*
X55182051Y-45086835D01*
X55220500Y-44893541D01*
X55220500Y-44096459D01*
X55220500Y-44096456D01*
X55182052Y-43903170D01*
X55182051Y-43903169D01*
X55182051Y-43903165D01*
X55180740Y-43900000D01*
X55106635Y-43721092D01*
X55106628Y-43721079D01*
X55021309Y-43593391D01*
X55000431Y-43526714D01*
X55018915Y-43459333D01*
X55070894Y-43412643D01*
X55124411Y-43400500D01*
X63834108Y-43400500D01*
X63893040Y-43400500D01*
X63906922Y-43401280D01*
X63923878Y-43403190D01*
X63997268Y-43411458D01*
X64024333Y-43417636D01*
X64103539Y-43445351D01*
X64128549Y-43457395D01*
X64199606Y-43502043D01*
X64221313Y-43519355D01*
X64280644Y-43578686D01*
X64297957Y-43600395D01*
X64342602Y-43671447D01*
X64354649Y-43696464D01*
X64382362Y-43775662D01*
X64388541Y-43802734D01*
X64398720Y-43893076D01*
X64399500Y-43906959D01*
X64399500Y-62902242D01*
X64379815Y-62969281D01*
X64327011Y-63015036D01*
X64257853Y-63024980D01*
X64251309Y-63023859D01*
X64128846Y-62999500D01*
X64128842Y-62999500D01*
X63971158Y-62999500D01*
X63971155Y-62999500D01*
X63816510Y-63030261D01*
X63816498Y-63030264D01*
X63670827Y-63090602D01*
X63670814Y-63090609D01*
X63539711Y-63178210D01*
X63539707Y-63178213D01*
X63428213Y-63289707D01*
X63428210Y-63289711D01*
X63340609Y-63420814D01*
X63340602Y-63420827D01*
X63280264Y-63566498D01*
X63280261Y-63566510D01*
X63249500Y-63721153D01*
X63249500Y-63878846D01*
X63280261Y-64033489D01*
X63280264Y-64033501D01*
X63340602Y-64179172D01*
X63340609Y-64179185D01*
X63428210Y-64310288D01*
X63428213Y-64310292D01*
X63539707Y-64421786D01*
X63539711Y-64421789D01*
X63670814Y-64509390D01*
X63670827Y-64509397D01*
X63816498Y-64569735D01*
X63816503Y-64569737D01*
X63968147Y-64599901D01*
X63971153Y-64600499D01*
X63971156Y-64600500D01*
X63971158Y-64600500D01*
X64128844Y-64600500D01*
X64251308Y-64576140D01*
X64320900Y-64582367D01*
X64376077Y-64625230D01*
X64399322Y-64691120D01*
X64399500Y-64697757D01*
X64399500Y-72984108D01*
X64399500Y-73050000D01*
X64399500Y-73157318D01*
X64401049Y-73168088D01*
X64430045Y-73369767D01*
X64430046Y-73369771D01*
X64490511Y-73575701D01*
X64490516Y-73575713D01*
X64579671Y-73770938D01*
X64579680Y-73770954D01*
X64695718Y-73951512D01*
X64836275Y-74113724D01*
X64998487Y-74254281D01*
X65179045Y-74370319D01*
X65179061Y-74370328D01*
X65307929Y-74429179D01*
X65374290Y-74459485D01*
X65374292Y-74459485D01*
X65374298Y-74459488D01*
X65548373Y-74510599D01*
X65580231Y-74519954D01*
X65792682Y-74550500D01*
X65834108Y-74550500D01*
X69734108Y-74550500D01*
X69793040Y-74550500D01*
X69806922Y-74551280D01*
X69823878Y-74553190D01*
X69897268Y-74561458D01*
X69924333Y-74567636D01*
X70003539Y-74595351D01*
X70028549Y-74607395D01*
X70099606Y-74652043D01*
X70121313Y-74669355D01*
X70180644Y-74728686D01*
X70197957Y-74750395D01*
X70242602Y-74821447D01*
X70254649Y-74846464D01*
X70282362Y-74925662D01*
X70288541Y-74952734D01*
X70298720Y-75043076D01*
X70299500Y-75056959D01*
X70299500Y-91458040D01*
X70298720Y-91471923D01*
X70288541Y-91562265D01*
X70282362Y-91589337D01*
X70254649Y-91668535D01*
X70242602Y-91693552D01*
X70197957Y-91764604D01*
X70180644Y-91786313D01*
X70121313Y-91845644D01*
X70099604Y-91862957D01*
X70028552Y-91907602D01*
X70003535Y-91919649D01*
X69924337Y-91947362D01*
X69897265Y-91953541D01*
X69806923Y-91963720D01*
X69793040Y-91964500D01*
X41200737Y-91964500D01*
X41133698Y-91944815D01*
X41087943Y-91892011D01*
X41077999Y-91822853D01*
X41097635Y-91771609D01*
X41159390Y-91679185D01*
X41159390Y-91679184D01*
X41159394Y-91679179D01*
X41219737Y-91533497D01*
X41250500Y-91378842D01*
X41250500Y-91221158D01*
X41250500Y-91221155D01*
X41250499Y-91221153D01*
X41228269Y-91109397D01*
X41219737Y-91066503D01*
X41201215Y-91021786D01*
X41159397Y-90920827D01*
X41159390Y-90920814D01*
X41071789Y-90789711D01*
X41071786Y-90789707D01*
X40960292Y-90678213D01*
X40960288Y-90678210D01*
X40829185Y-90590609D01*
X40829172Y-90590602D01*
X40683501Y-90530264D01*
X40683489Y-90530261D01*
X40528845Y-90499500D01*
X40528842Y-90499500D01*
X40371158Y-90499500D01*
X40371155Y-90499500D01*
X40216510Y-90530261D01*
X40216498Y-90530264D01*
X40070827Y-90590602D01*
X40070814Y-90590609D01*
X39939711Y-90678210D01*
X39939707Y-90678213D01*
X39828217Y-90789704D01*
X39828211Y-90789711D01*
X39827476Y-90790811D01*
X39826943Y-90791255D01*
X39824353Y-90794413D01*
X39823753Y-90793920D01*
X39773856Y-90835607D01*
X39704530Y-90844304D01*
X39655493Y-90825006D01*
X39529185Y-90740609D01*
X39529172Y-90740602D01*
X39383501Y-90680264D01*
X39383489Y-90680261D01*
X39228845Y-90649500D01*
X39228842Y-90649500D01*
X39071158Y-90649500D01*
X39071155Y-90649500D01*
X38916510Y-90680261D01*
X38916498Y-90680264D01*
X38770827Y-90740602D01*
X38770814Y-90740609D01*
X38639711Y-90828210D01*
X38639707Y-90828213D01*
X38528213Y-90939707D01*
X38528210Y-90939711D01*
X38440609Y-91070814D01*
X38440602Y-91070827D01*
X38380264Y-91216498D01*
X38380261Y-91216510D01*
X38349500Y-91371153D01*
X38349500Y-91528846D01*
X38380261Y-91683489D01*
X38380264Y-91683501D01*
X38425640Y-91793048D01*
X38433109Y-91862517D01*
X38401834Y-91924996D01*
X38341745Y-91960648D01*
X38311079Y-91964500D01*
X30006960Y-91964500D01*
X29993077Y-91963720D01*
X29902734Y-91953541D01*
X29875662Y-91947362D01*
X29796464Y-91919649D01*
X29771447Y-91907602D01*
X29700395Y-91862957D01*
X29678686Y-91845644D01*
X29619355Y-91786313D01*
X29602042Y-91764604D01*
X29557397Y-91693552D01*
X29545351Y-91668539D01*
X29517636Y-91589333D01*
X29511458Y-91562268D01*
X29501280Y-91471922D01*
X29500500Y-91458040D01*
X29500500Y-89511500D01*
X29520185Y-89444461D01*
X29572989Y-89398706D01*
X29624500Y-89387500D01*
X34325000Y-89387500D01*
X34325000Y-89271153D01*
X36799500Y-89271153D01*
X36799500Y-89428846D01*
X36830261Y-89583489D01*
X36830264Y-89583501D01*
X36890602Y-89729172D01*
X36890609Y-89729185D01*
X36978210Y-89860288D01*
X36978213Y-89860292D01*
X37089707Y-89971786D01*
X37089711Y-89971789D01*
X37220814Y-90059390D01*
X37220827Y-90059397D01*
X37366498Y-90119735D01*
X37366503Y-90119737D01*
X37521153Y-90150499D01*
X37521156Y-90150500D01*
X37521158Y-90150500D01*
X37678844Y-90150500D01*
X37678845Y-90150499D01*
X37833497Y-90119737D01*
X37979179Y-90059394D01*
X38110289Y-89971789D01*
X38221789Y-89860289D01*
X38309394Y-89729179D01*
X38309395Y-89729176D01*
X38309397Y-89729173D01*
X38312719Y-89721153D01*
X42049500Y-89721153D01*
X42049500Y-89878846D01*
X42080261Y-90033489D01*
X42080264Y-90033501D01*
X42140602Y-90179172D01*
X42140609Y-90179185D01*
X42228210Y-90310288D01*
X42228213Y-90310292D01*
X42339707Y-90421786D01*
X42339711Y-90421789D01*
X42470814Y-90509390D01*
X42470827Y-90509397D01*
X42605965Y-90565372D01*
X42616503Y-90569737D01*
X42771153Y-90600499D01*
X42771156Y-90600500D01*
X42771158Y-90600500D01*
X42928844Y-90600500D01*
X42928845Y-90600499D01*
X43083497Y-90569737D01*
X43229179Y-90509394D01*
X43360289Y-90421789D01*
X43471789Y-90310289D01*
X43559394Y-90179179D01*
X43560264Y-90177080D01*
X43580102Y-90129185D01*
X43619737Y-90033497D01*
X43650500Y-89878842D01*
X43650500Y-89864736D01*
X50578979Y-89864736D01*
X50578979Y-90022429D01*
X50609740Y-90177072D01*
X50609743Y-90177084D01*
X50670081Y-90322755D01*
X50670088Y-90322768D01*
X50757689Y-90453871D01*
X50757692Y-90453875D01*
X50869186Y-90565369D01*
X50869190Y-90565372D01*
X51000293Y-90652973D01*
X51000306Y-90652980D01*
X51145977Y-90713318D01*
X51145982Y-90713320D01*
X51283137Y-90740602D01*
X51300632Y-90744082D01*
X51300635Y-90744083D01*
X51300637Y-90744083D01*
X51458323Y-90744083D01*
X51458324Y-90744082D01*
X51612976Y-90713320D01*
X51758658Y-90652977D01*
X51889768Y-90565372D01*
X52001268Y-90453872D01*
X52088873Y-90322762D01*
X52089539Y-90321153D01*
X52449500Y-90321153D01*
X52449500Y-90478846D01*
X52480261Y-90633489D01*
X52480264Y-90633501D01*
X52540602Y-90779172D01*
X52540609Y-90779185D01*
X52628210Y-90910288D01*
X52628213Y-90910292D01*
X52739707Y-91021786D01*
X52739711Y-91021789D01*
X52870814Y-91109390D01*
X52870827Y-91109397D01*
X53016498Y-91169735D01*
X53016503Y-91169737D01*
X53171153Y-91200499D01*
X53171156Y-91200500D01*
X53171158Y-91200500D01*
X53328844Y-91200500D01*
X53328845Y-91200499D01*
X53483497Y-91169737D01*
X53629179Y-91109394D01*
X53760289Y-91021789D01*
X53871789Y-90910289D01*
X53943390Y-90803129D01*
X53997000Y-90758326D01*
X54066325Y-90749619D01*
X54070642Y-90750397D01*
X54071158Y-90750500D01*
X54071163Y-90750500D01*
X54228844Y-90750500D01*
X54228845Y-90750499D01*
X54383497Y-90719737D01*
X54529179Y-90659394D01*
X54660289Y-90571789D01*
X54760062Y-90472015D01*
X54821383Y-90438532D01*
X54891075Y-90443516D01*
X54916635Y-90456598D01*
X54920811Y-90459388D01*
X54920815Y-90459390D01*
X54920821Y-90459394D01*
X54920823Y-90459395D01*
X54920827Y-90459397D01*
X55066498Y-90519735D01*
X55066503Y-90519737D01*
X55221153Y-90550499D01*
X55221156Y-90550500D01*
X55221158Y-90550500D01*
X55378844Y-90550500D01*
X55378845Y-90550499D01*
X55533497Y-90519737D01*
X55679179Y-90459394D01*
X55810289Y-90371789D01*
X55921789Y-90260289D01*
X56009394Y-90129179D01*
X56069737Y-89983497D01*
X56100500Y-89828842D01*
X56100500Y-89671158D01*
X56100500Y-89671155D01*
X56100499Y-89671153D01*
X56090456Y-89620663D01*
X56069737Y-89516503D01*
X56047573Y-89462993D01*
X56009397Y-89370827D01*
X56009390Y-89370814D01*
X55921789Y-89239711D01*
X55921786Y-89239707D01*
X55810292Y-89128213D01*
X55810288Y-89128210D01*
X55679185Y-89040609D01*
X55679172Y-89040602D01*
X55533501Y-88980264D01*
X55533489Y-88980261D01*
X55378845Y-88949500D01*
X55378842Y-88949500D01*
X55221158Y-88949500D01*
X55221155Y-88949500D01*
X55066510Y-88980261D01*
X55066498Y-88980264D01*
X54920827Y-89040602D01*
X54920814Y-89040609D01*
X54789711Y-89128210D01*
X54689938Y-89227983D01*
X54628615Y-89261467D01*
X54558923Y-89256483D01*
X54533371Y-89243407D01*
X54529179Y-89240606D01*
X54529176Y-89240604D01*
X54529175Y-89240604D01*
X54383501Y-89180264D01*
X54383489Y-89180261D01*
X54228845Y-89149500D01*
X54228842Y-89149500D01*
X54071158Y-89149500D01*
X54071155Y-89149500D01*
X53916510Y-89180261D01*
X53916498Y-89180264D01*
X53770827Y-89240602D01*
X53770814Y-89240609D01*
X53639711Y-89328210D01*
X53639707Y-89328213D01*
X53528213Y-89439707D01*
X53528207Y-89439715D01*
X53456611Y-89546867D01*
X53402999Y-89591673D01*
X53333674Y-89600380D01*
X53329318Y-89599594D01*
X53328845Y-89599500D01*
X53328842Y-89599500D01*
X53171158Y-89599500D01*
X53171155Y-89599500D01*
X53016510Y-89630261D01*
X53016498Y-89630264D01*
X52870827Y-89690602D01*
X52870814Y-89690609D01*
X52739711Y-89778210D01*
X52739707Y-89778213D01*
X52628213Y-89889707D01*
X52628210Y-89889711D01*
X52540609Y-90020814D01*
X52540602Y-90020827D01*
X52480264Y-90166498D01*
X52480261Y-90166510D01*
X52449500Y-90321153D01*
X52089539Y-90321153D01*
X52149216Y-90177080D01*
X52179979Y-90022425D01*
X52179979Y-89864741D01*
X52179979Y-89864738D01*
X52179978Y-89864736D01*
X52172839Y-89828846D01*
X52149216Y-89710086D01*
X52149214Y-89710081D01*
X52088876Y-89564410D01*
X52088869Y-89564397D01*
X52001268Y-89433294D01*
X52001265Y-89433290D01*
X51889771Y-89321796D01*
X51889767Y-89321793D01*
X51758664Y-89234192D01*
X51758651Y-89234185D01*
X51612980Y-89173847D01*
X51612968Y-89173844D01*
X51458324Y-89143083D01*
X51458321Y-89143083D01*
X51300637Y-89143083D01*
X51300634Y-89143083D01*
X51145989Y-89173844D01*
X51145977Y-89173847D01*
X51000306Y-89234185D01*
X51000293Y-89234192D01*
X50869190Y-89321793D01*
X50869186Y-89321796D01*
X50757692Y-89433290D01*
X50757689Y-89433294D01*
X50670088Y-89564397D01*
X50670081Y-89564410D01*
X50609743Y-89710081D01*
X50609740Y-89710093D01*
X50578979Y-89864736D01*
X43650500Y-89864736D01*
X43650500Y-89721158D01*
X43650500Y-89721155D01*
X43650499Y-89721153D01*
X43639849Y-89667613D01*
X43619737Y-89566503D01*
X43611604Y-89546867D01*
X43559397Y-89420827D01*
X43559390Y-89420814D01*
X43471789Y-89289711D01*
X43471786Y-89289707D01*
X43360292Y-89178213D01*
X43360288Y-89178210D01*
X43229185Y-89090609D01*
X43229172Y-89090602D01*
X43083501Y-89030264D01*
X43083489Y-89030261D01*
X42928845Y-88999500D01*
X42928842Y-88999500D01*
X42771158Y-88999500D01*
X42771155Y-88999500D01*
X42616510Y-89030261D01*
X42616498Y-89030264D01*
X42470827Y-89090602D01*
X42470814Y-89090609D01*
X42339711Y-89178210D01*
X42339707Y-89178213D01*
X42228213Y-89289707D01*
X42228210Y-89289711D01*
X42140609Y-89420814D01*
X42140602Y-89420827D01*
X42080264Y-89566498D01*
X42080261Y-89566510D01*
X42049500Y-89721153D01*
X38312719Y-89721153D01*
X38334895Y-89667614D01*
X38334895Y-89667613D01*
X38337713Y-89660810D01*
X38369737Y-89583497D01*
X38400500Y-89428842D01*
X38400500Y-89271158D01*
X38400500Y-89271155D01*
X38400499Y-89271153D01*
X38393146Y-89234189D01*
X38369737Y-89116503D01*
X38369735Y-89116498D01*
X38309397Y-88970827D01*
X38309390Y-88970814D01*
X38221789Y-88839711D01*
X38221786Y-88839707D01*
X38110292Y-88728213D01*
X38110288Y-88728210D01*
X37979185Y-88640609D01*
X37979172Y-88640602D01*
X37833500Y-88580264D01*
X37833498Y-88580263D01*
X37833497Y-88580263D01*
X37833494Y-88580262D01*
X37833489Y-88580261D01*
X37678845Y-88549500D01*
X37678842Y-88549500D01*
X37521158Y-88549500D01*
X37521155Y-88549500D01*
X37366510Y-88580261D01*
X37366498Y-88580264D01*
X37220827Y-88640602D01*
X37220814Y-88640609D01*
X37089711Y-88728210D01*
X37089707Y-88728213D01*
X36978213Y-88839707D01*
X36978210Y-88839711D01*
X36890609Y-88970814D01*
X36890602Y-88970827D01*
X36830264Y-89116498D01*
X36830261Y-89116510D01*
X36799500Y-89271153D01*
X34325000Y-89271153D01*
X34325000Y-88470632D01*
X57448979Y-88470632D01*
X57448979Y-88628325D01*
X57479740Y-88782968D01*
X57479743Y-88782980D01*
X57540081Y-88928651D01*
X57540088Y-88928664D01*
X57627689Y-89059767D01*
X57627692Y-89059771D01*
X57739186Y-89171265D01*
X57739190Y-89171268D01*
X57870293Y-89258869D01*
X57870306Y-89258876D01*
X58014350Y-89318540D01*
X58068754Y-89362380D01*
X58081459Y-89385649D01*
X58141123Y-89529693D01*
X58141130Y-89529706D01*
X58228731Y-89660809D01*
X58228734Y-89660813D01*
X58340228Y-89772307D01*
X58340232Y-89772310D01*
X58471335Y-89859911D01*
X58471348Y-89859918D01*
X58543276Y-89889711D01*
X58617024Y-89920258D01*
X58771674Y-89951020D01*
X58771677Y-89951021D01*
X58771679Y-89951021D01*
X58929365Y-89951021D01*
X58929366Y-89951020D01*
X59084018Y-89920258D01*
X59228797Y-89860289D01*
X59229693Y-89859918D01*
X59229693Y-89859917D01*
X59229700Y-89859915D01*
X59360810Y-89772310D01*
X59472310Y-89660810D01*
X59559915Y-89529700D01*
X59620258Y-89384018D01*
X59651021Y-89229363D01*
X59651021Y-89071679D01*
X59650917Y-89071158D01*
X59650916Y-89071153D01*
X64049500Y-89071153D01*
X64049500Y-89228846D01*
X64080261Y-89383489D01*
X64080264Y-89383501D01*
X64140602Y-89529172D01*
X64140612Y-89529190D01*
X64201732Y-89620663D01*
X64222610Y-89687340D01*
X64213192Y-89737004D01*
X64180262Y-89816506D01*
X64180260Y-89816511D01*
X64149500Y-89971153D01*
X64149500Y-90128846D01*
X64180261Y-90283489D01*
X64180264Y-90283501D01*
X64240602Y-90429172D01*
X64240609Y-90429185D01*
X64328210Y-90560288D01*
X64328213Y-90560292D01*
X64439707Y-90671786D01*
X64439711Y-90671789D01*
X64570814Y-90759390D01*
X64570827Y-90759397D01*
X64716498Y-90819735D01*
X64716503Y-90819737D01*
X64840009Y-90844304D01*
X64871153Y-90850499D01*
X64871156Y-90850500D01*
X64871158Y-90850500D01*
X65028844Y-90850500D01*
X65028845Y-90850499D01*
X65183497Y-90819737D01*
X65329179Y-90759394D01*
X65460289Y-90671789D01*
X65571789Y-90560289D01*
X65659394Y-90429179D01*
X65719737Y-90283497D01*
X65750500Y-90128842D01*
X65750500Y-89971158D01*
X65750500Y-89971155D01*
X65750499Y-89971153D01*
X65729332Y-89864741D01*
X65719737Y-89816503D01*
X65683569Y-89729185D01*
X65659397Y-89670827D01*
X65659390Y-89670814D01*
X65598267Y-89579337D01*
X65577389Y-89512659D01*
X65586808Y-89462993D01*
X65619737Y-89383497D01*
X65650500Y-89228842D01*
X65650500Y-89071158D01*
X65650500Y-89071155D01*
X65650499Y-89071153D01*
X65630543Y-88970827D01*
X65619737Y-88916503D01*
X65587929Y-88839711D01*
X65559397Y-88770827D01*
X65559390Y-88770814D01*
X65471789Y-88639711D01*
X65471786Y-88639707D01*
X65360292Y-88528213D01*
X65360288Y-88528210D01*
X65229185Y-88440609D01*
X65229172Y-88440602D01*
X65083501Y-88380264D01*
X65083489Y-88380261D01*
X64928845Y-88349500D01*
X64928842Y-88349500D01*
X64771158Y-88349500D01*
X64771155Y-88349500D01*
X64616510Y-88380261D01*
X64616498Y-88380264D01*
X64470827Y-88440602D01*
X64470814Y-88440609D01*
X64339711Y-88528210D01*
X64339707Y-88528213D01*
X64228213Y-88639707D01*
X64228210Y-88639711D01*
X64140609Y-88770814D01*
X64140602Y-88770827D01*
X64080264Y-88916498D01*
X64080261Y-88916510D01*
X64049500Y-89071153D01*
X59650916Y-89071153D01*
X59630959Y-88970821D01*
X59620258Y-88917024D01*
X59588234Y-88839711D01*
X59559918Y-88771348D01*
X59559911Y-88771335D01*
X59472310Y-88640232D01*
X59472307Y-88640228D01*
X59360813Y-88528734D01*
X59360809Y-88528731D01*
X59229706Y-88441130D01*
X59229693Y-88441123D01*
X59085649Y-88381459D01*
X59031245Y-88337618D01*
X59018540Y-88314350D01*
X58958876Y-88170306D01*
X58958869Y-88170293D01*
X58871268Y-88039190D01*
X58871265Y-88039186D01*
X58759771Y-87927692D01*
X58759767Y-87927689D01*
X58628664Y-87840088D01*
X58628651Y-87840081D01*
X58482980Y-87779743D01*
X58482968Y-87779740D01*
X58328324Y-87748979D01*
X58328321Y-87748979D01*
X58170637Y-87748979D01*
X58170634Y-87748979D01*
X58015989Y-87779740D01*
X58015977Y-87779743D01*
X57870306Y-87840081D01*
X57870293Y-87840088D01*
X57739190Y-87927689D01*
X57739186Y-87927692D01*
X57627692Y-88039186D01*
X57627689Y-88039190D01*
X57540088Y-88170293D01*
X57540081Y-88170306D01*
X57479743Y-88315977D01*
X57479740Y-88315989D01*
X57448979Y-88470632D01*
X34325000Y-88470632D01*
X34325000Y-86921153D01*
X61099500Y-86921153D01*
X61099500Y-87078846D01*
X61130261Y-87233489D01*
X61130264Y-87233501D01*
X61190602Y-87379172D01*
X61190609Y-87379185D01*
X61278210Y-87510288D01*
X61278213Y-87510292D01*
X61389707Y-87621786D01*
X61389711Y-87621789D01*
X61520814Y-87709390D01*
X61520827Y-87709397D01*
X61616388Y-87748979D01*
X61666503Y-87769737D01*
X61821153Y-87800499D01*
X61821156Y-87800500D01*
X61821158Y-87800500D01*
X61978844Y-87800500D01*
X61978845Y-87800499D01*
X62133497Y-87769737D01*
X62279179Y-87709394D01*
X62410289Y-87621789D01*
X62521789Y-87510289D01*
X62609394Y-87379179D01*
X62669737Y-87233497D01*
X62700500Y-87078842D01*
X62700500Y-86921158D01*
X62700500Y-86921155D01*
X62700499Y-86921153D01*
X62669738Y-86766510D01*
X62669737Y-86766503D01*
X62669735Y-86766498D01*
X62609397Y-86620827D01*
X62609390Y-86620814D01*
X62521789Y-86489711D01*
X62521786Y-86489707D01*
X62410292Y-86378213D01*
X62410288Y-86378210D01*
X62279185Y-86290609D01*
X62279172Y-86290602D01*
X62133501Y-86230264D01*
X62133489Y-86230261D01*
X61978845Y-86199500D01*
X61978842Y-86199500D01*
X61821158Y-86199500D01*
X61821155Y-86199500D01*
X61666510Y-86230261D01*
X61666498Y-86230264D01*
X61520827Y-86290602D01*
X61520814Y-86290609D01*
X61389711Y-86378210D01*
X61389707Y-86378213D01*
X61278213Y-86489707D01*
X61278210Y-86489711D01*
X61190609Y-86620814D01*
X61190602Y-86620827D01*
X61130264Y-86766498D01*
X61130261Y-86766510D01*
X61099500Y-86921153D01*
X34325000Y-86921153D01*
X34325000Y-86582577D01*
X54320975Y-86582577D01*
X54426236Y-86626178D01*
X54426240Y-86626179D01*
X54571126Y-86654999D01*
X54571129Y-86655000D01*
X54718871Y-86655000D01*
X54718873Y-86654999D01*
X54863760Y-86626179D01*
X54863775Y-86626175D01*
X54969024Y-86582578D01*
X54969024Y-86582577D01*
X54645001Y-86258554D01*
X54645000Y-86258554D01*
X54320975Y-86582577D01*
X34325000Y-86582577D01*
X34325000Y-84649827D01*
X47799500Y-84649827D01*
X47799500Y-84807520D01*
X47830261Y-84962163D01*
X47830264Y-84962175D01*
X47890602Y-85107846D01*
X47890609Y-85107859D01*
X47978209Y-85238961D01*
X47978210Y-85238962D01*
X47978211Y-85238963D01*
X48043144Y-85303896D01*
X48076628Y-85365217D01*
X48079462Y-85391576D01*
X48079462Y-85503311D01*
X48110223Y-85657954D01*
X48110226Y-85657966D01*
X48170564Y-85803637D01*
X48170571Y-85803650D01*
X48258172Y-85934753D01*
X48258175Y-85934757D01*
X48369669Y-86046251D01*
X48369673Y-86046254D01*
X48500776Y-86133855D01*
X48500789Y-86133862D01*
X48646460Y-86194200D01*
X48646465Y-86194202D01*
X48801115Y-86224964D01*
X48801118Y-86224965D01*
X48801120Y-86224965D01*
X48958806Y-86224965D01*
X48958807Y-86224964D01*
X49113459Y-86194202D01*
X49259141Y-86133859D01*
X49390251Y-86046254D01*
X49501751Y-85934754D01*
X49570993Y-85831126D01*
X53895000Y-85831126D01*
X53895000Y-85978873D01*
X53923820Y-86123759D01*
X53923822Y-86123767D01*
X53967421Y-86229024D01*
X54291446Y-85905000D01*
X54291446Y-85904999D01*
X54271556Y-85885109D01*
X54545000Y-85885109D01*
X54545000Y-85924891D01*
X54560224Y-85961645D01*
X54588355Y-85989776D01*
X54625109Y-86005000D01*
X54664891Y-86005000D01*
X54701645Y-85989776D01*
X54729776Y-85961645D01*
X54745000Y-85924891D01*
X54745000Y-85904999D01*
X54998554Y-85904999D01*
X54998554Y-85905001D01*
X55322577Y-86229024D01*
X55322578Y-86229024D01*
X55366175Y-86123775D01*
X55366179Y-86123760D01*
X55394999Y-85978873D01*
X55395000Y-85978871D01*
X55395000Y-85831128D01*
X55394999Y-85831126D01*
X55366179Y-85686240D01*
X55366178Y-85686236D01*
X55341644Y-85627006D01*
X55309095Y-85594457D01*
X54998554Y-85904999D01*
X54745000Y-85904999D01*
X54745000Y-85885109D01*
X54729776Y-85848355D01*
X54701645Y-85820224D01*
X54664891Y-85805000D01*
X54625109Y-85805000D01*
X54588355Y-85820224D01*
X54560224Y-85848355D01*
X54545000Y-85885109D01*
X54271556Y-85885109D01*
X53980903Y-85594456D01*
X53948355Y-85627004D01*
X53923821Y-85686237D01*
X53923820Y-85686240D01*
X53895000Y-85831126D01*
X49570993Y-85831126D01*
X49589356Y-85803644D01*
X49649699Y-85657962D01*
X49680462Y-85503307D01*
X49680462Y-85345623D01*
X49680462Y-85345620D01*
X49680461Y-85345618D01*
X49649699Y-85190968D01*
X49625891Y-85133489D01*
X49589359Y-85045292D01*
X49589352Y-85045279D01*
X49501751Y-84914176D01*
X49501748Y-84914172D01*
X49436819Y-84849243D01*
X49403334Y-84787920D01*
X49400500Y-84761562D01*
X49400500Y-84649829D01*
X49400499Y-84649827D01*
X49377904Y-84536236D01*
X49369737Y-84495177D01*
X49343144Y-84430975D01*
X49309397Y-84349501D01*
X49309390Y-84349488D01*
X49221789Y-84218385D01*
X49221786Y-84218381D01*
X49110292Y-84106887D01*
X49110288Y-84106884D01*
X48979185Y-84019283D01*
X48979172Y-84019276D01*
X48833501Y-83958938D01*
X48833489Y-83958935D01*
X48678845Y-83928174D01*
X48678842Y-83928174D01*
X48521158Y-83928174D01*
X48521155Y-83928174D01*
X48366510Y-83958935D01*
X48366498Y-83958938D01*
X48220827Y-84019276D01*
X48220814Y-84019283D01*
X48089711Y-84106884D01*
X48089707Y-84106887D01*
X47978213Y-84218381D01*
X47978210Y-84218385D01*
X47890609Y-84349488D01*
X47890602Y-84349501D01*
X47830264Y-84495172D01*
X47830261Y-84495184D01*
X47799500Y-84649827D01*
X34325000Y-84649827D01*
X34325000Y-83321153D01*
X38799500Y-83321153D01*
X38799500Y-83478846D01*
X38830261Y-83633489D01*
X38830264Y-83633501D01*
X38890602Y-83779172D01*
X38890609Y-83779185D01*
X38978210Y-83910288D01*
X38978213Y-83910292D01*
X39089707Y-84021786D01*
X39089711Y-84021789D01*
X39220814Y-84109390D01*
X39220827Y-84109397D01*
X39366498Y-84169735D01*
X39366503Y-84169737D01*
X39521153Y-84200499D01*
X39521156Y-84200500D01*
X39521158Y-84200500D01*
X39678844Y-84200500D01*
X39678845Y-84200499D01*
X39833497Y-84169737D01*
X39979179Y-84109394D01*
X40110289Y-84021789D01*
X40221789Y-83910289D01*
X40309394Y-83779179D01*
X40369737Y-83633497D01*
X40400500Y-83478842D01*
X40400500Y-83371153D01*
X49749500Y-83371153D01*
X49749500Y-83528846D01*
X49780261Y-83683489D01*
X49780264Y-83683501D01*
X49840602Y-83829172D01*
X49840609Y-83829185D01*
X49928210Y-83960288D01*
X49928213Y-83960292D01*
X50039707Y-84071786D01*
X50039711Y-84071789D01*
X50170814Y-84159390D01*
X50170827Y-84159397D01*
X50313229Y-84218381D01*
X50316503Y-84219737D01*
X50471153Y-84250499D01*
X50471156Y-84250500D01*
X50471158Y-84250500D01*
X50628844Y-84250500D01*
X50751136Y-84226174D01*
X50782440Y-84219947D01*
X50852032Y-84226174D01*
X50907209Y-84269037D01*
X50930454Y-84334926D01*
X50914387Y-84402923D01*
X50909734Y-84410455D01*
X50826700Y-84534723D01*
X50826693Y-84534736D01*
X50766355Y-84680407D01*
X50766352Y-84680419D01*
X50735591Y-84835062D01*
X50735591Y-84992755D01*
X50766352Y-85147398D01*
X50766355Y-85147410D01*
X50826693Y-85293081D01*
X50826700Y-85293094D01*
X50914301Y-85424197D01*
X50914304Y-85424201D01*
X51025798Y-85535695D01*
X51025802Y-85535698D01*
X51156905Y-85623299D01*
X51156918Y-85623306D01*
X51302589Y-85683644D01*
X51302594Y-85683646D01*
X51457244Y-85714408D01*
X51457247Y-85714409D01*
X51457249Y-85714409D01*
X51614935Y-85714409D01*
X51614936Y-85714408D01*
X51769588Y-85683646D01*
X51915270Y-85623303D01*
X52046380Y-85535698D01*
X52149501Y-85432577D01*
X53170975Y-85432577D01*
X53276236Y-85476178D01*
X53276240Y-85476179D01*
X53421126Y-85504999D01*
X53421129Y-85505000D01*
X53568871Y-85505000D01*
X53568873Y-85504999D01*
X53713760Y-85476179D01*
X53713771Y-85476176D01*
X53772990Y-85451645D01*
X53805541Y-85419094D01*
X53716447Y-85330000D01*
X54423554Y-85330000D01*
X54645000Y-85551446D01*
X54777351Y-85419095D01*
X55484457Y-85419095D01*
X55517006Y-85451644D01*
X55576236Y-85476178D01*
X55576240Y-85476179D01*
X55721126Y-85504999D01*
X55721129Y-85505000D01*
X55868871Y-85505000D01*
X55868873Y-85504999D01*
X56013760Y-85476179D01*
X56013775Y-85476175D01*
X56119024Y-85432578D01*
X56119024Y-85432577D01*
X55795001Y-85108554D01*
X55795000Y-85108554D01*
X55484457Y-85419095D01*
X54777351Y-85419095D01*
X54866446Y-85330000D01*
X54645000Y-85108554D01*
X54423554Y-85330000D01*
X53716447Y-85330000D01*
X53495001Y-85108554D01*
X53495000Y-85108554D01*
X53170975Y-85432577D01*
X52149501Y-85432577D01*
X52157880Y-85424198D01*
X52197290Y-85365217D01*
X52225585Y-85322872D01*
X52245482Y-85293092D01*
X52245485Y-85293088D01*
X52305828Y-85147406D01*
X52336591Y-84992751D01*
X52336591Y-84835067D01*
X52336591Y-84835064D01*
X52336590Y-84835062D01*
X52309572Y-84699230D01*
X52305970Y-84681126D01*
X52745000Y-84681126D01*
X52745000Y-84828873D01*
X52773820Y-84973759D01*
X52773822Y-84973767D01*
X52817421Y-85079024D01*
X53141446Y-84755000D01*
X53141446Y-84754999D01*
X53121556Y-84735109D01*
X53395000Y-84735109D01*
X53395000Y-84774891D01*
X53410224Y-84811645D01*
X53438355Y-84839776D01*
X53475109Y-84855000D01*
X53514891Y-84855000D01*
X53551645Y-84839776D01*
X53579776Y-84811645D01*
X53595000Y-84774891D01*
X53595000Y-84755000D01*
X53848554Y-84755000D01*
X54070000Y-84976446D01*
X54291446Y-84755000D01*
X54271555Y-84735109D01*
X54545000Y-84735109D01*
X54545000Y-84774891D01*
X54560224Y-84811645D01*
X54588355Y-84839776D01*
X54625109Y-84855000D01*
X54664891Y-84855000D01*
X54701645Y-84839776D01*
X54729776Y-84811645D01*
X54745000Y-84774891D01*
X54745000Y-84755000D01*
X54998554Y-84755000D01*
X55220000Y-84976446D01*
X55441446Y-84755000D01*
X55421555Y-84735109D01*
X55695000Y-84735109D01*
X55695000Y-84774891D01*
X55710224Y-84811645D01*
X55738355Y-84839776D01*
X55775109Y-84855000D01*
X55814891Y-84855000D01*
X55851645Y-84839776D01*
X55879776Y-84811645D01*
X55895000Y-84774891D01*
X55895000Y-84754999D01*
X56148554Y-84754999D01*
X56148554Y-84755001D01*
X56472577Y-85079024D01*
X56472578Y-85079024D01*
X56516175Y-84973775D01*
X56516179Y-84973760D01*
X56544999Y-84828873D01*
X56545000Y-84828871D01*
X56545000Y-84821153D01*
X60249500Y-84821153D01*
X60249500Y-84978846D01*
X60280261Y-85133489D01*
X60280264Y-85133501D01*
X60340602Y-85279172D01*
X60340609Y-85279185D01*
X60428210Y-85410288D01*
X60428213Y-85410292D01*
X60539707Y-85521786D01*
X60539711Y-85521789D01*
X60670814Y-85609390D01*
X60670827Y-85609397D01*
X60713340Y-85627006D01*
X60816503Y-85669737D01*
X60971153Y-85700499D01*
X60971156Y-85700500D01*
X60971158Y-85700500D01*
X61128844Y-85700500D01*
X61128845Y-85700499D01*
X61283497Y-85669737D01*
X61429179Y-85609394D01*
X61560289Y-85521789D01*
X61671789Y-85410289D01*
X61759394Y-85279179D01*
X61819737Y-85133497D01*
X61850500Y-84978842D01*
X61850500Y-84924500D01*
X61870185Y-84857461D01*
X61922989Y-84811706D01*
X61974500Y-84800500D01*
X62028844Y-84800500D01*
X62028845Y-84800499D01*
X62183497Y-84769737D01*
X62329179Y-84709394D01*
X62460289Y-84621789D01*
X62571789Y-84510289D01*
X62659394Y-84379179D01*
X62719737Y-84233497D01*
X62750500Y-84078842D01*
X62750500Y-83921158D01*
X62750500Y-83921155D01*
X62750499Y-83921153D01*
X62732204Y-83829179D01*
X62719737Y-83766503D01*
X62676304Y-83661645D01*
X62659397Y-83620827D01*
X62659390Y-83620814D01*
X62571789Y-83489711D01*
X62571786Y-83489707D01*
X62460292Y-83378213D01*
X62460288Y-83378210D01*
X62397711Y-83336397D01*
X62352906Y-83282785D01*
X62344199Y-83213460D01*
X62374354Y-83150432D01*
X62397712Y-83130192D01*
X62410289Y-83121789D01*
X62521789Y-83010289D01*
X62609394Y-82879179D01*
X62669737Y-82733497D01*
X62700500Y-82578842D01*
X62700500Y-82421158D01*
X62700500Y-82421155D01*
X62700499Y-82421153D01*
X62680326Y-82319737D01*
X62669737Y-82266503D01*
X62666791Y-82259390D01*
X62609397Y-82120827D01*
X62609390Y-82120814D01*
X62521789Y-81989711D01*
X62521786Y-81989707D01*
X62410292Y-81878213D01*
X62410288Y-81878210D01*
X62279185Y-81790609D01*
X62279172Y-81790602D01*
X62133501Y-81730264D01*
X62133489Y-81730261D01*
X61978845Y-81699500D01*
X61978842Y-81699500D01*
X61821158Y-81699500D01*
X61821155Y-81699500D01*
X61666510Y-81730261D01*
X61666498Y-81730264D01*
X61520827Y-81790602D01*
X61520814Y-81790609D01*
X61389711Y-81878210D01*
X61389707Y-81878213D01*
X61278213Y-81989707D01*
X61278210Y-81989711D01*
X61190609Y-82120814D01*
X61190602Y-82120827D01*
X61130264Y-82266498D01*
X61130261Y-82266510D01*
X61099500Y-82421153D01*
X61099500Y-82578846D01*
X61130261Y-82733489D01*
X61130264Y-82733501D01*
X61190602Y-82879172D01*
X61190609Y-82879185D01*
X61278210Y-83010288D01*
X61278213Y-83010292D01*
X61389707Y-83121786D01*
X61389711Y-83121789D01*
X61452288Y-83163602D01*
X61497093Y-83217214D01*
X61505800Y-83286539D01*
X61475646Y-83349567D01*
X61452292Y-83369804D01*
X61439708Y-83378212D01*
X61328213Y-83489707D01*
X61328210Y-83489711D01*
X61240609Y-83620814D01*
X61240602Y-83620827D01*
X61180264Y-83766498D01*
X61180261Y-83766510D01*
X61149500Y-83921153D01*
X61149500Y-83975500D01*
X61129815Y-84042539D01*
X61077011Y-84088294D01*
X61025500Y-84099500D01*
X60971155Y-84099500D01*
X60816510Y-84130261D01*
X60816498Y-84130264D01*
X60670827Y-84190602D01*
X60670814Y-84190609D01*
X60539711Y-84278210D01*
X60539707Y-84278213D01*
X60428213Y-84389707D01*
X60428210Y-84389711D01*
X60340609Y-84520814D01*
X60340602Y-84520827D01*
X60280264Y-84666498D01*
X60280261Y-84666510D01*
X60249500Y-84821153D01*
X56545000Y-84821153D01*
X56545000Y-84681128D01*
X56544999Y-84681126D01*
X56516179Y-84536240D01*
X56516178Y-84536236D01*
X56472577Y-84430975D01*
X56148554Y-84754999D01*
X55895000Y-84754999D01*
X55895000Y-84735109D01*
X55879776Y-84698355D01*
X55851645Y-84670224D01*
X55814891Y-84655000D01*
X55775109Y-84655000D01*
X55738355Y-84670224D01*
X55710224Y-84698355D01*
X55695000Y-84735109D01*
X55421555Y-84735109D01*
X55220000Y-84533554D01*
X54998554Y-84755000D01*
X54745000Y-84755000D01*
X54745000Y-84735109D01*
X54729776Y-84698355D01*
X54701645Y-84670224D01*
X54664891Y-84655000D01*
X54625109Y-84655000D01*
X54588355Y-84670224D01*
X54560224Y-84698355D01*
X54545000Y-84735109D01*
X54271555Y-84735109D01*
X54070000Y-84533554D01*
X53848554Y-84755000D01*
X53595000Y-84755000D01*
X53595000Y-84735109D01*
X53579776Y-84698355D01*
X53551645Y-84670224D01*
X53514891Y-84655000D01*
X53475109Y-84655000D01*
X53438355Y-84670224D01*
X53410224Y-84698355D01*
X53395000Y-84735109D01*
X53121556Y-84735109D01*
X52817421Y-84430974D01*
X52817420Y-84430974D01*
X52773823Y-84536228D01*
X52773820Y-84536240D01*
X52745000Y-84681126D01*
X52305970Y-84681126D01*
X52305829Y-84680416D01*
X52305826Y-84680407D01*
X52245488Y-84534736D01*
X52245481Y-84534723D01*
X52157880Y-84403620D01*
X52157877Y-84403616D01*
X52046383Y-84292122D01*
X52046379Y-84292119D01*
X51940448Y-84221338D01*
X51915275Y-84204518D01*
X51915263Y-84204511D01*
X51769592Y-84144173D01*
X51769580Y-84144170D01*
X51614936Y-84113409D01*
X51614933Y-84113409D01*
X51457249Y-84113409D01*
X51457244Y-84113409D01*
X51303649Y-84143961D01*
X51234057Y-84137734D01*
X51178880Y-84094871D01*
X51172724Y-84077420D01*
X53170974Y-84077420D01*
X53170974Y-84077421D01*
X53495000Y-84401446D01*
X53495001Y-84401446D01*
X53716446Y-84180000D01*
X54423554Y-84180000D01*
X54645000Y-84401446D01*
X54866446Y-84180000D01*
X54777349Y-84090903D01*
X55484456Y-84090903D01*
X55795000Y-84401446D01*
X55795001Y-84401446D01*
X56119024Y-84077421D01*
X56013767Y-84033822D01*
X56013759Y-84033820D01*
X55868872Y-84005000D01*
X55721128Y-84005000D01*
X55576240Y-84033820D01*
X55576237Y-84033821D01*
X55517004Y-84058355D01*
X55484456Y-84090903D01*
X54777349Y-84090903D01*
X54645000Y-83958554D01*
X54423554Y-84180000D01*
X53716446Y-84180000D01*
X53817081Y-84079364D01*
X53816758Y-84071338D01*
X53804072Y-84070885D01*
X53795779Y-84067792D01*
X53713771Y-84033823D01*
X53713759Y-84033820D01*
X53568872Y-84005000D01*
X53421128Y-84005000D01*
X53276240Y-84033820D01*
X53276228Y-84033823D01*
X53170974Y-84077420D01*
X51172724Y-84077420D01*
X51155636Y-84028981D01*
X51171704Y-83960984D01*
X51176339Y-83953478D01*
X51259394Y-83829179D01*
X51319737Y-83683497D01*
X51350046Y-83531126D01*
X53895000Y-83531126D01*
X53895000Y-83678873D01*
X53923820Y-83823759D01*
X53923823Y-83823771D01*
X53957792Y-83905779D01*
X53960191Y-83928095D01*
X53964190Y-83928381D01*
X53967422Y-83929023D01*
X54291446Y-83605000D01*
X54291446Y-83604999D01*
X54271556Y-83585109D01*
X54545000Y-83585109D01*
X54545000Y-83624891D01*
X54560224Y-83661645D01*
X54588355Y-83689776D01*
X54625109Y-83705000D01*
X54664891Y-83705000D01*
X54701645Y-83689776D01*
X54729776Y-83661645D01*
X54745000Y-83624891D01*
X54745000Y-83604999D01*
X54998554Y-83604999D01*
X54998554Y-83605001D01*
X55309094Y-83915541D01*
X55341645Y-83882990D01*
X55366176Y-83823771D01*
X55366179Y-83823760D01*
X55394999Y-83678873D01*
X55395000Y-83678871D01*
X55395000Y-83531128D01*
X55394999Y-83531126D01*
X55366179Y-83386240D01*
X55366178Y-83386236D01*
X55322577Y-83280975D01*
X54998554Y-83604999D01*
X54745000Y-83604999D01*
X54745000Y-83585109D01*
X54729776Y-83548355D01*
X54701645Y-83520224D01*
X54664891Y-83505000D01*
X54625109Y-83505000D01*
X54588355Y-83520224D01*
X54560224Y-83548355D01*
X54545000Y-83585109D01*
X54271556Y-83585109D01*
X53967421Y-83280974D01*
X53967420Y-83280974D01*
X53923823Y-83386228D01*
X53923820Y-83386240D01*
X53895000Y-83531126D01*
X51350046Y-83531126D01*
X51350500Y-83528842D01*
X51350500Y-83371158D01*
X51350500Y-83371155D01*
X51350499Y-83371153D01*
X51346205Y-83349567D01*
X51319737Y-83216503D01*
X51316792Y-83209394D01*
X51259397Y-83070827D01*
X51259390Y-83070814D01*
X51236881Y-83037127D01*
X51171789Y-82939711D01*
X51171786Y-82939707D01*
X51159499Y-82927420D01*
X54320974Y-82927420D01*
X54320974Y-82927421D01*
X54645000Y-83251446D01*
X54645001Y-83251446D01*
X54969024Y-82927421D01*
X54863767Y-82883822D01*
X54863759Y-82883820D01*
X54718872Y-82855000D01*
X54571128Y-82855000D01*
X54426240Y-82883820D01*
X54426228Y-82883823D01*
X54320974Y-82927420D01*
X51159499Y-82927420D01*
X51060292Y-82828213D01*
X51060288Y-82828210D01*
X50929185Y-82740609D01*
X50929172Y-82740602D01*
X50783501Y-82680264D01*
X50783489Y-82680261D01*
X50628845Y-82649500D01*
X50628842Y-82649500D01*
X50471158Y-82649500D01*
X50471155Y-82649500D01*
X50316510Y-82680261D01*
X50316498Y-82680264D01*
X50170827Y-82740602D01*
X50170814Y-82740609D01*
X50039711Y-82828210D01*
X50039707Y-82828213D01*
X49928213Y-82939707D01*
X49928210Y-82939711D01*
X49840609Y-83070814D01*
X49840602Y-83070827D01*
X49780264Y-83216498D01*
X49780261Y-83216510D01*
X49749500Y-83371153D01*
X40400500Y-83371153D01*
X40400500Y-83321158D01*
X40400500Y-83321155D01*
X40400499Y-83321153D01*
X40379684Y-83216510D01*
X40369737Y-83166503D01*
X40330102Y-83070814D01*
X40309397Y-83020827D01*
X40309390Y-83020814D01*
X40221789Y-82889711D01*
X40221786Y-82889707D01*
X40110292Y-82778213D01*
X40110288Y-82778210D01*
X39979185Y-82690609D01*
X39979172Y-82690602D01*
X39833501Y-82630264D01*
X39833489Y-82630261D01*
X39678845Y-82599500D01*
X39678842Y-82599500D01*
X39521158Y-82599500D01*
X39521155Y-82599500D01*
X39366510Y-82630261D01*
X39366498Y-82630264D01*
X39220827Y-82690602D01*
X39220814Y-82690609D01*
X39089711Y-82778210D01*
X39089707Y-82778213D01*
X38978213Y-82889707D01*
X38978210Y-82889711D01*
X38890609Y-83020814D01*
X38890602Y-83020827D01*
X38830264Y-83166498D01*
X38830261Y-83166510D01*
X38799500Y-83321153D01*
X34325000Y-83321153D01*
X34325000Y-80771153D01*
X39349500Y-80771153D01*
X39349500Y-80928846D01*
X39380261Y-81083489D01*
X39380264Y-81083501D01*
X39440602Y-81229172D01*
X39440609Y-81229185D01*
X39528210Y-81360288D01*
X39528213Y-81360292D01*
X39639707Y-81471786D01*
X39639711Y-81471789D01*
X39770814Y-81559390D01*
X39770827Y-81559397D01*
X39916498Y-81619735D01*
X39916503Y-81619737D01*
X40071153Y-81650499D01*
X40071156Y-81650500D01*
X40071158Y-81650500D01*
X40228844Y-81650500D01*
X40228845Y-81650499D01*
X40383497Y-81619737D01*
X40529179Y-81559394D01*
X40660289Y-81471789D01*
X40660925Y-81471153D01*
X48649500Y-81471153D01*
X48649500Y-81628846D01*
X48680261Y-81783489D01*
X48680264Y-81783501D01*
X48740602Y-81929172D01*
X48740609Y-81929185D01*
X48828210Y-82060288D01*
X48828213Y-82060292D01*
X48939707Y-82171786D01*
X48939711Y-82171789D01*
X49070814Y-82259390D01*
X49070827Y-82259397D01*
X49216498Y-82319735D01*
X49216503Y-82319737D01*
X49371153Y-82350499D01*
X49371156Y-82350500D01*
X49371158Y-82350500D01*
X49528844Y-82350500D01*
X49528845Y-82350499D01*
X49683497Y-82319737D01*
X49829179Y-82259394D01*
X49960289Y-82171789D01*
X50071789Y-82060289D01*
X50159394Y-81929179D01*
X50219737Y-81783497D01*
X50250500Y-81628842D01*
X50250500Y-81471158D01*
X50250500Y-81471155D01*
X50250499Y-81471153D01*
X50246823Y-81452673D01*
X50219737Y-81316503D01*
X50200955Y-81271158D01*
X50200953Y-81271153D01*
X52509500Y-81271153D01*
X52509500Y-81428846D01*
X52540261Y-81583489D01*
X52540264Y-81583501D01*
X52600602Y-81729172D01*
X52600609Y-81729185D01*
X52688210Y-81860288D01*
X52688213Y-81860292D01*
X52799707Y-81971786D01*
X52799711Y-81971789D01*
X52930814Y-82059390D01*
X52930827Y-82059397D01*
X53076498Y-82119735D01*
X53076503Y-82119737D01*
X53231153Y-82150499D01*
X53231156Y-82150500D01*
X53231158Y-82150500D01*
X53388844Y-82150500D01*
X53388845Y-82150499D01*
X53543497Y-82119737D01*
X53689179Y-82059394D01*
X53820289Y-81971789D01*
X53931789Y-81860289D01*
X54019394Y-81729179D01*
X54079737Y-81583497D01*
X54110500Y-81428842D01*
X54110500Y-81271158D01*
X54110500Y-81271155D01*
X54110499Y-81271153D01*
X54079737Y-81116503D01*
X54079735Y-81116498D01*
X54019397Y-80970827D01*
X54019390Y-80970814D01*
X53931789Y-80839711D01*
X53931786Y-80839707D01*
X53820292Y-80728213D01*
X53820288Y-80728210D01*
X53689185Y-80640609D01*
X53689172Y-80640602D01*
X53543501Y-80580264D01*
X53543489Y-80580261D01*
X53388845Y-80549500D01*
X53388842Y-80549500D01*
X53231158Y-80549500D01*
X53231155Y-80549500D01*
X53076510Y-80580261D01*
X53076498Y-80580264D01*
X52930827Y-80640602D01*
X52930814Y-80640609D01*
X52799711Y-80728210D01*
X52799707Y-80728213D01*
X52688213Y-80839707D01*
X52688210Y-80839711D01*
X52600609Y-80970814D01*
X52600602Y-80970827D01*
X52540264Y-81116498D01*
X52540261Y-81116510D01*
X52509500Y-81271153D01*
X50200953Y-81271153D01*
X50159397Y-81170827D01*
X50159390Y-81170814D01*
X50071789Y-81039711D01*
X50071786Y-81039707D01*
X49960292Y-80928213D01*
X49960288Y-80928210D01*
X49829185Y-80840609D01*
X49829172Y-80840602D01*
X49683501Y-80780264D01*
X49683489Y-80780261D01*
X49528845Y-80749500D01*
X49528842Y-80749500D01*
X49371158Y-80749500D01*
X49371155Y-80749500D01*
X49216510Y-80780261D01*
X49216498Y-80780264D01*
X49070827Y-80840602D01*
X49070814Y-80840609D01*
X48939711Y-80928210D01*
X48939707Y-80928213D01*
X48828213Y-81039707D01*
X48828210Y-81039711D01*
X48740609Y-81170814D01*
X48740602Y-81170827D01*
X48680264Y-81316498D01*
X48680261Y-81316510D01*
X48649500Y-81471153D01*
X40660925Y-81471153D01*
X40703236Y-81428842D01*
X40754694Y-81377385D01*
X40771786Y-81360292D01*
X40771789Y-81360289D01*
X40859394Y-81229179D01*
X40919737Y-81083497D01*
X40950500Y-80928842D01*
X40950500Y-80771158D01*
X40950500Y-80771155D01*
X40950499Y-80771153D01*
X40938392Y-80710288D01*
X40919737Y-80616503D01*
X40919735Y-80616498D01*
X40859397Y-80470827D01*
X40859390Y-80470814D01*
X40771789Y-80339711D01*
X40771786Y-80339707D01*
X40660292Y-80228213D01*
X40660288Y-80228210D01*
X40649727Y-80221153D01*
X42349500Y-80221153D01*
X42349500Y-80378846D01*
X42380261Y-80533489D01*
X42380264Y-80533501D01*
X42440602Y-80679172D01*
X42440609Y-80679185D01*
X42528210Y-80810288D01*
X42528213Y-80810292D01*
X42639707Y-80921786D01*
X42639711Y-80921789D01*
X42770814Y-81009390D01*
X42770827Y-81009397D01*
X42844013Y-81039711D01*
X42916503Y-81069737D01*
X43071153Y-81100499D01*
X43071156Y-81100500D01*
X43071158Y-81100500D01*
X43228844Y-81100500D01*
X43228845Y-81100499D01*
X43383497Y-81069737D01*
X43529179Y-81009394D01*
X43660289Y-80921789D01*
X43771789Y-80810289D01*
X43859394Y-80679179D01*
X43919737Y-80533497D01*
X43950500Y-80378842D01*
X43950500Y-80221158D01*
X43950500Y-80221155D01*
X43950499Y-80221153D01*
X43935984Y-80148181D01*
X43919737Y-80066503D01*
X43883569Y-79979185D01*
X43859397Y-79920827D01*
X43859390Y-79920814D01*
X43771789Y-79789711D01*
X43771786Y-79789707D01*
X43660292Y-79678213D01*
X43660288Y-79678210D01*
X43529185Y-79590609D01*
X43529172Y-79590602D01*
X43383501Y-79530264D01*
X43383489Y-79530261D01*
X43228845Y-79499500D01*
X43228842Y-79499500D01*
X43071158Y-79499500D01*
X43071155Y-79499500D01*
X42916510Y-79530261D01*
X42916498Y-79530264D01*
X42770827Y-79590602D01*
X42770814Y-79590609D01*
X42639711Y-79678210D01*
X42639707Y-79678213D01*
X42528213Y-79789707D01*
X42528210Y-79789711D01*
X42440609Y-79920814D01*
X42440602Y-79920827D01*
X42380264Y-80066498D01*
X42380261Y-80066510D01*
X42349500Y-80221153D01*
X40649727Y-80221153D01*
X40529185Y-80140609D01*
X40529172Y-80140602D01*
X40383501Y-80080264D01*
X40383489Y-80080261D01*
X40228845Y-80049500D01*
X40228842Y-80049500D01*
X40071158Y-80049500D01*
X40071155Y-80049500D01*
X39916510Y-80080261D01*
X39916498Y-80080264D01*
X39770827Y-80140602D01*
X39770814Y-80140609D01*
X39639711Y-80228210D01*
X39639707Y-80228213D01*
X39528213Y-80339707D01*
X39528210Y-80339711D01*
X39440609Y-80470814D01*
X39440602Y-80470827D01*
X39380264Y-80616498D01*
X39380261Y-80616510D01*
X39349500Y-80771153D01*
X34325000Y-80771153D01*
X34325000Y-78821153D01*
X44099500Y-78821153D01*
X44099500Y-78978846D01*
X44130261Y-79133489D01*
X44130264Y-79133501D01*
X44190602Y-79279172D01*
X44190609Y-79279185D01*
X44278210Y-79410288D01*
X44278213Y-79410292D01*
X44389707Y-79521786D01*
X44389711Y-79521789D01*
X44520814Y-79609390D01*
X44520827Y-79609397D01*
X44550745Y-79621789D01*
X44666503Y-79669737D01*
X44687340Y-79673881D01*
X44749250Y-79706266D01*
X44777710Y-79748046D01*
X44790604Y-79779175D01*
X44790609Y-79779185D01*
X44878210Y-79910288D01*
X44878213Y-79910292D01*
X44989707Y-80021786D01*
X44989711Y-80021789D01*
X45120814Y-80109390D01*
X45120827Y-80109397D01*
X45230567Y-80154852D01*
X45266503Y-80169737D01*
X45421153Y-80200499D01*
X45421156Y-80200500D01*
X45421158Y-80200500D01*
X45578844Y-80200500D01*
X45578845Y-80200499D01*
X45733497Y-80169737D01*
X45879179Y-80109394D01*
X46010289Y-80021789D01*
X46121789Y-79910289D01*
X46209394Y-79779179D01*
X46269737Y-79633497D01*
X46300500Y-79478842D01*
X46300500Y-79321158D01*
X46300500Y-79321155D01*
X46300499Y-79321153D01*
X46280543Y-79220827D01*
X46269737Y-79166503D01*
X46256062Y-79133489D01*
X46209397Y-79020827D01*
X46209390Y-79020814D01*
X46121789Y-78889711D01*
X46121786Y-78889707D01*
X46010292Y-78778213D01*
X46010288Y-78778210D01*
X45879185Y-78690609D01*
X45879172Y-78690602D01*
X45733501Y-78630264D01*
X45733494Y-78630262D01*
X45712656Y-78626117D01*
X45650746Y-78593731D01*
X45622288Y-78551951D01*
X45609394Y-78520821D01*
X45609390Y-78520814D01*
X45521789Y-78389711D01*
X45521786Y-78389707D01*
X45410292Y-78278213D01*
X45410288Y-78278210D01*
X45279185Y-78190609D01*
X45279172Y-78190602D01*
X45133501Y-78130264D01*
X45133489Y-78130261D01*
X44978845Y-78099500D01*
X44978842Y-78099500D01*
X44821158Y-78099500D01*
X44821155Y-78099500D01*
X44666510Y-78130261D01*
X44666498Y-78130264D01*
X44520827Y-78190602D01*
X44520814Y-78190609D01*
X44389711Y-78278210D01*
X44389707Y-78278213D01*
X44278213Y-78389707D01*
X44278210Y-78389711D01*
X44190609Y-78520814D01*
X44190602Y-78520827D01*
X44130264Y-78666498D01*
X44130261Y-78666510D01*
X44099500Y-78821153D01*
X34325000Y-78821153D01*
X34325000Y-75440812D01*
X48547007Y-75440812D01*
X48547007Y-75598505D01*
X48577768Y-75753148D01*
X48577771Y-75753160D01*
X48628284Y-75875111D01*
X48635753Y-75944581D01*
X48628285Y-75970013D01*
X48601035Y-76035803D01*
X48601032Y-76035812D01*
X48570272Y-76190454D01*
X48570272Y-76348147D01*
X48601033Y-76502790D01*
X48601036Y-76502802D01*
X48644909Y-76608721D01*
X48652378Y-76678190D01*
X48644909Y-76703625D01*
X48598155Y-76816498D01*
X48598152Y-76816510D01*
X48567391Y-76971153D01*
X48567391Y-77128846D01*
X48598152Y-77283489D01*
X48598155Y-77283501D01*
X48658493Y-77429172D01*
X48658500Y-77429185D01*
X48746101Y-77560288D01*
X48746104Y-77560292D01*
X48857598Y-77671786D01*
X48857602Y-77671789D01*
X48988705Y-77759390D01*
X48988718Y-77759397D01*
X49134389Y-77819735D01*
X49134394Y-77819737D01*
X49134398Y-77819737D01*
X49140226Y-77821506D01*
X49139761Y-77823036D01*
X49194790Y-77851815D01*
X49229368Y-77912529D01*
X49225634Y-77982298D01*
X49184772Y-78038973D01*
X49139884Y-78059478D01*
X49140226Y-78060603D01*
X49134389Y-78062373D01*
X48988718Y-78122711D01*
X48988705Y-78122718D01*
X48857602Y-78210319D01*
X48857598Y-78210322D01*
X48746104Y-78321816D01*
X48746101Y-78321820D01*
X48658500Y-78452923D01*
X48658493Y-78452936D01*
X48598155Y-78598607D01*
X48598152Y-78598619D01*
X48567391Y-78753262D01*
X48567391Y-78910955D01*
X48598152Y-79065598D01*
X48598155Y-79065610D01*
X48658493Y-79211281D01*
X48658500Y-79211294D01*
X48746101Y-79342397D01*
X48746104Y-79342401D01*
X48857598Y-79453895D01*
X48857602Y-79453898D01*
X48988705Y-79541499D01*
X48988718Y-79541506D01*
X49134389Y-79601844D01*
X49134394Y-79601846D01*
X49234654Y-79621789D01*
X49289044Y-79632608D01*
X49289047Y-79632609D01*
X49289049Y-79632609D01*
X49446734Y-79632609D01*
X49501128Y-79621789D01*
X49557544Y-79610567D01*
X49627134Y-79616794D01*
X49650624Y-79629081D01*
X49770821Y-79709394D01*
X49770823Y-79709395D01*
X49770827Y-79709397D01*
X49916498Y-79769735D01*
X49916503Y-79769737D01*
X50071153Y-79800499D01*
X50071156Y-79800500D01*
X50071158Y-79800500D01*
X50228844Y-79800500D01*
X50228845Y-79800499D01*
X50383497Y-79769737D01*
X50529179Y-79709394D01*
X50530577Y-79708460D01*
X50531420Y-79708195D01*
X50534554Y-79706521D01*
X50534871Y-79707115D01*
X50597254Y-79687581D01*
X50664634Y-79706064D01*
X50711326Y-79758042D01*
X50721087Y-79787369D01*
X50730261Y-79833491D01*
X50730264Y-79833501D01*
X50790602Y-79979172D01*
X50790609Y-79979185D01*
X50878210Y-80110288D01*
X50878213Y-80110292D01*
X50989707Y-80221786D01*
X50989711Y-80221789D01*
X51120814Y-80309390D01*
X51120827Y-80309397D01*
X51252918Y-80364110D01*
X51266503Y-80369737D01*
X51421153Y-80400499D01*
X51421156Y-80400500D01*
X51421158Y-80400500D01*
X51578844Y-80400500D01*
X51578845Y-80400499D01*
X51733497Y-80369737D01*
X51851592Y-80320821D01*
X51879172Y-80309397D01*
X51879172Y-80309396D01*
X51879179Y-80309394D01*
X52010289Y-80221789D01*
X52121789Y-80110289D01*
X52209394Y-79979179D01*
X52269737Y-79833497D01*
X52300500Y-79678842D01*
X52300500Y-79621153D01*
X53609500Y-79621153D01*
X53609500Y-79778846D01*
X53640261Y-79933489D01*
X53640264Y-79933501D01*
X53700602Y-80079172D01*
X53700609Y-80079185D01*
X53788210Y-80210288D01*
X53788213Y-80210292D01*
X53899707Y-80321786D01*
X53899711Y-80321789D01*
X54030814Y-80409390D01*
X54030827Y-80409397D01*
X54168268Y-80466326D01*
X54176503Y-80469737D01*
X54331153Y-80500499D01*
X54331156Y-80500500D01*
X54331158Y-80500500D01*
X54488844Y-80500500D01*
X54488845Y-80500499D01*
X54643497Y-80469737D01*
X54789179Y-80409394D01*
X54920289Y-80321789D01*
X55031789Y-80210289D01*
X55091348Y-80121153D01*
X55749500Y-80121153D01*
X55749500Y-80278846D01*
X55780261Y-80433489D01*
X55780264Y-80433501D01*
X55840602Y-80579172D01*
X55840609Y-80579185D01*
X55928210Y-80710288D01*
X55928213Y-80710292D01*
X56039708Y-80821787D01*
X56099064Y-80861447D01*
X56143869Y-80915059D01*
X56151790Y-80940358D01*
X56180261Y-81083489D01*
X56180264Y-81083501D01*
X56240602Y-81229172D01*
X56240609Y-81229185D01*
X56328210Y-81360288D01*
X56328213Y-81360292D01*
X56439707Y-81471786D01*
X56439711Y-81471789D01*
X56570814Y-81559390D01*
X56570827Y-81559397D01*
X56716498Y-81619735D01*
X56716503Y-81619737D01*
X56871153Y-81650499D01*
X56871156Y-81650500D01*
X56871158Y-81650500D01*
X57028844Y-81650500D01*
X57028845Y-81650499D01*
X57183497Y-81619737D01*
X57329179Y-81559394D01*
X57460289Y-81471789D01*
X57571789Y-81360289D01*
X57659394Y-81229179D01*
X57719737Y-81083497D01*
X57750500Y-80928842D01*
X57750500Y-80771158D01*
X57750500Y-80771155D01*
X57738392Y-80710288D01*
X57729271Y-80664436D01*
X60363900Y-80664436D01*
X60363900Y-80822129D01*
X60394661Y-80976772D01*
X60394664Y-80976784D01*
X60455002Y-81122455D01*
X60455009Y-81122468D01*
X60542610Y-81253571D01*
X60542613Y-81253575D01*
X60654107Y-81365069D01*
X60654111Y-81365072D01*
X60785214Y-81452673D01*
X60785227Y-81452680D01*
X60930898Y-81513018D01*
X60930903Y-81513020D01*
X61085553Y-81543782D01*
X61085556Y-81543783D01*
X61085558Y-81543783D01*
X61243244Y-81543783D01*
X61243245Y-81543782D01*
X61397897Y-81513020D01*
X61543579Y-81452677D01*
X61674689Y-81365072D01*
X61716159Y-81323602D01*
X61777482Y-81290116D01*
X61847173Y-81295100D01*
X61884202Y-81318897D01*
X61885001Y-81317924D01*
X61889711Y-81321789D01*
X62020814Y-81409390D01*
X62020827Y-81409397D01*
X62125316Y-81452677D01*
X62166503Y-81469737D01*
X62321153Y-81500499D01*
X62321156Y-81500500D01*
X62321158Y-81500500D01*
X62478844Y-81500500D01*
X62478845Y-81500499D01*
X62633497Y-81469737D01*
X62779179Y-81409394D01*
X62910289Y-81321789D01*
X63021789Y-81210289D01*
X63109394Y-81079179D01*
X63169737Y-80933497D01*
X63200500Y-80778842D01*
X63200500Y-80621158D01*
X63200500Y-80621155D01*
X63200499Y-80621153D01*
X63178348Y-80509793D01*
X63169737Y-80466503D01*
X63142398Y-80400500D01*
X63109397Y-80320827D01*
X63109390Y-80320814D01*
X63021789Y-80189711D01*
X63021786Y-80189707D01*
X62910292Y-80078213D01*
X62910288Y-80078210D01*
X62779185Y-79990609D01*
X62779172Y-79990602D01*
X62633501Y-79930264D01*
X62633489Y-79930261D01*
X62478845Y-79899500D01*
X62478842Y-79899500D01*
X62321158Y-79899500D01*
X62321155Y-79899500D01*
X62166510Y-79930261D01*
X62166498Y-79930264D01*
X62020827Y-79990602D01*
X62020814Y-79990609D01*
X61889711Y-80078210D01*
X61889706Y-80078214D01*
X61848238Y-80119682D01*
X61786915Y-80153166D01*
X61717223Y-80148181D01*
X61680197Y-80124385D01*
X61679399Y-80125359D01*
X61674688Y-80121493D01*
X61543585Y-80033892D01*
X61543572Y-80033885D01*
X61397901Y-79973547D01*
X61397889Y-79973544D01*
X61243245Y-79942783D01*
X61243242Y-79942783D01*
X61085558Y-79942783D01*
X61085555Y-79942783D01*
X60930910Y-79973544D01*
X60930898Y-79973547D01*
X60785227Y-80033885D01*
X60785214Y-80033892D01*
X60654111Y-80121493D01*
X60654107Y-80121496D01*
X60542613Y-80232990D01*
X60542610Y-80232994D01*
X60455009Y-80364097D01*
X60455002Y-80364110D01*
X60394664Y-80509781D01*
X60394661Y-80509793D01*
X60363900Y-80664436D01*
X57729271Y-80664436D01*
X57719737Y-80616503D01*
X57686300Y-80535779D01*
X57684635Y-80530447D01*
X57684128Y-80500873D01*
X57680966Y-80471461D01*
X57683536Y-80466326D01*
X57683438Y-80460587D01*
X57698999Y-80435435D01*
X57712242Y-80408982D01*
X57717179Y-80406052D01*
X57720200Y-80401171D01*
X57746893Y-80388422D01*
X57772331Y-80373331D01*
X57778861Y-80373156D01*
X57783249Y-80371061D01*
X57796164Y-80372692D01*
X57827186Y-80371862D01*
X57862277Y-80378842D01*
X57971155Y-80400500D01*
X57971158Y-80400500D01*
X58128844Y-80400500D01*
X58128845Y-80400499D01*
X58283497Y-80369737D01*
X58401592Y-80320821D01*
X58429172Y-80309397D01*
X58429172Y-80309396D01*
X58429179Y-80309394D01*
X58560289Y-80221789D01*
X58671789Y-80110289D01*
X58759394Y-79979179D01*
X58819737Y-79833497D01*
X58850500Y-79678842D01*
X58850500Y-79578269D01*
X58870185Y-79511230D01*
X58922989Y-79465475D01*
X58992147Y-79455531D01*
X59055703Y-79484556D01*
X59074292Y-79505626D01*
X59074347Y-79505581D01*
X59075609Y-79507119D01*
X59077603Y-79509379D01*
X59078212Y-79510291D01*
X59189707Y-79621786D01*
X59189711Y-79621789D01*
X59320814Y-79709390D01*
X59320827Y-79709397D01*
X59466498Y-79769735D01*
X59466503Y-79769737D01*
X59621153Y-79800499D01*
X59621156Y-79800500D01*
X59621158Y-79800500D01*
X59778844Y-79800500D01*
X59778845Y-79800499D01*
X59933497Y-79769737D01*
X60079179Y-79709394D01*
X60210289Y-79621789D01*
X60321789Y-79510289D01*
X60409394Y-79379179D01*
X60414643Y-79366508D01*
X60433569Y-79320814D01*
X60469737Y-79233497D01*
X60500500Y-79078842D01*
X60500500Y-78921158D01*
X60500500Y-78921155D01*
X60500499Y-78921153D01*
X60482419Y-78830261D01*
X60469737Y-78766503D01*
X60464255Y-78753267D01*
X60409397Y-78620827D01*
X60409388Y-78620811D01*
X60406598Y-78616635D01*
X60385718Y-78549958D01*
X60404201Y-78482578D01*
X60422018Y-78460060D01*
X60471786Y-78410292D01*
X60471789Y-78410289D01*
X60559394Y-78279179D01*
X60619737Y-78133497D01*
X60650500Y-77978842D01*
X60650500Y-77821158D01*
X60650500Y-77821155D01*
X60650499Y-77821153D01*
X60631760Y-77726945D01*
X60619737Y-77666503D01*
X60590463Y-77595828D01*
X60559397Y-77520827D01*
X60559395Y-77520823D01*
X60559394Y-77520821D01*
X60559390Y-77520815D01*
X60529133Y-77475532D01*
X60508255Y-77408855D01*
X60517674Y-77359188D01*
X60569737Y-77233497D01*
X60600500Y-77078842D01*
X60600500Y-76921158D01*
X60600500Y-76921155D01*
X60600499Y-76921153D01*
X60583856Y-76837483D01*
X60569737Y-76766503D01*
X60566791Y-76759390D01*
X60509397Y-76620827D01*
X60509390Y-76620814D01*
X60421789Y-76489711D01*
X60421786Y-76489707D01*
X60310292Y-76378213D01*
X60310288Y-76378210D01*
X60179185Y-76290609D01*
X60179172Y-76290602D01*
X60033501Y-76230264D01*
X60033489Y-76230261D01*
X59878845Y-76199500D01*
X59878842Y-76199500D01*
X59721158Y-76199500D01*
X59721155Y-76199500D01*
X59566510Y-76230261D01*
X59566498Y-76230264D01*
X59420827Y-76290602D01*
X59420814Y-76290609D01*
X59289711Y-76378210D01*
X59289707Y-76378213D01*
X59178213Y-76489707D01*
X59178210Y-76489711D01*
X59090609Y-76620814D01*
X59090602Y-76620827D01*
X59030264Y-76766498D01*
X59030261Y-76766510D01*
X58999500Y-76921153D01*
X58999500Y-77078846D01*
X59030261Y-77233489D01*
X59030264Y-77233501D01*
X59090602Y-77379172D01*
X59090609Y-77379185D01*
X59120866Y-77424467D01*
X59141744Y-77491144D01*
X59132326Y-77540810D01*
X59080263Y-77666503D01*
X59080262Y-77666506D01*
X59080262Y-77666507D01*
X59080261Y-77666510D01*
X59049500Y-77821153D01*
X59049500Y-77978846D01*
X59080261Y-78133489D01*
X59080264Y-78133501D01*
X59140205Y-78278211D01*
X59140606Y-78279179D01*
X59143407Y-78283371D01*
X59164281Y-78350050D01*
X59145793Y-78417429D01*
X59127983Y-78439937D01*
X59078214Y-78489706D01*
X59078210Y-78489711D01*
X58990609Y-78620814D01*
X58990602Y-78620827D01*
X58930264Y-78766498D01*
X58930261Y-78766510D01*
X58899500Y-78921153D01*
X58899500Y-79021730D01*
X58879815Y-79088769D01*
X58827011Y-79134524D01*
X58757853Y-79144468D01*
X58694297Y-79115443D01*
X58675707Y-79094373D01*
X58675653Y-79094419D01*
X58674391Y-79092881D01*
X58672403Y-79090628D01*
X58671793Y-79089716D01*
X58671786Y-79089707D01*
X58560292Y-78978213D01*
X58560288Y-78978210D01*
X58429185Y-78890609D01*
X58429172Y-78890602D01*
X58283501Y-78830264D01*
X58283489Y-78830261D01*
X58128845Y-78799500D01*
X58128842Y-78799500D01*
X57971158Y-78799500D01*
X57971155Y-78799500D01*
X57816510Y-78830261D01*
X57816498Y-78830264D01*
X57670827Y-78890602D01*
X57670814Y-78890609D01*
X57539711Y-78978210D01*
X57539707Y-78978213D01*
X57428213Y-79089707D01*
X57428210Y-79089711D01*
X57340609Y-79220814D01*
X57340602Y-79220827D01*
X57280264Y-79366498D01*
X57280261Y-79366508D01*
X57253489Y-79501099D01*
X57221104Y-79563010D01*
X57160388Y-79597584D01*
X57090618Y-79593843D01*
X57062981Y-79580009D01*
X56929185Y-79490609D01*
X56929172Y-79490602D01*
X56783501Y-79430264D01*
X56783489Y-79430261D01*
X56628845Y-79399500D01*
X56628842Y-79399500D01*
X56471158Y-79399500D01*
X56471155Y-79399500D01*
X56316510Y-79430261D01*
X56316498Y-79430264D01*
X56170827Y-79490602D01*
X56170814Y-79490609D01*
X56039711Y-79578210D01*
X56039707Y-79578213D01*
X55928213Y-79689707D01*
X55928210Y-79689711D01*
X55840609Y-79820814D01*
X55840602Y-79820827D01*
X55780264Y-79966498D01*
X55780261Y-79966510D01*
X55749500Y-80121153D01*
X55091348Y-80121153D01*
X55119394Y-80079179D01*
X55179737Y-79933497D01*
X55210500Y-79778842D01*
X55210500Y-79621158D01*
X55210500Y-79621155D01*
X55210499Y-79621153D01*
X55201957Y-79578210D01*
X55179737Y-79466503D01*
X55174515Y-79453895D01*
X55119397Y-79320827D01*
X55119390Y-79320814D01*
X55031789Y-79189711D01*
X55031786Y-79189707D01*
X54920292Y-79078213D01*
X54920288Y-79078210D01*
X54789185Y-78990609D01*
X54789172Y-78990602D01*
X54643501Y-78930264D01*
X54643489Y-78930261D01*
X54488845Y-78899500D01*
X54488842Y-78899500D01*
X54331158Y-78899500D01*
X54331155Y-78899500D01*
X54176510Y-78930261D01*
X54176498Y-78930264D01*
X54030827Y-78990602D01*
X54030814Y-78990609D01*
X53899711Y-79078210D01*
X53899707Y-79078213D01*
X53788213Y-79189707D01*
X53788210Y-79189711D01*
X53700609Y-79320814D01*
X53700602Y-79320827D01*
X53640264Y-79466498D01*
X53640261Y-79466510D01*
X53609500Y-79621153D01*
X52300500Y-79621153D01*
X52300500Y-79521158D01*
X52300500Y-79521155D01*
X52300499Y-79521153D01*
X52297410Y-79505626D01*
X52269737Y-79366503D01*
X52259754Y-79342401D01*
X52209397Y-79220827D01*
X52209390Y-79220814D01*
X52121789Y-79089711D01*
X52121786Y-79089707D01*
X52010292Y-78978213D01*
X52010288Y-78978210D01*
X51879185Y-78890609D01*
X51879172Y-78890602D01*
X51733501Y-78830264D01*
X51733489Y-78830261D01*
X51578845Y-78799500D01*
X51578842Y-78799500D01*
X51421158Y-78799500D01*
X51421155Y-78799500D01*
X51266510Y-78830261D01*
X51266498Y-78830264D01*
X51120827Y-78890602D01*
X51120808Y-78890612D01*
X51119404Y-78891551D01*
X51118557Y-78891815D01*
X51115446Y-78893479D01*
X51115130Y-78892888D01*
X51052723Y-78912419D01*
X50985346Y-78893923D01*
X50938664Y-78841937D01*
X50928913Y-78812634D01*
X50919737Y-78766503D01*
X50914255Y-78753267D01*
X50859397Y-78620827D01*
X50859390Y-78620814D01*
X50771789Y-78489711D01*
X50771786Y-78489707D01*
X50660292Y-78378213D01*
X50660288Y-78378210D01*
X50529185Y-78290609D01*
X50529172Y-78290602D01*
X50383501Y-78230264D01*
X50383489Y-78230261D01*
X50228845Y-78199500D01*
X50228842Y-78199500D01*
X50071158Y-78199500D01*
X50071153Y-78199500D01*
X49960346Y-78221541D01*
X49890754Y-78215314D01*
X49867264Y-78203026D01*
X49747076Y-78122718D01*
X49747063Y-78122711D01*
X49601392Y-78062373D01*
X49595556Y-78060603D01*
X49596018Y-78059077D01*
X49540976Y-78030278D01*
X49506408Y-77969559D01*
X49510154Y-77899790D01*
X49551026Y-77843122D01*
X49595898Y-77822635D01*
X49595556Y-77821506D01*
X49601380Y-77819738D01*
X49601388Y-77819737D01*
X49747070Y-77759394D01*
X49878180Y-77671789D01*
X49989680Y-77560289D01*
X50077285Y-77429179D01*
X50137628Y-77283497D01*
X50168391Y-77128842D01*
X50168391Y-76971158D01*
X50168391Y-76971155D01*
X50168390Y-76971153D01*
X50141800Y-76837477D01*
X50137628Y-76816503D01*
X50093752Y-76710578D01*
X50086284Y-76641110D01*
X50093748Y-76615689D01*
X50140509Y-76502798D01*
X50166695Y-76371153D01*
X51099500Y-76371153D01*
X51099500Y-76528846D01*
X51130261Y-76683489D01*
X51130264Y-76683501D01*
X51190602Y-76829172D01*
X51190609Y-76829185D01*
X51278210Y-76960288D01*
X51278213Y-76960292D01*
X51389707Y-77071786D01*
X51389711Y-77071789D01*
X51520814Y-77159390D01*
X51520827Y-77159397D01*
X51666498Y-77219735D01*
X51666503Y-77219737D01*
X51821153Y-77250499D01*
X51821156Y-77250500D01*
X51821158Y-77250500D01*
X51978844Y-77250500D01*
X51978845Y-77250499D01*
X52133497Y-77219737D01*
X52279179Y-77159394D01*
X52410289Y-77071789D01*
X52521789Y-76960289D01*
X52609394Y-76829179D01*
X52669737Y-76683497D01*
X52700500Y-76528842D01*
X52700500Y-76371158D01*
X52700500Y-76371155D01*
X52700499Y-76371153D01*
X52692630Y-76331592D01*
X52669737Y-76216503D01*
X52633427Y-76128842D01*
X52609397Y-76070827D01*
X52609390Y-76070814D01*
X52551354Y-75983957D01*
X52521789Y-75939711D01*
X52521786Y-75939707D01*
X52503232Y-75921153D01*
X52999500Y-75921153D01*
X52999500Y-76078846D01*
X53030261Y-76233489D01*
X53030264Y-76233501D01*
X53090602Y-76379172D01*
X53090609Y-76379185D01*
X53178210Y-76510288D01*
X53178213Y-76510292D01*
X53289707Y-76621786D01*
X53289711Y-76621789D01*
X53420814Y-76709390D01*
X53420821Y-76709394D01*
X53453787Y-76723048D01*
X53508190Y-76766889D01*
X53530256Y-76833183D01*
X53520896Y-76885062D01*
X53480265Y-76983154D01*
X53480262Y-76983166D01*
X53449501Y-77137809D01*
X53449501Y-77295502D01*
X53480262Y-77450145D01*
X53480265Y-77450157D01*
X53540603Y-77595828D01*
X53540610Y-77595841D01*
X53628211Y-77726944D01*
X53628214Y-77726948D01*
X53739708Y-77838442D01*
X53739712Y-77838445D01*
X53870815Y-77926046D01*
X53870828Y-77926053D01*
X54016499Y-77986391D01*
X54016504Y-77986393D01*
X54171154Y-78017155D01*
X54171157Y-78017156D01*
X54171159Y-78017156D01*
X54328845Y-78017156D01*
X54328846Y-78017155D01*
X54483498Y-77986393D01*
X54629180Y-77926050D01*
X54760290Y-77838445D01*
X54871790Y-77726945D01*
X54959395Y-77595835D01*
X55019738Y-77450153D01*
X55050501Y-77295498D01*
X55050501Y-77137814D01*
X55050501Y-77137811D01*
X55050500Y-77137809D01*
X55019739Y-76983166D01*
X55019738Y-76983159D01*
X54994057Y-76921158D01*
X54959398Y-76837483D01*
X54959391Y-76837470D01*
X54871790Y-76706367D01*
X54871787Y-76706363D01*
X54760293Y-76594869D01*
X54760289Y-76594866D01*
X54629186Y-76507265D01*
X54629177Y-76507260D01*
X54596212Y-76493606D01*
X54541809Y-76449765D01*
X54519744Y-76383471D01*
X54529103Y-76331596D01*
X54569737Y-76233497D01*
X54600500Y-76078842D01*
X54600500Y-75971153D01*
X56099500Y-75971153D01*
X56099500Y-76128846D01*
X56130261Y-76283489D01*
X56130264Y-76283501D01*
X56190602Y-76429172D01*
X56190609Y-76429185D01*
X56278210Y-76560288D01*
X56278213Y-76560292D01*
X56389707Y-76671786D01*
X56389711Y-76671789D01*
X56520814Y-76759390D01*
X56520827Y-76759397D01*
X56658683Y-76816498D01*
X56666503Y-76819737D01*
X56755718Y-76837483D01*
X56821153Y-76850499D01*
X56821156Y-76850500D01*
X56821158Y-76850500D01*
X56978844Y-76850500D01*
X56978845Y-76850499D01*
X57133497Y-76819737D01*
X57279179Y-76759394D01*
X57410289Y-76671789D01*
X57521789Y-76560289D01*
X57609394Y-76429179D01*
X57669737Y-76283497D01*
X57700500Y-76128842D01*
X57700500Y-75971158D01*
X57700500Y-75971155D01*
X57700499Y-75971153D01*
X57689100Y-75913848D01*
X57669737Y-75816503D01*
X57669735Y-75816498D01*
X57609397Y-75670827D01*
X57609390Y-75670814D01*
X57521789Y-75539711D01*
X57521786Y-75539707D01*
X57410292Y-75428213D01*
X57410288Y-75428210D01*
X57279185Y-75340609D01*
X57279172Y-75340602D01*
X57133501Y-75280264D01*
X57133489Y-75280261D01*
X56978845Y-75249500D01*
X56978842Y-75249500D01*
X56821158Y-75249500D01*
X56821155Y-75249500D01*
X56666510Y-75280261D01*
X56666498Y-75280264D01*
X56520827Y-75340602D01*
X56520814Y-75340609D01*
X56389711Y-75428210D01*
X56389707Y-75428213D01*
X56278213Y-75539707D01*
X56278210Y-75539711D01*
X56190609Y-75670814D01*
X56190602Y-75670827D01*
X56130264Y-75816498D01*
X56130261Y-75816510D01*
X56099500Y-75971153D01*
X54600500Y-75971153D01*
X54600500Y-75921158D01*
X54600500Y-75921155D01*
X54600499Y-75921153D01*
X54596060Y-75898838D01*
X54569737Y-75766503D01*
X54564205Y-75753148D01*
X54509397Y-75620827D01*
X54509390Y-75620814D01*
X54421789Y-75489711D01*
X54421786Y-75489707D01*
X54310292Y-75378213D01*
X54310288Y-75378210D01*
X54179185Y-75290609D01*
X54179172Y-75290602D01*
X54033501Y-75230264D01*
X54033489Y-75230261D01*
X53878845Y-75199500D01*
X53878842Y-75199500D01*
X53721158Y-75199500D01*
X53721155Y-75199500D01*
X53566510Y-75230261D01*
X53566498Y-75230264D01*
X53420827Y-75290602D01*
X53420814Y-75290609D01*
X53289711Y-75378210D01*
X53289707Y-75378213D01*
X53178213Y-75489707D01*
X53178210Y-75489711D01*
X53090609Y-75620814D01*
X53090602Y-75620827D01*
X53030264Y-75766498D01*
X53030261Y-75766510D01*
X52999500Y-75921153D01*
X52503232Y-75921153D01*
X52410292Y-75828213D01*
X52410288Y-75828210D01*
X52279185Y-75740609D01*
X52279172Y-75740602D01*
X52133501Y-75680264D01*
X52133489Y-75680261D01*
X51978845Y-75649500D01*
X51978842Y-75649500D01*
X51821158Y-75649500D01*
X51821155Y-75649500D01*
X51666510Y-75680261D01*
X51666498Y-75680264D01*
X51520827Y-75740602D01*
X51520814Y-75740609D01*
X51389711Y-75828210D01*
X51389707Y-75828213D01*
X51278213Y-75939707D01*
X51278210Y-75939711D01*
X51190609Y-76070814D01*
X51190602Y-76070827D01*
X51130264Y-76216498D01*
X51130261Y-76216510D01*
X51099500Y-76371153D01*
X50166695Y-76371153D01*
X50171272Y-76348143D01*
X50171272Y-76190459D01*
X50171272Y-76190456D01*
X50171271Y-76190454D01*
X50159016Y-76128844D01*
X50140509Y-76035804D01*
X50089992Y-75913846D01*
X50082524Y-75844378D01*
X50089991Y-75818948D01*
X50117244Y-75753156D01*
X50148007Y-75598501D01*
X50148007Y-75440817D01*
X50148007Y-75440814D01*
X50148006Y-75440812D01*
X50135554Y-75378211D01*
X50117244Y-75286162D01*
X50102058Y-75249500D01*
X50056904Y-75140486D01*
X50056897Y-75140473D01*
X49969296Y-75009370D01*
X49969293Y-75009366D01*
X49857799Y-74897872D01*
X49857795Y-74897869D01*
X49726692Y-74810268D01*
X49726679Y-74810261D01*
X49581008Y-74749923D01*
X49580996Y-74749920D01*
X49426352Y-74719159D01*
X49426349Y-74719159D01*
X49268665Y-74719159D01*
X49268662Y-74719159D01*
X49114017Y-74749920D01*
X49114005Y-74749923D01*
X48968334Y-74810261D01*
X48968321Y-74810268D01*
X48837218Y-74897869D01*
X48837214Y-74897872D01*
X48725720Y-75009366D01*
X48725717Y-75009370D01*
X48638116Y-75140473D01*
X48638109Y-75140486D01*
X48577771Y-75286157D01*
X48577768Y-75286169D01*
X48547007Y-75440812D01*
X34325000Y-75440812D01*
X34325000Y-74581881D01*
X34344685Y-74514842D01*
X34397489Y-74469087D01*
X34414069Y-74462903D01*
X34415165Y-74462580D01*
X34425710Y-74459485D01*
X34492071Y-74429179D01*
X34620938Y-74370328D01*
X34620942Y-74370325D01*
X34620950Y-74370322D01*
X34801513Y-74254281D01*
X34963724Y-74113724D01*
X35104281Y-73951513D01*
X35220322Y-73770950D01*
X35220325Y-73770942D01*
X35220328Y-73770938D01*
X35266049Y-73670821D01*
X35309485Y-73575710D01*
X35314496Y-73558646D01*
X35349178Y-73440525D01*
X35369954Y-73369769D01*
X35400500Y-73157318D01*
X35400500Y-73050000D01*
X35400500Y-72984108D01*
X35400500Y-71577623D01*
X52169988Y-71577623D01*
X52169988Y-71735316D01*
X52200749Y-71889959D01*
X52200752Y-71889971D01*
X52261090Y-72035642D01*
X52261097Y-72035655D01*
X52348698Y-72166758D01*
X52348701Y-72166762D01*
X52460194Y-72278255D01*
X52460197Y-72278257D01*
X52460199Y-72278259D01*
X52464422Y-72281081D01*
X52509229Y-72334689D01*
X52519536Y-72384185D01*
X52519536Y-72398882D01*
X52550297Y-72553525D01*
X52550300Y-72553537D01*
X52610638Y-72699208D01*
X52610645Y-72699221D01*
X52698246Y-72830324D01*
X52698249Y-72830328D01*
X52809743Y-72941822D01*
X52809747Y-72941825D01*
X52940850Y-73029426D01*
X52940863Y-73029433D01*
X53086534Y-73089771D01*
X53086539Y-73089773D01*
X53178338Y-73108033D01*
X53241189Y-73120535D01*
X53241192Y-73120536D01*
X53241194Y-73120536D01*
X53398880Y-73120536D01*
X53398881Y-73120535D01*
X53553533Y-73089773D01*
X53699215Y-73029430D01*
X53705543Y-73025201D01*
X53713121Y-73022827D01*
X53718936Y-73017414D01*
X53745989Y-73012532D01*
X53772217Y-73004318D01*
X53781628Y-73006102D01*
X53787695Y-73005008D01*
X53821893Y-73013737D01*
X53849572Y-73025202D01*
X53859784Y-73029432D01*
X53887529Y-73040924D01*
X53941933Y-73084765D01*
X53954638Y-73108033D01*
X53962493Y-73126997D01*
X53969962Y-73196466D01*
X53938686Y-73258945D01*
X53895385Y-73289010D01*
X53770823Y-73340604D01*
X53770814Y-73340609D01*
X53639711Y-73428210D01*
X53639707Y-73428213D01*
X53528213Y-73539707D01*
X53528210Y-73539711D01*
X53440609Y-73670814D01*
X53440602Y-73670827D01*
X53380264Y-73816498D01*
X53380261Y-73816510D01*
X53349500Y-73971153D01*
X53349500Y-74128846D01*
X53380261Y-74283489D01*
X53380264Y-74283501D01*
X53440602Y-74429172D01*
X53440609Y-74429185D01*
X53528210Y-74560288D01*
X53528213Y-74560292D01*
X53639707Y-74671786D01*
X53639711Y-74671789D01*
X53770814Y-74759390D01*
X53770827Y-74759397D01*
X53916498Y-74819735D01*
X53916503Y-74819737D01*
X54050868Y-74846464D01*
X54071153Y-74850499D01*
X54071156Y-74850500D01*
X54071158Y-74850500D01*
X54228844Y-74850500D01*
X54228845Y-74850499D01*
X54383497Y-74819737D01*
X54432024Y-74799636D01*
X54501490Y-74792168D01*
X54563969Y-74823442D01*
X54594035Y-74866746D01*
X54640602Y-74979172D01*
X54640609Y-74979185D01*
X54728210Y-75110288D01*
X54728213Y-75110292D01*
X54839707Y-75221786D01*
X54839711Y-75221789D01*
X54970814Y-75309390D01*
X54970827Y-75309397D01*
X55046181Y-75340609D01*
X55116503Y-75369737D01*
X55271153Y-75400499D01*
X55271156Y-75400500D01*
X55271158Y-75400500D01*
X55428844Y-75400500D01*
X55428845Y-75400499D01*
X55583497Y-75369737D01*
X55729179Y-75309394D01*
X55860289Y-75221789D01*
X55971789Y-75110289D01*
X56059394Y-74979179D01*
X56119737Y-74833497D01*
X56150500Y-74678842D01*
X56150500Y-74521158D01*
X56150500Y-74521155D01*
X56150499Y-74521153D01*
X56119737Y-74366503D01*
X56085352Y-74283489D01*
X56059397Y-74220827D01*
X56059390Y-74220814D01*
X55971789Y-74089711D01*
X55971786Y-74089707D01*
X55860292Y-73978213D01*
X55860288Y-73978210D01*
X55729185Y-73890609D01*
X55729172Y-73890602D01*
X55583501Y-73830264D01*
X55583489Y-73830261D01*
X55428845Y-73799500D01*
X55428842Y-73799500D01*
X55271158Y-73799500D01*
X55271155Y-73799500D01*
X55116510Y-73830261D01*
X55116503Y-73830263D01*
X55067976Y-73850363D01*
X55058976Y-73851330D01*
X55051190Y-73855950D01*
X55024777Y-73855006D01*
X54998507Y-73857830D01*
X54990412Y-73853778D01*
X54981365Y-73853455D01*
X54959659Y-73838384D01*
X54936028Y-73826555D01*
X54929889Y-73817714D01*
X54923973Y-73813606D01*
X54905967Y-73783261D01*
X54876412Y-73711908D01*
X54868945Y-73642441D01*
X54900221Y-73579962D01*
X54943517Y-73549901D01*
X55068088Y-73498303D01*
X55199198Y-73410698D01*
X55310698Y-73299198D01*
X55398303Y-73168088D01*
X55402765Y-73157317D01*
X55415323Y-73126997D01*
X55458646Y-73022406D01*
X55467745Y-72976658D01*
X55500129Y-72914751D01*
X55560844Y-72880176D01*
X55630613Y-72883915D01*
X55687286Y-72924780D01*
X55692464Y-72931961D01*
X55778210Y-73060288D01*
X55778213Y-73060292D01*
X55889707Y-73171786D01*
X55889711Y-73171789D01*
X56020814Y-73259390D01*
X56020827Y-73259397D01*
X56116917Y-73299198D01*
X56166503Y-73319737D01*
X56321153Y-73350499D01*
X56321156Y-73350500D01*
X56321158Y-73350500D01*
X56478844Y-73350500D01*
X56478845Y-73350499D01*
X56633497Y-73319737D01*
X56779179Y-73259394D01*
X56910289Y-73171789D01*
X57021789Y-73060289D01*
X57109394Y-72929179D01*
X57169737Y-72783497D01*
X57200500Y-72628842D01*
X57200500Y-72471158D01*
X57200500Y-72471155D01*
X57200499Y-72471153D01*
X57186123Y-72398882D01*
X57169737Y-72316503D01*
X57153894Y-72278255D01*
X57109397Y-72170827D01*
X57109390Y-72170814D01*
X57021789Y-72039711D01*
X57021786Y-72039707D01*
X56910292Y-71928213D01*
X56910288Y-71928210D01*
X56779185Y-71840609D01*
X56779172Y-71840602D01*
X56633501Y-71780264D01*
X56633491Y-71780261D01*
X56550308Y-71763715D01*
X56488397Y-71731330D01*
X56453823Y-71670614D01*
X56450500Y-71642098D01*
X56450500Y-71510064D01*
X56450499Y-71510062D01*
X56419738Y-71355419D01*
X56419737Y-71355412D01*
X56387381Y-71277297D01*
X56359397Y-71209736D01*
X56359395Y-71209732D01*
X56359394Y-71209730D01*
X56359142Y-71209353D01*
X56355018Y-71203180D01*
X56334140Y-71136503D01*
X56352624Y-71069123D01*
X56404603Y-71022432D01*
X56410619Y-71019748D01*
X56547847Y-70962908D01*
X56678957Y-70875303D01*
X56790457Y-70763803D01*
X56878062Y-70632693D01*
X56938405Y-70487011D01*
X56969168Y-70332356D01*
X56969168Y-70174672D01*
X56969168Y-70174669D01*
X56969167Y-70174667D01*
X56938565Y-70020821D01*
X56938405Y-70020017D01*
X56938403Y-70020012D01*
X56878065Y-69874341D01*
X56878058Y-69874328D01*
X56790457Y-69743225D01*
X56790454Y-69743221D01*
X56678960Y-69631727D01*
X56678956Y-69631724D01*
X56547853Y-69544123D01*
X56547840Y-69544116D01*
X56402169Y-69483778D01*
X56402157Y-69483775D01*
X56247513Y-69453014D01*
X56247510Y-69453014D01*
X56089826Y-69453014D01*
X56089823Y-69453014D01*
X55935178Y-69483775D01*
X55935166Y-69483778D01*
X55789495Y-69544116D01*
X55789482Y-69544123D01*
X55658379Y-69631724D01*
X55658375Y-69631727D01*
X55546881Y-69743221D01*
X55546878Y-69743225D01*
X55477602Y-69846904D01*
X55423990Y-69891709D01*
X55354665Y-69900416D01*
X55291637Y-69870261D01*
X55254918Y-69810818D01*
X55250500Y-69778013D01*
X55250500Y-69771155D01*
X55250499Y-69771153D01*
X55235884Y-69697679D01*
X55219737Y-69616503D01*
X55212694Y-69599500D01*
X55159397Y-69470827D01*
X55159390Y-69470814D01*
X55071789Y-69339711D01*
X55071786Y-69339707D01*
X54960292Y-69228213D01*
X54960288Y-69228210D01*
X54829185Y-69140609D01*
X54829172Y-69140602D01*
X54683501Y-69080264D01*
X54683489Y-69080261D01*
X54528845Y-69049500D01*
X54528842Y-69049500D01*
X54371158Y-69049500D01*
X54371155Y-69049500D01*
X54216510Y-69080261D01*
X54216498Y-69080264D01*
X54070827Y-69140602D01*
X54070814Y-69140609D01*
X53939711Y-69228210D01*
X53939707Y-69228213D01*
X53828213Y-69339707D01*
X53828210Y-69339711D01*
X53740609Y-69470814D01*
X53740604Y-69470824D01*
X53697600Y-69574645D01*
X53653759Y-69629048D01*
X53587464Y-69651113D01*
X53535586Y-69641753D01*
X53507847Y-69630263D01*
X53507839Y-69630261D01*
X53353195Y-69599500D01*
X53353192Y-69599500D01*
X53195508Y-69599500D01*
X53195505Y-69599500D01*
X53040860Y-69630261D01*
X53040848Y-69630264D01*
X52895177Y-69690602D01*
X52895164Y-69690609D01*
X52764061Y-69778210D01*
X52764057Y-69778213D01*
X52652563Y-69889707D01*
X52652560Y-69889711D01*
X52564959Y-70020814D01*
X52564952Y-70020827D01*
X52504614Y-70166498D01*
X52504611Y-70166510D01*
X52473850Y-70321153D01*
X52473850Y-70478846D01*
X52504611Y-70633489D01*
X52504614Y-70633501D01*
X52564952Y-70779172D01*
X52564961Y-70779188D01*
X52581757Y-70804326D01*
X52602634Y-70871004D01*
X52584148Y-70938383D01*
X52547545Y-70976317D01*
X52460199Y-71034680D01*
X52460195Y-71034683D01*
X52348701Y-71146177D01*
X52348698Y-71146181D01*
X52261097Y-71277284D01*
X52261090Y-71277297D01*
X52200752Y-71422968D01*
X52200749Y-71422980D01*
X52169988Y-71577623D01*
X35400500Y-71577623D01*
X35400500Y-69921153D01*
X43649500Y-69921153D01*
X43649500Y-70078846D01*
X43680261Y-70233489D01*
X43680264Y-70233501D01*
X43740602Y-70379172D01*
X43740609Y-70379185D01*
X43828210Y-70510288D01*
X43828213Y-70510292D01*
X43939707Y-70621786D01*
X43939711Y-70621789D01*
X44070814Y-70709390D01*
X44070827Y-70709397D01*
X44202177Y-70763803D01*
X44216503Y-70769737D01*
X44371153Y-70800499D01*
X44371156Y-70800500D01*
X44371158Y-70800500D01*
X44528844Y-70800500D01*
X44528845Y-70800499D01*
X44683497Y-70769737D01*
X44829179Y-70709394D01*
X44960289Y-70621789D01*
X45071789Y-70510289D01*
X45159394Y-70379179D01*
X45219737Y-70233497D01*
X45250500Y-70078842D01*
X45250500Y-70021153D01*
X49549500Y-70021153D01*
X49549500Y-70178846D01*
X49580261Y-70333489D01*
X49580264Y-70333501D01*
X49640602Y-70479172D01*
X49640609Y-70479185D01*
X49728210Y-70610288D01*
X49728213Y-70610292D01*
X49839707Y-70721786D01*
X49839711Y-70721789D01*
X49970814Y-70809390D01*
X49970827Y-70809397D01*
X50116498Y-70869735D01*
X50116503Y-70869737D01*
X50271153Y-70900499D01*
X50271156Y-70900500D01*
X50271158Y-70900500D01*
X50428844Y-70900500D01*
X50428845Y-70900499D01*
X50583497Y-70869737D01*
X50729179Y-70809394D01*
X50860289Y-70721789D01*
X50971789Y-70610289D01*
X51059394Y-70479179D01*
X51119737Y-70333497D01*
X51150500Y-70178842D01*
X51150500Y-70021158D01*
X51150500Y-70021155D01*
X51150499Y-70021153D01*
X51132137Y-69928842D01*
X51119737Y-69866503D01*
X51096672Y-69810818D01*
X51059397Y-69720827D01*
X51059390Y-69720814D01*
X50971789Y-69589711D01*
X50971786Y-69589707D01*
X50860292Y-69478213D01*
X50860288Y-69478210D01*
X50729185Y-69390609D01*
X50729172Y-69390602D01*
X50583501Y-69330264D01*
X50583489Y-69330261D01*
X50428845Y-69299500D01*
X50428842Y-69299500D01*
X50271158Y-69299500D01*
X50271155Y-69299500D01*
X50116510Y-69330261D01*
X50116498Y-69330264D01*
X49970827Y-69390602D01*
X49970814Y-69390609D01*
X49839711Y-69478210D01*
X49839707Y-69478213D01*
X49728213Y-69589707D01*
X49728210Y-69589711D01*
X49640609Y-69720814D01*
X49640602Y-69720827D01*
X49580264Y-69866498D01*
X49580261Y-69866510D01*
X49549500Y-70021153D01*
X45250500Y-70021153D01*
X45250500Y-69921158D01*
X45250500Y-69921155D01*
X45250499Y-69921153D01*
X45222066Y-69778211D01*
X45219737Y-69766503D01*
X45200812Y-69720814D01*
X45159397Y-69620827D01*
X45159390Y-69620814D01*
X45071789Y-69489711D01*
X45071786Y-69489707D01*
X44960292Y-69378213D01*
X44960288Y-69378210D01*
X44829185Y-69290609D01*
X44829172Y-69290602D01*
X44683501Y-69230264D01*
X44683489Y-69230261D01*
X44528845Y-69199500D01*
X44528842Y-69199500D01*
X44371158Y-69199500D01*
X44371155Y-69199500D01*
X44216510Y-69230261D01*
X44216498Y-69230264D01*
X44070827Y-69290602D01*
X44070814Y-69290609D01*
X43939711Y-69378210D01*
X43939707Y-69378213D01*
X43828213Y-69489707D01*
X43828210Y-69489711D01*
X43740609Y-69620814D01*
X43740602Y-69620827D01*
X43680264Y-69766498D01*
X43680261Y-69766510D01*
X43649500Y-69921153D01*
X35400500Y-69921153D01*
X35400500Y-67121153D01*
X42399500Y-67121153D01*
X42399500Y-67278846D01*
X42430261Y-67433489D01*
X42430264Y-67433501D01*
X42490604Y-67579177D01*
X42490605Y-67579179D01*
X42491899Y-67581115D01*
X42492264Y-67582282D01*
X42493476Y-67584549D01*
X42493045Y-67584778D01*
X42512773Y-67647794D01*
X42494285Y-67715173D01*
X42491899Y-67718885D01*
X42490605Y-67720820D01*
X42490604Y-67720822D01*
X42430264Y-67866498D01*
X42430261Y-67866510D01*
X42399500Y-68021153D01*
X42399500Y-68178846D01*
X42430261Y-68333489D01*
X42430264Y-68333501D01*
X42490602Y-68479172D01*
X42490609Y-68479185D01*
X42578210Y-68610288D01*
X42578213Y-68610292D01*
X42689707Y-68721786D01*
X42689711Y-68721789D01*
X42820814Y-68809390D01*
X42820827Y-68809397D01*
X42966498Y-68869735D01*
X42966503Y-68869737D01*
X43121153Y-68900499D01*
X43121156Y-68900500D01*
X43121158Y-68900500D01*
X43278844Y-68900500D01*
X43278845Y-68900499D01*
X43433497Y-68869737D01*
X43579179Y-68809394D01*
X43710289Y-68721789D01*
X43821789Y-68610289D01*
X43909394Y-68479179D01*
X43969737Y-68333497D01*
X44000500Y-68178842D01*
X44000500Y-68021158D01*
X44000500Y-68021155D01*
X44000499Y-68021153D01*
X43980543Y-67920827D01*
X43969737Y-67866503D01*
X43921678Y-67750477D01*
X43909397Y-67720827D01*
X43909394Y-67720822D01*
X43909394Y-67720821D01*
X43908103Y-67718889D01*
X43907737Y-67717723D01*
X43906525Y-67715454D01*
X43906955Y-67715223D01*
X43887226Y-67652214D01*
X43905710Y-67584834D01*
X43908100Y-67581115D01*
X43909394Y-67579179D01*
X43912854Y-67570827D01*
X43934016Y-67519735D01*
X43969737Y-67433497D01*
X44000500Y-67278842D01*
X44000500Y-67121158D01*
X44000500Y-67121155D01*
X44000499Y-67121153D01*
X44000432Y-67120814D01*
X43969737Y-66966503D01*
X43937088Y-66887680D01*
X43909397Y-66820827D01*
X43909390Y-66820814D01*
X43821789Y-66689711D01*
X43821786Y-66689707D01*
X43710292Y-66578213D01*
X43710288Y-66578210D01*
X43579185Y-66490609D01*
X43579172Y-66490602D01*
X43433501Y-66430264D01*
X43433489Y-66430261D01*
X43278845Y-66399500D01*
X43278842Y-66399500D01*
X43121158Y-66399500D01*
X43121155Y-66399500D01*
X42966510Y-66430261D01*
X42966498Y-66430264D01*
X42820827Y-66490602D01*
X42820814Y-66490609D01*
X42689711Y-66578210D01*
X42689707Y-66578213D01*
X42578213Y-66689707D01*
X42578210Y-66689711D01*
X42490609Y-66820814D01*
X42490602Y-66820827D01*
X42430264Y-66966498D01*
X42430261Y-66966510D01*
X42399500Y-67121153D01*
X35400500Y-67121153D01*
X35400500Y-64102135D01*
X36559500Y-64102135D01*
X36559500Y-65897870D01*
X36559501Y-65897876D01*
X36565908Y-65957483D01*
X36616202Y-66092328D01*
X36616206Y-66092335D01*
X36702452Y-66207544D01*
X36702455Y-66207547D01*
X36817664Y-66293793D01*
X36817671Y-66293797D01*
X36952517Y-66344091D01*
X36952516Y-66344091D01*
X36959444Y-66344835D01*
X37012127Y-66350500D01*
X38807872Y-66350499D01*
X38867483Y-66344091D01*
X39002331Y-66293796D01*
X39117546Y-66207546D01*
X39203796Y-66092331D01*
X39254091Y-65957483D01*
X39260500Y-65897873D01*
X39260499Y-65873979D01*
X39263330Y-65860963D01*
X39273940Y-65841525D01*
X39280179Y-65820275D01*
X39296803Y-65799643D01*
X39296808Y-65799636D01*
X39296811Y-65799634D01*
X39296818Y-65799626D01*
X39967037Y-65129408D01*
X39984075Y-65192993D01*
X40049901Y-65307007D01*
X40142993Y-65400099D01*
X40257007Y-65465925D01*
X40320590Y-65482962D01*
X39688282Y-66115269D01*
X39688282Y-66115270D01*
X39742449Y-66154624D01*
X39931782Y-66251095D01*
X40133870Y-66316757D01*
X40343754Y-66350000D01*
X40556246Y-66350000D01*
X40766127Y-66316757D01*
X40766130Y-66316757D01*
X40968217Y-66251095D01*
X41157554Y-66154622D01*
X41211716Y-66115270D01*
X41211717Y-66115270D01*
X40579408Y-65482962D01*
X40642993Y-65465925D01*
X40757007Y-65400099D01*
X40850099Y-65307007D01*
X40915925Y-65192993D01*
X40932962Y-65129409D01*
X41565270Y-65761717D01*
X41565270Y-65761716D01*
X41604622Y-65707554D01*
X41701095Y-65518217D01*
X41766757Y-65316130D01*
X41766757Y-65316127D01*
X41800000Y-65106246D01*
X41800000Y-64893753D01*
X41766757Y-64683872D01*
X41766757Y-64683869D01*
X41708114Y-64503384D01*
X41708113Y-64503382D01*
X41701096Y-64481784D01*
X41695679Y-64471153D01*
X42399500Y-64471153D01*
X42399500Y-64628846D01*
X42430261Y-64783489D01*
X42430264Y-64783501D01*
X42490602Y-64929172D01*
X42490609Y-64929185D01*
X42578210Y-65060288D01*
X42578213Y-65060292D01*
X42689707Y-65171786D01*
X42689711Y-65171789D01*
X42820814Y-65259390D01*
X42820827Y-65259397D01*
X42957795Y-65316130D01*
X42966503Y-65319737D01*
X43121153Y-65350499D01*
X43121156Y-65350500D01*
X43121158Y-65350500D01*
X43278844Y-65350500D01*
X43278845Y-65350499D01*
X43433497Y-65319737D01*
X43579179Y-65259394D01*
X43636411Y-65221153D01*
X44199500Y-65221153D01*
X44199500Y-65378846D01*
X44230261Y-65533489D01*
X44230264Y-65533501D01*
X44290602Y-65679172D01*
X44290609Y-65679185D01*
X44378210Y-65810288D01*
X44378213Y-65810292D01*
X44489707Y-65921786D01*
X44489711Y-65921789D01*
X44620814Y-66009390D01*
X44620821Y-66009394D01*
X44693791Y-66039619D01*
X44748193Y-66083457D01*
X44770259Y-66149751D01*
X44767955Y-66178370D01*
X44749500Y-66271150D01*
X44749500Y-66428843D01*
X44780260Y-66583485D01*
X44780263Y-66583495D01*
X44819220Y-66677546D01*
X44826689Y-66747015D01*
X44819223Y-66772443D01*
X44780263Y-66866503D01*
X44780262Y-66866507D01*
X44780261Y-66866510D01*
X44780260Y-66866511D01*
X44749500Y-67021153D01*
X44749500Y-67178846D01*
X44780261Y-67333489D01*
X44780264Y-67333501D01*
X44840602Y-67479172D01*
X44840609Y-67479185D01*
X44928210Y-67610288D01*
X44928213Y-67610292D01*
X45039707Y-67721786D01*
X45039711Y-67721789D01*
X45170814Y-67809390D01*
X45170827Y-67809397D01*
X45308683Y-67866498D01*
X45316503Y-67869737D01*
X45471153Y-67900499D01*
X45471156Y-67900500D01*
X45471158Y-67900500D01*
X45628844Y-67900500D01*
X45628845Y-67900499D01*
X45776378Y-67871153D01*
X48099500Y-67871153D01*
X48099500Y-68028846D01*
X48130261Y-68183489D01*
X48130264Y-68183501D01*
X48190602Y-68329172D01*
X48190609Y-68329185D01*
X48278210Y-68460288D01*
X48278213Y-68460292D01*
X48389707Y-68571786D01*
X48389711Y-68571789D01*
X48520814Y-68659390D01*
X48520827Y-68659397D01*
X48666498Y-68719735D01*
X48666503Y-68719737D01*
X48821153Y-68750499D01*
X48821156Y-68750500D01*
X48821158Y-68750500D01*
X48978844Y-68750500D01*
X48978845Y-68750499D01*
X49133497Y-68719737D01*
X49279179Y-68659394D01*
X49410289Y-68571789D01*
X49521789Y-68460289D01*
X49609394Y-68329179D01*
X49669737Y-68183497D01*
X49700500Y-68028842D01*
X49700500Y-67871158D01*
X49700500Y-67871155D01*
X49700499Y-67871153D01*
X49673117Y-67733497D01*
X49669737Y-67716503D01*
X49669735Y-67716498D01*
X49609397Y-67570827D01*
X49609390Y-67570814D01*
X49521789Y-67439711D01*
X49521786Y-67439707D01*
X49410292Y-67328213D01*
X49410288Y-67328210D01*
X49279185Y-67240609D01*
X49279172Y-67240602D01*
X49133501Y-67180264D01*
X49133489Y-67180261D01*
X48978845Y-67149500D01*
X48978842Y-67149500D01*
X48821158Y-67149500D01*
X48821155Y-67149500D01*
X48666510Y-67180261D01*
X48666498Y-67180264D01*
X48520827Y-67240602D01*
X48520814Y-67240609D01*
X48389711Y-67328210D01*
X48389707Y-67328213D01*
X48278213Y-67439707D01*
X48278210Y-67439711D01*
X48190609Y-67570814D01*
X48190602Y-67570827D01*
X48130264Y-67716498D01*
X48130261Y-67716510D01*
X48099500Y-67871153D01*
X45776378Y-67871153D01*
X45783497Y-67869737D01*
X45929179Y-67809394D01*
X45958637Y-67789711D01*
X46000164Y-67761964D01*
X46031224Y-67741209D01*
X46060289Y-67721789D01*
X46171789Y-67610289D01*
X46259394Y-67479179D01*
X46319737Y-67333497D01*
X46350500Y-67178842D01*
X46350500Y-67021158D01*
X46350500Y-67021155D01*
X46350499Y-67021153D01*
X46344244Y-66989706D01*
X46319737Y-66866503D01*
X46280778Y-66772449D01*
X46277497Y-66741934D01*
X46272051Y-66711742D01*
X46273599Y-66705674D01*
X46273310Y-66702982D01*
X46280779Y-66677546D01*
X46283427Y-66671153D01*
X53499500Y-66671153D01*
X53499500Y-66828846D01*
X53530261Y-66983489D01*
X53530264Y-66983501D01*
X53590602Y-67129172D01*
X53590609Y-67129185D01*
X53678210Y-67260288D01*
X53678213Y-67260292D01*
X53789707Y-67371786D01*
X53789711Y-67371789D01*
X53920814Y-67459390D01*
X53920827Y-67459397D01*
X54066498Y-67519735D01*
X54066503Y-67519737D01*
X54221153Y-67550499D01*
X54221156Y-67550500D01*
X54221158Y-67550500D01*
X54378844Y-67550500D01*
X54378845Y-67550499D01*
X54533497Y-67519737D01*
X54679179Y-67459394D01*
X54810289Y-67371789D01*
X54921789Y-67260289D01*
X55009394Y-67129179D01*
X55012719Y-67121153D01*
X55054137Y-67021158D01*
X55069737Y-66983497D01*
X55100500Y-66828842D01*
X55100500Y-66671158D01*
X55100500Y-66671155D01*
X55100499Y-66671153D01*
X55089849Y-66617613D01*
X55069737Y-66516503D01*
X55069735Y-66516498D01*
X55009397Y-66370827D01*
X55009390Y-66370814D01*
X54921789Y-66239711D01*
X54921786Y-66239707D01*
X54810292Y-66128213D01*
X54810288Y-66128210D01*
X54679185Y-66040609D01*
X54679172Y-66040602D01*
X54533501Y-65980264D01*
X54533489Y-65980261D01*
X54378845Y-65949500D01*
X54378842Y-65949500D01*
X54221158Y-65949500D01*
X54221155Y-65949500D01*
X54066510Y-65980261D01*
X54066498Y-65980264D01*
X53920827Y-66040602D01*
X53920814Y-66040609D01*
X53789711Y-66128210D01*
X53789707Y-66128213D01*
X53678213Y-66239707D01*
X53678210Y-66239711D01*
X53590609Y-66370814D01*
X53590602Y-66370827D01*
X53530264Y-66516498D01*
X53530261Y-66516510D01*
X53499500Y-66671153D01*
X46283427Y-66671153D01*
X46319737Y-66583494D01*
X46350500Y-66428839D01*
X46350500Y-66271155D01*
X46350500Y-66271152D01*
X46350499Y-66271150D01*
X46344245Y-66239711D01*
X46319737Y-66116500D01*
X46288301Y-66040606D01*
X46259397Y-65970824D01*
X46259390Y-65970811D01*
X46171789Y-65839708D01*
X46171786Y-65839704D01*
X46060292Y-65728210D01*
X46060288Y-65728207D01*
X45929185Y-65640606D01*
X45929175Y-65640601D01*
X45856208Y-65610377D01*
X45801805Y-65566536D01*
X45779740Y-65500242D01*
X45782044Y-65471624D01*
X45789055Y-65436382D01*
X45796272Y-65400099D01*
X45800500Y-65378844D01*
X45800500Y-65221155D01*
X45794155Y-65189258D01*
X45794155Y-65189257D01*
X45790554Y-65171153D01*
X51699500Y-65171153D01*
X51699500Y-65328846D01*
X51730261Y-65483489D01*
X51730264Y-65483501D01*
X51790602Y-65629172D01*
X51790609Y-65629185D01*
X51878210Y-65760288D01*
X51878213Y-65760292D01*
X51989707Y-65871786D01*
X51989711Y-65871789D01*
X52120814Y-65959390D01*
X52120827Y-65959397D01*
X52266498Y-66019735D01*
X52266503Y-66019737D01*
X52421153Y-66050499D01*
X52421156Y-66050500D01*
X52421158Y-66050500D01*
X52578844Y-66050500D01*
X52578845Y-66050499D01*
X52733497Y-66019737D01*
X52879179Y-65959394D01*
X53010289Y-65871789D01*
X53121789Y-65760289D01*
X53209394Y-65629179D01*
X53269737Y-65483497D01*
X53300500Y-65328842D01*
X53300500Y-65171158D01*
X53300500Y-65171155D01*
X53300499Y-65171153D01*
X53298198Y-65159583D01*
X53269737Y-65016503D01*
X53269735Y-65016498D01*
X53209397Y-64870827D01*
X53209390Y-64870814D01*
X53121789Y-64739711D01*
X53121786Y-64739707D01*
X53010292Y-64628213D01*
X53010288Y-64628210D01*
X52879185Y-64540609D01*
X52879172Y-64540602D01*
X52733501Y-64480264D01*
X52733489Y-64480261D01*
X52578845Y-64449500D01*
X52578842Y-64449500D01*
X52421158Y-64449500D01*
X52421155Y-64449500D01*
X52266510Y-64480261D01*
X52266498Y-64480264D01*
X52120827Y-64540602D01*
X52120814Y-64540609D01*
X51989711Y-64628210D01*
X51989707Y-64628213D01*
X51878213Y-64739707D01*
X51878210Y-64739711D01*
X51790609Y-64870814D01*
X51790602Y-64870827D01*
X51730264Y-65016498D01*
X51730261Y-65016510D01*
X51699500Y-65171153D01*
X45790554Y-65171153D01*
X45769738Y-65066510D01*
X45769737Y-65066503D01*
X45767163Y-65060288D01*
X45709397Y-64920827D01*
X45709390Y-64920814D01*
X45621789Y-64789711D01*
X45621786Y-64789707D01*
X45510292Y-64678213D01*
X45510288Y-64678210D01*
X45379185Y-64590609D01*
X45379172Y-64590602D01*
X45233501Y-64530264D01*
X45233489Y-64530261D01*
X45078845Y-64499500D01*
X45078842Y-64499500D01*
X44921158Y-64499500D01*
X44921155Y-64499500D01*
X44766510Y-64530261D01*
X44766498Y-64530264D01*
X44620827Y-64590602D01*
X44620814Y-64590609D01*
X44489711Y-64678210D01*
X44489707Y-64678213D01*
X44378213Y-64789707D01*
X44378210Y-64789711D01*
X44290609Y-64920814D01*
X44290602Y-64920827D01*
X44230264Y-65066498D01*
X44230261Y-65066510D01*
X44199500Y-65221153D01*
X43636411Y-65221153D01*
X43710289Y-65171789D01*
X43722495Y-65159583D01*
X43754694Y-65127385D01*
X43821786Y-65060292D01*
X43821789Y-65060289D01*
X43909394Y-64929179D01*
X43912854Y-64920827D01*
X43943331Y-64847247D01*
X43969737Y-64783497D01*
X44000500Y-64628842D01*
X44000500Y-64471158D01*
X44000500Y-64471155D01*
X44000499Y-64471153D01*
X43990679Y-64421786D01*
X43969737Y-64316503D01*
X43964685Y-64304307D01*
X43909397Y-64170827D01*
X43909390Y-64170814D01*
X43821789Y-64039711D01*
X43821786Y-64039707D01*
X43710292Y-63928213D01*
X43710288Y-63928210D01*
X43579185Y-63840609D01*
X43579172Y-63840602D01*
X43433501Y-63780264D01*
X43433489Y-63780261D01*
X43278845Y-63749500D01*
X43278842Y-63749500D01*
X43121158Y-63749500D01*
X43121155Y-63749500D01*
X42966510Y-63780261D01*
X42966498Y-63780264D01*
X42820827Y-63840602D01*
X42820814Y-63840609D01*
X42689711Y-63928210D01*
X42689707Y-63928213D01*
X42578213Y-64039707D01*
X42578210Y-64039711D01*
X42490609Y-64170814D01*
X42490602Y-64170827D01*
X42430264Y-64316498D01*
X42430261Y-64316510D01*
X42399500Y-64471153D01*
X41695679Y-64471153D01*
X41604624Y-64292449D01*
X41565270Y-64238282D01*
X41565269Y-64238282D01*
X40932962Y-64870590D01*
X40915925Y-64807007D01*
X40850099Y-64692993D01*
X40757007Y-64599901D01*
X40642993Y-64534075D01*
X40579409Y-64517037D01*
X41211716Y-63884728D01*
X41157550Y-63845375D01*
X40968217Y-63748904D01*
X40766129Y-63683242D01*
X40601712Y-63657201D01*
X40601479Y-63657090D01*
X40601222Y-63657123D01*
X40569897Y-63642119D01*
X40538577Y-63627272D01*
X40538440Y-63627052D01*
X40538208Y-63626941D01*
X40520013Y-63597458D01*
X40501646Y-63567960D01*
X40501649Y-63567701D01*
X40501514Y-63567482D01*
X40502149Y-63532728D01*
X40502644Y-63498098D01*
X40502787Y-63497796D01*
X40502791Y-63497624D01*
X40503451Y-63496402D01*
X40518037Y-63465793D01*
X40521574Y-63460503D01*
X40521789Y-63460289D01*
X40547939Y-63421153D01*
X46649498Y-63421153D01*
X46649498Y-63578846D01*
X46680259Y-63733489D01*
X46680262Y-63733501D01*
X46740600Y-63879172D01*
X46740607Y-63879185D01*
X46828208Y-64010288D01*
X46828211Y-64010292D01*
X46939705Y-64121786D01*
X46939709Y-64121789D01*
X47070812Y-64209390D01*
X47070825Y-64209397D01*
X47140561Y-64238282D01*
X47216501Y-64269737D01*
X47371151Y-64300499D01*
X47371154Y-64300500D01*
X47371156Y-64300500D01*
X47528842Y-64300500D01*
X47528843Y-64300499D01*
X47683495Y-64269737D01*
X47800788Y-64221153D01*
X55799500Y-64221153D01*
X55799500Y-64378846D01*
X55830261Y-64533489D01*
X55830264Y-64533501D01*
X55890602Y-64679172D01*
X55890609Y-64679185D01*
X55978210Y-64810288D01*
X55978213Y-64810292D01*
X56017494Y-64849572D01*
X56050980Y-64910895D01*
X56051432Y-64961441D01*
X56049500Y-64971154D01*
X56049500Y-65128846D01*
X56080261Y-65283489D01*
X56080264Y-65283501D01*
X56140602Y-65429172D01*
X56140609Y-65429185D01*
X56228210Y-65560288D01*
X56228213Y-65560292D01*
X56238064Y-65570143D01*
X56271549Y-65631466D01*
X56266565Y-65701158D01*
X56253485Y-65726715D01*
X56190609Y-65820814D01*
X56190602Y-65820827D01*
X56130264Y-65966498D01*
X56130261Y-65966510D01*
X56099500Y-66121153D01*
X56099500Y-66278846D01*
X56130261Y-66433489D01*
X56130264Y-66433501D01*
X56190602Y-66579172D01*
X56190609Y-66579185D01*
X56278210Y-66710288D01*
X56278213Y-66710292D01*
X56380240Y-66812319D01*
X56413725Y-66873642D01*
X56408741Y-66943334D01*
X56381999Y-66984947D01*
X56382072Y-66985007D01*
X56381559Y-66985630D01*
X56380247Y-66987674D01*
X56378215Y-66989706D01*
X56378208Y-66989714D01*
X56290609Y-67120814D01*
X56290602Y-67120827D01*
X56230264Y-67266498D01*
X56230261Y-67266510D01*
X56199500Y-67421153D01*
X56199500Y-67578846D01*
X56230261Y-67733489D01*
X56230264Y-67733501D01*
X56290602Y-67879172D01*
X56290609Y-67879185D01*
X56359873Y-67982845D01*
X56380751Y-68049523D01*
X56378388Y-68075928D01*
X56349500Y-68221155D01*
X56349500Y-68378846D01*
X56380261Y-68533489D01*
X56380264Y-68533501D01*
X56440602Y-68679172D01*
X56440609Y-68679185D01*
X56528210Y-68810288D01*
X56528213Y-68810292D01*
X56639707Y-68921786D01*
X56639711Y-68921789D01*
X56770814Y-69009390D01*
X56770827Y-69009397D01*
X56867646Y-69049500D01*
X56916503Y-69069737D01*
X57071153Y-69100499D01*
X57071156Y-69100500D01*
X57071158Y-69100500D01*
X57228844Y-69100500D01*
X57228845Y-69100499D01*
X57383497Y-69069737D01*
X57529179Y-69009394D01*
X57660289Y-68921789D01*
X57771789Y-68810289D01*
X57859394Y-68679179D01*
X57919737Y-68533497D01*
X57950500Y-68378842D01*
X57950500Y-68221158D01*
X57950500Y-68221155D01*
X57950499Y-68221153D01*
X57919737Y-68066503D01*
X57904138Y-68028844D01*
X57859397Y-67920827D01*
X57859390Y-67920814D01*
X57790127Y-67817155D01*
X57769249Y-67750477D01*
X57771612Y-67724072D01*
X57800500Y-67578844D01*
X57800500Y-67421155D01*
X57800499Y-67421153D01*
X57782012Y-67328213D01*
X57769737Y-67266503D01*
X57767163Y-67260288D01*
X57709397Y-67120827D01*
X57709390Y-67120814D01*
X57621789Y-66989711D01*
X57621786Y-66989707D01*
X57519759Y-66887680D01*
X57486274Y-66826357D01*
X57491258Y-66756665D01*
X57518002Y-66715054D01*
X57517928Y-66714993D01*
X57518454Y-66714351D01*
X57519764Y-66712313D01*
X57521789Y-66710289D01*
X57609394Y-66579179D01*
X57669737Y-66433497D01*
X57700500Y-66278842D01*
X57700500Y-66121158D01*
X57700500Y-66121155D01*
X57700499Y-66121153D01*
X57686445Y-66050499D01*
X57669737Y-65966503D01*
X57641310Y-65897873D01*
X57609397Y-65820827D01*
X57609390Y-65820814D01*
X57521789Y-65689711D01*
X57521786Y-65689707D01*
X57511935Y-65679856D01*
X57478450Y-65618533D01*
X57483434Y-65548841D01*
X57496512Y-65523287D01*
X57537494Y-65461953D01*
X57559389Y-65429187D01*
X57559390Y-65429184D01*
X57559394Y-65429179D01*
X57619737Y-65283497D01*
X57650500Y-65128842D01*
X57650500Y-64971158D01*
X57650500Y-64971155D01*
X57629454Y-64865352D01*
X57629454Y-64865351D01*
X57625853Y-64847247D01*
X61674500Y-64847247D01*
X61674500Y-65004940D01*
X61705261Y-65159583D01*
X61705264Y-65159595D01*
X61765602Y-65305266D01*
X61765609Y-65305279D01*
X61853210Y-65436382D01*
X61853213Y-65436386D01*
X61964707Y-65547880D01*
X61964711Y-65547883D01*
X62095814Y-65635484D01*
X62095827Y-65635491D01*
X62226718Y-65689707D01*
X62241503Y-65695831D01*
X62396153Y-65726593D01*
X62396156Y-65726594D01*
X62396158Y-65726594D01*
X62553844Y-65726594D01*
X62553845Y-65726593D01*
X62708497Y-65695831D01*
X62854179Y-65635488D01*
X62985289Y-65547883D01*
X63096789Y-65436383D01*
X63184394Y-65305273D01*
X63244737Y-65159591D01*
X63275500Y-65004936D01*
X63275500Y-64847252D01*
X63275500Y-64847249D01*
X63275499Y-64847247D01*
X63268148Y-64810292D01*
X63244737Y-64692597D01*
X63218329Y-64628842D01*
X63184397Y-64546921D01*
X63184390Y-64546908D01*
X63096789Y-64415805D01*
X63096786Y-64415801D01*
X62985292Y-64304307D01*
X62985288Y-64304304D01*
X62854185Y-64216703D01*
X62854172Y-64216696D01*
X62708501Y-64156358D01*
X62708489Y-64156355D01*
X62553845Y-64125594D01*
X62553842Y-64125594D01*
X62396158Y-64125594D01*
X62396155Y-64125594D01*
X62241510Y-64156355D01*
X62241498Y-64156358D01*
X62095827Y-64216696D01*
X62095814Y-64216703D01*
X61964711Y-64304304D01*
X61964707Y-64304307D01*
X61853213Y-64415801D01*
X61853210Y-64415805D01*
X61765609Y-64546908D01*
X61765602Y-64546921D01*
X61705264Y-64692592D01*
X61705261Y-64692604D01*
X61674500Y-64847247D01*
X57625853Y-64847247D01*
X57619738Y-64816510D01*
X57619737Y-64816503D01*
X57615804Y-64807007D01*
X57559397Y-64670827D01*
X57559390Y-64670814D01*
X57471789Y-64539711D01*
X57471786Y-64539707D01*
X57432505Y-64500427D01*
X57399019Y-64439104D01*
X57398569Y-64388549D01*
X57400500Y-64378842D01*
X57400500Y-64221158D01*
X57400500Y-64221155D01*
X57400499Y-64221153D01*
X57380734Y-64121788D01*
X57369737Y-64066503D01*
X57359801Y-64042516D01*
X57309397Y-63920827D01*
X57309395Y-63920823D01*
X57309394Y-63920821D01*
X57309389Y-63920814D01*
X57289770Y-63891451D01*
X57268892Y-63824774D01*
X57287376Y-63757394D01*
X57323982Y-63719458D01*
X57385712Y-63678211D01*
X57410289Y-63661789D01*
X57521789Y-63550289D01*
X57609394Y-63419179D01*
X57669737Y-63273497D01*
X57700500Y-63118842D01*
X57700500Y-62961158D01*
X57700500Y-62961155D01*
X57700499Y-62961153D01*
X57684001Y-62878213D01*
X57669737Y-62806503D01*
X57655097Y-62771158D01*
X57609397Y-62660827D01*
X57609390Y-62660814D01*
X57521789Y-62529711D01*
X57521786Y-62529707D01*
X57410292Y-62418213D01*
X57410288Y-62418210D01*
X57279185Y-62330609D01*
X57279172Y-62330602D01*
X57133501Y-62270264D01*
X57133489Y-62270261D01*
X56978845Y-62239500D01*
X56978842Y-62239500D01*
X56821158Y-62239500D01*
X56821155Y-62239500D01*
X56666510Y-62270261D01*
X56666498Y-62270264D01*
X56520827Y-62330602D01*
X56520814Y-62330609D01*
X56389711Y-62418210D01*
X56389707Y-62418213D01*
X56278213Y-62529707D01*
X56278210Y-62529711D01*
X56190609Y-62660814D01*
X56190602Y-62660827D01*
X56130264Y-62806498D01*
X56130261Y-62806510D01*
X56099500Y-62961153D01*
X56099500Y-63118846D01*
X56130261Y-63273489D01*
X56130264Y-63273501D01*
X56190602Y-63419172D01*
X56190609Y-63419185D01*
X56210229Y-63448548D01*
X56231107Y-63515226D01*
X56212622Y-63582606D01*
X56176019Y-63620541D01*
X56089707Y-63678213D01*
X55978213Y-63789707D01*
X55978210Y-63789711D01*
X55890609Y-63920814D01*
X55890602Y-63920827D01*
X55830264Y-64066498D01*
X55830261Y-64066510D01*
X55799500Y-64221153D01*
X47800788Y-64221153D01*
X47829177Y-64209394D01*
X47960287Y-64121789D01*
X48071787Y-64010289D01*
X48159392Y-63879179D01*
X48219735Y-63733497D01*
X48250498Y-63578842D01*
X48250498Y-63421158D01*
X48250498Y-63421155D01*
X48250497Y-63421153D01*
X48232202Y-63329179D01*
X48219735Y-63266503D01*
X48219733Y-63266498D01*
X48159395Y-63120827D01*
X48159388Y-63120814D01*
X48071787Y-62989711D01*
X48071784Y-62989707D01*
X47960290Y-62878213D01*
X47960286Y-62878210D01*
X47870427Y-62818168D01*
X47829183Y-62790609D01*
X47829170Y-62790602D01*
X47683499Y-62730264D01*
X47683487Y-62730261D01*
X47637699Y-62721153D01*
X48951167Y-62721153D01*
X48951167Y-62878846D01*
X48981928Y-63033489D01*
X48981931Y-63033501D01*
X49042269Y-63179172D01*
X49042276Y-63179185D01*
X49129877Y-63310288D01*
X49129880Y-63310292D01*
X49241374Y-63421786D01*
X49241378Y-63421789D01*
X49372481Y-63509390D01*
X49372494Y-63509397D01*
X49513880Y-63567960D01*
X49518170Y-63569737D01*
X49623085Y-63590606D01*
X49672820Y-63600499D01*
X49672823Y-63600500D01*
X49672825Y-63600500D01*
X49830511Y-63600500D01*
X49830512Y-63600499D01*
X49985164Y-63569737D01*
X50018311Y-63556006D01*
X50087778Y-63548537D01*
X50114825Y-63557947D01*
X50115192Y-63557063D01*
X50220060Y-63600500D01*
X50266503Y-63619737D01*
X50416131Y-63649500D01*
X50421153Y-63650499D01*
X50421156Y-63650500D01*
X50421158Y-63650500D01*
X50578844Y-63650500D01*
X50578845Y-63650499D01*
X50733497Y-63619737D01*
X50823140Y-63582606D01*
X50852548Y-63570425D01*
X50922017Y-63562956D01*
X50947452Y-63570425D01*
X50976860Y-63582606D01*
X51066503Y-63619737D01*
X51216131Y-63649500D01*
X51221153Y-63650499D01*
X51221156Y-63650500D01*
X51221158Y-63650500D01*
X51378844Y-63650500D01*
X51378845Y-63650499D01*
X51533497Y-63619737D01*
X51670580Y-63562956D01*
X51679172Y-63559397D01*
X51679172Y-63559396D01*
X51679179Y-63559394D01*
X51810289Y-63471789D01*
X51921789Y-63360289D01*
X52009394Y-63229179D01*
X52069737Y-63083497D01*
X52100500Y-62928842D01*
X52100500Y-62771158D01*
X52100500Y-62771155D01*
X52100499Y-62771153D01*
X52086246Y-62699500D01*
X52069737Y-62616503D01*
X52050815Y-62570821D01*
X52009397Y-62470827D01*
X52009390Y-62470814D01*
X51921789Y-62339711D01*
X51921786Y-62339707D01*
X51810292Y-62228213D01*
X51810288Y-62228210D01*
X51679185Y-62140609D01*
X51679172Y-62140602D01*
X51533501Y-62080264D01*
X51533489Y-62080261D01*
X51378845Y-62049500D01*
X51378842Y-62049500D01*
X51221158Y-62049500D01*
X51221155Y-62049500D01*
X51066510Y-62080261D01*
X51066498Y-62080264D01*
X50947452Y-62129574D01*
X50877982Y-62137043D01*
X50852548Y-62129574D01*
X50733501Y-62080264D01*
X50733489Y-62080261D01*
X50578845Y-62049500D01*
X50578842Y-62049500D01*
X50421158Y-62049500D01*
X50421155Y-62049500D01*
X50266505Y-62080261D01*
X50266493Y-62080265D01*
X50233350Y-62093993D01*
X50163881Y-62101460D01*
X50136839Y-62092056D01*
X50136475Y-62092937D01*
X49985168Y-62030264D01*
X49985156Y-62030261D01*
X49830512Y-61999500D01*
X49830509Y-61999500D01*
X49672825Y-61999500D01*
X49672822Y-61999500D01*
X49518177Y-62030261D01*
X49518165Y-62030264D01*
X49372494Y-62090602D01*
X49372481Y-62090609D01*
X49241378Y-62178210D01*
X49241374Y-62178213D01*
X49129880Y-62289707D01*
X49129877Y-62289711D01*
X49042276Y-62420814D01*
X49042269Y-62420827D01*
X48981931Y-62566498D01*
X48981928Y-62566510D01*
X48951167Y-62721153D01*
X47637699Y-62721153D01*
X47528843Y-62699500D01*
X47528840Y-62699500D01*
X47371156Y-62699500D01*
X47371153Y-62699500D01*
X47216508Y-62730261D01*
X47216496Y-62730264D01*
X47070825Y-62790602D01*
X47070812Y-62790609D01*
X46939709Y-62878210D01*
X46939705Y-62878213D01*
X46828211Y-62989707D01*
X46828208Y-62989711D01*
X46740607Y-63120814D01*
X46740600Y-63120827D01*
X46680262Y-63266498D01*
X46680259Y-63266510D01*
X46649498Y-63421153D01*
X40547939Y-63421153D01*
X40609394Y-63329179D01*
X40669737Y-63183497D01*
X40700500Y-63028842D01*
X40700500Y-62871158D01*
X40700500Y-62871155D01*
X40700499Y-62871153D01*
X40669737Y-62716503D01*
X40662694Y-62699500D01*
X40644044Y-62654473D01*
X40636575Y-62585004D01*
X40667851Y-62522525D01*
X40702306Y-62496538D01*
X40761788Y-62466232D01*
X40901928Y-62364414D01*
X41024414Y-62241928D01*
X41126232Y-62101788D01*
X41204873Y-61947445D01*
X41258402Y-61782701D01*
X41285500Y-61611611D01*
X41285500Y-60888389D01*
X41274851Y-60821153D01*
X50099500Y-60821153D01*
X50099500Y-60978846D01*
X50130261Y-61133489D01*
X50130264Y-61133501D01*
X50190602Y-61279172D01*
X50190609Y-61279185D01*
X50278210Y-61410288D01*
X50278213Y-61410292D01*
X50389707Y-61521786D01*
X50389711Y-61521789D01*
X50520814Y-61609390D01*
X50520827Y-61609397D01*
X50666498Y-61669735D01*
X50666503Y-61669737D01*
X50821153Y-61700499D01*
X50821156Y-61700500D01*
X50821158Y-61700500D01*
X50978844Y-61700500D01*
X50978845Y-61700499D01*
X51133497Y-61669737D01*
X51279179Y-61609394D01*
X51410289Y-61521789D01*
X51521789Y-61410289D01*
X51609394Y-61279179D01*
X51612854Y-61270827D01*
X51650953Y-61178846D01*
X51669737Y-61133497D01*
X51684715Y-61058194D01*
X51692084Y-61021153D01*
X52799500Y-61021153D01*
X52799500Y-61178846D01*
X52830261Y-61333489D01*
X52830264Y-61333501D01*
X52890602Y-61479172D01*
X52890609Y-61479185D01*
X52978210Y-61610288D01*
X52978213Y-61610292D01*
X53089707Y-61721786D01*
X53089711Y-61721789D01*
X53220814Y-61809390D01*
X53220827Y-61809397D01*
X53366498Y-61869735D01*
X53366503Y-61869737D01*
X53521153Y-61900499D01*
X53521156Y-61900500D01*
X53521158Y-61900500D01*
X53554452Y-61900500D01*
X53621491Y-61920185D01*
X53667246Y-61972989D01*
X53669013Y-61977048D01*
X53690606Y-62029179D01*
X53690607Y-62029182D01*
X53778210Y-62160288D01*
X53778213Y-62160292D01*
X53889707Y-62271786D01*
X53889711Y-62271789D01*
X54020814Y-62359390D01*
X54020827Y-62359397D01*
X54162816Y-62418210D01*
X54166503Y-62419737D01*
X54321153Y-62450499D01*
X54321156Y-62450500D01*
X54321158Y-62450500D01*
X54478844Y-62450500D01*
X54478845Y-62450499D01*
X54633497Y-62419737D01*
X54779179Y-62359394D01*
X54910289Y-62271789D01*
X55021789Y-62160289D01*
X55109394Y-62029179D01*
X55169737Y-61883497D01*
X55200500Y-61728842D01*
X55200500Y-61571158D01*
X55200500Y-61571155D01*
X55200499Y-61571153D01*
X55182204Y-61479179D01*
X55169737Y-61416503D01*
X55130242Y-61321153D01*
X57599500Y-61321153D01*
X57599500Y-61478846D01*
X57630261Y-61633489D01*
X57630264Y-61633501D01*
X57690602Y-61779172D01*
X57690609Y-61779185D01*
X57778210Y-61910288D01*
X57778213Y-61910292D01*
X57889707Y-62021786D01*
X57889711Y-62021789D01*
X58020814Y-62109390D01*
X58020827Y-62109397D01*
X58166498Y-62169735D01*
X58166503Y-62169737D01*
X58289079Y-62194119D01*
X58321153Y-62200499D01*
X58321156Y-62200500D01*
X58321158Y-62200500D01*
X58478844Y-62200500D01*
X58478845Y-62200499D01*
X58633497Y-62169737D01*
X58779179Y-62109394D01*
X58910289Y-62021789D01*
X59021789Y-61910289D01*
X59109394Y-61779179D01*
X59169737Y-61633497D01*
X59200500Y-61478842D01*
X59200500Y-61321158D01*
X59200500Y-61321155D01*
X59200499Y-61321153D01*
X59169738Y-61166510D01*
X59169737Y-61166503D01*
X59169735Y-61166498D01*
X59109397Y-61020827D01*
X59109390Y-61020814D01*
X59021789Y-60889711D01*
X59021786Y-60889707D01*
X58910292Y-60778213D01*
X58910288Y-60778210D01*
X58779185Y-60690609D01*
X58779172Y-60690602D01*
X58633501Y-60630264D01*
X58633489Y-60630261D01*
X58478845Y-60599500D01*
X58478842Y-60599500D01*
X58321158Y-60599500D01*
X58321155Y-60599500D01*
X58166510Y-60630261D01*
X58166498Y-60630264D01*
X58020827Y-60690602D01*
X58020814Y-60690609D01*
X57889711Y-60778210D01*
X57889707Y-60778213D01*
X57778213Y-60889707D01*
X57778210Y-60889711D01*
X57690609Y-61020814D01*
X57690602Y-61020827D01*
X57630264Y-61166498D01*
X57630261Y-61166510D01*
X57599500Y-61321153D01*
X55130242Y-61321153D01*
X55129933Y-61320408D01*
X55109397Y-61270827D01*
X55109390Y-61270814D01*
X55021789Y-61139711D01*
X55021786Y-61139707D01*
X54910292Y-61028213D01*
X54910288Y-61028210D01*
X54779185Y-60940609D01*
X54779172Y-60940602D01*
X54633501Y-60880264D01*
X54633489Y-60880261D01*
X54478845Y-60849500D01*
X54478842Y-60849500D01*
X54445548Y-60849500D01*
X54378509Y-60829815D01*
X54332754Y-60777011D01*
X54330987Y-60772952D01*
X54312858Y-60729185D01*
X54309394Y-60720821D01*
X54309392Y-60720819D01*
X54309392Y-60720817D01*
X54221789Y-60589711D01*
X54221786Y-60589707D01*
X54110292Y-60478213D01*
X54110288Y-60478210D01*
X53979185Y-60390609D01*
X53979173Y-60390602D01*
X53952674Y-60379627D01*
X53833501Y-60330264D01*
X53833489Y-60330261D01*
X53678845Y-60299500D01*
X53678842Y-60299500D01*
X53521158Y-60299500D01*
X53521155Y-60299500D01*
X53366510Y-60330261D01*
X53366498Y-60330264D01*
X53220827Y-60390602D01*
X53220814Y-60390609D01*
X53089711Y-60478210D01*
X53089707Y-60478213D01*
X52978213Y-60589707D01*
X52978210Y-60589711D01*
X52890609Y-60720814D01*
X52890602Y-60720827D01*
X52830264Y-60866498D01*
X52830261Y-60866510D01*
X52799500Y-61021153D01*
X51692084Y-61021153D01*
X51698107Y-60990875D01*
X51698107Y-60990874D01*
X51700500Y-60978844D01*
X51700500Y-60821155D01*
X51700499Y-60821153D01*
X51691957Y-60778210D01*
X51669737Y-60666503D01*
X51669735Y-60666498D01*
X51609397Y-60520827D01*
X51609390Y-60520814D01*
X51521789Y-60389711D01*
X51521786Y-60389707D01*
X51410292Y-60278213D01*
X51410288Y-60278210D01*
X51399727Y-60271153D01*
X59399500Y-60271153D01*
X59399500Y-60428846D01*
X59430261Y-60583489D01*
X59430264Y-60583501D01*
X59490602Y-60729172D01*
X59490609Y-60729185D01*
X59578210Y-60860288D01*
X59578213Y-60860292D01*
X59689707Y-60971786D01*
X59689711Y-60971789D01*
X59820814Y-61059390D01*
X59820827Y-61059397D01*
X59931540Y-61105255D01*
X59966503Y-61119737D01*
X60121153Y-61150499D01*
X60121156Y-61150500D01*
X60121158Y-61150500D01*
X60278844Y-61150500D01*
X60278845Y-61150499D01*
X60433497Y-61119737D01*
X60579179Y-61059394D01*
X60710289Y-60971789D01*
X60821789Y-60860289D01*
X60909394Y-60729179D01*
X60912854Y-60720827D01*
X60935357Y-60666498D01*
X60969737Y-60583497D01*
X61000500Y-60428842D01*
X61000500Y-60271158D01*
X61000500Y-60271155D01*
X61000499Y-60271153D01*
X60997896Y-60258069D01*
X60969737Y-60116503D01*
X60950366Y-60069737D01*
X60909397Y-59970827D01*
X60909390Y-59970814D01*
X60821789Y-59839711D01*
X60821786Y-59839707D01*
X60710292Y-59728213D01*
X60710288Y-59728210D01*
X60579185Y-59640609D01*
X60579172Y-59640602D01*
X60433501Y-59580264D01*
X60433489Y-59580261D01*
X60278845Y-59549500D01*
X60278842Y-59549500D01*
X60121158Y-59549500D01*
X60121155Y-59549500D01*
X59966510Y-59580261D01*
X59966498Y-59580264D01*
X59820827Y-59640602D01*
X59820814Y-59640609D01*
X59689711Y-59728210D01*
X59689707Y-59728213D01*
X59578213Y-59839707D01*
X59578210Y-59839711D01*
X59490609Y-59970814D01*
X59490602Y-59970827D01*
X59430264Y-60116498D01*
X59430261Y-60116510D01*
X59399500Y-60271153D01*
X51399727Y-60271153D01*
X51279185Y-60190609D01*
X51279172Y-60190602D01*
X51133501Y-60130264D01*
X51133489Y-60130261D01*
X50978845Y-60099500D01*
X50978842Y-60099500D01*
X50821158Y-60099500D01*
X50821155Y-60099500D01*
X50666510Y-60130261D01*
X50666498Y-60130264D01*
X50520827Y-60190602D01*
X50520814Y-60190609D01*
X50389711Y-60278210D01*
X50389707Y-60278213D01*
X50278213Y-60389707D01*
X50278210Y-60389711D01*
X50190609Y-60520814D01*
X50190602Y-60520827D01*
X50130264Y-60666498D01*
X50130261Y-60666510D01*
X50099500Y-60821153D01*
X41274851Y-60821153D01*
X41258402Y-60717299D01*
X41204873Y-60552555D01*
X41126232Y-60398212D01*
X41024414Y-60258072D01*
X40981191Y-60214849D01*
X40947706Y-60153526D01*
X40952690Y-60083834D01*
X40994562Y-60027901D01*
X41021418Y-60012608D01*
X41029179Y-60009394D01*
X41160289Y-59921789D01*
X41260925Y-59821153D01*
X43599500Y-59821153D01*
X43599500Y-59978846D01*
X43630261Y-60133489D01*
X43630264Y-60133501D01*
X43690602Y-60279172D01*
X43690609Y-60279185D01*
X43778210Y-60410288D01*
X43778213Y-60410292D01*
X43889707Y-60521786D01*
X43889711Y-60521789D01*
X44020814Y-60609390D01*
X44020827Y-60609397D01*
X44158683Y-60666498D01*
X44166503Y-60669737D01*
X44321153Y-60700499D01*
X44321156Y-60700500D01*
X44321158Y-60700500D01*
X44478844Y-60700500D01*
X44478845Y-60700499D01*
X44489179Y-60698443D01*
X44514287Y-60693450D01*
X44514292Y-60693449D01*
X44599800Y-60676439D01*
X44633497Y-60669737D01*
X44779179Y-60609394D01*
X44910289Y-60521789D01*
X45021789Y-60410289D01*
X45100635Y-60292286D01*
X45154247Y-60247482D01*
X45223571Y-60238775D01*
X45284859Y-60268096D01*
X45285001Y-60267924D01*
X45285703Y-60268500D01*
X45286599Y-60268929D01*
X45289006Y-60271211D01*
X45289711Y-60271789D01*
X45420814Y-60359390D01*
X45420827Y-60359397D01*
X45566498Y-60419735D01*
X45566503Y-60419737D01*
X45721153Y-60450499D01*
X45721156Y-60450500D01*
X45721158Y-60450500D01*
X45878844Y-60450500D01*
X45878845Y-60450499D01*
X46033497Y-60419737D01*
X46179179Y-60359394D01*
X46310289Y-60271789D01*
X46421789Y-60160289D01*
X46509394Y-60029179D01*
X46569737Y-59883497D01*
X46600500Y-59728842D01*
X46600500Y-59571158D01*
X46600500Y-59571155D01*
X46600499Y-59571153D01*
X46594380Y-59540392D01*
X46569737Y-59416503D01*
X46566129Y-59407792D01*
X46509397Y-59270827D01*
X46509390Y-59270814D01*
X46423807Y-59142731D01*
X46402929Y-59076054D01*
X46421413Y-59008674D01*
X46457862Y-58971153D01*
X57149500Y-58971153D01*
X57149500Y-59128846D01*
X57180261Y-59283489D01*
X57180264Y-59283501D01*
X57240602Y-59429172D01*
X57240609Y-59429185D01*
X57328210Y-59560288D01*
X57328213Y-59560292D01*
X57439707Y-59671786D01*
X57439711Y-59671789D01*
X57570814Y-59759390D01*
X57570827Y-59759397D01*
X57716498Y-59819735D01*
X57716503Y-59819737D01*
X57871153Y-59850499D01*
X57871156Y-59850500D01*
X57871158Y-59850500D01*
X58028844Y-59850500D01*
X58028845Y-59850499D01*
X58183497Y-59819737D01*
X58296166Y-59773067D01*
X58329172Y-59759397D01*
X58329172Y-59759396D01*
X58329179Y-59759394D01*
X58460289Y-59671789D01*
X58571789Y-59560289D01*
X58659394Y-59429179D01*
X58719737Y-59283497D01*
X58750500Y-59128842D01*
X58750500Y-58971158D01*
X58750500Y-58971155D01*
X58750499Y-58971153D01*
X58743908Y-58938016D01*
X58719737Y-58816503D01*
X58719735Y-58816498D01*
X58659397Y-58670827D01*
X58659390Y-58670814D01*
X58571789Y-58539711D01*
X58571786Y-58539707D01*
X58460292Y-58428213D01*
X58460288Y-58428210D01*
X58329185Y-58340609D01*
X58329172Y-58340602D01*
X58183501Y-58280264D01*
X58183489Y-58280261D01*
X58028845Y-58249500D01*
X58028842Y-58249500D01*
X57871158Y-58249500D01*
X57871155Y-58249500D01*
X57716510Y-58280261D01*
X57716498Y-58280264D01*
X57570827Y-58340602D01*
X57570814Y-58340609D01*
X57439711Y-58428210D01*
X57439707Y-58428213D01*
X57328213Y-58539707D01*
X57328210Y-58539711D01*
X57240609Y-58670814D01*
X57240602Y-58670827D01*
X57180264Y-58816498D01*
X57180261Y-58816510D01*
X57149500Y-58971153D01*
X46457862Y-58971153D01*
X46458713Y-58970277D01*
X46468560Y-58963792D01*
X46479179Y-58959394D01*
X46610289Y-58871789D01*
X46721789Y-58760289D01*
X46809394Y-58629179D01*
X46812719Y-58621153D01*
X46825373Y-58590602D01*
X46869737Y-58483497D01*
X46900500Y-58328842D01*
X46900500Y-58171158D01*
X46900500Y-58171155D01*
X46900499Y-58171153D01*
X46882012Y-58078213D01*
X46869737Y-58016503D01*
X46869735Y-58016498D01*
X46809397Y-57870827D01*
X46809390Y-57870814D01*
X46721789Y-57739711D01*
X46721786Y-57739707D01*
X46610292Y-57628213D01*
X46610288Y-57628210D01*
X46479185Y-57540609D01*
X46479172Y-57540602D01*
X46333501Y-57480264D01*
X46333489Y-57480261D01*
X46178845Y-57449500D01*
X46178842Y-57449500D01*
X46021158Y-57449500D01*
X46021155Y-57449500D01*
X45866510Y-57480261D01*
X45866498Y-57480264D01*
X45720827Y-57540602D01*
X45720814Y-57540609D01*
X45589711Y-57628210D01*
X45589707Y-57628213D01*
X45478213Y-57739707D01*
X45478210Y-57739711D01*
X45390609Y-57870814D01*
X45390602Y-57870827D01*
X45330264Y-58016498D01*
X45330261Y-58016510D01*
X45299500Y-58171153D01*
X45299500Y-58328846D01*
X45330261Y-58483489D01*
X45330264Y-58483501D01*
X45390602Y-58629172D01*
X45390609Y-58629185D01*
X45476192Y-58757268D01*
X45497070Y-58823946D01*
X45478586Y-58891326D01*
X45426607Y-58938016D01*
X45420929Y-58940548D01*
X45420814Y-58940609D01*
X45289711Y-59028210D01*
X45289707Y-59028213D01*
X45178213Y-59139707D01*
X45178210Y-59139711D01*
X45099364Y-59257712D01*
X45045751Y-59302517D01*
X44976426Y-59311224D01*
X44915141Y-59281902D01*
X44914999Y-59282076D01*
X44914293Y-59281496D01*
X44913399Y-59281069D01*
X44910993Y-59278788D01*
X44910288Y-59278210D01*
X44779185Y-59190609D01*
X44779172Y-59190602D01*
X44633501Y-59130264D01*
X44633489Y-59130261D01*
X44478845Y-59099500D01*
X44478842Y-59099500D01*
X44321158Y-59099500D01*
X44321155Y-59099500D01*
X44166510Y-59130261D01*
X44166498Y-59130264D01*
X44020827Y-59190602D01*
X44020814Y-59190609D01*
X43889711Y-59278210D01*
X43889707Y-59278213D01*
X43778213Y-59389707D01*
X43778210Y-59389711D01*
X43690609Y-59520814D01*
X43690602Y-59520827D01*
X43630264Y-59666498D01*
X43630261Y-59666510D01*
X43599500Y-59821153D01*
X41260925Y-59821153D01*
X41271789Y-59810289D01*
X41299999Y-59768068D01*
X41314629Y-59746175D01*
X41359390Y-59679185D01*
X41359390Y-59679184D01*
X41359394Y-59679179D01*
X41419737Y-59533497D01*
X41450500Y-59378842D01*
X41450500Y-59221158D01*
X41450500Y-59221155D01*
X41450499Y-59221153D01*
X41432137Y-59128842D01*
X41419737Y-59066503D01*
X41380242Y-58971153D01*
X41359397Y-58920827D01*
X41359390Y-58920814D01*
X41271789Y-58789711D01*
X41271786Y-58789707D01*
X41160292Y-58678213D01*
X41160288Y-58678210D01*
X41029185Y-58590609D01*
X41029172Y-58590602D01*
X40883501Y-58530264D01*
X40883489Y-58530261D01*
X40728845Y-58499500D01*
X40728842Y-58499500D01*
X40666259Y-58499500D01*
X40599220Y-58479815D01*
X40553465Y-58427011D01*
X40551698Y-58422952D01*
X40509397Y-58320827D01*
X40509390Y-58320814D01*
X40421789Y-58189711D01*
X40421786Y-58189707D01*
X40310292Y-58078213D01*
X40310288Y-58078210D01*
X40179185Y-57990609D01*
X40179172Y-57990602D01*
X40033501Y-57930264D01*
X40033489Y-57930261D01*
X39878845Y-57899500D01*
X39878842Y-57899500D01*
X39721158Y-57899500D01*
X39721155Y-57899500D01*
X39566510Y-57930261D01*
X39566498Y-57930264D01*
X39420827Y-57990602D01*
X39420814Y-57990609D01*
X39289711Y-58078210D01*
X39289707Y-58078213D01*
X39178213Y-58189707D01*
X39178210Y-58189711D01*
X39090609Y-58320814D01*
X39090602Y-58320827D01*
X39030264Y-58466498D01*
X39030261Y-58466510D01*
X38999500Y-58621153D01*
X38999500Y-58778846D01*
X39030261Y-58933489D01*
X39030264Y-58933501D01*
X39090602Y-59079172D01*
X39090609Y-59079185D01*
X39178210Y-59210288D01*
X39178213Y-59210292D01*
X39289707Y-59321786D01*
X39289711Y-59321789D01*
X39420814Y-59409390D01*
X39420827Y-59409397D01*
X39566498Y-59469735D01*
X39566503Y-59469737D01*
X39721153Y-59500499D01*
X39721156Y-59500500D01*
X39721158Y-59500500D01*
X39783741Y-59500500D01*
X39799012Y-59504984D01*
X39814919Y-59504484D01*
X39831847Y-59514625D01*
X39850780Y-59520185D01*
X39861924Y-59532644D01*
X39874856Y-59540392D01*
X39889923Y-59563948D01*
X39894861Y-59569469D01*
X39896706Y-59573195D01*
X39940606Y-59679179D01*
X39973785Y-59728835D01*
X39977348Y-59736029D01*
X39982069Y-59762855D01*
X39990208Y-59788847D01*
X39988037Y-59796758D01*
X39989460Y-59804841D01*
X39978928Y-59829963D01*
X39971723Y-59856227D01*
X39965619Y-59861709D01*
X39962447Y-59869277D01*
X39940006Y-59884715D01*
X39919744Y-59902917D01*
X39904968Y-59908822D01*
X39904885Y-59908880D01*
X39904819Y-59908882D01*
X39904551Y-59908989D01*
X39762555Y-59955127D01*
X39762552Y-59955128D01*
X39762550Y-59955129D01*
X39608211Y-60033768D01*
X39468073Y-60135585D01*
X39360166Y-60243492D01*
X39298843Y-60276976D01*
X39229151Y-60271992D01*
X39173218Y-60230120D01*
X39166946Y-60220906D01*
X39127317Y-60156656D01*
X39003345Y-60032684D01*
X38854124Y-59940643D01*
X38854119Y-59940641D01*
X38687697Y-59885494D01*
X38687690Y-59885493D01*
X38584986Y-59875000D01*
X38435000Y-59875000D01*
X38435000Y-60969670D01*
X38415255Y-60949925D01*
X38329745Y-60900556D01*
X38234370Y-60875000D01*
X38135630Y-60875000D01*
X38040255Y-60900556D01*
X37954745Y-60949925D01*
X37935000Y-60969670D01*
X37935000Y-59875000D01*
X37785027Y-59875000D01*
X37785012Y-59875001D01*
X37682302Y-59885494D01*
X37515880Y-59940641D01*
X37515875Y-59940643D01*
X37366654Y-60032684D01*
X37242684Y-60156654D01*
X37150643Y-60305875D01*
X37150641Y-60305880D01*
X37095494Y-60472302D01*
X37095493Y-60472309D01*
X37085000Y-60575013D01*
X37085000Y-61000000D01*
X37904670Y-61000000D01*
X37884925Y-61019745D01*
X37835556Y-61105255D01*
X37810000Y-61200630D01*
X37810000Y-61299370D01*
X37835556Y-61394745D01*
X37884925Y-61480255D01*
X37904670Y-61500000D01*
X37085001Y-61500000D01*
X37085001Y-61924986D01*
X37095494Y-62027697D01*
X37150641Y-62194119D01*
X37150643Y-62194124D01*
X37242684Y-62343345D01*
X37366654Y-62467315D01*
X37515875Y-62559356D01*
X37515880Y-62559358D01*
X37682302Y-62614505D01*
X37682309Y-62614506D01*
X37785019Y-62624999D01*
X37934999Y-62624999D01*
X37935000Y-62624998D01*
X37935000Y-61530330D01*
X37954745Y-61550075D01*
X38040255Y-61599444D01*
X38135630Y-61625000D01*
X38234370Y-61625000D01*
X38329745Y-61599444D01*
X38415255Y-61550075D01*
X38435000Y-61530330D01*
X38435000Y-62624999D01*
X38584972Y-62624999D01*
X38584986Y-62624998D01*
X38687697Y-62614505D01*
X38854119Y-62559358D01*
X38854130Y-62559353D01*
X38986024Y-62478000D01*
X39053416Y-62459559D01*
X39120080Y-62480481D01*
X39164849Y-62534123D01*
X39173511Y-62603454D01*
X39165683Y-62630989D01*
X39130263Y-62716503D01*
X39130261Y-62716510D01*
X39099500Y-62871153D01*
X39099500Y-63028846D01*
X39130261Y-63183489D01*
X39130264Y-63183501D01*
X39190602Y-63329172D01*
X39190609Y-63329185D01*
X39278210Y-63460288D01*
X39278213Y-63460292D01*
X39389707Y-63571786D01*
X39389711Y-63571789D01*
X39520814Y-63659390D01*
X39520827Y-63659397D01*
X39620441Y-63700658D01*
X39674845Y-63744499D01*
X39696910Y-63810793D01*
X39692588Y-63827724D01*
X39692768Y-63827739D01*
X39688282Y-63884728D01*
X40320591Y-64517037D01*
X40257007Y-64534075D01*
X40142993Y-64599901D01*
X40049901Y-64692993D01*
X39984075Y-64807007D01*
X39967037Y-64870591D01*
X39296818Y-64200372D01*
X39263333Y-64139049D01*
X39260499Y-64112691D01*
X39260499Y-64102129D01*
X39260498Y-64102123D01*
X39260497Y-64102116D01*
X39254091Y-64042517D01*
X39253044Y-64039711D01*
X39203797Y-63907671D01*
X39203793Y-63907664D01*
X39117547Y-63792455D01*
X39117544Y-63792452D01*
X39002335Y-63706206D01*
X39002328Y-63706202D01*
X38867482Y-63655908D01*
X38867483Y-63655908D01*
X38807883Y-63649501D01*
X38807881Y-63649500D01*
X38807873Y-63649500D01*
X38807864Y-63649500D01*
X37012129Y-63649500D01*
X37012123Y-63649501D01*
X36952516Y-63655908D01*
X36817671Y-63706202D01*
X36817664Y-63706206D01*
X36702455Y-63792452D01*
X36702452Y-63792455D01*
X36616206Y-63907664D01*
X36616202Y-63907671D01*
X36565908Y-64042517D01*
X36563329Y-64066510D01*
X36559501Y-64102123D01*
X36559500Y-64102135D01*
X35400500Y-64102135D01*
X35400500Y-56553439D01*
X35420185Y-56486400D01*
X35472989Y-56440645D01*
X35542147Y-56430701D01*
X35605703Y-56459726D01*
X35627602Y-56484548D01*
X35678210Y-56560288D01*
X35678213Y-56560292D01*
X35789707Y-56671786D01*
X35789711Y-56671789D01*
X35920814Y-56759390D01*
X35920827Y-56759397D01*
X36044951Y-56810810D01*
X36066503Y-56819737D01*
X36171398Y-56840602D01*
X36221153Y-56850499D01*
X36221156Y-56850500D01*
X36221158Y-56850500D01*
X36378844Y-56850500D01*
X36378845Y-56850499D01*
X36533497Y-56819737D01*
X36540590Y-56816798D01*
X36610058Y-56809329D01*
X36672538Y-56840602D01*
X36702605Y-56883906D01*
X36732673Y-56956496D01*
X36732678Y-56956506D01*
X36820279Y-57087609D01*
X36820282Y-57087613D01*
X36931776Y-57199107D01*
X36931780Y-57199110D01*
X37062883Y-57286711D01*
X37062896Y-57286718D01*
X37164594Y-57328842D01*
X37208572Y-57347058D01*
X37363222Y-57377820D01*
X37363225Y-57377821D01*
X37363227Y-57377821D01*
X37520913Y-57377821D01*
X37520914Y-57377820D01*
X37675566Y-57347058D01*
X37821248Y-57286715D01*
X37952358Y-57199110D01*
X38063858Y-57087610D01*
X38151463Y-56956500D01*
X38211806Y-56810818D01*
X38242569Y-56656163D01*
X38242569Y-56498479D01*
X38242569Y-56498476D01*
X38242568Y-56498474D01*
X38234860Y-56459726D01*
X38211806Y-56343824D01*
X38151463Y-56198142D01*
X38151459Y-56198135D01*
X38133430Y-56171153D01*
X39949500Y-56171153D01*
X39949500Y-56328846D01*
X39980261Y-56483489D01*
X39980264Y-56483501D01*
X40040602Y-56629172D01*
X40040609Y-56629185D01*
X40128210Y-56760288D01*
X40128213Y-56760292D01*
X40239707Y-56871786D01*
X40239711Y-56871789D01*
X40370814Y-56959390D01*
X40370827Y-56959397D01*
X40508683Y-57016498D01*
X40516503Y-57019737D01*
X40671153Y-57050499D01*
X40671156Y-57050500D01*
X40671158Y-57050500D01*
X40828844Y-57050500D01*
X40828845Y-57050499D01*
X40983497Y-57019737D01*
X41129179Y-56959394D01*
X41260289Y-56871789D01*
X41371789Y-56760289D01*
X41459394Y-56629179D01*
X41519737Y-56483497D01*
X41550500Y-56328842D01*
X41550500Y-56171158D01*
X41550500Y-56171155D01*
X41550499Y-56171153D01*
X41520595Y-56020816D01*
X41519737Y-56016503D01*
X41494482Y-55955531D01*
X41459397Y-55870827D01*
X41459390Y-55870814D01*
X41371789Y-55739711D01*
X41371786Y-55739707D01*
X41260292Y-55628213D01*
X41260288Y-55628210D01*
X41129185Y-55540609D01*
X41129172Y-55540602D01*
X40983501Y-55480264D01*
X40983489Y-55480261D01*
X40828845Y-55449500D01*
X40828842Y-55449500D01*
X40671158Y-55449500D01*
X40671155Y-55449500D01*
X40516510Y-55480261D01*
X40516498Y-55480264D01*
X40370827Y-55540602D01*
X40370814Y-55540609D01*
X40239711Y-55628210D01*
X40239707Y-55628213D01*
X40128213Y-55739707D01*
X40128210Y-55739711D01*
X40040609Y-55870814D01*
X40040602Y-55870827D01*
X39980264Y-56016498D01*
X39980261Y-56016510D01*
X39949500Y-56171153D01*
X38133430Y-56171153D01*
X38063858Y-56067032D01*
X38063855Y-56067028D01*
X37952361Y-55955534D01*
X37952357Y-55955531D01*
X37821254Y-55867930D01*
X37821241Y-55867923D01*
X37675570Y-55807585D01*
X37675558Y-55807582D01*
X37520914Y-55776821D01*
X37520911Y-55776821D01*
X37363227Y-55776821D01*
X37363224Y-55776821D01*
X37208580Y-55807581D01*
X37208575Y-55807583D01*
X37208573Y-55807583D01*
X37208572Y-55807584D01*
X37201471Y-55810525D01*
X37132004Y-55817991D01*
X37069525Y-55786714D01*
X37039463Y-55743414D01*
X37009397Y-55670827D01*
X37009390Y-55670814D01*
X36921789Y-55539711D01*
X36921786Y-55539707D01*
X36810292Y-55428213D01*
X36810288Y-55428210D01*
X36679185Y-55340609D01*
X36679172Y-55340602D01*
X36533501Y-55280264D01*
X36533489Y-55280261D01*
X36378845Y-55249500D01*
X36378842Y-55249500D01*
X36221158Y-55249500D01*
X36221155Y-55249500D01*
X36066510Y-55280261D01*
X36066498Y-55280264D01*
X35920827Y-55340602D01*
X35920814Y-55340609D01*
X35789711Y-55428210D01*
X35789707Y-55428213D01*
X35678213Y-55539707D01*
X35678210Y-55539711D01*
X35627602Y-55615451D01*
X35573989Y-55660256D01*
X35504664Y-55668963D01*
X35441637Y-55638808D01*
X35404918Y-55579365D01*
X35400500Y-55546560D01*
X35400500Y-52681941D01*
X35420185Y-52614902D01*
X35472989Y-52569147D01*
X35542147Y-52559203D01*
X35605703Y-52588228D01*
X35612181Y-52594260D01*
X35689707Y-52671786D01*
X35689711Y-52671789D01*
X35820814Y-52759390D01*
X35820827Y-52759397D01*
X35966498Y-52819735D01*
X35966503Y-52819737D01*
X36121153Y-52850499D01*
X36121156Y-52850500D01*
X36121158Y-52850500D01*
X36278844Y-52850500D01*
X36278845Y-52850499D01*
X36433497Y-52819737D01*
X36579179Y-52759394D01*
X36710289Y-52671789D01*
X36821789Y-52560289D01*
X36909394Y-52429179D01*
X36969737Y-52283497D01*
X37000500Y-52128842D01*
X37000500Y-51971158D01*
X37000500Y-51971155D01*
X37000499Y-51971153D01*
X36994244Y-51939707D01*
X36969737Y-51816503D01*
X36958030Y-51788239D01*
X36909397Y-51670827D01*
X36909390Y-51670814D01*
X36821789Y-51539711D01*
X36821786Y-51539707D01*
X36710292Y-51428213D01*
X36710288Y-51428210D01*
X36699727Y-51421153D01*
X37949500Y-51421153D01*
X37949500Y-51578846D01*
X37980261Y-51733489D01*
X37980264Y-51733501D01*
X38040602Y-51879172D01*
X38040609Y-51879185D01*
X38128210Y-52010288D01*
X38128213Y-52010292D01*
X38239707Y-52121786D01*
X38239711Y-52121789D01*
X38370814Y-52209390D01*
X38370827Y-52209397D01*
X38483556Y-52256090D01*
X38516503Y-52269737D01*
X38607568Y-52287851D01*
X38671153Y-52300499D01*
X38671156Y-52300500D01*
X38671158Y-52300500D01*
X38828843Y-52300500D01*
X38843335Y-52297617D01*
X38892431Y-52287851D01*
X38962021Y-52294078D01*
X39017199Y-52336940D01*
X39040444Y-52402829D01*
X39038239Y-52433659D01*
X39025591Y-52497244D01*
X39025591Y-52654937D01*
X39056352Y-52809580D01*
X39056355Y-52809592D01*
X39116693Y-52955263D01*
X39116700Y-52955276D01*
X39204301Y-53086379D01*
X39204304Y-53086383D01*
X39315798Y-53197877D01*
X39315802Y-53197880D01*
X39446905Y-53285481D01*
X39446918Y-53285488D01*
X39554251Y-53329946D01*
X39592594Y-53345828D01*
X39747244Y-53376590D01*
X39747247Y-53376591D01*
X39805216Y-53376591D01*
X39872255Y-53396276D01*
X39918010Y-53449080D01*
X39927954Y-53518238D01*
X39908318Y-53569482D01*
X39840609Y-53670814D01*
X39840602Y-53670827D01*
X39780264Y-53816498D01*
X39780261Y-53816510D01*
X39749500Y-53971153D01*
X39749500Y-54128846D01*
X39780261Y-54283489D01*
X39780264Y-54283501D01*
X39840602Y-54429172D01*
X39840609Y-54429185D01*
X39928210Y-54560288D01*
X39928213Y-54560292D01*
X40039707Y-54671786D01*
X40039711Y-54671789D01*
X40170814Y-54759390D01*
X40170827Y-54759397D01*
X40308683Y-54816498D01*
X40316503Y-54819737D01*
X40471153Y-54850499D01*
X40471156Y-54850500D01*
X40471158Y-54850500D01*
X40628844Y-54850500D01*
X40628845Y-54850499D01*
X40783497Y-54819737D01*
X40929179Y-54759394D01*
X41060289Y-54671789D01*
X41171789Y-54560289D01*
X41259394Y-54429179D01*
X41319737Y-54283497D01*
X41350500Y-54128842D01*
X41350500Y-53971158D01*
X41350500Y-53971155D01*
X41350499Y-53971153D01*
X41348378Y-53960490D01*
X42695235Y-53960490D01*
X42695235Y-54118183D01*
X42725996Y-54272826D01*
X42725999Y-54272838D01*
X42786337Y-54418508D01*
X42786344Y-54418521D01*
X42810030Y-54453969D01*
X42830908Y-54520647D01*
X42812423Y-54588027D01*
X42810030Y-54591751D01*
X42790609Y-54620815D01*
X42790602Y-54620828D01*
X42730264Y-54766498D01*
X42730261Y-54766510D01*
X42699500Y-54921153D01*
X42699500Y-55078846D01*
X42730261Y-55233489D01*
X42730264Y-55233501D01*
X42790602Y-55379172D01*
X42790609Y-55379185D01*
X42878210Y-55510288D01*
X42878213Y-55510292D01*
X42989707Y-55621786D01*
X42989711Y-55621789D01*
X43120814Y-55709390D01*
X43120827Y-55709397D01*
X43220060Y-55750500D01*
X43266503Y-55769737D01*
X43297985Y-55775999D01*
X43359895Y-55808382D01*
X43394470Y-55869097D01*
X43390731Y-55938867D01*
X43376897Y-55966506D01*
X43340608Y-56020816D01*
X43340602Y-56020827D01*
X43280264Y-56166498D01*
X43280261Y-56166510D01*
X43249500Y-56321153D01*
X43249500Y-56478846D01*
X43280261Y-56633489D01*
X43280264Y-56633501D01*
X43340602Y-56779172D01*
X43340609Y-56779185D01*
X43428210Y-56910288D01*
X43428213Y-56910292D01*
X43539707Y-57021786D01*
X43539711Y-57021789D01*
X43670814Y-57109390D01*
X43670827Y-57109397D01*
X43816498Y-57169735D01*
X43816503Y-57169737D01*
X43964155Y-57199107D01*
X43971153Y-57200499D01*
X43971156Y-57200500D01*
X43971158Y-57200500D01*
X44128844Y-57200500D01*
X44128845Y-57200499D01*
X44283497Y-57169737D01*
X44429179Y-57109394D01*
X44560289Y-57021789D01*
X44671789Y-56910289D01*
X44759394Y-56779179D01*
X44819737Y-56633497D01*
X44850500Y-56478842D01*
X44850500Y-56321158D01*
X44850500Y-56321155D01*
X44850499Y-56321153D01*
X45199500Y-56321153D01*
X45199500Y-56478846D01*
X45230261Y-56633489D01*
X45230264Y-56633501D01*
X45290602Y-56779172D01*
X45290609Y-56779185D01*
X45378210Y-56910288D01*
X45378213Y-56910292D01*
X45489707Y-57021786D01*
X45489711Y-57021789D01*
X45620814Y-57109390D01*
X45620827Y-57109397D01*
X45766498Y-57169735D01*
X45766503Y-57169737D01*
X45914155Y-57199107D01*
X45921153Y-57200499D01*
X45921156Y-57200500D01*
X45921158Y-57200500D01*
X46078844Y-57200500D01*
X46078845Y-57200499D01*
X46226378Y-57171153D01*
X49749500Y-57171153D01*
X49749500Y-57328846D01*
X49780261Y-57483489D01*
X49780264Y-57483501D01*
X49840602Y-57629172D01*
X49840609Y-57629185D01*
X49928210Y-57760288D01*
X49928213Y-57760292D01*
X50039707Y-57871786D01*
X50039711Y-57871789D01*
X50170814Y-57959390D01*
X50170827Y-57959397D01*
X50246181Y-57990609D01*
X50316503Y-58019737D01*
X50471153Y-58050499D01*
X50471156Y-58050500D01*
X50471158Y-58050500D01*
X50628844Y-58050500D01*
X50628845Y-58050499D01*
X50783497Y-58019737D01*
X50929179Y-57959394D01*
X51060289Y-57871789D01*
X51171789Y-57760289D01*
X51259394Y-57629179D01*
X51319737Y-57483497D01*
X51350500Y-57328842D01*
X51350500Y-57171158D01*
X51350500Y-57171155D01*
X51350499Y-57171153D01*
X51320788Y-57021789D01*
X51319737Y-57016503D01*
X51294883Y-56956500D01*
X51259397Y-56870827D01*
X51259390Y-56870814D01*
X51171789Y-56739711D01*
X51171786Y-56739707D01*
X51060292Y-56628213D01*
X51060288Y-56628210D01*
X50929185Y-56540609D01*
X50929172Y-56540602D01*
X50783501Y-56480264D01*
X50783489Y-56480261D01*
X50628845Y-56449500D01*
X50628842Y-56449500D01*
X50471158Y-56449500D01*
X50471155Y-56449500D01*
X50316510Y-56480261D01*
X50316498Y-56480264D01*
X50170827Y-56540602D01*
X50170814Y-56540609D01*
X50039711Y-56628210D01*
X50039707Y-56628213D01*
X49928213Y-56739707D01*
X49928210Y-56739711D01*
X49840609Y-56870814D01*
X49840602Y-56870827D01*
X49780264Y-57016498D01*
X49780261Y-57016510D01*
X49749500Y-57171153D01*
X46226378Y-57171153D01*
X46233497Y-57169737D01*
X46379179Y-57109394D01*
X46411777Y-57087613D01*
X46450164Y-57061964D01*
X46481224Y-57041209D01*
X46510289Y-57021789D01*
X46621789Y-56910289D01*
X46709394Y-56779179D01*
X46769737Y-56633497D01*
X46800500Y-56478842D01*
X46800500Y-56321158D01*
X46800500Y-56321155D01*
X46800499Y-56321153D01*
X46782204Y-56229179D01*
X46769737Y-56166503D01*
X46769735Y-56166498D01*
X46709397Y-56020827D01*
X46709390Y-56020814D01*
X46621789Y-55889711D01*
X46621786Y-55889707D01*
X46510292Y-55778213D01*
X46510288Y-55778210D01*
X46379185Y-55690609D01*
X46379172Y-55690602D01*
X46233501Y-55630264D01*
X46233489Y-55630261D01*
X46078845Y-55599500D01*
X46078842Y-55599500D01*
X45921158Y-55599500D01*
X45921155Y-55599500D01*
X45766510Y-55630261D01*
X45766498Y-55630264D01*
X45620827Y-55690602D01*
X45620814Y-55690609D01*
X45489711Y-55778210D01*
X45489707Y-55778213D01*
X45378213Y-55889707D01*
X45378210Y-55889711D01*
X45290609Y-56020814D01*
X45290602Y-56020827D01*
X45230264Y-56166498D01*
X45230261Y-56166510D01*
X45199500Y-56321153D01*
X44850499Y-56321153D01*
X44832204Y-56229179D01*
X44819737Y-56166503D01*
X44819735Y-56166498D01*
X44759397Y-56020827D01*
X44759390Y-56020814D01*
X44671789Y-55889711D01*
X44671786Y-55889707D01*
X44560292Y-55778213D01*
X44560288Y-55778210D01*
X44429185Y-55690609D01*
X44429172Y-55690602D01*
X44283501Y-55630264D01*
X44283491Y-55630261D01*
X44252013Y-55624000D01*
X44223963Y-55609327D01*
X44195153Y-55596226D01*
X44193236Y-55593254D01*
X44190102Y-55591615D01*
X44174433Y-55564099D01*
X44157284Y-55537508D01*
X44157278Y-55533972D01*
X44155528Y-55530899D01*
X44157222Y-55499284D01*
X44157172Y-55467639D01*
X44159145Y-55463407D01*
X44159268Y-55461130D01*
X44171782Y-55435511D01*
X44172424Y-55434507D01*
X44209394Y-55379179D01*
X44212208Y-55372383D01*
X44218136Y-55363128D01*
X44236520Y-55347145D01*
X44251796Y-55328174D01*
X44262416Y-55324634D01*
X44270867Y-55317288D01*
X44294974Y-55313782D01*
X44318081Y-55306081D01*
X44328929Y-55308845D01*
X44340009Y-55307234D01*
X44362180Y-55317316D01*
X44385787Y-55323331D01*
X44400457Y-55334723D01*
X44403611Y-55336157D01*
X44404921Y-55338189D01*
X44410240Y-55342319D01*
X44448457Y-55380536D01*
X44448461Y-55380539D01*
X44579564Y-55468140D01*
X44579577Y-55468147D01*
X44681326Y-55510292D01*
X44725253Y-55528487D01*
X44830892Y-55549500D01*
X44879903Y-55559249D01*
X44879906Y-55559250D01*
X44879908Y-55559250D01*
X45037594Y-55559250D01*
X45037595Y-55559249D01*
X45192247Y-55528487D01*
X45308676Y-55480261D01*
X45337922Y-55468147D01*
X45337922Y-55468146D01*
X45337929Y-55468144D01*
X45469039Y-55380539D01*
X45580539Y-55269039D01*
X45668144Y-55137929D01*
X45728487Y-54992247D01*
X45759250Y-54837592D01*
X45759250Y-54679908D01*
X45757444Y-54670827D01*
X45751164Y-54639256D01*
X45751164Y-54639253D01*
X45747564Y-54621153D01*
X46099500Y-54621153D01*
X46099500Y-54778846D01*
X46130261Y-54933489D01*
X46130264Y-54933501D01*
X46190602Y-55079172D01*
X46190609Y-55079185D01*
X46278210Y-55210288D01*
X46278213Y-55210292D01*
X46389707Y-55321786D01*
X46389711Y-55321789D01*
X46520814Y-55409390D01*
X46520827Y-55409397D01*
X46651221Y-55463407D01*
X46666503Y-55469737D01*
X46815045Y-55499284D01*
X46821153Y-55500499D01*
X46821156Y-55500500D01*
X46821158Y-55500500D01*
X46978844Y-55500500D01*
X46978845Y-55500499D01*
X47133497Y-55469737D01*
X47279179Y-55409394D01*
X47410289Y-55321789D01*
X47521789Y-55210289D01*
X47609394Y-55079179D01*
X47669737Y-54933497D01*
X47682138Y-54871153D01*
X51799500Y-54871153D01*
X51799500Y-55028846D01*
X51830261Y-55183489D01*
X51830264Y-55183501D01*
X51890602Y-55329172D01*
X51890609Y-55329185D01*
X51978210Y-55460288D01*
X51978213Y-55460292D01*
X52089707Y-55571786D01*
X52089711Y-55571789D01*
X52220814Y-55659390D01*
X52220827Y-55659397D01*
X52366498Y-55719735D01*
X52366503Y-55719737D01*
X52485535Y-55743414D01*
X52521153Y-55750499D01*
X52521156Y-55750500D01*
X52521158Y-55750500D01*
X52678844Y-55750500D01*
X52678845Y-55750499D01*
X52833497Y-55719737D01*
X52951592Y-55670821D01*
X52979172Y-55659397D01*
X52979172Y-55659396D01*
X52979179Y-55659394D01*
X53110289Y-55571789D01*
X53221789Y-55460289D01*
X53309394Y-55329179D01*
X53369737Y-55183497D01*
X53400500Y-55028842D01*
X53400500Y-54971153D01*
X57199500Y-54971153D01*
X57199500Y-55128846D01*
X57230261Y-55283489D01*
X57230264Y-55283501D01*
X57290602Y-55429172D01*
X57290609Y-55429185D01*
X57378210Y-55560288D01*
X57378213Y-55560292D01*
X57384086Y-55566165D01*
X57417571Y-55627488D01*
X57418022Y-55678037D01*
X57399500Y-55771153D01*
X57399500Y-55928846D01*
X57430261Y-56083489D01*
X57430264Y-56083501D01*
X57490602Y-56229172D01*
X57490609Y-56229185D01*
X57578210Y-56360288D01*
X57578213Y-56360292D01*
X57689707Y-56471786D01*
X57689711Y-56471789D01*
X57820814Y-56559390D01*
X57820827Y-56559397D01*
X57966498Y-56619735D01*
X57966503Y-56619737D01*
X58121153Y-56650499D01*
X58121156Y-56650500D01*
X58121158Y-56650500D01*
X58278844Y-56650500D01*
X58278845Y-56650499D01*
X58433497Y-56619737D01*
X58579179Y-56559394D01*
X58710289Y-56471789D01*
X58821789Y-56360289D01*
X58849381Y-56318995D01*
X62449499Y-56318995D01*
X62476418Y-56454322D01*
X62476421Y-56454332D01*
X62529221Y-56581804D01*
X62529228Y-56581817D01*
X62605885Y-56696541D01*
X62605888Y-56696545D01*
X62703454Y-56794111D01*
X62703458Y-56794114D01*
X62818182Y-56870771D01*
X62818195Y-56870778D01*
X62945667Y-56923578D01*
X62945672Y-56923580D01*
X62945676Y-56923580D01*
X62945677Y-56923581D01*
X63081004Y-56950500D01*
X63081007Y-56950500D01*
X63218995Y-56950500D01*
X63310041Y-56932389D01*
X63354328Y-56923580D01*
X63479370Y-56871786D01*
X63481804Y-56870778D01*
X63481804Y-56870777D01*
X63481811Y-56870775D01*
X63596542Y-56794114D01*
X63694114Y-56696542D01*
X63770775Y-56581811D01*
X63823580Y-56454328D01*
X63842286Y-56360288D01*
X63850500Y-56318995D01*
X63850500Y-56181004D01*
X63823581Y-56045677D01*
X63823580Y-56045676D01*
X63823580Y-56045672D01*
X63813289Y-56020827D01*
X63770778Y-55918195D01*
X63770771Y-55918182D01*
X63694114Y-55803458D01*
X63694111Y-55803454D01*
X63596545Y-55705888D01*
X63596541Y-55705885D01*
X63481817Y-55629228D01*
X63481804Y-55629221D01*
X63354332Y-55576421D01*
X63354322Y-55576418D01*
X63218995Y-55549500D01*
X63218993Y-55549500D01*
X63081007Y-55549500D01*
X63081005Y-55549500D01*
X62945677Y-55576418D01*
X62945667Y-55576421D01*
X62818195Y-55629221D01*
X62818182Y-55629228D01*
X62703458Y-55705885D01*
X62703454Y-55705888D01*
X62605888Y-55803454D01*
X62605885Y-55803458D01*
X62529228Y-55918182D01*
X62529221Y-55918195D01*
X62476421Y-56045667D01*
X62476418Y-56045677D01*
X62449500Y-56181004D01*
X62449500Y-56181007D01*
X62449500Y-56318993D01*
X62449500Y-56318995D01*
X62449499Y-56318995D01*
X58849381Y-56318995D01*
X58909394Y-56229179D01*
X58909397Y-56229172D01*
X58951526Y-56127463D01*
X58951526Y-56127462D01*
X58969737Y-56083497D01*
X59000500Y-55928842D01*
X59000500Y-55771158D01*
X59000500Y-55771155D01*
X58980033Y-55668264D01*
X58986260Y-55598672D01*
X59029123Y-55543495D01*
X59095012Y-55520250D01*
X59163009Y-55536318D01*
X59204752Y-55575181D01*
X59228210Y-55610288D01*
X59228213Y-55610292D01*
X59339707Y-55721786D01*
X59339711Y-55721789D01*
X59470814Y-55809390D01*
X59470827Y-55809397D01*
X59612133Y-55867927D01*
X59616503Y-55869737D01*
X59771153Y-55900499D01*
X59771156Y-55900500D01*
X59771158Y-55900500D01*
X59928844Y-55900500D01*
X59928845Y-55900499D01*
X60083497Y-55869737D01*
X60229179Y-55809394D01*
X60360289Y-55721789D01*
X60471789Y-55610289D01*
X60559394Y-55479179D01*
X60563967Y-55468140D01*
X60580102Y-55429185D01*
X60619737Y-55333497D01*
X60650500Y-55178842D01*
X60650500Y-55021158D01*
X60650500Y-55021155D01*
X60650499Y-55021153D01*
X60633061Y-54933489D01*
X60619737Y-54866503D01*
X60619735Y-54866498D01*
X60559397Y-54720827D01*
X60559393Y-54720820D01*
X60556513Y-54716510D01*
X60491284Y-54618888D01*
X60470408Y-54552214D01*
X60488892Y-54484834D01*
X60491257Y-54481152D01*
X60559394Y-54379179D01*
X60619737Y-54233497D01*
X60650500Y-54078842D01*
X60650500Y-53921158D01*
X60650500Y-53921155D01*
X60650499Y-53921153D01*
X60629684Y-53816510D01*
X60619737Y-53766503D01*
X60619735Y-53766498D01*
X60559397Y-53620827D01*
X60559390Y-53620814D01*
X60471789Y-53489711D01*
X60471786Y-53489707D01*
X60360292Y-53378213D01*
X60360284Y-53378207D01*
X60294589Y-53334311D01*
X60281788Y-53318995D01*
X62449499Y-53318995D01*
X62476418Y-53454322D01*
X62476421Y-53454332D01*
X62529221Y-53581804D01*
X62529228Y-53581817D01*
X62605885Y-53696541D01*
X62605888Y-53696545D01*
X62703454Y-53794111D01*
X62703458Y-53794114D01*
X62818182Y-53870771D01*
X62818195Y-53870778D01*
X62939825Y-53921158D01*
X62945672Y-53923580D01*
X62945676Y-53923580D01*
X62945677Y-53923581D01*
X63081004Y-53950500D01*
X63081007Y-53950500D01*
X63218995Y-53950500D01*
X63310041Y-53932389D01*
X63354328Y-53923580D01*
X63481811Y-53870775D01*
X63596542Y-53794114D01*
X63694114Y-53696542D01*
X63770775Y-53581811D01*
X63823580Y-53454328D01*
X63835127Y-53396276D01*
X63850500Y-53318995D01*
X63850500Y-53181004D01*
X63823581Y-53045677D01*
X63823580Y-53045676D01*
X63823580Y-53045672D01*
X63795899Y-52978844D01*
X63770778Y-52918195D01*
X63770771Y-52918182D01*
X63694114Y-52803458D01*
X63694111Y-52803454D01*
X63596545Y-52705888D01*
X63596541Y-52705885D01*
X63481817Y-52629228D01*
X63481804Y-52629221D01*
X63354332Y-52576421D01*
X63354322Y-52576418D01*
X63218995Y-52549500D01*
X63218993Y-52549500D01*
X63081007Y-52549500D01*
X63081005Y-52549500D01*
X62945677Y-52576418D01*
X62945667Y-52576421D01*
X62818195Y-52629221D01*
X62818182Y-52629228D01*
X62703458Y-52705885D01*
X62703454Y-52705888D01*
X62605888Y-52803454D01*
X62605885Y-52803458D01*
X62529228Y-52918182D01*
X62529221Y-52918195D01*
X62476421Y-53045667D01*
X62476418Y-53045677D01*
X62449500Y-53181004D01*
X62449500Y-53181007D01*
X62449500Y-53318993D01*
X62449500Y-53318995D01*
X62449499Y-53318995D01*
X60281788Y-53318995D01*
X60274259Y-53309986D01*
X60252633Y-53286789D01*
X60252013Y-53283367D01*
X60249783Y-53280699D01*
X60245831Y-53249233D01*
X60240181Y-53218038D01*
X60241341Y-53213485D01*
X60241076Y-53211374D01*
X60248884Y-53183840D01*
X60269737Y-53133497D01*
X60300500Y-52978842D01*
X60300500Y-52821158D01*
X60300500Y-52821155D01*
X60300499Y-52821153D01*
X60277571Y-52705886D01*
X60269737Y-52666503D01*
X60264946Y-52654937D01*
X60209397Y-52520827D01*
X60209390Y-52520814D01*
X60121789Y-52389711D01*
X60121786Y-52389707D01*
X60010292Y-52278213D01*
X60010288Y-52278210D01*
X59879185Y-52190609D01*
X59879172Y-52190602D01*
X59733501Y-52130264D01*
X59733489Y-52130261D01*
X59578845Y-52099500D01*
X59578842Y-52099500D01*
X59421158Y-52099500D01*
X59421155Y-52099500D01*
X59266510Y-52130261D01*
X59266498Y-52130264D01*
X59120827Y-52190602D01*
X59120814Y-52190609D01*
X58989711Y-52278210D01*
X58989707Y-52278213D01*
X58878213Y-52389707D01*
X58878210Y-52389711D01*
X58790609Y-52520814D01*
X58790602Y-52520827D01*
X58730264Y-52666498D01*
X58730261Y-52666510D01*
X58699500Y-52821153D01*
X58699500Y-52978846D01*
X58730261Y-53133489D01*
X58730264Y-53133501D01*
X58790602Y-53279172D01*
X58790609Y-53279185D01*
X58878210Y-53410288D01*
X58878213Y-53410292D01*
X58989708Y-53521787D01*
X58989711Y-53521789D01*
X59055411Y-53565688D01*
X59100216Y-53619299D01*
X59108923Y-53688624D01*
X59101081Y-53716242D01*
X59080264Y-53766498D01*
X59080261Y-53766510D01*
X59049500Y-53921153D01*
X59049500Y-54078846D01*
X59080261Y-54233489D01*
X59080264Y-54233501D01*
X59140602Y-54379172D01*
X59140609Y-54379185D01*
X59208713Y-54481109D01*
X59229591Y-54547787D01*
X59211107Y-54615167D01*
X59208713Y-54618891D01*
X59140609Y-54720814D01*
X59140602Y-54720827D01*
X59080264Y-54866498D01*
X59080261Y-54866510D01*
X59049500Y-55021153D01*
X59049500Y-55178846D01*
X59069966Y-55281736D01*
X59069259Y-55289636D01*
X59072032Y-55297069D01*
X59066189Y-55323938D01*
X59063739Y-55351328D01*
X59058872Y-55357592D01*
X59057187Y-55365344D01*
X59037745Y-55384788D01*
X59020876Y-55406505D01*
X59013394Y-55409144D01*
X59007786Y-55414754D01*
X58980915Y-55420601D01*
X58954986Y-55429749D01*
X58947266Y-55427924D01*
X58939515Y-55429612D01*
X58913749Y-55420004D01*
X58886989Y-55413681D01*
X58879813Y-55407350D01*
X58874048Y-55405201D01*
X58857053Y-55387272D01*
X58849089Y-55380247D01*
X58847093Y-55377582D01*
X58821789Y-55339711D01*
X58809647Y-55327569D01*
X58804334Y-55320473D01*
X58795094Y-55295707D01*
X58782428Y-55272511D01*
X58782329Y-55261493D01*
X58779911Y-55255011D01*
X58782178Y-55244580D01*
X58781977Y-55221961D01*
X58800500Y-55128844D01*
X58800500Y-54971155D01*
X58800499Y-54971153D01*
X58769737Y-54816503D01*
X58754138Y-54778844D01*
X58709397Y-54670827D01*
X58709390Y-54670814D01*
X58621789Y-54539711D01*
X58621786Y-54539707D01*
X58510292Y-54428213D01*
X58510288Y-54428210D01*
X58379185Y-54340609D01*
X58379172Y-54340602D01*
X58233501Y-54280264D01*
X58233489Y-54280261D01*
X58078845Y-54249500D01*
X58078842Y-54249500D01*
X57921158Y-54249500D01*
X57921155Y-54249500D01*
X57766510Y-54280261D01*
X57766498Y-54280264D01*
X57620827Y-54340602D01*
X57620814Y-54340609D01*
X57489711Y-54428210D01*
X57489707Y-54428213D01*
X57378213Y-54539707D01*
X57378210Y-54539711D01*
X57290609Y-54670814D01*
X57290602Y-54670827D01*
X57230264Y-54816498D01*
X57230261Y-54816510D01*
X57199500Y-54971153D01*
X53400500Y-54971153D01*
X53400500Y-54871158D01*
X53400500Y-54871155D01*
X53400499Y-54871153D01*
X53379684Y-54766510D01*
X53369737Y-54716503D01*
X53350812Y-54670814D01*
X53309397Y-54570827D01*
X53309390Y-54570814D01*
X53221789Y-54439711D01*
X53221786Y-54439707D01*
X53110292Y-54328213D01*
X53110288Y-54328210D01*
X52979185Y-54240609D01*
X52979172Y-54240602D01*
X52833501Y-54180264D01*
X52833489Y-54180261D01*
X52678845Y-54149500D01*
X52678842Y-54149500D01*
X52521158Y-54149500D01*
X52521155Y-54149500D01*
X52366510Y-54180261D01*
X52366498Y-54180264D01*
X52220827Y-54240602D01*
X52220814Y-54240609D01*
X52089711Y-54328210D01*
X52089707Y-54328213D01*
X51978213Y-54439707D01*
X51978210Y-54439711D01*
X51890609Y-54570814D01*
X51890602Y-54570827D01*
X51830264Y-54716498D01*
X51830261Y-54716510D01*
X51799500Y-54871153D01*
X47682138Y-54871153D01*
X47686246Y-54850500D01*
X47688161Y-54840875D01*
X47688161Y-54840874D01*
X47700500Y-54778844D01*
X47700500Y-54621155D01*
X47700499Y-54621153D01*
X47699308Y-54615167D01*
X47669737Y-54466503D01*
X47664545Y-54453969D01*
X47609397Y-54320827D01*
X47609389Y-54320812D01*
X47591067Y-54293392D01*
X47570188Y-54226715D01*
X47588672Y-54159334D01*
X47640650Y-54112644D01*
X47694168Y-54100500D01*
X47828844Y-54100500D01*
X47828845Y-54100499D01*
X47983497Y-54069737D01*
X48129179Y-54009394D01*
X48260289Y-53921789D01*
X48371789Y-53810289D01*
X48459394Y-53679179D01*
X48462854Y-53670827D01*
X48499728Y-53581804D01*
X48519737Y-53533497D01*
X48550500Y-53378842D01*
X48550500Y-53221158D01*
X48550500Y-53221155D01*
X48550499Y-53221153D01*
X48542513Y-53181004D01*
X48519737Y-53066503D01*
X48483427Y-52978842D01*
X48459397Y-52920827D01*
X48459390Y-52920814D01*
X48371789Y-52789711D01*
X48371786Y-52789707D01*
X48260292Y-52678213D01*
X48260288Y-52678210D01*
X48129185Y-52590609D01*
X48129172Y-52590602D01*
X47983501Y-52530264D01*
X47983489Y-52530261D01*
X47828845Y-52499500D01*
X47828842Y-52499500D01*
X47671158Y-52499500D01*
X47671155Y-52499500D01*
X47516510Y-52530261D01*
X47516498Y-52530264D01*
X47370827Y-52590602D01*
X47370814Y-52590609D01*
X47239711Y-52678210D01*
X47239707Y-52678213D01*
X47128213Y-52789707D01*
X47128210Y-52789711D01*
X47040609Y-52920814D01*
X47040602Y-52920827D01*
X46980264Y-53066498D01*
X46980261Y-53066510D01*
X46949500Y-53221153D01*
X46949500Y-53378846D01*
X46980261Y-53533489D01*
X46980264Y-53533501D01*
X47040602Y-53679172D01*
X47040610Y-53679187D01*
X47058933Y-53706608D01*
X47079812Y-53773285D01*
X47061328Y-53840666D01*
X47009350Y-53887356D01*
X46955832Y-53899500D01*
X46821155Y-53899500D01*
X46666510Y-53930261D01*
X46666498Y-53930264D01*
X46520827Y-53990602D01*
X46520814Y-53990609D01*
X46389711Y-54078210D01*
X46389707Y-54078213D01*
X46278213Y-54189707D01*
X46278210Y-54189711D01*
X46190609Y-54320814D01*
X46190602Y-54320827D01*
X46130264Y-54466498D01*
X46130261Y-54466510D01*
X46099500Y-54621153D01*
X45747564Y-54621153D01*
X45728488Y-54525258D01*
X45728487Y-54525257D01*
X45728487Y-54525253D01*
X45726579Y-54520647D01*
X45668147Y-54379577D01*
X45668140Y-54379564D01*
X45580539Y-54248461D01*
X45580536Y-54248457D01*
X45469042Y-54136963D01*
X45469038Y-54136960D01*
X45337935Y-54049359D01*
X45337922Y-54049352D01*
X45192251Y-53989014D01*
X45192239Y-53989011D01*
X45037595Y-53958250D01*
X45037592Y-53958250D01*
X44879908Y-53958250D01*
X44879905Y-53958250D01*
X44725260Y-53989011D01*
X44725248Y-53989014D01*
X44579577Y-54049352D01*
X44579564Y-54049359D01*
X44489126Y-54109789D01*
X44422449Y-54130667D01*
X44355068Y-54112183D01*
X44308378Y-54060204D01*
X44296235Y-54006687D01*
X44296235Y-53960492D01*
X44296234Y-53960490D01*
X44284102Y-53899500D01*
X44265472Y-53805840D01*
X44260614Y-53794111D01*
X44205132Y-53660164D01*
X44205125Y-53660151D01*
X44117524Y-53529048D01*
X44117521Y-53529044D01*
X44006027Y-53417550D01*
X44006023Y-53417547D01*
X43874920Y-53329946D01*
X43874907Y-53329939D01*
X43729236Y-53269601D01*
X43729224Y-53269598D01*
X43574580Y-53238837D01*
X43574577Y-53238837D01*
X43416893Y-53238837D01*
X43416890Y-53238837D01*
X43262245Y-53269598D01*
X43262233Y-53269601D01*
X43116562Y-53329939D01*
X43116549Y-53329946D01*
X42985446Y-53417547D01*
X42985442Y-53417550D01*
X42873948Y-53529044D01*
X42873945Y-53529048D01*
X42786344Y-53660151D01*
X42786337Y-53660164D01*
X42725999Y-53805835D01*
X42725996Y-53805847D01*
X42695235Y-53960490D01*
X41348378Y-53960490D01*
X41336246Y-53899500D01*
X41319737Y-53816503D01*
X41301836Y-53773285D01*
X41259397Y-53670827D01*
X41259390Y-53670814D01*
X41171789Y-53539711D01*
X41171786Y-53539707D01*
X41060292Y-53428213D01*
X41060288Y-53428210D01*
X40929185Y-53340609D01*
X40929172Y-53340602D01*
X40783501Y-53280264D01*
X40783489Y-53280261D01*
X40628845Y-53249500D01*
X40628842Y-53249500D01*
X40570875Y-53249500D01*
X40503836Y-53229815D01*
X40458081Y-53177011D01*
X40448137Y-53107853D01*
X40467773Y-53056609D01*
X40535481Y-52955276D01*
X40535481Y-52955275D01*
X40535485Y-52955270D01*
X40595828Y-52809588D01*
X40626591Y-52654933D01*
X40626591Y-52497249D01*
X40626591Y-52497246D01*
X40606578Y-52396638D01*
X40601509Y-52371153D01*
X55499500Y-52371153D01*
X55499500Y-52528846D01*
X55530261Y-52683489D01*
X55530264Y-52683501D01*
X55590602Y-52829172D01*
X55590609Y-52829185D01*
X55678210Y-52960288D01*
X55678213Y-52960292D01*
X55789707Y-53071786D01*
X55789711Y-53071789D01*
X55920814Y-53159390D01*
X55920827Y-53159397D01*
X56051409Y-53213485D01*
X56066503Y-53219737D01*
X56216131Y-53249500D01*
X56221153Y-53250499D01*
X56221156Y-53250500D01*
X56221158Y-53250500D01*
X56378844Y-53250500D01*
X56378845Y-53250499D01*
X56533497Y-53219737D01*
X56679179Y-53159394D01*
X56810289Y-53071789D01*
X56921789Y-52960289D01*
X57009394Y-52829179D01*
X57012719Y-52821153D01*
X57060463Y-52705886D01*
X57069737Y-52683497D01*
X57100500Y-52528842D01*
X57100500Y-52528835D01*
X57101097Y-52522782D01*
X57103130Y-52522982D01*
X57120185Y-52464902D01*
X57172989Y-52419147D01*
X57242147Y-52409203D01*
X57305703Y-52438228D01*
X57312181Y-52444260D01*
X57339707Y-52471786D01*
X57339711Y-52471789D01*
X57470814Y-52559390D01*
X57470827Y-52559397D01*
X57604830Y-52614902D01*
X57616503Y-52619737D01*
X57771153Y-52650499D01*
X57771156Y-52650500D01*
X57771158Y-52650500D01*
X57928844Y-52650500D01*
X57928845Y-52650499D01*
X58083497Y-52619737D01*
X58229179Y-52559394D01*
X58360289Y-52471789D01*
X58471789Y-52360289D01*
X58559394Y-52229179D01*
X58619737Y-52083497D01*
X58650500Y-51928842D01*
X58650500Y-51771158D01*
X58650500Y-51771155D01*
X58650499Y-51771153D01*
X58644133Y-51739149D01*
X58619737Y-51616503D01*
X58604138Y-51578843D01*
X58559397Y-51470827D01*
X58559390Y-51470814D01*
X58471789Y-51339711D01*
X58471786Y-51339707D01*
X58360292Y-51228213D01*
X58360288Y-51228210D01*
X58229185Y-51140609D01*
X58229172Y-51140602D01*
X58083501Y-51080264D01*
X58083489Y-51080261D01*
X57928845Y-51049500D01*
X57928842Y-51049500D01*
X57771158Y-51049500D01*
X57771155Y-51049500D01*
X57616510Y-51080261D01*
X57616498Y-51080264D01*
X57470827Y-51140602D01*
X57470814Y-51140609D01*
X57339711Y-51228210D01*
X57339707Y-51228213D01*
X57228213Y-51339707D01*
X57228210Y-51339711D01*
X57140609Y-51470814D01*
X57140602Y-51470827D01*
X57080264Y-51616498D01*
X57080261Y-51616510D01*
X57049500Y-51771153D01*
X57048903Y-51777218D01*
X57046869Y-51777017D01*
X57029815Y-51835098D01*
X56977011Y-51880853D01*
X56907853Y-51890797D01*
X56844297Y-51861772D01*
X56837819Y-51855740D01*
X56810292Y-51828213D01*
X56810288Y-51828210D01*
X56679185Y-51740609D01*
X56679172Y-51740602D01*
X56533501Y-51680264D01*
X56533489Y-51680261D01*
X56378845Y-51649500D01*
X56378842Y-51649500D01*
X56221158Y-51649500D01*
X56221155Y-51649500D01*
X56066510Y-51680261D01*
X56066498Y-51680264D01*
X55920827Y-51740602D01*
X55920814Y-51740609D01*
X55789711Y-51828210D01*
X55789707Y-51828213D01*
X55678213Y-51939707D01*
X55678210Y-51939711D01*
X55590609Y-52070814D01*
X55590602Y-52070827D01*
X55530264Y-52216498D01*
X55530261Y-52216510D01*
X55499500Y-52371153D01*
X40601509Y-52371153D01*
X40595828Y-52342594D01*
X40561832Y-52260521D01*
X40560376Y-52256090D01*
X40559401Y-52225643D01*
X40556144Y-52195349D01*
X40558293Y-52191054D01*
X40558140Y-52186256D01*
X40573782Y-52160112D01*
X40587420Y-52132870D01*
X40591549Y-52130420D01*
X40594015Y-52126299D01*
X40621311Y-52112761D01*
X40647509Y-52097218D01*
X40652307Y-52097389D01*
X40656609Y-52095256D01*
X40686889Y-52098624D01*
X40717334Y-52099712D01*
X40725600Y-52102794D01*
X40766503Y-52119737D01*
X40921153Y-52150499D01*
X40921156Y-52150500D01*
X40921158Y-52150500D01*
X41078844Y-52150500D01*
X41078845Y-52150499D01*
X41233497Y-52119737D01*
X41351592Y-52070821D01*
X41379172Y-52059397D01*
X41379172Y-52059396D01*
X41379179Y-52059394D01*
X41510289Y-51971789D01*
X41621789Y-51860289D01*
X41709394Y-51729179D01*
X41769737Y-51583497D01*
X41798209Y-51440357D01*
X41808912Y-51419896D01*
X41815372Y-51397726D01*
X41826385Y-51386490D01*
X41830593Y-51378447D01*
X41838429Y-51371005D01*
X41844375Y-51365830D01*
X41910289Y-51321789D01*
X41916010Y-51316068D01*
X43157128Y-51316068D01*
X43157128Y-51473761D01*
X43187889Y-51628404D01*
X43187892Y-51628416D01*
X43248230Y-51774087D01*
X43248237Y-51774100D01*
X43335838Y-51905203D01*
X43335841Y-51905207D01*
X43447335Y-52016701D01*
X43447339Y-52016704D01*
X43578442Y-52104305D01*
X43578455Y-52104312D01*
X43713170Y-52160112D01*
X43724131Y-52164652D01*
X43854590Y-52190602D01*
X43878781Y-52195414D01*
X43878784Y-52195415D01*
X43878786Y-52195415D01*
X44036472Y-52195415D01*
X44036473Y-52195414D01*
X44191125Y-52164652D01*
X44336807Y-52104309D01*
X44467917Y-52016704D01*
X44579417Y-51905204D01*
X44667022Y-51774094D01*
X44727365Y-51628412D01*
X44758128Y-51473757D01*
X44758128Y-51316073D01*
X44758128Y-51316070D01*
X44758127Y-51316068D01*
X44751005Y-51280263D01*
X44727365Y-51161418D01*
X44718746Y-51140609D01*
X44667025Y-51015742D01*
X44667018Y-51015729D01*
X44579417Y-50884626D01*
X44579414Y-50884622D01*
X44467920Y-50773128D01*
X44467916Y-50773125D01*
X44336813Y-50685524D01*
X44336800Y-50685517D01*
X44191129Y-50625179D01*
X44191117Y-50625176D01*
X44036473Y-50594415D01*
X44036470Y-50594415D01*
X43878786Y-50594415D01*
X43878783Y-50594415D01*
X43724138Y-50625176D01*
X43724126Y-50625179D01*
X43578455Y-50685517D01*
X43578442Y-50685524D01*
X43447339Y-50773125D01*
X43447335Y-50773128D01*
X43335841Y-50884622D01*
X43335838Y-50884626D01*
X43248237Y-51015729D01*
X43248230Y-51015742D01*
X43187892Y-51161413D01*
X43187889Y-51161425D01*
X43157128Y-51316068D01*
X41916010Y-51316068D01*
X42021789Y-51210289D01*
X42109394Y-51079179D01*
X42169737Y-50933497D01*
X42200500Y-50778842D01*
X42200500Y-50621158D01*
X42200500Y-50621155D01*
X42200499Y-50621153D01*
X42182204Y-50529179D01*
X42169737Y-50466503D01*
X42132696Y-50377079D01*
X42125228Y-50307613D01*
X42156503Y-50245134D01*
X42178362Y-50226530D01*
X42260289Y-50171789D01*
X42371789Y-50060289D01*
X42459394Y-49929179D01*
X42519737Y-49783497D01*
X42550500Y-49628842D01*
X42550500Y-49471158D01*
X42550500Y-49471155D01*
X42550499Y-49471153D01*
X42532419Y-49380261D01*
X42521137Y-49323543D01*
X44579499Y-49323543D01*
X44617947Y-49516829D01*
X44617950Y-49516839D01*
X44693364Y-49698907D01*
X44693371Y-49698920D01*
X44802860Y-49862781D01*
X44802863Y-49862785D01*
X44942214Y-50002136D01*
X44942218Y-50002139D01*
X45106079Y-50111628D01*
X45106092Y-50111635D01*
X45251314Y-50171787D01*
X45288165Y-50187051D01*
X45288169Y-50187051D01*
X45288170Y-50187052D01*
X45481456Y-50225500D01*
X45481459Y-50225500D01*
X45678543Y-50225500D01*
X45858462Y-50189711D01*
X45871835Y-50187051D01*
X46053914Y-50111632D01*
X46217782Y-50002139D01*
X46357139Y-49862782D01*
X46466632Y-49698914D01*
X46542051Y-49516835D01*
X46554632Y-49453582D01*
X46580500Y-49323543D01*
X46580500Y-48776333D01*
X46600185Y-48709294D01*
X46652989Y-48663539D01*
X46722147Y-48653595D01*
X46766501Y-48668947D01*
X46787859Y-48681278D01*
X46787860Y-48681278D01*
X46787865Y-48681281D01*
X46934234Y-48720500D01*
X46934236Y-48720500D01*
X47065603Y-48720500D01*
X47132642Y-48740185D01*
X47168705Y-48775609D01*
X47235160Y-48875066D01*
X47235163Y-48875070D01*
X47346657Y-48986564D01*
X47346661Y-48986567D01*
X47477764Y-49074168D01*
X47477777Y-49074175D01*
X47623448Y-49134513D01*
X47623453Y-49134515D01*
X47778103Y-49165277D01*
X47778106Y-49165278D01*
X47778108Y-49165278D01*
X47935794Y-49165278D01*
X47935795Y-49165277D01*
X48090447Y-49134515D01*
X48203116Y-49087845D01*
X48236122Y-49074175D01*
X48236122Y-49074174D01*
X48236129Y-49074172D01*
X48367239Y-48986567D01*
X48478739Y-48875067D01*
X48566344Y-48743957D01*
X48626687Y-48598275D01*
X48657450Y-48443620D01*
X48657450Y-48285936D01*
X48657450Y-48285933D01*
X48657449Y-48285931D01*
X48626688Y-48131288D01*
X48626687Y-48131281D01*
X48601782Y-48071153D01*
X50999500Y-48071153D01*
X50999500Y-48228846D01*
X51030261Y-48383489D01*
X51030264Y-48383501D01*
X51090602Y-48529172D01*
X51090609Y-48529185D01*
X51178210Y-48660288D01*
X51178213Y-48660292D01*
X51289707Y-48771786D01*
X51289711Y-48771789D01*
X51420814Y-48859390D01*
X51420827Y-48859397D01*
X51566498Y-48919735D01*
X51566503Y-48919737D01*
X51721153Y-48950499D01*
X51721156Y-48950500D01*
X51721158Y-48950500D01*
X51878844Y-48950500D01*
X51878845Y-48950499D01*
X52033497Y-48919737D01*
X52179179Y-48859394D01*
X52310289Y-48771789D01*
X52394668Y-48687409D01*
X52455989Y-48653925D01*
X52525680Y-48658909D01*
X52544348Y-48667704D01*
X52567861Y-48681279D01*
X52567862Y-48681279D01*
X52567865Y-48681281D01*
X52714234Y-48720500D01*
X52714236Y-48720500D01*
X52865764Y-48720500D01*
X52865766Y-48720500D01*
X53012135Y-48681281D01*
X53022451Y-48675325D01*
X53033499Y-48668947D01*
X53101398Y-48652473D01*
X53167426Y-48675325D01*
X53210617Y-48730245D01*
X53219500Y-48776333D01*
X53219500Y-49323541D01*
X53219500Y-49323543D01*
X53219499Y-49323543D01*
X53257947Y-49516829D01*
X53257950Y-49516839D01*
X53333364Y-49698907D01*
X53333371Y-49698920D01*
X53442860Y-49862781D01*
X53442863Y-49862785D01*
X53582214Y-50002136D01*
X53582218Y-50002139D01*
X53746079Y-50111628D01*
X53746092Y-50111635D01*
X53891314Y-50171787D01*
X53928165Y-50187051D01*
X53928169Y-50187051D01*
X53928170Y-50187052D01*
X54121456Y-50225500D01*
X54121459Y-50225500D01*
X54318543Y-50225500D01*
X54498462Y-50189711D01*
X54511835Y-50187051D01*
X54693914Y-50111632D01*
X54857782Y-50002139D01*
X54997139Y-49862782D01*
X55058363Y-49771153D01*
X59249500Y-49771153D01*
X59249500Y-49928846D01*
X59280261Y-50083489D01*
X59280264Y-50083501D01*
X59340602Y-50229172D01*
X59340609Y-50229185D01*
X59428210Y-50360288D01*
X59428213Y-50360292D01*
X59539707Y-50471786D01*
X59539711Y-50471789D01*
X59670814Y-50559390D01*
X59670827Y-50559397D01*
X59792131Y-50609642D01*
X59816503Y-50619737D01*
X59971153Y-50650499D01*
X59971156Y-50650500D01*
X59971158Y-50650500D01*
X60128844Y-50650500D01*
X60128845Y-50650499D01*
X60283497Y-50619737D01*
X60429179Y-50559394D01*
X60560289Y-50471789D01*
X60671789Y-50360289D01*
X60759394Y-50229179D01*
X60819737Y-50083497D01*
X60850500Y-49928842D01*
X60850500Y-49771158D01*
X60850500Y-49771155D01*
X60850499Y-49771153D01*
X60836131Y-49698920D01*
X60819737Y-49616503D01*
X60819735Y-49616498D01*
X60759397Y-49470827D01*
X60759390Y-49470814D01*
X60671789Y-49339711D01*
X60671786Y-49339707D01*
X60560292Y-49228213D01*
X60560288Y-49228210D01*
X60429185Y-49140609D01*
X60429172Y-49140602D01*
X60283501Y-49080264D01*
X60283489Y-49080261D01*
X60128845Y-49049500D01*
X60128842Y-49049500D01*
X59971158Y-49049500D01*
X59971155Y-49049500D01*
X59816510Y-49080261D01*
X59816498Y-49080264D01*
X59670827Y-49140602D01*
X59670814Y-49140609D01*
X59539711Y-49228210D01*
X59539707Y-49228213D01*
X59428213Y-49339707D01*
X59428210Y-49339711D01*
X59340609Y-49470814D01*
X59340602Y-49470827D01*
X59280264Y-49616498D01*
X59280261Y-49616510D01*
X59249500Y-49771153D01*
X55058363Y-49771153D01*
X55106632Y-49698914D01*
X55182051Y-49516835D01*
X55194632Y-49453582D01*
X55220500Y-49323543D01*
X55220500Y-48026456D01*
X55182052Y-47833170D01*
X55182051Y-47833169D01*
X55182051Y-47833165D01*
X55156230Y-47770827D01*
X55106635Y-47651092D01*
X55106628Y-47651079D01*
X54997139Y-47487218D01*
X54997136Y-47487214D01*
X54857785Y-47347863D01*
X54857781Y-47347860D01*
X54693920Y-47238371D01*
X54693907Y-47238364D01*
X54511839Y-47162950D01*
X54511829Y-47162947D01*
X54318543Y-47124500D01*
X54318541Y-47124500D01*
X54121459Y-47124500D01*
X54121457Y-47124500D01*
X53928170Y-47162947D01*
X53928160Y-47162950D01*
X53746092Y-47238364D01*
X53746079Y-47238371D01*
X53582218Y-47347860D01*
X53582214Y-47347863D01*
X53442863Y-47487214D01*
X53442860Y-47487218D01*
X53329983Y-47656151D01*
X53328534Y-47655182D01*
X53285356Y-47699122D01*
X53217215Y-47714570D01*
X53151540Y-47690725D01*
X53149493Y-47689188D01*
X53143368Y-47684488D01*
X53143365Y-47684485D01*
X53070519Y-47642427D01*
X53012136Y-47608719D01*
X52938950Y-47589109D01*
X52865766Y-47569500D01*
X52714234Y-47569500D01*
X52567865Y-47608719D01*
X52567862Y-47608720D01*
X52538006Y-47625957D01*
X52470105Y-47642427D01*
X52404079Y-47619573D01*
X52388328Y-47606249D01*
X52310292Y-47528213D01*
X52310288Y-47528210D01*
X52179185Y-47440609D01*
X52179172Y-47440602D01*
X52033501Y-47380264D01*
X52033489Y-47380261D01*
X51878845Y-47349500D01*
X51878842Y-47349500D01*
X51721158Y-47349500D01*
X51721155Y-47349500D01*
X51566510Y-47380261D01*
X51566498Y-47380264D01*
X51420827Y-47440602D01*
X51420814Y-47440609D01*
X51289711Y-47528210D01*
X51289707Y-47528213D01*
X51178213Y-47639707D01*
X51178210Y-47639711D01*
X51090609Y-47770814D01*
X51090602Y-47770827D01*
X51030264Y-47916498D01*
X51030261Y-47916510D01*
X50999500Y-48071153D01*
X48601782Y-48071153D01*
X48583269Y-48026459D01*
X48566347Y-47985605D01*
X48566340Y-47985592D01*
X48478739Y-47854489D01*
X48478736Y-47854485D01*
X48367242Y-47742991D01*
X48367238Y-47742988D01*
X48236135Y-47655387D01*
X48236122Y-47655380D01*
X48090451Y-47595042D01*
X48090439Y-47595039D01*
X47935795Y-47564278D01*
X47935792Y-47564278D01*
X47778108Y-47564278D01*
X47778105Y-47564278D01*
X47623460Y-47595039D01*
X47623448Y-47595042D01*
X47477778Y-47655380D01*
X47477767Y-47655386D01*
X47465483Y-47663594D01*
X47398804Y-47684468D01*
X47334597Y-47667875D01*
X47232138Y-47608720D01*
X47232135Y-47608719D01*
X47085766Y-47569500D01*
X46934234Y-47569500D01*
X46787863Y-47608719D01*
X46656627Y-47684489D01*
X46650502Y-47689190D01*
X46585333Y-47714383D01*
X46516888Y-47700343D01*
X46470976Y-47655509D01*
X46470017Y-47656151D01*
X46466982Y-47651609D01*
X46466899Y-47651528D01*
X46466766Y-47651286D01*
X46357139Y-47487218D01*
X46357136Y-47487214D01*
X46217785Y-47347863D01*
X46217781Y-47347860D01*
X46053920Y-47238371D01*
X46053907Y-47238364D01*
X45871839Y-47162950D01*
X45871829Y-47162947D01*
X45678543Y-47124500D01*
X45678541Y-47124500D01*
X45481459Y-47124500D01*
X45481457Y-47124500D01*
X45288170Y-47162947D01*
X45288160Y-47162950D01*
X45106092Y-47238364D01*
X45106079Y-47238371D01*
X44942218Y-47347860D01*
X44942214Y-47347863D01*
X44802863Y-47487214D01*
X44802860Y-47487218D01*
X44693371Y-47651079D01*
X44693364Y-47651092D01*
X44617950Y-47833160D01*
X44617947Y-47833170D01*
X44579500Y-48026456D01*
X44579500Y-48026459D01*
X44579500Y-49323541D01*
X44579500Y-49323543D01*
X44579499Y-49323543D01*
X42521137Y-49323543D01*
X42519737Y-49316503D01*
X42519735Y-49316498D01*
X42459397Y-49170827D01*
X42459390Y-49170814D01*
X42371789Y-49039711D01*
X42371786Y-49039707D01*
X42260292Y-48928213D01*
X42260288Y-48928210D01*
X42129185Y-48840609D01*
X42129172Y-48840602D01*
X41983501Y-48780264D01*
X41983489Y-48780261D01*
X41828845Y-48749500D01*
X41828842Y-48749500D01*
X41671158Y-48749500D01*
X41671155Y-48749500D01*
X41516510Y-48780261D01*
X41516498Y-48780264D01*
X41370827Y-48840602D01*
X41370814Y-48840609D01*
X41239711Y-48928210D01*
X41239707Y-48928213D01*
X41128213Y-49039707D01*
X41128210Y-49039711D01*
X41040609Y-49170814D01*
X41040602Y-49170827D01*
X40980264Y-49316498D01*
X40980261Y-49316510D01*
X40949500Y-49471153D01*
X40949500Y-49628846D01*
X40980261Y-49783489D01*
X40980264Y-49783501D01*
X41017302Y-49872919D01*
X41024771Y-49942388D01*
X40993495Y-50004867D01*
X40971632Y-50023473D01*
X40889710Y-50078210D01*
X40778213Y-50189707D01*
X40778210Y-50189711D01*
X40690609Y-50320814D01*
X40690602Y-50320827D01*
X40630264Y-50466498D01*
X40630261Y-50466508D01*
X40601790Y-50609642D01*
X40569405Y-50671553D01*
X40549064Y-50688552D01*
X40489711Y-50728210D01*
X40489707Y-50728213D01*
X40378213Y-50839707D01*
X40378210Y-50839711D01*
X40290609Y-50970814D01*
X40290602Y-50970827D01*
X40230264Y-51116498D01*
X40230261Y-51116510D01*
X40199500Y-51271153D01*
X40199500Y-51428846D01*
X40230261Y-51583489D01*
X40230263Y-51583496D01*
X40262478Y-51661273D01*
X40269946Y-51730742D01*
X40238670Y-51793221D01*
X40178580Y-51828873D01*
X40108755Y-51826378D01*
X40100464Y-51823285D01*
X40059592Y-51806355D01*
X40059580Y-51806352D01*
X39904936Y-51775591D01*
X39904933Y-51775591D01*
X39747249Y-51775591D01*
X39747244Y-51775591D01*
X39683659Y-51788239D01*
X39614067Y-51782012D01*
X39558890Y-51739149D01*
X39535646Y-51673259D01*
X39537850Y-51642434D01*
X39550500Y-51578842D01*
X39550500Y-51421158D01*
X39550500Y-51421155D01*
X39550499Y-51421153D01*
X39540524Y-51371005D01*
X39519737Y-51266503D01*
X39476208Y-51161413D01*
X39459397Y-51120827D01*
X39459390Y-51120814D01*
X39371789Y-50989711D01*
X39371786Y-50989707D01*
X39260292Y-50878213D01*
X39260288Y-50878210D01*
X39129185Y-50790609D01*
X39129172Y-50790602D01*
X38983501Y-50730264D01*
X38983489Y-50730261D01*
X38828845Y-50699500D01*
X38828842Y-50699500D01*
X38671158Y-50699500D01*
X38671155Y-50699500D01*
X38516510Y-50730261D01*
X38516498Y-50730264D01*
X38370827Y-50790602D01*
X38370814Y-50790609D01*
X38239711Y-50878210D01*
X38239707Y-50878213D01*
X38128213Y-50989707D01*
X38128210Y-50989711D01*
X38040609Y-51120814D01*
X38040602Y-51120827D01*
X37980264Y-51266498D01*
X37980261Y-51266510D01*
X37949500Y-51421153D01*
X36699727Y-51421153D01*
X36579185Y-51340609D01*
X36579172Y-51340602D01*
X36433501Y-51280264D01*
X36433489Y-51280261D01*
X36278845Y-51249500D01*
X36278842Y-51249500D01*
X36121158Y-51249500D01*
X36121155Y-51249500D01*
X35966510Y-51280261D01*
X35966498Y-51280264D01*
X35820827Y-51340602D01*
X35820814Y-51340609D01*
X35689711Y-51428210D01*
X35689707Y-51428213D01*
X35612181Y-51505740D01*
X35550858Y-51539225D01*
X35481166Y-51534241D01*
X35425233Y-51492369D01*
X35400816Y-51426905D01*
X35400500Y-51418059D01*
X35400500Y-50071153D01*
X35849500Y-50071153D01*
X35849500Y-50228846D01*
X35880261Y-50383489D01*
X35880264Y-50383501D01*
X35940602Y-50529172D01*
X35940609Y-50529185D01*
X36028210Y-50660288D01*
X36028213Y-50660292D01*
X36139707Y-50771786D01*
X36139711Y-50771789D01*
X36270814Y-50859390D01*
X36270827Y-50859397D01*
X36416498Y-50919735D01*
X36416503Y-50919737D01*
X36571153Y-50950499D01*
X36571156Y-50950500D01*
X36571158Y-50950500D01*
X36728844Y-50950500D01*
X36728845Y-50950499D01*
X36883497Y-50919737D01*
X37029179Y-50859394D01*
X37160289Y-50771789D01*
X37271789Y-50660289D01*
X37359394Y-50529179D01*
X37419737Y-50383497D01*
X37450500Y-50228842D01*
X37450500Y-50071158D01*
X37450500Y-50071155D01*
X37450499Y-50071153D01*
X37436771Y-50002139D01*
X37419737Y-49916503D01*
X37401684Y-49872919D01*
X37359397Y-49770827D01*
X37359390Y-49770814D01*
X37271789Y-49639711D01*
X37271786Y-49639707D01*
X37160292Y-49528213D01*
X37160288Y-49528210D01*
X37029185Y-49440609D01*
X37029172Y-49440602D01*
X36883501Y-49380264D01*
X36883489Y-49380261D01*
X36728845Y-49349500D01*
X36728842Y-49349500D01*
X36571158Y-49349500D01*
X36571155Y-49349500D01*
X36416510Y-49380261D01*
X36416498Y-49380264D01*
X36270827Y-49440602D01*
X36270814Y-49440609D01*
X36139711Y-49528210D01*
X36139707Y-49528213D01*
X36028213Y-49639707D01*
X36028210Y-49639711D01*
X35940609Y-49770814D01*
X35940602Y-49770827D01*
X35880264Y-49916498D01*
X35880261Y-49916510D01*
X35849500Y-50071153D01*
X35400500Y-50071153D01*
X35400500Y-48644168D01*
X35420185Y-48577129D01*
X35472989Y-48531374D01*
X35542147Y-48521430D01*
X35593392Y-48541067D01*
X35620812Y-48559389D01*
X35620827Y-48559397D01*
X35766498Y-48619735D01*
X35766503Y-48619737D01*
X35921153Y-48650499D01*
X35921156Y-48650500D01*
X35921158Y-48650500D01*
X36078844Y-48650500D01*
X36078845Y-48650499D01*
X36233497Y-48619737D01*
X36379179Y-48559394D01*
X36510289Y-48471789D01*
X36621789Y-48360289D01*
X36709394Y-48229179D01*
X36769737Y-48083497D01*
X36800500Y-47928842D01*
X36800500Y-47771158D01*
X36800500Y-47771155D01*
X36800499Y-47771153D01*
X36789207Y-47714383D01*
X36769737Y-47616503D01*
X36760847Y-47595041D01*
X36709397Y-47470827D01*
X36709390Y-47470814D01*
X36621789Y-47339711D01*
X36621786Y-47339707D01*
X36510292Y-47228213D01*
X36510288Y-47228210D01*
X36379185Y-47140609D01*
X36379172Y-47140602D01*
X36233501Y-47080264D01*
X36233489Y-47080261D01*
X36078845Y-47049500D01*
X36078842Y-47049500D01*
X35921158Y-47049500D01*
X35921155Y-47049500D01*
X35766510Y-47080261D01*
X35766498Y-47080264D01*
X35620827Y-47140602D01*
X35620816Y-47140608D01*
X35593390Y-47158934D01*
X35526712Y-47179811D01*
X35459332Y-47161326D01*
X35412643Y-47109346D01*
X35400500Y-47055831D01*
X35400500Y-43906959D01*
X35401280Y-43893077D01*
X35401320Y-43892717D01*
X35411459Y-43802727D01*
X35417635Y-43775668D01*
X35445353Y-43696457D01*
X35457393Y-43671453D01*
X35502046Y-43600389D01*
X35519351Y-43578690D01*
X35578690Y-43519351D01*
X35600389Y-43502046D01*
X35671453Y-43457393D01*
X35696457Y-43445353D01*
X35775668Y-43417635D01*
X35802729Y-43411459D01*
X35878753Y-43402893D01*
X35893078Y-43401280D01*
X35906960Y-43400500D01*
X35965892Y-43400500D01*
X44675589Y-43400500D01*
X44742628Y-43420185D01*
G37*
%TD.AperFunction*%
%TD*%
M02*
